<?xml version="1.0" encoding="UTF-8" standalone="no"?><svg xmlns="http://www.w3.org/2000/svg" xmlns:xlink="http://www.w3.org/1999/xlink" clip-rule="evenodd" stroke-miterlimit="10" viewBox="0 0 932 929"><desc>SVG generated by Keynote</desc><defs></defs><g transform="matrix(1.00, 0.00, -0.00, -1.00, 0.0, 929.0)"><g><clipPath id="clip0x6000004b5a20"><path d="M 278.7 927.2 L 931.5 652.8 L 657.1 0.0 L 4.3 274.4 Z M 278.7 927.2 "></path></clipPath><g clip-path="url(#clip0x6000004b5a20)"><path d="M 788.0 592.8 C 787.3 594.6 786.7 597.1 789.0 598.4 C 791.4 599.6 794.1 598.5 795.2 595.8 C 796.2 593.1 794.6 593.4 797.0 587.1 C 797.9 584.8 793.3 583.0 792.4 585.3 C 790.4 590.8 789.3 589.6 788.0 592.8 C 788.0 592.8 788.0 592.8 788.0 592.8 Z M 794.0 598.6 C 795.4 595.4 794.7 593.7 792.4 592.6 C 789.9 591.4 788.0 592.8 786.8 595.6 C 785.6 598.4 787.1 598.9 785.0 603.6 C 783.8 606.1 788.5 607.6 789.4 605.6 C 791.7 600.5 792.6 601.9 794.0 598.6 C 794.0 598.6 794.0 598.6 794.0 598.6 Z M 792.5 585.1 C 791.6 587.5 796.2 589.3 797.2 586.5 C 798.3 583.6 799.7 576.9 800.4 575.2 C 801.1 573.6 803.5 569.2 803.9 567.7 C 804.4 566.3 805.1 558.7 806.3 555.8 C 807.6 552.8 807.6 551.9 808.1 549.8 C 808.7 547.6 809.2 544.2 809.5 542.2 C 809.9 540.1 811.6 538.6 811.8 535.9 C 812.0 533.2 812.8 531.8 813.1 530.0 C 813.7 527.1 808.9 526.4 808.4 529.1 C 807.9 531.7 807.2 533.4 806.8 535.6 C 806.4 537.8 806.5 539.8 805.5 541.8 C 804.5 543.8 804.1 547.9 803.7 550.5 C 803.4 553.1 802.5 555.8 801.7 557.8 C 800.2 561.6 798.1 571.3 797.3 572.6 C 796.4 573.8 795.3 578.2 794.8 579.7 C 794.3 581.3 793.7 582.0 792.5 585.1 C 792.5 585.1 792.5 585.1 792.5 585.1 Z M 819.4 472.6 C 819.4 470.0 814.6 469.4 814.5 472.5 C 814.4 475.6 814.6 481.3 814.4 483.0 C 814.2 484.7 813.4 491.6 813.3 493.1 C 813.2 494.6 813.4 499.9 812.6 502.9 C 811.9 505.9 812.3 509.0 811.8 511.0 C 811.1 513.6 811.2 515.0 811.0 517.0 C 810.8 519.1 809.3 522.0 809.4 523.7 C 809.5 525.5 808.9 526.3 808.4 528.7 C 808.0 531.0 812.7 532.0 813.2 529.7 C 813.6 527.5 813.9 525.5 814.2 523.3 C 814.5 521.0 814.8 518.3 815.2 515.9 C 815.5 513.7 816.6 510.5 816.6 507.9 C 816.6 505.3 816.9 501.6 817.0 500.1 C 817.1 498.2 817.6 494.3 817.5 492.6 C 817.4 490.4 818.1 486.6 818.6 485.3 C 819.1 483.9 818.6 482.9 818.9 479.9 C 819.0 478.1 819.3 475.3 819.4 472.6 C 819.4 472.6 819.4 472.6 819.4 472.6 Z M 819.4 471.8 C 819.5 468.7 818.8 463.7 818.8 462.5 C 818.8 461.3 819.2 457.2 819.0 455.3 C 818.8 453.3 818.5 452.7 818.2 449.5 C 817.9 445.4 818.2 442.8 818.3 442.6 C 818.4 442.0 818.8 440.0 818.4 437.3 C 817.9 433.6 818.3 432.5 817.9 430.9 C 817.1 428.2 817.6 427.9 817.3 425.8 C 817.0 423.7 817.0 422.3 816.5 420.7 C 816.0 418.9 816.5 417.5 816.2 415.8 C 815.8 413.1 811.0 414.1 811.3 416.5 C 811.5 418.0 812.2 419.3 812.4 420.9 C 812.6 422.5 812.7 423.9 812.7 425.5 C 812.6 427.1 813.3 430.3 813.4 432.9 C 813.5 435.5 813.6 439.8 813.9 442.8 C 814.2 445.8 815.4 447.6 814.9 453.8 C 814.7 455.8 815.0 459.8 815.0 461.4 C 815.0 464.2 814.6 469.6 814.5 472.0 C 814.4 474.8 819.3 474.9 819.4 471.8 C 819.4 471.8 819.4 471.8 819.4 471.8 Z M 804.0 360.7 C 803.2 358.2 798.4 359.2 799.3 362.1 C 800.2 365.0 802.2 370.3 802.5 371.9 C 802.9 373.5 804.3 380.2 804.6 381.6 C 805.0 383.0 806.9 387.9 807.1 390.9 C 807.3 393.9 808.7 396.6 808.9 398.7 C 809.1 401.2 809.6 402.5 810.0 404.5 C 810.4 406.4 810.0 409.5 810.6 411.1 C 811.3 412.7 811.0 413.7 811.3 416.0 C 811.6 418.3 816.4 417.6 816.1 415.4 C 815.8 413.2 815.5 411.3 815.0 409.2 C 814.6 407.0 814.0 404.4 813.6 402.1 C 813.2 399.9 813.2 396.7 812.4 394.3 C 811.6 391.9 810.7 388.3 810.4 386.9 C 809.9 385.2 809.1 381.3 808.5 379.8 C 807.6 377.8 807.2 374.1 807.2 372.7 C 807.3 371.2 806.5 370.5 805.8 367.6 C 805.4 365.9 804.8 363.2 804.0 360.7 C 804.0 360.7 804.0 360.7 804.0 360.7 Z M 803.8 359.9 C 802.9 357.0 800.7 352.6 800.3 351.4 C 799.9 350.3 799.0 346.4 798.2 344.6 C 797.5 342.8 796.9 342.4 795.7 339.4 C 794.1 335.7 793.6 333.1 793.6 332.9 C 793.5 332.3 793.3 330.3 792.1 327.9 C 790.5 324.6 790.5 323.5 789.6 322.1 C 788.0 319.8 788.4 319.3 787.4 317.5 C 786.4 315.6 786.1 314.3 785.1 312.9 C 784.1 311.4 784.0 309.9 783.3 308.4 C 782.1 306.0 777.8 308.4 778.9 310.6 C 779.6 312.0 780.6 313.0 781.3 314.4 C 782.0 315.8 782.5 317.1 783.0 318.6 C 783.4 320.2 785.0 323.0 786.0 325.4 C 786.9 327.8 788.3 331.8 789.5 334.5 C 790.7 337.3 792.5 338.6 793.8 344.5 C 794.3 346.5 795.8 350.1 796.3 351.6 C 797.2 354.2 798.5 359.4 799.2 361.6 C 800.0 364.3 804.7 362.8 803.8 359.9 C 803.8 359.9 803.8 359.9 803.8 359.9 Z M 754.4 259.9 C 752.9 257.8 748.7 260.3 750.4 262.8 C 752.2 265.3 755.7 269.6 756.6 271.1 C 757.4 272.5 760.9 278.4 761.6 279.7 C 762.4 280.9 765.7 284.9 766.9 287.7 C 768.0 290.5 770.2 292.6 771.0 294.5 C 772.0 296.9 772.9 297.9 773.9 299.6 C 774.9 301.3 775.4 304.4 776.5 305.7 C 777.6 307.0 777.6 308.0 778.6 310.1 C 779.7 312.2 784.0 310.0 783.1 308.0 C 782.1 306.1 781.2 304.4 780.1 302.5 C 779.0 300.6 777.7 298.3 776.5 296.2 C 775.5 294.3 774.5 291.2 773.0 289.2 C 771.5 287.2 769.5 284.1 768.7 282.9 C 767.7 281.4 765.8 278.0 764.7 276.7 C 763.3 275.1 761.7 271.7 761.3 270.3 C 760.9 269.0 759.9 268.5 758.3 266.0 C 757.4 264.5 755.9 262.1 754.4 259.9 C 754.4 259.9 754.4 259.9 754.4 259.9 Z M 750.2 262.5 C 751.6 264.4 755.6 261.6 754.0 259.4 C 752.3 257.0 747.8 252.4 746.9 251.0 C 745.9 249.6 743.8 245.3 742.9 244.2 C 742.0 243.0 736.4 238.4 734.7 235.9 C 733.0 233.3 732.3 232.8 730.9 231.2 C 729.5 229.6 727.1 227.3 725.6 225.9 C 724.2 224.5 723.9 222.3 721.8 220.7 C 719.8 219.0 719.1 217.7 717.9 216.4 C 715.8 214.3 712.5 217.9 714.4 219.8 C 716.2 221.6 717.2 223.1 718.8 224.6 C 720.3 226.1 722.0 227.2 723.0 229.0 C 724.1 230.9 727.1 233.5 729.0 235.2 C 730.9 236.9 732.6 239.1 733.7 240.7 C 735.9 244.0 742.5 250.8 742.9 252.1 C 743.4 253.4 746.3 256.6 747.3 257.9 C 748.1 259.1 748.4 259.9 750.2 262.5 C 750.2 262.5 750.2 262.5 750.2 262.5 Z M 717.4 215.9 C 715.2 213.7 711.2 210.7 710.3 209.8 C 709.4 209.0 706.7 205.9 705.2 204.7 C 703.7 203.4 702.9 203.3 700.4 201.2 C 697.3 198.6 695.5 196.5 695.4 196.3 C 695.1 195.8 693.9 194.1 691.7 192.5 C 688.7 190.3 688.1 189.2 686.7 188.4 C 684.1 187.1 684.2 186.5 682.4 185.2 C 680.6 184.0 679.7 183.0 678.1 182.2 C 676.4 181.3 675.7 180.0 674.3 179.0 C 672.0 177.3 669.4 181.5 671.4 183.0 C 672.7 183.9 674.1 184.3 675.4 185.3 C 676.8 186.3 677.8 187.2 679.0 188.4 C 680.2 189.5 683.0 191.3 685.0 193.0 C 687.0 194.8 690.2 197.8 692.6 199.7 C 694.9 201.6 697.2 201.9 701.2 206.6 C 702.5 208.2 705.6 210.7 706.8 211.8 C 708.8 213.8 712.5 217.8 714.1 219.5 C 716.1 221.5 719.5 218.0 717.4 215.9 C 717.4 215.9 717.4 215.9 717.4 215.9 Z M 623.8 148.6 C 621.4 147.4 618.8 151.5 621.7 153.0 C 624.6 154.4 630.0 156.7 631.5 157.6 C 633.0 158.5 639.2 162.3 640.5 163.0 C 641.8 163.8 646.8 165.9 649.2 167.9 C 651.7 169.8 654.7 170.8 656.3 172.1 C 658.4 173.8 659.8 174.3 661.5 175.4 C 663.2 176.4 665.3 179.0 666.9 179.6 C 668.5 180.3 669.0 181.2 671.0 182.6 C 672.9 184.0 675.8 180.1 673.9 178.8 C 672.1 177.4 670.4 176.3 668.5 175.1 C 666.6 173.9 664.3 172.5 662.2 171.1 C 660.4 169.9 657.9 167.5 655.5 166.4 C 653.1 165.3 649.8 163.4 648.5 162.7 C 646.8 161.8 643.4 159.6 641.7 159.0 C 639.6 158.2 636.5 155.8 635.4 154.8 C 634.3 153.7 633.2 153.8 630.5 152.2 C 628.9 151.3 626.3 149.8 623.8 148.6 C 623.8 148.6 623.8 148.6 623.8 148.6 Z M 623.1 148.2 C 620.2 146.8 615.2 145.2 614.0 144.6 C 612.8 144.1 609.0 142.0 607.1 141.3 C 605.2 140.6 604.4 140.7 601.2 139.4 C 597.2 137.9 594.7 136.4 594.5 136.3 C 594.0 135.9 592.2 134.7 589.5 133.9 C 585.8 132.7 584.8 131.9 583.1 131.5 C 580.2 131.1 580.1 130.5 577.9 129.9 C 575.8 129.3 574.5 128.7 572.7 128.4 C 570.8 128.1 569.6 127.1 567.9 126.6 C 565.1 125.8 564.0 130.6 566.6 131.3 C 568.1 131.8 569.6 131.7 571.2 132.2 C 572.8 132.7 574.2 133.3 575.7 134.0 C 577.2 134.7 580.6 135.5 583.2 136.5 C 585.7 137.5 589.9 139.4 592.9 140.4 C 595.9 141.5 598.2 141.1 604.0 144.4 C 605.8 145.4 609.7 146.9 611.3 147.6 C 614.0 148.9 619.0 151.6 621.2 152.7 C 623.8 154.0 625.9 149.6 623.1 148.2 C 623.1 148.2 623.1 148.2 623.1 148.2 Z M 510.5 114.6 C 507.8 114.3 506.8 119.1 509.9 119.5 C 513.0 119.8 518.8 120.2 520.4 120.6 C 522.1 120.9 529.0 122.4 530.5 122.7 C 532.0 123.0 537.4 123.3 540.3 124.3 C 543.3 125.4 546.4 125.3 548.5 126.0 C 551.0 126.9 552.4 127.0 554.4 127.4 C 556.5 127.8 559.3 129.6 561.0 129.7 C 562.8 129.7 563.6 130.4 566.0 131.1 C 568.3 131.8 569.7 127.2 567.5 126.5 C 565.2 125.8 563.3 125.4 561.1 124.9 C 558.8 124.3 556.1 123.7 553.7 123.1 C 551.5 122.5 548.4 121.2 545.7 120.9 C 543.1 120.6 539.4 119.9 537.9 119.7 C 536.0 119.4 532.1 118.5 530.4 118.4 C 528.1 118.4 524.5 117.2 523.1 116.6 C 521.8 116.0 520.8 116.4 517.8 115.9 C 516.0 115.5 513.2 114.9 510.5 114.6 C 510.5 114.6 510.5 114.6 510.5 114.6 Z M 509.7 114.5 C 506.6 114.1 501.5 114.3 500.3 114.2 C 499.0 114.1 495.0 113.3 493.0 113.3 C 491.1 113.3 490.4 113.6 487.1 113.5 C 483.0 113.4 480.4 112.9 480.2 112.8 C 479.6 112.6 477.6 112.0 474.9 112.1 C 471.2 112.3 470.1 111.8 468.5 112.0 C 465.7 112.6 465.4 112.1 463.3 112.2 C 461.1 112.3 459.8 112.1 458.1 112.5 C 456.2 112.8 454.8 112.2 453.1 112.3 C 450.4 112.5 450.9 117.3 453.4 117.2 C 454.9 117.2 456.3 116.6 457.9 116.6 C 459.5 116.5 460.9 116.6 462.5 116.7 C 464.1 116.9 467.4 116.6 470.0 116.7 C 472.6 116.8 477.0 117.2 480.0 117.2 C 483.0 117.2 485.0 116.1 491.1 117.3 C 493.1 117.7 497.1 117.8 498.7 117.9 C 501.6 118.2 507.0 119.1 509.4 119.4 C 512.2 119.7 512.8 114.9 509.7 114.5 C 509.7 114.5 509.7 114.5 509.7 114.5 Z M 396.9 119.3 C 394.3 119.8 394.9 124.7 397.9 124.1 C 400.9 123.5 406.3 122.0 407.9 121.8 C 409.6 121.6 416.4 120.8 417.9 120.6 C 419.3 120.4 424.3 119.0 427.4 119.1 C 430.4 119.1 433.2 118.0 435.3 118.0 C 437.9 118.1 439.2 117.7 441.2 117.4 C 443.2 117.2 446.3 117.9 447.9 117.4 C 449.5 116.9 450.5 117.3 452.8 117.2 C 455.2 117.1 455.0 112.3 452.7 112.4 C 450.5 112.5 448.6 112.6 446.4 112.9 C 444.2 113.1 441.5 113.4 439.1 113.6 C 437.0 113.8 433.7 113.5 431.2 114.1 C 428.7 114.6 425.1 115.2 423.7 115.4 C 421.9 115.7 418.0 116.1 416.4 116.6 C 414.3 117.3 410.6 117.4 409.2 117.2 C 407.7 117.0 406.9 117.7 404.0 118.2 C 402.2 118.5 399.5 118.8 396.9 119.3 C 396.9 119.3 396.9 119.3 396.9 119.3 Z M 397.5 124.2 C 399.8 123.7 398.9 118.9 396.2 119.5 C 393.3 120.1 387.3 122.3 385.6 122.6 C 384.0 122.9 379.3 123.2 377.9 123.5 C 376.5 123.9 370.1 127.2 367.0 127.7 C 364.0 128.2 363.3 128.6 361.3 129.3 C 359.3 129.9 356.3 131.2 354.4 132.0 C 352.6 132.7 350.5 132.1 348.2 133.3 C 345.9 134.5 344.4 134.5 342.7 135.1 C 340.0 136.2 342.0 140.7 344.4 139.7 C 346.8 138.8 348.5 138.5 350.5 137.7 C 352.5 136.9 354.1 135.8 356.2 135.6 C 358.3 135.4 361.9 133.6 364.2 132.6 C 366.5 131.6 369.1 130.9 371.0 130.6 C 374.9 129.9 383.7 126.6 385.1 126.7 C 386.5 126.8 390.6 125.4 392.1 125.1 C 393.6 124.7 394.5 124.9 397.5 124.2 C 397.5 124.2 397.5 124.2 397.5 124.2 Z M 342.1 135.4 C 339.2 136.5 334.9 138.9 333.8 139.4 C 332.7 139.8 328.9 141.1 327.1 141.9 C 325.4 142.8 325.0 143.4 322.1 144.8 C 318.6 146.6 316.0 147.3 315.8 147.3 C 315.2 147.4 313.2 147.8 310.9 149.2 C 307.7 151.0 306.6 151.1 305.2 152.0 C 303.1 153.8 302.6 153.4 300.8 154.5 C 299.0 155.6 297.7 156.1 296.4 157.1 C 294.9 158.3 293.4 158.4 292.0 159.3 C 289.6 160.6 292.3 164.7 294.5 163.5 C 295.8 162.7 296.7 161.6 298.1 160.8 C 299.5 160.1 300.8 159.5 302.2 158.9 C 303.7 158.3 306.4 156.5 308.8 155.4 C 311.1 154.4 315.1 152.7 317.7 151.3 C 320.3 149.9 321.5 148.1 327.4 146.3 C 329.3 145.7 332.8 144.0 334.2 143.4 C 336.8 142.3 341.9 140.7 344.1 139.9 C 346.7 138.9 344.9 134.3 342.1 135.4 C 342.1 135.4 342.1 135.4 342.1 135.4 Z M 245.5 191.3 C 243.4 193.0 246.2 197.1 248.6 195.1 C 250.9 193.2 255.1 189.4 256.4 188.4 C 257.8 187.5 263.5 183.6 264.7 182.8 C 265.9 182.0 269.7 178.4 272.4 177.0 C 275.1 175.7 277.1 173.4 278.9 172.5 C 281.2 171.3 282.2 170.4 283.8 169.2 C 285.4 168.1 288.5 167.4 289.7 166.2 C 290.9 165.0 292.0 164.9 294.0 163.8 C 296.0 162.6 293.6 158.4 291.7 159.5 C 289.7 160.6 288.1 161.6 286.3 162.8 C 284.5 164.1 282.3 165.5 280.3 166.8 C 278.4 167.9 275.4 169.2 273.5 170.8 C 271.6 172.5 268.6 174.6 267.5 175.5 C 266.0 176.6 262.7 178.7 261.5 179.9 C 260.0 181.5 256.7 183.3 255.4 183.8 C 254.1 184.3 253.7 185.3 251.3 187.0 C 249.8 188.1 247.5 189.7 245.5 191.3 C 245.5 191.3 245.5 191.3 245.5 191.3 Z M 244.8 191.8 C 242.5 193.8 239.1 197.5 238.2 198.3 C 237.3 199.1 234.0 201.5 232.6 202.9 C 231.3 204.2 231.0 204.9 228.7 207.2 C 225.9 210.1 223.6 211.6 223.4 211.7 C 222.9 212.0 221.2 213.0 219.3 215.0 C 216.9 217.8 215.8 218.2 214.8 219.5 C 213.3 222.0 212.7 221.8 211.3 223.4 C 209.9 225.1 208.8 225.9 207.9 227.4 C 206.8 229.0 205.5 229.5 204.3 230.9 C 202.5 232.9 206.4 236.0 208.1 234.1 C 209.1 232.9 209.6 231.5 210.7 230.3 C 211.8 229.1 212.8 228.2 214.1 227.1 C 215.3 226.1 217.4 223.5 219.3 221.7 C 221.2 219.9 224.4 217.0 226.5 214.8 C 228.6 212.7 229.2 210.5 234.2 206.9 C 235.8 205.8 238.6 203.0 239.9 202.0 C 242.0 200.1 246.4 196.9 248.2 195.4 C 250.3 193.7 247.2 189.9 244.8 191.8 C 244.8 191.8 244.8 191.8 244.8 191.8 Z M 207.8 234.4 C 209.4 232.6 205.7 229.3 203.9 231.4 C 201.9 233.6 198.4 239.2 197.2 240.4 C 196.0 241.7 192.3 244.8 191.4 246.0 C 190.5 247.2 187.2 253.8 185.0 256.1 C 182.9 258.3 182.5 259.2 181.3 261.0 C 180.1 262.7 178.4 265.7 177.3 267.5 C 176.2 269.2 174.1 270.0 173.0 272.5 C 171.8 274.9 170.6 275.9 169.6 277.5 C 168.0 280.0 172.3 282.4 173.7 280.1 C 175.1 277.8 176.4 276.5 177.5 274.6 C 178.7 272.6 179.3 270.7 180.9 269.3 C 182.5 267.8 184.4 264.1 185.7 261.8 C 186.9 259.6 188.7 257.4 190.0 255.9 C 192.8 252.9 198.0 244.8 199.2 244.0 C 200.4 243.2 202.9 239.6 203.9 238.4 C 204.9 237.2 205.7 236.8 207.8 234.4 C 207.8 234.4 207.8 234.4 207.8 234.4 Z M 169.2 278.1 C 167.6 280.8 165.5 285.6 164.9 286.6 C 164.2 287.7 161.8 291.2 160.9 293.0 C 160.1 294.8 160.1 295.6 158.6 298.6 C 156.7 302.4 155.0 304.7 154.9 304.9 C 154.4 305.3 153.1 306.9 152.0 309.6 C 150.5 313.1 149.6 314.0 149.0 315.6 C 148.3 318.6 147.7 318.6 146.9 320.7 C 146.1 322.8 145.3 324.0 144.8 325.8 C 144.3 327.7 143.2 328.8 142.6 330.5 C 141.4 333.1 146.1 334.8 147.1 332.3 C 147.7 330.8 147.8 329.2 148.5 327.7 C 149.1 326.1 149.8 324.8 150.7 323.3 C 151.6 321.8 152.7 318.6 154.0 316.1 C 155.2 313.7 157.5 309.7 158.8 306.9 C 160.1 304.0 160.0 301.7 163.7 296.4 C 164.9 294.7 166.8 291.1 167.6 289.6 C 169.1 287.1 172.3 282.5 173.5 280.4 C 175.1 278.0 170.9 275.4 169.2 278.1 C 169.2 278.1 169.2 278.1 169.2 278.1 Z M 147.0 332.7 C 147.9 330.4 143.3 328.5 142.2 331.2 C 141.1 334.2 139.4 340.8 138.7 342.5 C 138.0 344.1 135.5 348.4 135.0 349.9 C 134.5 351.4 133.5 358.9 132.2 361.9 C 130.9 364.8 130.8 365.7 130.2 367.8 C 129.6 369.9 129.0 373.4 128.6 375.4 C 128.2 377.5 126.5 378.9 126.1 381.7 C 125.9 384.4 125.0 385.7 124.6 387.5 C 124.0 390.4 128.8 391.3 129.4 388.6 C 130.0 386.0 130.7 384.3 131.1 382.1 C 131.6 379.9 131.6 377.9 132.6 375.9 C 133.6 373.9 134.2 369.8 134.7 367.2 C 135.1 364.6 136.1 361.9 136.9 360.0 C 138.5 356.1 140.9 346.4 141.8 345.2 C 142.6 344.0 143.9 339.6 144.5 338.1 C 145.1 336.6 145.7 335.8 147.0 332.7 C 147.0 332.7 147.0 332.7 147.0 332.7 Z M 124.5 388.2 C 123.8 391.3 123.4 396.4 123.2 397.7 C 123.0 398.9 121.8 402.9 121.6 404.9 C 121.4 406.9 121.7 407.6 121.3 410.9 C 120.8 415.0 119.9 417.6 119.9 417.8 C 119.6 418.3 118.9 420.3 118.7 423.0 C 118.5 426.8 117.9 427.8 117.9 429.5 C 118.2 432.4 117.7 432.6 117.6 434.7 C 117.5 436.9 117.2 438.2 117.4 440.0 C 117.5 441.9 116.8 443.2 116.8 444.9 C 116.6 447.7 121.5 447.6 121.7 445.1 C 121.8 443.6 121.3 442.1 121.4 440.5 C 121.5 438.9 121.7 437.5 122.1 435.9 C 122.4 434.3 122.4 431.0 122.8 428.4 C 123.1 425.7 123.9 421.4 124.2 418.4 C 124.5 415.3 123.6 413.3 125.4 407.2 C 126.0 405.2 126.5 401.2 126.8 399.6 C 127.3 396.7 128.8 391.3 129.3 389.0 C 129.9 386.2 125.2 385.1 124.5 388.2 C 124.5 388.2 124.5 388.2 124.5 388.2 Z M 121.7 445.5 C 121.8 443.2 116.9 442.8 116.7 445.6 C 116.6 448.6 117.2 455.1 117.1 456.8 C 117.0 458.5 116.0 463.2 116.0 464.7 C 116.0 466.2 117.6 473.3 117.3 476.4 C 117.0 479.4 117.3 480.3 117.4 482.4 C 117.5 484.5 118.0 487.8 118.3 489.8 C 118.5 491.8 117.4 493.7 117.9 496.2 C 118.5 498.8 118.2 500.3 118.4 502.0 C 118.7 504.9 123.5 504.2 123.3 501.5 C 123.0 499.0 123.1 497.2 122.8 495.0 C 122.5 492.9 121.9 491.1 122.2 489.0 C 122.6 486.9 121.8 482.9 121.3 480.4 C 120.9 477.9 120.9 475.2 121.1 473.2 C 121.4 469.2 120.5 459.7 120.9 458.4 C 121.3 457.0 121.0 452.6 121.1 451.1 C 121.1 449.6 121.5 448.7 121.7 445.5 C 121.7 445.5 121.7 445.5 121.7 445.5 Z M 129.1 557.4 C 129.8 559.9 134.6 559.0 133.8 556.1 C 133.0 553.2 131.1 547.9 130.9 546.2 C 130.6 544.6 129.3 537.9 129.0 536.5 C 128.7 535.0 127.0 530.1 126.8 527.1 C 126.7 524.1 125.4 521.3 125.3 519.3 C 125.1 516.7 124.6 515.4 124.3 513.5 C 123.9 511.5 124.4 508.4 123.8 506.8 C 123.2 505.2 123.6 504.2 123.3 501.9 C 123.0 499.6 118.2 500.1 118.5 502.3 C 118.7 504.5 119.0 506.4 119.4 508.6 C 119.8 510.8 120.2 513.4 120.6 515.7 C 120.9 517.9 120.8 521.2 121.6 523.6 C 122.3 526.0 123.1 529.6 123.4 531.0 C 123.8 532.8 124.5 536.6 125.1 538.2 C 125.9 540.2 126.3 543.9 126.2 545.3 C 126.1 546.8 126.9 547.5 127.5 550.4 C 127.9 552.1 128.4 554.9 129.1 557.4 C 129.1 557.4 129.1 557.4 129.1 557.4 Z M 129.3 558.2 C 130.1 561.1 132.2 565.6 132.5 566.8 C 132.9 567.9 133.7 571.9 134.4 573.7 C 135.1 575.4 135.7 575.9 136.8 578.9 C 138.3 582.6 138.7 585.3 138.8 585.5 C 138.8 586.1 139.0 588.1 140.1 590.5 C 141.6 593.8 141.6 595.0 142.4 596.4 C 144.0 598.7 143.6 599.2 144.5 601.1 C 145.4 603.0 145.8 604.3 146.7 605.7 C 147.7 607.3 147.7 608.8 148.4 610.3 C 149.5 612.7 153.9 610.4 152.8 608.1 C 152.2 606.8 151.2 605.8 150.5 604.3 C 149.9 602.9 149.4 601.6 149.0 600.0 C 148.6 598.5 147.0 595.6 146.2 593.2 C 145.3 590.8 144.0 586.7 142.9 583.9 C 141.8 581.2 140.0 579.8 138.8 573.8 C 138.4 571.9 137.0 568.3 136.5 566.7 C 135.7 564.1 134.5 558.8 133.9 556.6 C 133.2 553.9 128.5 555.3 129.3 558.2 C 129.3 558.2 129.3 558.2 129.3 558.2 Z M 153.0 608.5 C 152.1 606.4 147.6 608.4 148.7 610.9 C 149.9 613.6 153.5 618.9 154.1 620.4 C 154.8 622.0 156.1 626.5 156.8 627.8 C 157.4 629.1 162.1 634.6 163.2 637.4 C 164.3 640.3 165.0 640.9 166.0 642.7 C 167.1 644.5 169.1 647.2 170.2 648.8 C 171.3 650.4 171.2 652.6 172.9 654.6 C 174.6 656.6 175.0 658.0 176.0 659.5 C 177.6 661.9 181.5 659.0 180.0 656.8 C 178.6 654.7 177.9 653.1 176.7 651.3 C 175.4 649.5 174.0 648.2 173.3 646.2 C 172.7 644.2 170.2 641.1 168.7 639.1 C 167.1 637.1 165.9 634.7 165.1 632.9 C 163.6 629.3 158.4 621.4 158.2 620.0 C 158.0 618.7 155.7 615.0 155.1 613.6 C 154.4 612.3 154.3 611.4 153.0 608.5 C 153.0 608.5 153.0 608.5 153.0 608.5 Z M 211.1 703.8 C 212.9 705.8 216.8 702.7 214.7 700.5 C 212.6 698.3 208.5 694.4 207.5 693.0 C 206.4 691.7 202.2 686.3 201.3 685.2 C 200.3 684.0 196.5 680.5 195.0 677.9 C 193.4 675.2 191.0 673.4 190.0 671.6 C 188.7 669.4 187.6 668.5 186.4 666.9 C 185.2 665.4 184.2 662.4 183.0 661.2 C 181.7 660.1 181.5 659.1 180.3 657.1 C 179.0 655.2 174.9 657.9 176.1 659.7 C 177.4 661.6 178.5 663.1 179.8 664.8 C 181.2 666.6 182.8 668.7 184.2 670.6 C 185.5 672.4 186.9 675.3 188.7 677.2 C 190.5 679.0 192.8 681.8 193.8 682.9 C 195.0 684.3 197.3 687.4 198.6 688.5 C 200.3 689.9 202.3 693.1 202.9 694.4 C 203.5 695.7 204.5 696.0 206.4 698.3 C 207.6 699.7 209.3 701.9 211.1 703.8 C 211.1 703.8 211.1 703.8 211.1 703.8 Z M 215.0 700.7 C 213.4 699.0 209.7 702.3 211.6 704.4 C 213.6 706.5 218.8 710.5 219.9 711.8 C 221.0 713.1 223.7 717.0 224.8 718.0 C 225.9 719.1 232.1 722.9 234.1 725.3 C 236.1 727.6 237.0 728.0 238.6 729.4 C 240.2 730.8 243.0 732.8 244.6 734.0 C 246.2 735.2 246.8 737.3 249.1 738.7 C 251.4 740.1 252.3 741.4 253.7 742.5 C 256.1 744.3 258.9 740.3 256.7 738.6 C 254.6 737.0 253.4 735.7 251.6 734.4 C 249.8 733.1 248.0 732.3 246.7 730.5 C 245.4 728.8 242.0 726.6 239.9 725.2 C 237.8 723.7 235.8 721.8 234.5 720.3 C 231.8 717.3 224.3 711.4 223.6 710.1 C 222.9 708.9 219.6 706.1 218.5 705.0 C 217.5 703.9 217.1 703.1 215.0 700.7 C 215.0 700.7 215.0 700.7 215.0 700.7 Z M 254.3 742.9 C 256.8 744.8 261.2 747.3 262.2 748.0 C 263.2 748.7 266.4 751.4 268.1 752.5 C 269.8 753.5 270.6 753.6 273.4 755.3 C 276.9 757.5 279.0 759.4 279.1 759.6 C 279.5 760.0 281.0 761.5 283.4 762.9 C 286.8 764.7 287.5 765.6 289.1 766.3 C 291.9 767.3 291.8 767.9 293.8 768.9 C 295.8 769.9 296.9 770.8 298.6 771.4 C 300.4 772.0 301.3 773.3 302.9 774.1 C 305.5 775.4 307.5 770.9 305.2 769.7 C 303.8 769.0 302.3 768.7 300.8 767.9 C 299.3 767.1 298.1 766.3 296.8 765.3 C 295.4 764.3 292.3 762.9 290.1 761.5 C 287.8 760.0 284.1 757.4 281.5 755.8 C 278.8 754.3 276.5 754.2 271.8 750.0 C 270.2 748.7 266.8 746.5 265.5 745.6 C 263.1 743.9 258.9 740.3 257.0 738.9 C 254.7 737.1 251.8 741.0 254.3 742.9 C 254.3 742.9 254.3 742.9 254.3 742.9 Z M 358.2 797.6 C 360.9 798.5 362.8 794.0 359.8 793.0 C 356.7 792.0 350.9 790.4 349.3 789.7 C 347.7 789.0 340.9 786.1 339.5 785.5 C 338.0 785.0 332.7 783.5 329.9 781.9 C 327.1 780.2 323.9 779.7 322.0 778.6 C 319.7 777.2 318.3 776.8 316.3 776.0 C 314.4 775.2 312.0 772.9 310.3 772.4 C 308.5 772.0 307.9 771.1 305.7 770.0 C 303.5 768.9 301.3 773.2 303.3 774.2 C 305.4 775.3 307.2 776.2 309.3 777.1 C 311.4 778.1 314.0 779.3 316.3 780.4 C 318.3 781.3 321.2 783.3 323.8 784.1 C 326.3 785.0 330.0 786.4 331.4 786.9 C 333.2 787.7 337.1 789.4 338.8 789.8 C 341.1 790.3 344.6 792.2 345.8 793.1 C 347.0 794.0 348.2 793.8 351.1 794.9 C 352.9 795.6 355.6 796.8 358.2 797.6 C 358.2 797.6 358.2 797.6 358.2 797.6 Z M 359.1 797.9 C 362.1 798.9 367.3 799.8 368.5 800.1 C 369.7 800.5 373.7 802.0 375.7 802.5 C 377.6 802.9 378.4 802.7 381.6 803.4 C 385.7 804.3 388.3 805.4 388.5 805.5 C 389.0 805.8 390.9 806.8 393.7 807.2 C 397.4 807.8 398.4 808.5 400.1 808.6 C 403.0 808.6 403.2 809.2 405.4 809.5 C 407.5 809.8 408.8 810.2 410.6 810.2 C 412.5 810.2 413.8 811.1 415.5 811.3 C 418.3 811.7 418.7 806.8 416.2 806.4 C 414.6 806.2 413.2 806.5 411.6 806.2 C 409.9 806.0 408.6 805.6 407.0 805.1 C 405.4 804.6 402.0 804.3 399.4 803.7 C 396.8 803.1 392.5 801.8 389.5 801.2 C 386.4 800.6 384.3 801.3 378.3 798.9 C 376.4 798.2 372.4 797.3 370.8 796.8 C 367.9 796.0 362.6 793.9 360.3 793.2 C 357.5 792.2 356.0 796.9 359.1 797.9 C 359.1 797.9 359.1 797.9 359.1 797.9 Z M 473.0 815.2 C 475.6 815.2 476.0 810.3 472.9 810.3 C 469.8 810.4 464.1 810.8 462.5 810.7 C 460.8 810.5 453.8 810.0 452.4 810.0 C 450.9 809.9 445.6 810.3 442.6 809.7 C 439.6 809.1 436.5 809.6 434.5 809.2 C 431.9 808.6 430.5 808.8 428.5 808.6 C 426.4 808.5 423.5 807.1 421.8 807.3 C 420.0 807.5 419.1 806.9 416.8 806.6 C 414.4 806.2 413.7 811.0 415.9 811.3 C 418.2 811.7 420.1 811.9 422.4 812.1 C 424.6 812.3 427.4 812.5 429.8 812.8 C 432.0 813.0 435.2 813.9 437.8 813.8 C 440.4 813.8 444.1 813.9 445.5 813.9 C 447.4 814.0 451.4 814.4 453.1 814.1 C 455.3 813.9 459.0 814.5 460.4 815.0 C 461.7 815.4 462.7 814.9 465.7 815.0 C 467.5 815.0 470.3 815.2 473.0 815.2 C 473.0 815.2 473.0 815.2 473.0 815.2 Z M 473.3 810.3 C 470.9 810.3 470.9 815.2 473.7 815.2 C 476.7 815.1 483.1 814.0 484.8 814.0 C 486.4 814.1 491.2 814.7 492.6 814.6 C 494.1 814.5 501.1 812.5 504.1 812.6 C 507.2 812.7 508.0 812.3 510.1 812.1 C 512.2 811.8 515.5 811.1 517.4 810.7 C 519.4 810.3 521.3 811.3 523.8 810.6 C 526.4 809.8 527.8 810.0 529.6 809.7 C 532.4 809.2 531.4 804.5 528.8 804.9 C 526.2 805.4 524.5 805.3 522.3 805.8 C 520.2 806.2 518.4 807.0 516.3 806.8 C 514.2 806.6 510.3 807.6 507.9 808.2 C 505.5 808.8 502.7 809.0 500.7 809.0 C 496.8 809.0 487.4 810.5 486.0 810.2 C 484.6 809.8 480.3 810.4 478.8 810.5 C 477.3 810.5 476.4 810.2 473.3 810.3 C 473.3 810.3 473.3 810.3 473.3 810.3 Z M 530.3 809.6 C 533.3 809.1 538.0 807.5 539.2 807.2 C 540.3 807.0 544.4 806.5 546.2 805.9 C 548.0 805.4 548.6 804.9 551.7 804.0 C 555.5 802.9 558.2 802.7 558.4 802.7 C 559.0 802.7 561.0 802.7 563.6 801.8 C 567.0 800.6 568.1 800.8 569.6 800.1 C 572.1 798.7 572.5 799.2 574.5 798.5 C 576.5 797.7 577.8 797.5 579.3 796.7 C 580.9 795.8 582.4 796.0 584.0 795.4 C 586.5 794.5 584.7 790.0 582.3 790.8 C 580.9 791.3 579.8 792.2 578.3 792.7 C 576.8 793.3 575.4 793.6 573.8 793.9 C 572.3 794.2 569.3 795.4 566.8 796.1 C 564.3 796.7 560.1 797.6 557.3 798.5 C 554.4 799.3 552.9 800.9 546.8 801.6 C 544.8 801.8 541.1 802.9 539.5 803.2 C 536.8 803.8 531.4 804.4 529.1 804.9 C 526.4 805.4 527.3 810.1 530.3 809.6 C 530.3 809.6 530.3 809.6 530.3 809.6 Z M 635.5 772.6 C 637.7 771.4 635.8 766.9 633.1 768.3 C 630.5 769.8 625.7 772.8 624.2 773.4 C 622.7 774.1 616.4 776.8 615.1 777.4 C 613.8 778.0 609.4 780.8 606.5 781.6 C 603.6 782.4 601.2 784.3 599.2 784.9 C 596.8 785.6 595.6 786.3 593.8 787.1 C 592.0 787.9 588.9 788.1 587.5 789.0 C 586.1 790.0 585.0 789.9 582.9 790.6 C 580.7 791.4 582.3 796.0 584.4 795.3 C 586.4 794.5 588.2 793.8 590.2 793.0 C 592.2 792.1 594.7 791.1 596.9 790.2 C 598.9 789.4 602.1 788.8 604.3 787.5 C 606.5 786.2 609.7 784.7 611.0 784.0 C 612.7 783.2 616.2 781.7 617.6 780.8 C 619.4 779.6 623.0 778.4 624.3 778.2 C 625.8 777.9 626.3 777.0 629.0 775.8 C 630.6 775.0 633.1 773.9 635.5 772.6 C 635.5 772.6 635.5 772.6 635.5 772.6 Z M 636.2 772.3 C 638.8 770.8 642.8 767.8 643.8 767.2 C 644.9 766.6 648.5 764.9 650.1 763.8 C 651.7 762.7 652.0 762.1 654.7 760.3 C 658.0 758.0 660.5 757.0 660.7 756.9 C 661.2 756.8 663.1 756.1 665.3 754.4 C 668.2 752.2 669.3 752.0 670.5 750.9 C 672.5 748.8 673.0 749.1 674.6 747.8 C 676.3 746.5 677.5 745.8 678.7 744.6 C 680.0 743.3 681.5 743.0 682.8 741.9 C 684.9 740.2 681.7 736.5 679.7 738.0 C 678.5 739.0 677.7 740.2 676.5 741.2 C 675.2 742.1 674.0 742.9 672.6 743.6 C 671.2 744.4 668.7 746.6 666.6 748.0 C 664.4 749.3 660.7 751.5 658.3 753.2 C 655.8 754.9 654.9 757.0 649.3 759.5 C 647.5 760.3 644.2 762.5 642.9 763.3 C 640.5 764.7 635.6 767.0 633.6 768.1 C 631.1 769.4 633.5 773.7 636.2 772.3 C 636.2 772.3 636.2 772.3 636.2 772.3 Z M 724.9 703.6 C 726.7 701.7 723.4 698.0 721.3 700.3 C 719.2 702.5 715.6 706.9 714.3 708.0 C 713.1 709.1 707.9 713.8 706.8 714.8 C 705.8 715.8 702.5 719.9 699.9 721.6 C 697.4 723.3 695.7 725.8 694.0 727.0 C 691.9 728.5 691.0 729.6 689.6 730.9 C 688.1 732.2 685.1 733.4 684.1 734.7 C 683.1 736.1 682.0 736.3 680.2 737.7 C 678.4 739.1 681.3 743.0 683.1 741.6 C 684.8 740.3 686.3 739.0 687.9 737.6 C 689.6 736.1 691.6 734.4 693.4 732.8 C 695.1 731.4 698.0 729.8 699.7 727.9 C 701.4 726.0 704.0 723.4 705.0 722.4 C 706.4 721.1 709.3 718.5 710.4 717.2 C 711.7 715.4 714.7 713.2 716.0 712.5 C 717.2 711.8 717.5 710.8 719.7 708.7 C 721.0 707.4 723.1 705.5 724.9 703.6 C 724.9 703.6 724.9 703.6 724.9 703.6 Z M 721.5 700.0 C 719.9 701.7 723.5 705.1 725.4 703.1 C 727.4 700.9 731.1 695.5 732.3 694.2 C 733.5 693.0 737.2 690.0 738.2 688.9 C 739.2 687.7 742.6 681.2 744.8 679.0 C 747.0 676.8 747.4 676.0 748.7 674.3 C 750.0 672.5 751.7 669.6 752.8 667.9 C 754.0 666.2 756.1 665.4 757.3 663.0 C 758.5 660.6 759.8 659.7 760.8 658.1 C 762.4 655.6 758.2 653.1 756.7 655.4 C 755.3 657.6 754.0 658.9 752.8 660.8 C 751.6 662.7 750.9 664.6 749.3 666.0 C 747.6 667.4 745.6 671.0 744.4 673.2 C 743.1 675.5 741.2 677.6 739.8 679.0 C 737.0 681.9 731.6 689.9 730.4 690.6 C 729.2 691.4 726.6 694.9 725.5 696.1 C 724.5 697.2 723.7 697.6 721.5 700.0 C 721.5 700.0 721.5 700.0 721.5 700.0 Z M 761.2 657.5 C 762.9 654.9 765.1 650.2 765.8 649.1 C 766.4 648.1 768.9 644.7 769.9 642.9 C 770.8 641.1 770.8 640.4 772.4 637.4 C 774.3 633.7 776.1 631.5 776.2 631.3 C 776.7 630.9 778.1 629.3 779.2 626.7 C 780.8 623.2 781.8 622.4 782.3 620.8 C 783.1 617.9 783.7 617.9 784.6 615.8 C 785.5 613.7 786.3 612.6 786.8 610.8 C 787.3 608.9 788.5 607.9 789.2 606.2 C 790.4 603.5 785.8 601.8 784.7 604.3 C 784.0 605.7 783.9 607.3 783.2 608.8 C 782.5 610.4 781.8 611.7 780.9 613.1 C 779.9 614.5 778.7 617.8 777.4 620.1 C 776.1 622.5 773.7 626.4 772.3 629.2 C 770.9 632.0 771.0 634.3 767.1 639.4 C 765.9 641.1 764.0 644.7 763.1 646.1 C 761.6 648.6 758.3 653.1 756.9 655.1 C 755.4 657.5 759.5 660.1 761.2 657.5 C 761.2 657.5 761.2 657.5 761.2 657.5 Z M 761.2 657.5 " fill="#3D4453"></path></g></g><g><clipPath id="clip0x6000004b5b40"><path d="M 785.8 568.1 L 760.2 630.9 L 787.6 642.1 L 813.2 579.3 Z M 785.8 568.1 "></path></clipPath><g clip-path="url(#clip0x6000004b5b40)"><path d="M 0.0 0.0 L 38.2 0.0 L 41.7 0.0 " fill="none" stroke="#3D4453" stroke-width="7.00" transform="matrix(-0.38, 0.93, 0.93, 0.38, 799.1, 574.6)"></path><path d="M 797.4 615.2 L 774.2 635.6 L 771.9 604.8 Z M 797.4 615.2 " fill="#3D4453"></path></g></g><g><clipPath id="clip0x6000004b5e40"><path d="M 232.4 701.9 L 190.0 655.6 L 168.2 675.6 L 210.6 721.9 Z M 232.4 701.9 "></path></clipPath><g clip-path="url(#clip0x6000004b5e40)"><path d="M 0.0 0.0 L 33.2 0.0 L 36.7 0.0 " fill="none" stroke="#3D4453" stroke-width="7.00" transform="matrix(-0.68, -0.74, -0.74, 0.68, 220.8, 711.2)"></path><path d="M 188.2 696.0 L 179.8 666.3 L 208.6 677.4 Z M 188.2 696.0 " fill="#3D4453"></path></g></g><g><clipPath id="clip0x6000004b6140"><path d="M 439.4 129.6 L 489.7 128.9 L 489.3 99.3 L 439.0 100.0 Z M 439.4 129.6 "></path></clipPath><g clip-path="url(#clip0x6000004b6140)"><path d="M 0.0 0.0 L 20.7 0.0 L 24.2 0.0 " fill="none" stroke="#FF2600" stroke-width="7.00" transform="matrix(1.00, -0.01, -0.01, -1.00, 440.2, 114.8)"></path><path d="M 460.7 100.7 L 488.5 114.1 L 461.1 128.3 Z M 460.7 100.7 " fill="#FF2600"></path></g></g></g></svg>