<?xml version="1.0" encoding="UTF-8" standalone="no"?><svg xmlns="http://www.w3.org/2000/svg" xmlns:xlink="http://www.w3.org/1999/xlink" clip-rule="evenodd" stroke-miterlimit="10" viewBox="0 0 1024 768"><desc>SVG generated by Keynote</desc><defs></defs><g transform="matrix(1.00, 0.00, -0.00, -1.00, 0.0, 768.0)"><g><clipPath id="clip0x6100008a6120"><path d="M 0.0 768.0 L 1024.0 768.0 L 1024.0 0.0 L 0.0 0.0 Z M 0.0 768.0 "></path></clipPath><g clip-path="url(#clip0x6100008a6120)"><image xlink:href="../../D8468060-C003-4ABF-A6BE-B4E537BF06BB/assets/574DCE55A4CF432400CBDDDE1DFDFC9B.jpeg" width="2048.00" height="1536.00" transform="matrix(0.50, 0.00, -0.00, -0.50, 0.0, 768.0)"></image></g></g><text xml:space="preserve" font-family="GillSans-Light,Gill Sans" font-size="72.0" fill="#525252" transform="matrix(1.00, 0.00, -0.00, -1.00, 257.9, 628.2)">.</text><text xml:space="preserve" font-family="GillSans-Light,Gill Sans" font-size="72.0" fill="#525252" transform="matrix(1.00, 0.00, -0.00, -1.00, 270.6, 628.2)">.</text><text xml:space="preserve" font-family="GillSans-Light,Gill Sans" font-size="72.0" fill="#525252" transform="matrix(1.00, 0.00, -0.00, -1.00, 283.3, 628.2)">.</text><text xml:space="preserve" font-family="GillSans-Light,Gill Sans" font-size="72.0" fill="#525252" transform="matrix(1.00, 0.00, -0.00, -1.00, 296.0, 628.2)">N</text><text xml:space="preserve" font-family="GillSans-Light,Gill Sans" font-size="72.0" fill="#525252" transform="matrix(1.00, 0.00, -0.00, -1.00, 351.5, 628.2)">O</text><text xml:space="preserve" font-family="GillSans-Light,Gill Sans" font-size="72.0" fill="#525252" transform="matrix(1.00, 0.00, -0.00, -1.00, 405.4, 628.2)">T</text><text xml:space="preserve" font-family="GillSans-Light,Gill Sans" font-size="72.0" fill="#525252" transform="matrix(1.00, 0.00, -0.00, -1.00, 446.7, 628.2)"> </text><text xml:space="preserve" font-family="GillSans-Light,Gill Sans" font-size="72.0" fill="#525252" transform="matrix(1.00, 0.00, -0.00, -1.00, 466.7, 628.2)">E</text><text xml:space="preserve" font-family="GillSans-Light,Gill Sans" font-size="72.0" fill="#525252" transform="matrix(1.00, 0.00, -0.00, -1.00, 502.0, 628.2)">M</text><text xml:space="preserve" font-family="GillSans-Light,Gill Sans" font-size="72.0" fill="#525252" transform="matrix(1.00, 0.00, -0.00, -1.00, 558.2, 628.2)">I</text><text xml:space="preserve" font-family="GillSans-Light,Gill Sans" font-size="72.0" fill="#525252" transform="matrix(1.00, 0.00, -0.00, -1.00, 573.2, 628.2)">T</text><text xml:space="preserve" font-family="GillSans-Light,Gill Sans" font-size="72.0" fill="#525252" transform="matrix(1.00, 0.00, -0.00, -1.00, 614.5, 628.2)">T</text><text xml:space="preserve" font-family="GillSans-Light,Gill Sans" font-size="72.0" fill="#525252" transform="matrix(1.00, 0.00, -0.00, -1.00, 655.8, 628.2)">E</text><text xml:space="preserve" font-family="GillSans-Light,Gill Sans" font-size="72.0" fill="#525252" transform="matrix(1.00, 0.00, -0.00, -1.00, 691.1, 628.2)">R</text><text xml:space="preserve" font-family="GillSans-Light,Gill Sans" font-size="72.0" fill="#525252" transform="matrix(1.00, 0.00, -0.00, -1.00, 732.4, 628.2)">S</text><text xml:space="preserve" font-family="GillSans-Light,Gill Sans" font-size="46.0" fill="#525252" transform="matrix(1.00, 0.00, -0.00, -1.00, 86.0, 483.5)">e</text><text xml:space="preserve" font-family="GillSans-Light,Gill Sans" font-size="46.0" fill="#525252" transform="matrix(1.00, 0.00, -0.00, -1.00, 108.0, 483.5)">m</text><text xml:space="preserve" font-family="GillSans-Light,Gill Sans" font-size="46.0" fill="#525252" transform="matrix(1.00, 0.00, -0.00, -1.00, 143.5, 483.5)">i</text><text xml:space="preserve" font-family="GillSans-Light,Gill Sans" font-size="46.0" fill="#525252" transform="matrix(1.00, 0.00, -0.00, -1.00, 152.1, 483.5)">t</text><text xml:space="preserve" font-family="GillSans-Light,Gill Sans" font-size="46.0" fill="#525252" transform="matrix(1.00, 0.00, -0.00, -1.00, 166.0, 483.5)">t</text><text xml:space="preserve" font-family="GillSans-Light,Gill Sans" font-size="46.0" fill="#525252" transform="matrix(1.00, 0.00, -0.00, -1.00, 179.9, 483.5)">e</text><text xml:space="preserve" font-family="GillSans-Light,Gill Sans" font-size="46.0" fill="#525252" transform="matrix(1.00, 0.00, -0.00, -1.00, 201.9, 483.5)">r</text><text xml:space="preserve" font-family="GillSans-Light,Gill Sans" font-size="46.0" fill="#525252" transform="matrix(1.00, 0.00, -0.00, -1.00, 219.1, 483.5)">s</text><text xml:space="preserve" font-family="GillSans-Light,Gill Sans" font-size="46.0" fill="#525252" transform="matrix(1.00, 0.00, -0.00, -1.00, 235.4, 483.5)"> </text><text xml:space="preserve" font-family="GillSans-Light,Gill Sans" font-size="46.0" fill="#525252" transform="matrix(1.00, 0.00, -0.00, -1.00, 248.1, 483.5)">e</text><text xml:space="preserve" font-family="GillSans-Light,Gill Sans" font-size="46.0" fill="#525252" transform="matrix(1.00, 0.00, -0.00, -1.00, 270.2, 483.5)">m</text><text xml:space="preserve" font-family="GillSans-Light,Gill Sans" font-size="46.0" fill="#525252" transform="matrix(1.00, 0.00, -0.00, -1.00, 305.6, 483.5)">i</text><text xml:space="preserve" font-family="GillSans-Light,Gill Sans" font-size="46.0" fill="#525252" transform="matrix(1.00, 0.00, -0.00, -1.00, 314.3, 483.5)">t</text><text xml:space="preserve" font-family="GillSans-Light,Gill Sans" font-size="46.0" fill="#525252" transform="matrix(1.00, 0.00, -0.00, -1.00, 328.2, 483.5)"> </text><text xml:space="preserve" font-family="GillSans-SemiBold,Gill Sans" font-weight="bold" font-size="46.0" fill="#525252" transform="matrix(1.00, 0.00, -0.00, -1.00, 341.0, 483.5)">m</text><text xml:space="preserve" font-family="GillSans-SemiBold,Gill Sans" font-weight="bold" font-size="46.0" fill="#525252" transform="matrix(1.00, 0.00, -0.00, -1.00, 379.9, 483.5)">u</text><text xml:space="preserve" font-family="GillSans-SemiBold,Gill Sans" font-weight="bold" font-size="46.0" fill="#525252" transform="matrix(1.00, 0.00, -0.00, -1.00, 404.8, 483.5)">l</text><text xml:space="preserve" font-family="GillSans-SemiBold,Gill Sans" font-weight="bold" font-size="46.0" fill="#525252" transform="matrix(1.00, 0.00, -0.00, -1.00, 416.2, 483.5)">t</text><text xml:space="preserve" font-family="GillSans-SemiBold,Gill Sans" font-weight="bold" font-size="46.0" fill="#525252" transform="matrix(1.00, 0.00, -0.00, -1.00, 433.1, 483.5)">i</text><text xml:space="preserve" font-family="GillSans-SemiBold,Gill Sans" font-weight="bold" font-size="46.0" fill="#525252" transform="matrix(1.00, 0.00, -0.00, -1.00, 444.6, 483.5)">p</text><text xml:space="preserve" font-family="GillSans-SemiBold,Gill Sans" font-weight="bold" font-size="46.0" fill="#525252" transform="matrix(1.00, 0.00, -0.00, -1.00, 469.8, 483.5)">l</text><text xml:space="preserve" font-family="GillSans-SemiBold,Gill Sans" font-weight="bold" font-size="46.0" fill="#525252" transform="matrix(1.00, 0.00, -0.00, -1.00, 481.2, 483.5)">e</text><text xml:space="preserve" font-family="GillSans-Light,Gill Sans" font-size="46.0" fill="#525252" transform="matrix(1.00, 0.00, -0.00, -1.00, 504.9, 483.5)"> </text><text xml:space="preserve" font-family="GillSans-Light,Gill Sans" font-size="46.0" fill="#525252" transform="matrix(1.00, 0.00, -0.00, -1.00, 517.7, 483.5)">v</text><text xml:space="preserve" font-family="GillSans-Light,Gill Sans" font-size="46.0" fill="#525252" transform="matrix(1.00, 0.00, -0.00, -1.00, 537.3, 483.5)">a</text><text xml:space="preserve" font-family="GillSans-Light,Gill Sans" font-size="46.0" fill="#525252" transform="matrix(1.00, 0.00, -0.00, -1.00, 556.9, 483.5)">l</text><text xml:space="preserve" font-family="GillSans-Light,Gill Sans" font-size="46.0" fill="#525252" transform="matrix(1.00, 0.00, -0.00, -1.00, 565.6, 483.5)">u</text><text xml:space="preserve" font-family="GillSans-Light,Gill Sans" font-size="46.0" fill="#525252" transform="matrix(1.00, 0.00, -0.00, -1.00, 588.1, 483.5)">e</text><text xml:space="preserve" font-family="GillSans-Light,Gill Sans" font-size="46.0" fill="#525252" transform="matrix(1.00, 0.00, -0.00, -1.00, 610.2, 483.5)">s</text><text xml:space="preserve" font-family="GillSans-Light,Gill Sans" font-size="46.0" fill="#525252" transform="matrix(1.00, 0.00, -0.00, -1.00, 626.4, 483.5)"> </text><text xml:space="preserve" font-family="GillSans-Light,Gill Sans" font-size="46.0" fill="#525252" transform="matrix(1.00, 0.00, -0.00, -1.00, 639.2, 483.5)">n</text><text xml:space="preserve" font-family="GillSans-Light,Gill Sans" font-size="46.0" fill="#525252" transform="matrix(1.00, 0.00, -0.00, -1.00, 661.8, 483.5)">o</text><text xml:space="preserve" font-family="GillSans-Light,Gill Sans" font-size="46.0" fill="#525252" transform="matrix(1.00, 0.00, -0.00, -1.00, 686.7, 483.5)">t</text><text xml:space="preserve" font-family="GillSans-Light,Gill Sans" font-size="46.0" fill="#525252" transform="matrix(1.00, 0.00, -0.00, -1.00, 700.6, 483.5)"> </text><text xml:space="preserve" font-family="GillSans-Light,Gill Sans" font-size="46.0" fill="#525252" transform="matrix(1.00, 0.00, -0.00, -1.00, 713.3, 483.5)">a</text><text xml:space="preserve" font-family="GillSans-Light,Gill Sans" font-size="46.0" fill="#525252" transform="matrix(1.00, 0.00, -0.00, -1.00, 733.0, 483.5)"> </text><text xml:space="preserve" font-family="GillSans-Light,Gill Sans" font-size="46.0" fill="#525252" transform="matrix(1.00, 0.00, -0.00, -1.00, 745.7, 483.5)">s</text><text xml:space="preserve" font-family="GillSans-Light,Gill Sans" font-size="46.0" fill="#525252" transform="matrix(1.00, 0.00, -0.00, -1.00, 762.0, 483.5)">i</text><text xml:space="preserve" font-family="GillSans-Light,Gill Sans" font-size="46.0" fill="#525252" transform="matrix(1.00, 0.00, -0.00, -1.00, 770.7, 483.5)">n</text><text xml:space="preserve" font-family="GillSans-Light,Gill Sans" font-size="46.0" fill="#525252" transform="matrix(1.00, 0.00, -0.00, -1.00, 793.2, 483.5)">g</text><text xml:space="preserve" font-family="GillSans-Light,Gill Sans" font-size="46.0" fill="#525252" transform="matrix(1.00, 0.00, -0.00, -1.00, 812.8, 483.5)">l</text><text xml:space="preserve" font-family="GillSans-Light,Gill Sans" font-size="46.0" fill="#525252" transform="matrix(1.00, 0.00, -0.00, -1.00, 821.5, 483.5)">e</text><text xml:space="preserve" font-family="GillSans-Light,Gill Sans" font-size="46.0" fill="#525252" transform="matrix(1.00, 0.00, -0.00, -1.00, 843.5, 483.5)"> </text><text xml:space="preserve" font-family="GillSans-Light,Gill Sans" font-size="46.0" fill="#525252" transform="matrix(1.00, 0.00, -0.00, -1.00, 856.3, 483.5)">v</text><text xml:space="preserve" font-family="GillSans-Light,Gill Sans" font-size="46.0" fill="#525252" transform="matrix(1.00, 0.00, -0.00, -1.00, 875.9, 483.5)">a</text><text xml:space="preserve" font-family="GillSans-Light,Gill Sans" font-size="46.0" fill="#525252" transform="matrix(1.00, 0.00, -0.00, -1.00, 895.5, 483.5)">l</text><text xml:space="preserve" font-family="GillSans-Light,Gill Sans" font-size="46.0" fill="#525252" transform="matrix(1.00, 0.00, -0.00, -1.00, 904.2, 483.5)">u</text><text xml:space="preserve" font-family="GillSans-Light,Gill Sans" font-size="46.0" fill="#525252" transform="matrix(1.00, 0.00, -0.00, -1.00, 926.8, 483.5)">e</text><text xml:space="preserve" font-family="GillSans-Light,Gill Sans" font-size="46.0" fill="#525252" transform="matrix(1.00, 0.00, -0.00, -1.00, 86.0, 374.0)">d</text><text xml:space="preserve" font-family="GillSans-Light,Gill Sans" font-size="46.0" fill="#525252" transform="matrix(1.00, 0.00, -0.00, -1.00, 109.4, 374.0)">o</text><text xml:space="preserve" font-family="GillSans-Light,Gill Sans" font-size="46.0" fill="#525252" transform="matrix(1.00, 0.00, -0.00, -1.00, 134.4, 374.0)"> </text><text xml:space="preserve" font-family="GillSans-Light,Gill Sans" font-size="46.0" fill="#525252" transform="matrix(1.00, 0.00, -0.00, -1.00, 147.1, 374.0)">n</text><text xml:space="preserve" font-family="GillSans-Light,Gill Sans" font-size="46.0" fill="#525252" transform="matrix(1.00, 0.00, -0.00, -1.00, 169.7, 374.0)">o</text><text xml:space="preserve" font-family="GillSans-Light,Gill Sans" font-size="46.0" fill="#525252" transform="matrix(1.00, 0.00, -0.00, -1.00, 194.6, 374.0)">t</text><text xml:space="preserve" font-family="GillSans-Light,Gill Sans" font-size="46.0" fill="#525252" transform="matrix(1.00, 0.00, -0.00, -1.00, 208.5, 374.0)"> </text><text xml:space="preserve" font-family="GillSans-Light,Gill Sans" font-size="46.0" fill="#525252" transform="matrix(1.00, 0.00, -0.00, -1.00, 221.3, 374.0)">f</text><text xml:space="preserve" font-family="GillSans-Light,Gill Sans" font-size="46.0" fill="#525252" transform="matrix(1.00, 0.00, -0.00, -1.00, 231.9, 374.0)">o</text><text xml:space="preserve" font-family="GillSans-Light,Gill Sans" font-size="46.0" fill="#525252" transform="matrix(1.00, 0.00, -0.00, -1.00, 256.8, 374.0)">l</text><text xml:space="preserve" font-family="GillSans-Light,Gill Sans" font-size="46.0" fill="#525252" transform="matrix(1.00, 0.00, -0.00, -1.00, 265.5, 374.0)">l</text><text xml:space="preserve" font-family="GillSans-Light,Gill Sans" font-size="46.0" fill="#525252" transform="matrix(1.00, 0.00, -0.00, -1.00, 274.1, 374.0)">o</text><text xml:space="preserve" font-family="GillSans-Light,Gill Sans" font-size="46.0" fill="#525252" transform="matrix(1.00, 0.00, -0.00, -1.00, 298.4, 374.0)">w</text><text xml:space="preserve" font-family="GillSans-Light,Gill Sans" font-size="46.0" fill="#525252" transform="matrix(1.00, 0.00, -0.00, -1.00, 330.9, 374.0)"> </text><text xml:space="preserve" font-family="GillSans-Light,Gill Sans" font-size="46.0" fill="#525252" transform="matrix(1.00, 0.00, -0.00, -1.00, 343.7, 374.0)">a</text><text xml:space="preserve" font-family="GillSans-Light,Gill Sans" font-size="46.0" fill="#525252" transform="matrix(1.00, 0.00, -0.00, -1.00, 363.3, 374.0)"> </text><text xml:space="preserve" font-family="GillSans-Light,Gill Sans" font-size="46.0" fill="#525252" transform="matrix(1.00, 0.00, -0.00, -1.00, 376.1, 374.0)">f</text><text xml:space="preserve" font-family="GillSans-Light,Gill Sans" font-size="46.0" fill="#525252" transform="matrix(1.00, 0.00, -0.00, -1.00, 387.1, 374.0)">u</text><text xml:space="preserve" font-family="GillSans-Light,Gill Sans" font-size="46.0" fill="#525252" transform="matrix(1.00, 0.00, -0.00, -1.00, 409.7, 374.0)">n</text><text xml:space="preserve" font-family="GillSans-Light,Gill Sans" font-size="46.0" fill="#525252" transform="matrix(1.00, 0.00, -0.00, -1.00, 432.3, 374.0)">c</text><text xml:space="preserve" font-family="GillSans-Light,Gill Sans" font-size="46.0" fill="#525252" transform="matrix(1.00, 0.00, -0.00, -1.00, 451.4, 374.0)">t</text><text xml:space="preserve" font-family="GillSans-Light,Gill Sans" font-size="46.0" fill="#525252" transform="matrix(1.00, 0.00, -0.00, -1.00, 465.3, 374.0)">i</text><text xml:space="preserve" font-family="GillSans-Light,Gill Sans" font-size="46.0" fill="#525252" transform="matrix(1.00, 0.00, -0.00, -1.00, 474.0, 374.0)">o</text><text xml:space="preserve" font-family="GillSans-Light,Gill Sans" font-size="46.0" fill="#525252" transform="matrix(1.00, 0.00, -0.00, -1.00, 498.9, 374.0)">n</text><text xml:space="preserve" font-family="GillSans-Light,Gill Sans" font-size="46.0" fill="#525252" transform="matrix(1.00, 0.00, -0.00, -1.00, 521.5, 374.0)"> </text><text xml:space="preserve" font-family="GillSans-Light,Gill Sans" font-size="46.0" fill="#525252" transform="matrix(1.00, 0.00, -0.00, -1.00, 534.2, 374.0)">c</text><text xml:space="preserve" font-family="GillSans-Light,Gill Sans" font-size="46.0" fill="#525252" transform="matrix(1.00, 0.00, -0.00, -1.00, 553.4, 374.0)">o</text><text xml:space="preserve" font-family="GillSans-Light,Gill Sans" font-size="46.0" fill="#525252" transform="matrix(1.00, 0.00, -0.00, -1.00, 578.3, 374.0)">n</text><text xml:space="preserve" font-family="GillSans-Light,Gill Sans" font-size="46.0" fill="#525252" transform="matrix(1.00, 0.00, -0.00, -1.00, 600.9, 374.0)">t</text><text xml:space="preserve" font-family="GillSans-Light,Gill Sans" font-size="46.0" fill="#525252" transform="matrix(1.00, 0.00, -0.00, -1.00, 614.8, 374.0)">r</text><text xml:space="preserve" font-family="GillSans-Light,Gill Sans" font-size="46.0" fill="#525252" transform="matrix(1.00, 0.00, -0.00, -1.00, 631.2, 374.0)">a</text><text xml:space="preserve" font-family="GillSans-Light,Gill Sans" font-size="46.0" fill="#525252" transform="matrix(1.00, 0.00, -0.00, -1.00, 650.9, 374.0)">c</text><text xml:space="preserve" font-family="GillSans-Light,Gill Sans" font-size="46.0" fill="#525252" transform="matrix(1.00, 0.00, -0.00, -1.00, 670.0, 374.0)">t</text><text xml:space="preserve" font-family="GillSans-Light,Gill Sans" font-size="46.0" fill="#525252" transform="matrix(1.00, 0.00, -0.00, -1.00, 86.0, 265.6)">t</text><text xml:space="preserve" font-family="GillSans-Light,Gill Sans" font-size="46.0" fill="#525252" transform="matrix(1.00, 0.00, -0.00, -1.00, 99.9, 265.6)">h</text><text xml:space="preserve" font-family="GillSans-Light,Gill Sans" font-size="46.0" fill="#525252" transform="matrix(1.00, 0.00, -0.00, -1.00, 122.4, 265.6)">i</text><text xml:space="preserve" font-family="GillSans-Light,Gill Sans" font-size="46.0" fill="#525252" transform="matrix(1.00, 0.00, -0.00, -1.00, 131.1, 265.6)">s</text><text xml:space="preserve" font-family="GillSans-Light,Gill Sans" font-size="46.0" fill="#525252" transform="matrix(1.00, 0.00, -0.00, -1.00, 147.4, 265.6)"> </text><text xml:space="preserve" font-family="GillSans-Light,Gill Sans" font-size="46.0" fill="#525252" transform="matrix(1.00, 0.00, -0.00, -1.00, 160.1, 265.6)">i</text><text xml:space="preserve" font-family="GillSans-Light,Gill Sans" font-size="46.0" fill="#525252" transform="matrix(1.00, 0.00, -0.00, -1.00, 168.8, 265.6)">n</text><text xml:space="preserve" font-family="GillSans-Light,Gill Sans" font-size="46.0" fill="#525252" transform="matrix(1.00, 0.00, -0.00, -1.00, 191.3, 265.6)">c</text><text xml:space="preserve" font-family="GillSans-Light,Gill Sans" font-size="46.0" fill="#525252" transform="matrix(1.00, 0.00, -0.00, -1.00, 210.5, 265.6)">l</text><text xml:space="preserve" font-family="GillSans-Light,Gill Sans" font-size="46.0" fill="#525252" transform="matrix(1.00, 0.00, -0.00, -1.00, 219.2, 265.6)">u</text><text xml:space="preserve" font-family="GillSans-Light,Gill Sans" font-size="46.0" fill="#525252" transform="matrix(1.00, 0.00, -0.00, -1.00, 241.7, 265.6)">d</text><text xml:space="preserve" font-family="GillSans-Light,Gill Sans" font-size="46.0" fill="#525252" transform="matrix(1.00, 0.00, -0.00, -1.00, 265.2, 265.6)">e</text><text xml:space="preserve" font-family="GillSans-Light,Gill Sans" font-size="46.0" fill="#525252" transform="matrix(1.00, 0.00, -0.00, -1.00, 287.2, 265.6)">s</text><text xml:space="preserve" font-family="GillSans-Light,Gill Sans" font-size="46.0" fill="#525252" transform="matrix(1.00, 0.00, -0.00, -1.00, 303.5, 265.6)"> </text><text xml:space="preserve" font-family="GillSans-Light,Gill Sans" font-size="46.0" fill="#525252" transform="matrix(1.00, 0.00, -0.00, -1.00, 316.3, 265.6)">t</text><text xml:space="preserve" font-family="GillSans-Light,Gill Sans" font-size="46.0" fill="#525252" transform="matrix(1.00, 0.00, -0.00, -1.00, 330.1, 265.6)">h</text><text xml:space="preserve" font-family="GillSans-Light,Gill Sans" font-size="46.0" fill="#525252" transform="matrix(1.00, 0.00, -0.00, -1.00, 352.7, 265.6)">i</text><text xml:space="preserve" font-family="GillSans-Light,Gill Sans" font-size="46.0" fill="#525252" transform="matrix(1.00, 0.00, -0.00, -1.00, 361.3, 265.6)">n</text><text xml:space="preserve" font-family="GillSans-Light,Gill Sans" font-size="46.0" fill="#525252" transform="matrix(1.00, 0.00, -0.00, -1.00, 383.9, 265.6)">g</text><text xml:space="preserve" font-family="GillSans-Light,Gill Sans" font-size="46.0" fill="#525252" transform="matrix(1.00, 0.00, -0.00, -1.00, 403.5, 265.6)">s</text><text xml:space="preserve" font-family="GillSans-Light,Gill Sans" font-size="46.0" fill="#525252" transform="matrix(1.00, 0.00, -0.00, -1.00, 419.8, 265.6)"> </text><text xml:space="preserve" font-family="GillSans-Light,Gill Sans" font-size="46.0" fill="#525252" transform="matrix(1.00, 0.00, -0.00, -1.00, 432.6, 265.6)">l</text><text xml:space="preserve" font-family="GillSans-Light,Gill Sans" font-size="46.0" fill="#525252" transform="matrix(1.00, 0.00, -0.00, -1.00, 441.2, 265.6)">i</text><text xml:space="preserve" font-family="GillSans-Light,Gill Sans" font-size="46.0" fill="#525252" transform="matrix(1.00, 0.00, -0.00, -1.00, 449.9, 265.6)">k</text><text xml:space="preserve" font-family="GillSans-Light,Gill Sans" font-size="46.0" fill="#525252" transform="matrix(1.00, 0.00, -0.00, -1.00, 469.0, 265.6)">e</text><text xml:space="preserve" font-family="GillSans-Light,Gill Sans" font-size="46.0" fill="#525252" transform="matrix(1.00, 0.00, -0.00, -1.00, 491.1, 265.6)">:</text><text xml:space="preserve" font-family="GillSans-Light,Gill Sans" font-size="46.0" fill="#525252" transform="matrix(1.00, 0.00, -0.00, -1.00, 495.5, 265.6)"> </text><text xml:space="preserve" font-family="GillSans-Light,Gill Sans" font-size="46.0" fill="#525252" transform="matrix(1.00, 0.00, -0.00, -1.00, 508.3, 265.6)">s</text><text xml:space="preserve" font-family="GillSans-Light,Gill Sans" font-size="46.0" fill="#525252" transform="matrix(1.00, 0.00, -0.00, -1.00, 524.6, 265.6)">e</text><text xml:space="preserve" font-family="GillSans-Light,Gill Sans" font-size="46.0" fill="#525252" transform="matrix(1.00, 0.00, -0.00, -1.00, 546.6, 265.6)">t</text><text xml:space="preserve" font-family="GillSans-Light,Gill Sans" font-size="46.0" fill="#525252" transform="matrix(1.00, 0.00, -0.00, -1.00, 560.5, 265.6)">I</text><text xml:space="preserve" font-family="GillSans-Light,Gill Sans" font-size="46.0" fill="#525252" transform="matrix(1.00, 0.00, -0.00, -1.00, 570.0, 265.6)">n</text><text xml:space="preserve" font-family="GillSans-Light,Gill Sans" font-size="46.0" fill="#525252" transform="matrix(1.00, 0.00, -0.00, -1.00, 592.6, 265.6)">t</text><text xml:space="preserve" font-family="GillSans-Light,Gill Sans" font-size="46.0" fill="#525252" transform="matrix(1.00, 0.00, -0.00, -1.00, 606.5, 265.6)">e</text><text xml:space="preserve" font-family="GillSans-Light,Gill Sans" font-size="46.0" fill="#525252" transform="matrix(1.00, 0.00, -0.00, -1.00, 628.5, 265.6)">r</text><text xml:space="preserve" font-family="GillSans-Light,Gill Sans" font-size="46.0" fill="#525252" transform="matrix(1.00, 0.00, -0.00, -1.00, 647.0, 265.6)">v</text><text xml:space="preserve" font-family="GillSans-Light,Gill Sans" font-size="46.0" fill="#525252" transform="matrix(1.00, 0.00, -0.00, -1.00, 666.7, 265.6)">a</text><text xml:space="preserve" font-family="GillSans-Light,Gill Sans" font-size="46.0" fill="#525252" transform="matrix(1.00, 0.00, -0.00, -1.00, 686.3, 265.6)">l</text><text xml:space="preserve" font-family="GillSans-Light,Gill Sans" font-size="46.0" fill="#525252" transform="matrix(1.00, 0.00, -0.00, -1.00, 694.9, 265.6)">,</text><text xml:space="preserve" font-family="GillSans-Light,Gill Sans" font-size="46.0" fill="#525252" transform="matrix(1.00, 0.00, -0.00, -1.00, 699.4, 265.6)"> </text><text xml:space="preserve" font-family="GillSans-Light,Gill Sans" font-size="46.0" fill="#525252" transform="matrix(1.00, 0.00, -0.00, -1.00, 712.1, 265.6)">s</text><text xml:space="preserve" font-family="GillSans-Light,Gill Sans" font-size="46.0" fill="#525252" transform="matrix(1.00, 0.00, -0.00, -1.00, 728.4, 265.6)">t</text><text xml:space="preserve" font-family="GillSans-Light,Gill Sans" font-size="46.0" fill="#525252" transform="matrix(1.00, 0.00, -0.00, -1.00, 742.3, 265.6)">r</text><text xml:space="preserve" font-family="GillSans-Light,Gill Sans" font-size="46.0" fill="#525252" transform="matrix(1.00, 0.00, -0.00, -1.00, 757.6, 265.6)">e</text><text xml:space="preserve" font-family="GillSans-Light,Gill Sans" font-size="46.0" fill="#525252" transform="matrix(1.00, 0.00, -0.00, -1.00, 779.6, 265.6)">a</text><text xml:space="preserve" font-family="GillSans-Light,Gill Sans" font-size="46.0" fill="#525252" transform="matrix(1.00, 0.00, -0.00, -1.00, 799.3, 265.6)">m</text><text xml:space="preserve" font-family="GillSans-Light,Gill Sans" font-size="46.0" fill="#525252" transform="matrix(1.00, 0.00, -0.00, -1.00, 834.7, 265.6)">s</text><text xml:space="preserve" font-family="GillSans-Light,Gill Sans" font-size="46.0" fill="#525252" transform="matrix(1.00, 0.00, -0.00, -1.00, 851.0, 265.6)">,</text><text xml:space="preserve" font-family="GillSans-Light,Gill Sans" font-size="46.0" fill="#525252" transform="matrix(1.00, 0.00, -0.00, -1.00, 855.5, 265.6)"> </text><text xml:space="preserve" font-family="GillSans-Light,Gill Sans" font-size="46.0" fill="#525252" transform="matrix(1.00, 0.00, -0.00, -1.00, 86.0, 203.2)">l</text><text xml:space="preserve" font-family="GillSans-Light,Gill Sans" font-size="46.0" fill="#525252" transform="matrix(1.00, 0.00, -0.00, -1.00, 94.6, 203.2)">i</text><text xml:space="preserve" font-family="GillSans-Light,Gill Sans" font-size="46.0" fill="#525252" transform="matrix(1.00, 0.00, -0.00, -1.00, 103.3, 203.2)">s</text><text xml:space="preserve" font-family="GillSans-Light,Gill Sans" font-size="46.0" fill="#525252" transform="matrix(1.00, 0.00, -0.00, -1.00, 119.6, 203.2)">t</text><text xml:space="preserve" font-family="GillSans-Light,Gill Sans" font-size="46.0" fill="#525252" transform="matrix(1.00, 0.00, -0.00, -1.00, 133.5, 203.2)">e</text><text xml:space="preserve" font-family="GillSans-Light,Gill Sans" font-size="46.0" fill="#525252" transform="matrix(1.00, 0.00, -0.00, -1.00, 155.5, 203.2)">n</text><text xml:space="preserve" font-family="GillSans-Light,Gill Sans" font-size="46.0" fill="#525252" transform="matrix(1.00, 0.00, -0.00, -1.00, 178.0, 203.2)">e</text><text xml:space="preserve" font-family="GillSans-Light,Gill Sans" font-size="46.0" fill="#525252" transform="matrix(1.00, 0.00, -0.00, -1.00, 200.1, 203.2)">r</text><text xml:space="preserve" font-family="GillSans-Light,Gill Sans" font-size="46.0" fill="#525252" transform="matrix(1.00, 0.00, -0.00, -1.00, 217.2, 203.2)">s</text></g></svg>