<?xml version="1.0" encoding="UTF-8" standalone="no"?><svg xmlns="http://www.w3.org/2000/svg" xmlns:xlink="http://www.w3.org/1999/xlink" clip-rule="evenodd" stroke-miterlimit="10" viewBox="0 0 1024 768"><desc>SVG generated by Keynote</desc><defs></defs><g transform="matrix(1.00, 0.00, -0.00, -1.00, 0.0, 768.0)"><path d="M 0.0 768.0 L 1024.0 768.0 L 1024.0 0.0 L 0.0 0.0 Z M 0.0 768.0 " fill="#FFA254"></path><text xml:space="preserve" font-family="GillSans-Light,Gill Sans" font-size="72.0" fill="#000000" transform="matrix(1.00, 0.00, -0.00, -1.00, 99.9, 360.2)">S</text><text xml:space="preserve" font-family="GillSans-Light,Gill Sans" font-size="72.0" fill="#000000" transform="matrix(1.00, 0.00, -0.00, -1.00, 133.7, 360.2)">I</text><text xml:space="preserve" font-family="GillSans-Light,Gill Sans" font-size="72.0" fill="#000000" transform="matrix(1.00, 0.00, -0.00, -1.00, 148.7, 360.2)">N</text><text xml:space="preserve" font-family="GillSans-Light,Gill Sans" font-size="72.0" fill="#000000" transform="matrix(1.00, 0.00, -0.00, -1.00, 204.2, 360.2)">G</text><text xml:space="preserve" font-family="GillSans-Light,Gill Sans" font-size="72.0" fill="#000000" transform="matrix(1.00, 0.00, -0.00, -1.00, 256.0, 360.2)">L</text><text xml:space="preserve" font-family="GillSans-Light,Gill Sans" font-size="72.0" fill="#000000" transform="matrix(1.00, 0.00, -0.00, -1.00, 289.8, 360.2)">E</text><text xml:space="preserve" font-family="GillSans-Light,Gill Sans" font-size="72.0" fill="#000000" transform="matrix(1.00, 0.00, -0.00, -1.00, 325.1, 360.2)"> </text><text xml:space="preserve" font-family="GillSans-Light,Gill Sans" font-size="72.0" fill="#000000" transform="matrix(1.00, 0.00, -0.00, -1.00, 340.8, 360.2)">A</text><text xml:space="preserve" font-family="GillSans-Light,Gill Sans" font-size="72.0" fill="#000000" transform="matrix(1.00, 0.00, -0.00, -1.00, 388.8, 360.2)">N</text><text xml:space="preserve" font-family="GillSans-Light,Gill Sans" font-size="72.0" fill="#000000" transform="matrix(1.00, 0.00, -0.00, -1.00, 444.3, 360.2)">D</text><text xml:space="preserve" font-family="GillSans-Light,Gill Sans" font-size="72.0" fill="#000000" transform="matrix(1.00, 0.00, -0.00, -1.00, 497.6, 360.2)"> </text><text xml:space="preserve" font-family="GillSans-Light,Gill Sans" font-size="72.0" fill="#000000" transform="matrix(1.00, 0.00, -0.00, -1.00, 517.6, 360.2)">M</text><text xml:space="preserve" font-family="GillSans-Light,Gill Sans" font-size="72.0" fill="#000000" transform="matrix(1.00, 0.00, -0.00, -1.00, 573.8, 360.2)">U</text><text xml:space="preserve" font-family="GillSans-Light,Gill Sans" font-size="72.0" fill="#000000" transform="matrix(1.00, 0.00, -0.00, -1.00, 624.1, 360.2)">L</text><text xml:space="preserve" font-family="GillSans-Light,Gill Sans" font-size="72.0" fill="#000000" transform="matrix(1.00, 0.00, -0.00, -1.00, 652.1, 360.2)">T</text><text xml:space="preserve" font-family="GillSans-Light,Gill Sans" font-size="72.0" fill="#000000" transform="matrix(1.00, 0.00, -0.00, -1.00, 693.4, 360.2)">I</text><text xml:space="preserve" font-family="GillSans-Light,Gill Sans" font-size="72.0" fill="#000000" transform="matrix(1.00, 0.00, -0.00, -1.00, 708.4, 360.2)"> </text><text xml:space="preserve" font-family="GillSans-Light,Gill Sans" font-size="72.0" fill="#000000" transform="matrix(1.00, 0.00, -0.00, -1.00, 718.3, 360.2)">V</text><text xml:space="preserve" font-family="GillSans-Light,Gill Sans" font-size="72.0" fill="#000000" transform="matrix(1.00, 0.00, -0.00, -1.00, 756.8, 360.2)">A</text><text xml:space="preserve" font-family="GillSans-Light,Gill Sans" font-size="72.0" fill="#000000" transform="matrix(1.00, 0.00, -0.00, -1.00, 804.8, 360.2)">L</text><text xml:space="preserve" font-family="GillSans-Light,Gill Sans" font-size="72.0" fill="#000000" transform="matrix(1.00, 0.00, -0.00, -1.00, 838.6, 360.2)">U</text><text xml:space="preserve" font-family="GillSans-Light,Gill Sans" font-size="72.0" fill="#000000" transform="matrix(1.00, 0.00, -0.00, -1.00, 888.9, 360.2)">E</text></g></svg>