<?xml version="1.0" encoding="UTF-8" standalone="no"?><svg xmlns="http://www.w3.org/2000/svg" xmlns:xlink="http://www.w3.org/1999/xlink" clip-rule="evenodd" stroke-miterlimit="10" viewBox="0 0 1024 768"><desc>SVG generated by Keynote</desc><defs></defs><g transform="matrix(1.00, 0.00, -0.00, -1.00, 0.0, 768.0)"><g><clipPath id="clip0x600000abe5a0"><path d="M 0.0 768.0 L 1024.0 768.0 L 1024.0 0.0 L 0.0 0.0 Z M 0.0 768.0 "></path></clipPath><g clip-path="url(#clip0x600000abe5a0)"><image xlink:href="../../D8468060-C003-4ABF-A6BE-B4E537BF06BB/assets/574DCE55A4CF432400CBDDDE1DFDFC9B.jpeg" width="2048.00" height="1536.00" transform="matrix(0.50, 0.00, -0.00, -0.50, 0.0, 768.0)"></image></g></g><text xml:space="preserve" font-family="GillSans-Light,Gill Sans" font-size="72.0" fill="#525252" transform="matrix(1.00, 0.00, -0.00, -1.00, 88.9, 628.2)">P</text><text xml:space="preserve" font-family="GillSans-Light,Gill Sans" font-size="72.0" fill="#525252" transform="matrix(1.00, 0.00, -0.00, -1.00, 125.6, 628.2)">R</text><text xml:space="preserve" font-family="GillSans-Light,Gill Sans" font-size="72.0" fill="#525252" transform="matrix(1.00, 0.00, -0.00, -1.00, 165.8, 628.2)">O</text><text xml:space="preserve" font-family="GillSans-Light,Gill Sans" font-size="72.0" fill="#525252" transform="matrix(1.00, 0.00, -0.00, -1.00, 225.1, 628.2)">M</text><text xml:space="preserve" font-family="GillSans-Light,Gill Sans" font-size="72.0" fill="#525252" transform="matrix(1.00, 0.00, -0.00, -1.00, 281.3, 628.2)">I</text><text xml:space="preserve" font-family="GillSans-Light,Gill Sans" font-size="72.0" fill="#525252" transform="matrix(1.00, 0.00, -0.00, -1.00, 296.3, 628.2)">S</text><text xml:space="preserve" font-family="GillSans-Light,Gill Sans" font-size="72.0" fill="#525252" transform="matrix(1.00, 0.00, -0.00, -1.00, 330.1, 628.2)">E</text><text xml:space="preserve" font-family="GillSans-Light,Gill Sans" font-size="72.0" fill="#525252" transform="matrix(1.00, 0.00, -0.00, -1.00, 365.4, 628.2)">S</text><text xml:space="preserve" font-family="GillSans-Light,Gill Sans" font-size="72.0" fill="#525252" transform="matrix(1.00, 0.00, -0.00, -1.00, 399.2, 628.2)"> </text><text xml:space="preserve" font-family="GillSans-Light,Gill Sans" font-size="72.0" fill="#525252" transform="matrix(1.00, 0.00, -0.00, -1.00, 419.2, 628.2)">M</text><text xml:space="preserve" font-family="GillSans-Light,Gill Sans" font-size="72.0" fill="#525252" transform="matrix(1.00, 0.00, -0.00, -1.00, 475.4, 628.2)">O</text><text xml:space="preserve" font-family="GillSans-Light,Gill Sans" font-size="72.0" fill="#525252" transform="matrix(1.00, 0.00, -0.00, -1.00, 534.7, 628.2)">D</text><text xml:space="preserve" font-family="GillSans-Light,Gill Sans" font-size="72.0" fill="#525252" transform="matrix(1.00, 0.00, -0.00, -1.00, 588.0, 628.2)">E</text><text xml:space="preserve" font-family="GillSans-Light,Gill Sans" font-size="72.0" fill="#525252" transform="matrix(1.00, 0.00, -0.00, -1.00, 623.3, 628.2)">L</text><text xml:space="preserve" font-family="GillSans-Light,Gill Sans" font-size="72.0" fill="#525252" transform="matrix(1.00, 0.00, -0.00, -1.00, 657.1, 628.2)"> </text><text xml:space="preserve" font-family="GillSans-Light,Gill Sans" font-size="72.0" fill="#525252" transform="matrix(1.00, 0.00, -0.00, -1.00, 677.1, 628.2)">F</text><text xml:space="preserve" font-family="GillSans-Light,Gill Sans" font-size="72.0" fill="#525252" transform="matrix(1.00, 0.00, -0.00, -1.00, 708.6, 628.2)">U</text><text xml:space="preserve" font-family="GillSans-Light,Gill Sans" font-size="72.0" fill="#525252" transform="matrix(1.00, 0.00, -0.00, -1.00, 758.9, 628.2)">N</text><text xml:space="preserve" font-family="GillSans-Light,Gill Sans" font-size="72.0" fill="#525252" transform="matrix(1.00, 0.00, -0.00, -1.00, 814.4, 628.2)">C</text><text xml:space="preserve" font-family="GillSans-Light,Gill Sans" font-size="72.0" fill="#525252" transform="matrix(1.00, 0.00, -0.00, -1.00, 863.1, 628.2)">S</text><text xml:space="preserve" font-family="GillSans-Light,Gill Sans" font-size="72.0" fill="#525252" transform="matrix(1.00, 0.00, -0.00, -1.00, 896.9, 628.2)">.</text><text xml:space="preserve" font-family="GillSans-Light,Gill Sans" font-size="72.0" fill="#525252" transform="matrix(1.00, 0.00, -0.00, -1.00, 909.7, 628.2)">.</text><text xml:space="preserve" font-family="GillSans-Light,Gill Sans" font-size="72.0" fill="#525252" transform="matrix(1.00, 0.00, -0.00, -1.00, 922.4, 628.2)">.</text><text xml:space="preserve" font-family="GillSans-SemiBold,Gill Sans" font-weight="bold" font-size="42.8" fill="#525252" transform="matrix(1.00, 0.00, -0.00, -1.00, 86.0, 505.7)">r</text><text xml:space="preserve" font-family="GillSans-SemiBold,Gill Sans" font-weight="bold" font-size="42.8" fill="#525252" transform="matrix(1.00, 0.00, -0.00, -1.00, 103.0, 505.7)">e</text><text xml:space="preserve" font-family="GillSans-SemiBold,Gill Sans" font-weight="bold" font-size="42.8" fill="#525252" transform="matrix(1.00, 0.00, -0.00, -1.00, 125.1, 505.7)">s</text><text xml:space="preserve" font-family="GillSans-SemiBold,Gill Sans" font-weight="bold" font-size="42.8" fill="#525252" transform="matrix(1.00, 0.00, -0.00, -1.00, 142.4, 505.7)">o</text><text xml:space="preserve" font-family="GillSans-SemiBold,Gill Sans" font-weight="bold" font-size="42.8" fill="#525252" transform="matrix(1.00, 0.00, -0.00, -1.00, 166.9, 505.7)">l</text><text xml:space="preserve" font-family="GillSans-SemiBold,Gill Sans" font-weight="bold" font-size="42.8" fill="#525252" transform="matrix(1.00, 0.00, -0.00, -1.00, 177.5, 505.7)">v</text><text xml:space="preserve" font-family="GillSans-SemiBold,Gill Sans" font-weight="bold" font-size="42.8" fill="#525252" transform="matrix(1.00, 0.00, -0.00, -1.00, 197.9, 505.7)">e</text><text xml:space="preserve" font-family="GillSans-Light,Gill Sans" font-size="42.8" fill="#525252" transform="matrix(1.00, 0.00, -0.00, -1.00, 220.0, 505.7)"> </text><text xml:space="preserve" font-family="GillSans-Light,Gill Sans" font-size="42.8" fill="#525252" transform="matrix(1.00, 0.00, -0.00, -1.00, 231.9, 505.7)">i</text><text xml:space="preserve" font-family="GillSans-Light,Gill Sans" font-size="42.8" fill="#525252" transform="matrix(1.00, 0.00, -0.00, -1.00, 239.9, 505.7)">s</text><text xml:space="preserve" font-family="GillSans-Light,Gill Sans" font-size="42.8" fill="#525252" transform="matrix(1.00, 0.00, -0.00, -1.00, 255.1, 505.7)"> </text><text xml:space="preserve" font-family="GillSans-Light,Gill Sans" font-size="42.8" fill="#525252" transform="matrix(1.00, 0.00, -0.00, -1.00, 266.9, 505.7)">a</text><text xml:space="preserve" font-family="GillSans-Light,Gill Sans" font-size="42.8" fill="#525252" transform="matrix(1.00, 0.00, -0.00, -1.00, 285.2, 505.7)">n</text><text xml:space="preserve" font-family="GillSans-Light,Gill Sans" font-size="42.8" fill="#525252" transform="matrix(1.00, 0.00, -0.00, -1.00, 306.2, 505.7)">a</text><text xml:space="preserve" font-family="GillSans-Light,Gill Sans" font-size="42.8" fill="#525252" transform="matrix(1.00, 0.00, -0.00, -1.00, 324.4, 505.7)">l</text><text xml:space="preserve" font-family="GillSans-Light,Gill Sans" font-size="42.8" fill="#525252" transform="matrix(1.00, 0.00, -0.00, -1.00, 332.5, 505.7)">o</text><text xml:space="preserve" font-family="GillSans-Light,Gill Sans" font-size="42.8" fill="#525252" transform="matrix(1.00, 0.00, -0.00, -1.00, 355.6, 505.7)">g</text><text xml:space="preserve" font-family="GillSans-Light,Gill Sans" font-size="42.8" fill="#525252" transform="matrix(1.00, 0.00, -0.00, -1.00, 373.9, 505.7)">o</text><text xml:space="preserve" font-family="GillSans-Light,Gill Sans" font-size="42.8" fill="#525252" transform="matrix(1.00, 0.00, -0.00, -1.00, 397.1, 505.7)">u</text><text xml:space="preserve" font-family="GillSans-Light,Gill Sans" font-size="42.8" fill="#525252" transform="matrix(1.00, 0.00, -0.00, -1.00, 418.1, 505.7)">s</text><text xml:space="preserve" font-family="GillSans-Light,Gill Sans" font-size="42.8" fill="#525252" transform="matrix(1.00, 0.00, -0.00, -1.00, 433.2, 505.7)"> </text><text xml:space="preserve" font-family="GillSans-Light,Gill Sans" font-size="42.8" fill="#525252" transform="matrix(1.00, 0.00, -0.00, -1.00, 445.1, 505.7)">t</text><text xml:space="preserve" font-family="GillSans-Light,Gill Sans" font-size="42.8" fill="#525252" transform="matrix(1.00, 0.00, -0.00, -1.00, 458.0, 505.7)">o</text><text xml:space="preserve" font-family="GillSans-Light,Gill Sans" font-size="42.8" fill="#525252" transform="matrix(1.00, 0.00, -0.00, -1.00, 481.2, 505.7)"> </text><text xml:space="preserve" font-family="GillSans-SemiBold,Gill Sans" font-weight="bold" font-size="42.8" fill="#525252" transform="matrix(1.00, 0.00, -0.00, -1.00, 493.1, 505.7)">r</text><text xml:space="preserve" font-family="GillSans-SemiBold,Gill Sans" font-weight="bold" font-size="42.8" fill="#525252" transform="matrix(1.00, 0.00, -0.00, -1.00, 510.1, 505.7)">e</text><text xml:space="preserve" font-family="GillSans-SemiBold,Gill Sans" font-weight="bold" font-size="42.8" fill="#525252" transform="matrix(1.00, 0.00, -0.00, -1.00, 532.2, 505.7)">t</text><text xml:space="preserve" font-family="GillSans-SemiBold,Gill Sans" font-weight="bold" font-size="42.8" fill="#525252" transform="matrix(1.00, 0.00, -0.00, -1.00, 548.0, 505.7)">u</text><text xml:space="preserve" font-family="GillSans-SemiBold,Gill Sans" font-weight="bold" font-size="42.8" fill="#525252" transform="matrix(1.00, 0.00, -0.00, -1.00, 571.1, 505.7)">r</text><text xml:space="preserve" font-family="GillSans-SemiBold,Gill Sans" font-weight="bold" font-size="42.8" fill="#525252" transform="matrix(1.00, 0.00, -0.00, -1.00, 589.0, 505.7)">n</text><text xml:space="preserve" font-family="GillSans-SemiBold,Gill Sans" font-weight="bold" font-size="42.8" fill="#525252" transform="matrix(1.00, 0.00, -0.00, -1.00, 86.0, 401.7)">r</text><text xml:space="preserve" font-family="GillSans-SemiBold,Gill Sans" font-weight="bold" font-size="42.8" fill="#525252" transform="matrix(1.00, 0.00, -0.00, -1.00, 103.0, 401.7)">e</text><text xml:space="preserve" font-family="GillSans-SemiBold,Gill Sans" font-weight="bold" font-size="42.8" fill="#525252" transform="matrix(1.00, 0.00, -0.00, -1.00, 125.1, 401.7)">j</text><text xml:space="preserve" font-family="GillSans-SemiBold,Gill Sans" font-weight="bold" font-size="42.8" fill="#525252" transform="matrix(1.00, 0.00, -0.00, -1.00, 135.7, 401.7)">e</text><text xml:space="preserve" font-family="GillSans-SemiBold,Gill Sans" font-weight="bold" font-size="42.8" fill="#525252" transform="matrix(1.00, 0.00, -0.00, -1.00, 157.8, 401.7)">c</text><text xml:space="preserve" font-family="GillSans-SemiBold,Gill Sans" font-weight="bold" font-size="42.8" fill="#525252" transform="matrix(1.00, 0.00, -0.00, -1.00, 177.5, 401.7)">t</text><text xml:space="preserve" font-family="GillSans-Light,Gill Sans" font-size="42.8" fill="#525252" transform="matrix(1.00, 0.00, -0.00, -1.00, 193.3, 401.7)"> </text><text xml:space="preserve" font-family="GillSans-Light,Gill Sans" font-size="42.8" fill="#525252" transform="matrix(1.00, 0.00, -0.00, -1.00, 205.2, 401.7)">i</text><text xml:space="preserve" font-family="GillSans-Light,Gill Sans" font-size="42.8" fill="#525252" transform="matrix(1.00, 0.00, -0.00, -1.00, 213.2, 401.7)">s</text><text xml:space="preserve" font-family="GillSans-Light,Gill Sans" font-size="42.8" fill="#525252" transform="matrix(1.00, 0.00, -0.00, -1.00, 228.4, 401.7)"> </text><text xml:space="preserve" font-family="GillSans-Light,Gill Sans" font-size="42.8" fill="#525252" transform="matrix(1.00, 0.00, -0.00, -1.00, 240.2, 401.7)">a</text><text xml:space="preserve" font-family="GillSans-Light,Gill Sans" font-size="42.8" fill="#525252" transform="matrix(1.00, 0.00, -0.00, -1.00, 258.5, 401.7)">n</text><text xml:space="preserve" font-family="GillSans-Light,Gill Sans" font-size="42.8" fill="#525252" transform="matrix(1.00, 0.00, -0.00, -1.00, 279.5, 401.7)">a</text><text xml:space="preserve" font-family="GillSans-Light,Gill Sans" font-size="42.8" fill="#525252" transform="matrix(1.00, 0.00, -0.00, -1.00, 297.7, 401.7)">l</text><text xml:space="preserve" font-family="GillSans-Light,Gill Sans" font-size="42.8" fill="#525252" transform="matrix(1.00, 0.00, -0.00, -1.00, 305.8, 401.7)">o</text><text xml:space="preserve" font-family="GillSans-Light,Gill Sans" font-size="42.8" fill="#525252" transform="matrix(1.00, 0.00, -0.00, -1.00, 329.0, 401.7)">g</text><text xml:space="preserve" font-family="GillSans-Light,Gill Sans" font-size="42.8" fill="#525252" transform="matrix(1.00, 0.00, -0.00, -1.00, 347.2, 401.7)">o</text><text xml:space="preserve" font-family="GillSans-Light,Gill Sans" font-size="42.8" fill="#525252" transform="matrix(1.00, 0.00, -0.00, -1.00, 370.4, 401.7)">u</text><text xml:space="preserve" font-family="GillSans-Light,Gill Sans" font-size="42.8" fill="#525252" transform="matrix(1.00, 0.00, -0.00, -1.00, 391.4, 401.7)">s</text><text xml:space="preserve" font-family="GillSans-Light,Gill Sans" font-size="42.8" fill="#525252" transform="matrix(1.00, 0.00, -0.00, -1.00, 406.5, 401.7)"> </text><text xml:space="preserve" font-family="GillSans-Light,Gill Sans" font-size="42.8" fill="#525252" transform="matrix(1.00, 0.00, -0.00, -1.00, 418.4, 401.7)">t</text><text xml:space="preserve" font-family="GillSans-Light,Gill Sans" font-size="42.8" fill="#525252" transform="matrix(1.00, 0.00, -0.00, -1.00, 431.3, 401.7)">o</text><text xml:space="preserve" font-family="GillSans-Light,Gill Sans" font-size="42.8" fill="#525252" transform="matrix(1.00, 0.00, -0.00, -1.00, 454.5, 401.7)"> </text><text xml:space="preserve" font-family="GillSans-SemiBold,Gill Sans" font-weight="bold" font-size="42.8" fill="#525252" transform="matrix(1.00, 0.00, -0.00, -1.00, 466.4, 401.7)">t</text><text xml:space="preserve" font-family="GillSans-SemiBold,Gill Sans" font-weight="bold" font-size="42.8" fill="#525252" transform="matrix(1.00, 0.00, -0.00, -1.00, 482.2, 401.7)">h</text><text xml:space="preserve" font-family="GillSans-SemiBold,Gill Sans" font-weight="bold" font-size="42.8" fill="#525252" transform="matrix(1.00, 0.00, -0.00, -1.00, 505.3, 401.7)">r</text><text xml:space="preserve" font-family="GillSans-SemiBold,Gill Sans" font-weight="bold" font-size="42.8" fill="#525252" transform="matrix(1.00, 0.00, -0.00, -1.00, 522.4, 401.7)">o</text><text xml:space="preserve" font-family="GillSans-SemiBold,Gill Sans" font-weight="bold" font-size="42.8" fill="#525252" transform="matrix(1.00, 0.00, -0.00, -1.00, 546.9, 401.7)">w</text><text xml:space="preserve" font-family="GillSans-Light,Gill Sans" font-size="42.8" fill="#525252" transform="matrix(1.00, 0.00, -0.00, -1.00, 86.0, 297.7)">f</text><text xml:space="preserve" font-family="GillSans-Light,Gill Sans" font-size="42.8" fill="#525252" transform="matrix(1.00, 0.00, -0.00, -1.00, 96.3, 297.7)">u</text><text xml:space="preserve" font-family="GillSans-Light,Gill Sans" font-size="42.8" fill="#525252" transform="matrix(1.00, 0.00, -0.00, -1.00, 117.3, 297.7)">n</text><text xml:space="preserve" font-family="GillSans-Light,Gill Sans" font-size="42.8" fill="#525252" transform="matrix(1.00, 0.00, -0.00, -1.00, 138.2, 297.7)">c</text><text xml:space="preserve" font-family="GillSans-Light,Gill Sans" font-size="42.8" fill="#525252" transform="matrix(1.00, 0.00, -0.00, -1.00, 156.1, 297.7)">t</text><text xml:space="preserve" font-family="GillSans-Light,Gill Sans" font-size="42.8" fill="#525252" transform="matrix(1.00, 0.00, -0.00, -1.00, 169.0, 297.7)">i</text><text xml:space="preserve" font-family="GillSans-Light,Gill Sans" font-size="42.8" fill="#525252" transform="matrix(1.00, 0.00, -0.00, -1.00, 177.0, 297.7)">o</text><text xml:space="preserve" font-family="GillSans-Light,Gill Sans" font-size="42.8" fill="#525252" transform="matrix(1.00, 0.00, -0.00, -1.00, 200.2, 297.7)">n</text><text xml:space="preserve" font-family="GillSans-Light,Gill Sans" font-size="42.8" fill="#525252" transform="matrix(1.00, 0.00, -0.00, -1.00, 221.2, 297.7)">s</text><text xml:space="preserve" font-family="GillSans-Light,Gill Sans" font-size="42.8" fill="#525252" transform="matrix(1.00, 0.00, -0.00, -1.00, 236.3, 297.7)"> </text><text xml:space="preserve" font-family="GillSans-Light,Gill Sans" font-size="42.8" fill="#525252" transform="matrix(1.00, 0.00, -0.00, -1.00, 248.2, 297.7)">o</text><text xml:space="preserve" font-family="GillSans-Light,Gill Sans" font-size="42.8" fill="#525252" transform="matrix(1.00, 0.00, -0.00, -1.00, 271.4, 297.7)">n</text><text xml:space="preserve" font-family="GillSans-Light,Gill Sans" font-size="42.8" fill="#525252" transform="matrix(1.00, 0.00, -0.00, -1.00, 292.4, 297.7)">l</text><text xml:space="preserve" font-family="GillSans-Light,Gill Sans" font-size="42.8" fill="#525252" transform="matrix(1.00, 0.00, -0.00, -1.00, 300.0, 297.7)">y</text><text xml:space="preserve" font-family="GillSans-Light,Gill Sans" font-size="42.8" fill="#525252" transform="matrix(1.00, 0.00, -0.00, -1.00, 317.8, 297.7)"> </text><text xml:space="preserve" font-family="GillSans-Light,Gill Sans" font-size="42.8" fill="#525252" transform="matrix(1.00, 0.00, -0.00, -1.00, 329.7, 297.7)">e</text><text xml:space="preserve" font-family="GillSans-Light,Gill Sans" font-size="42.8" fill="#525252" transform="matrix(1.00, 0.00, -0.00, -1.00, 350.2, 297.7)">v</text><text xml:space="preserve" font-family="GillSans-Light,Gill Sans" font-size="42.8" fill="#525252" transform="matrix(1.00, 0.00, -0.00, -1.00, 367.8, 297.7)">e</text><text xml:space="preserve" font-family="GillSans-Light,Gill Sans" font-size="42.8" fill="#525252" transform="matrix(1.00, 0.00, -0.00, -1.00, 388.3, 297.7)">r</text><text xml:space="preserve" font-family="GillSans-Light,Gill Sans" font-size="42.8" fill="#525252" transform="matrix(1.00, 0.00, -0.00, -1.00, 402.6, 297.7)"> </text><text xml:space="preserve" font-family="GillSans-Light,Gill Sans" font-size="42.8" fill="#525252" transform="matrix(1.00, 0.00, -0.00, -1.00, 414.4, 297.7)">r</text><text xml:space="preserve" font-family="GillSans-Light,Gill Sans" font-size="42.8" fill="#525252" transform="matrix(1.00, 0.00, -0.00, -1.00, 428.7, 297.7)">e</text><text xml:space="preserve" font-family="GillSans-Light,Gill Sans" font-size="42.8" fill="#525252" transform="matrix(1.00, 0.00, -0.00, -1.00, 449.2, 297.7)">t</text><text xml:space="preserve" font-family="GillSans-Light,Gill Sans" font-size="42.8" fill="#525252" transform="matrix(1.00, 0.00, -0.00, -1.00, 462.1, 297.7)">u</text><text xml:space="preserve" font-family="GillSans-Light,Gill Sans" font-size="42.8" fill="#525252" transform="matrix(1.00, 0.00, -0.00, -1.00, 483.0, 297.7)">r</text><text xml:space="preserve" font-family="GillSans-Light,Gill Sans" font-size="42.8" fill="#525252" transform="matrix(1.00, 0.00, -0.00, -1.00, 498.4, 297.7)">n</text><text xml:space="preserve" font-family="GillSans-Light,Gill Sans" font-size="42.8" fill="#525252" transform="matrix(1.00, 0.00, -0.00, -1.00, 519.3, 297.7)"> </text><text xml:space="preserve" font-family="GillSans-SemiBold,Gill Sans" font-weight="bold" font-size="42.8" fill="#525252" transform="matrix(1.00, 0.00, -0.00, -1.00, 531.2, 297.7)">o</text><text xml:space="preserve" font-family="GillSans-SemiBold,Gill Sans" font-weight="bold" font-size="42.8" fill="#525252" transform="matrix(1.00, 0.00, -0.00, -1.00, 555.8, 297.7)">n</text><text xml:space="preserve" font-family="GillSans-SemiBold,Gill Sans" font-weight="bold" font-size="42.8" fill="#525252" transform="matrix(1.00, 0.00, -0.00, -1.00, 578.9, 297.7)">e</text><text xml:space="preserve" font-family="GillSans-Light,Gill Sans" font-size="42.8" fill="#525252" transform="matrix(1.00, 0.00, -0.00, -1.00, 601.0, 297.7)"> </text><text xml:space="preserve" font-family="GillSans-Light,Gill Sans" font-size="42.8" fill="#525252" transform="matrix(1.00, 0.00, -0.00, -1.00, 612.8, 297.7)">v</text><text xml:space="preserve" font-family="GillSans-Light,Gill Sans" font-size="42.8" fill="#525252" transform="matrix(1.00, 0.00, -0.00, -1.00, 631.1, 297.7)">a</text><text xml:space="preserve" font-family="GillSans-Light,Gill Sans" font-size="42.8" fill="#525252" transform="matrix(1.00, 0.00, -0.00, -1.00, 649.3, 297.7)">l</text><text xml:space="preserve" font-family="GillSans-Light,Gill Sans" font-size="42.8" fill="#525252" transform="matrix(1.00, 0.00, -0.00, -1.00, 657.4, 297.7)">u</text><text xml:space="preserve" font-family="GillSans-Light,Gill Sans" font-size="42.8" fill="#525252" transform="matrix(1.00, 0.00, -0.00, -1.00, 678.4, 297.7)">e</text><text xml:space="preserve" font-family="GillSans-Light,Gill Sans" font-size="42.8" fill="#525252" transform="matrix(1.00, 0.00, -0.00, -1.00, 698.9, 297.7)"> </text><text xml:space="preserve" font-family="GillSans-Light,Gill Sans" font-size="42.8" fill="#525252" transform="matrix(1.00, 0.00, -0.00, -1.00, 710.7, 297.7)">o</text><text xml:space="preserve" font-family="GillSans-Light,Gill Sans" font-size="42.8" fill="#525252" transform="matrix(1.00, 0.00, -0.00, -1.00, 733.9, 297.7)">r</text><text xml:space="preserve" font-family="GillSans-Light,Gill Sans" font-size="42.8" fill="#525252" transform="matrix(1.00, 0.00, -0.00, -1.00, 748.2, 297.7)"> </text><text xml:space="preserve" font-family="GillSans-Light,Gill Sans" font-size="42.8" fill="#525252" transform="matrix(1.00, 0.00, -0.00, -1.00, 760.0, 297.7)">t</text><text xml:space="preserve" font-family="GillSans-Light,Gill Sans" font-size="42.8" fill="#525252" transform="matrix(1.00, 0.00, -0.00, -1.00, 772.9, 297.7)">h</text><text xml:space="preserve" font-family="GillSans-Light,Gill Sans" font-size="42.8" fill="#525252" transform="matrix(1.00, 0.00, -0.00, -1.00, 793.9, 297.7)">r</text><text xml:space="preserve" font-family="GillSans-Light,Gill Sans" font-size="42.8" fill="#525252" transform="matrix(1.00, 0.00, -0.00, -1.00, 808.2, 297.7)">o</text><text xml:space="preserve" font-family="GillSans-Light,Gill Sans" font-size="42.8" fill="#525252" transform="matrix(1.00, 0.00, -0.00, -1.00, 830.7, 297.7)">w</text><text xml:space="preserve" font-family="GillSans-Light,Gill Sans" font-size="42.8" fill="#525252" transform="matrix(1.00, 0.00, -0.00, -1.00, 861.0, 297.7)"> </text><text xml:space="preserve" font-family="GillSans-SemiBold,Gill Sans" font-weight="bold" font-size="42.8" fill="#525252" transform="matrix(1.00, 0.00, -0.00, -1.00, 872.9, 297.7)">o</text><text xml:space="preserve" font-family="GillSans-SemiBold,Gill Sans" font-weight="bold" font-size="42.8" fill="#525252" transform="matrix(1.00, 0.00, -0.00, -1.00, 897.4, 297.7)">n</text><text xml:space="preserve" font-family="GillSans-SemiBold,Gill Sans" font-weight="bold" font-size="42.8" fill="#525252" transform="matrix(1.00, 0.00, -0.00, -1.00, 920.6, 297.7)">e</text><text xml:space="preserve" font-family="GillSans-Light,Gill Sans" font-size="42.8" fill="#525252" transform="matrix(1.00, 0.00, -0.00, -1.00, 942.7, 297.7)"> </text><text xml:space="preserve" font-family="GillSans-Light,Gill Sans" font-size="42.8" fill="#525252" transform="matrix(1.00, 0.00, -0.00, -1.00, 86.0, 239.0)">e</text><text xml:space="preserve" font-family="GillSans-Light,Gill Sans" font-size="42.8" fill="#525252" transform="matrix(1.00, 0.00, -0.00, -1.00, 106.5, 239.0)">x</text><text xml:space="preserve" font-family="GillSans-Light,Gill Sans" font-size="42.8" fill="#525252" transform="matrix(1.00, 0.00, -0.00, -1.00, 127.0, 239.0)">c</text><text xml:space="preserve" font-family="GillSans-Light,Gill Sans" font-size="42.8" fill="#525252" transform="matrix(1.00, 0.00, -0.00, -1.00, 144.8, 239.0)">e</text><text xml:space="preserve" font-family="GillSans-Light,Gill Sans" font-size="42.8" fill="#525252" transform="matrix(1.00, 0.00, -0.00, -1.00, 165.3, 239.0)">p</text><text xml:space="preserve" font-family="GillSans-Light,Gill Sans" font-size="42.8" fill="#525252" transform="matrix(1.00, 0.00, -0.00, -1.00, 187.1, 239.0)">t</text><text xml:space="preserve" font-family="GillSans-Light,Gill Sans" font-size="42.8" fill="#525252" transform="matrix(1.00, 0.00, -0.00, -1.00, 200.0, 239.0)">i</text><text xml:space="preserve" font-family="GillSans-Light,Gill Sans" font-size="42.8" fill="#525252" transform="matrix(1.00, 0.00, -0.00, -1.00, 208.1, 239.0)">o</text><text xml:space="preserve" font-family="GillSans-Light,Gill Sans" font-size="42.8" fill="#525252" transform="matrix(1.00, 0.00, -0.00, -1.00, 231.2, 239.0)">n</text><text xml:space="preserve" font-family="GillSans-Light,Gill Sans" font-size="42.8" fill="#525252" transform="matrix(1.00, 0.00, -0.00, -1.00, 86.0, 136.2)">p</text><text xml:space="preserve" font-family="GillSans-Light,Gill Sans" font-size="42.8" fill="#525252" transform="matrix(1.00, 0.00, -0.00, -1.00, 107.8, 136.2)">r</text><text xml:space="preserve" font-family="GillSans-Light,Gill Sans" font-size="42.8" fill="#525252" transform="matrix(1.00, 0.00, -0.00, -1.00, 122.0, 136.2)">o</text><text xml:space="preserve" font-family="GillSans-Light,Gill Sans" font-size="42.8" fill="#525252" transform="matrix(1.00, 0.00, -0.00, -1.00, 145.2, 136.2)">m</text><text xml:space="preserve" font-family="GillSans-Light,Gill Sans" font-size="42.8" fill="#525252" transform="matrix(1.00, 0.00, -0.00, -1.00, 178.2, 136.2)">i</text><text xml:space="preserve" font-family="GillSans-Light,Gill Sans" font-size="42.8" fill="#525252" transform="matrix(1.00, 0.00, -0.00, -1.00, 186.3, 136.2)">s</text><text xml:space="preserve" font-family="GillSans-Light,Gill Sans" font-size="42.8" fill="#525252" transform="matrix(1.00, 0.00, -0.00, -1.00, 201.4, 136.2)">e</text><text xml:space="preserve" font-family="GillSans-Light,Gill Sans" font-size="42.8" fill="#525252" transform="matrix(1.00, 0.00, -0.00, -1.00, 221.9, 136.2)">s</text><text xml:space="preserve" font-family="GillSans-Light,Gill Sans" font-size="42.8" fill="#525252" transform="matrix(1.00, 0.00, -0.00, -1.00, 237.0, 136.2)"> </text><text xml:space="preserve" font-family="GillSans-Light,Gill Sans" font-size="42.8" fill="#525252" transform="matrix(1.00, 0.00, -0.00, -1.00, 248.9, 136.2)">o</text><text xml:space="preserve" font-family="GillSans-Light,Gill Sans" font-size="42.8" fill="#525252" transform="matrix(1.00, 0.00, -0.00, -1.00, 272.1, 136.2)">n</text><text xml:space="preserve" font-family="GillSans-Light,Gill Sans" font-size="42.8" fill="#525252" transform="matrix(1.00, 0.00, -0.00, -1.00, 293.1, 136.2)">l</text><text xml:space="preserve" font-family="GillSans-Light,Gill Sans" font-size="42.8" fill="#525252" transform="matrix(1.00, 0.00, -0.00, -1.00, 300.7, 136.2)">y</text><text xml:space="preserve" font-family="GillSans-Light,Gill Sans" font-size="42.8" fill="#525252" transform="matrix(1.00, 0.00, -0.00, -1.00, 318.5, 136.2)"> </text><text xml:space="preserve" font-family="GillSans-Light,Gill Sans" font-size="42.8" fill="#525252" transform="matrix(1.00, 0.00, -0.00, -1.00, 330.4, 136.2)">e</text><text xml:space="preserve" font-family="GillSans-Light,Gill Sans" font-size="42.8" fill="#525252" transform="matrix(1.00, 0.00, -0.00, -1.00, 350.9, 136.2)">v</text><text xml:space="preserve" font-family="GillSans-Light,Gill Sans" font-size="42.8" fill="#525252" transform="matrix(1.00, 0.00, -0.00, -1.00, 368.5, 136.2)">e</text><text xml:space="preserve" font-family="GillSans-Light,Gill Sans" font-size="42.8" fill="#525252" transform="matrix(1.00, 0.00, -0.00, -1.00, 389.0, 136.2)">r</text><text xml:space="preserve" font-family="GillSans-Light,Gill Sans" font-size="42.8" fill="#525252" transform="matrix(1.00, 0.00, -0.00, -1.00, 403.2, 136.2)"> </text><text xml:space="preserve" font-family="GillSans-Light,Gill Sans" font-size="42.8" fill="#525252" transform="matrix(1.00, 0.00, -0.00, -1.00, 415.1, 136.2)">r</text><text xml:space="preserve" font-family="GillSans-Light,Gill Sans" font-size="42.8" fill="#525252" transform="matrix(1.00, 0.00, -0.00, -1.00, 429.4, 136.2)">e</text><text xml:space="preserve" font-family="GillSans-Light,Gill Sans" font-size="42.8" fill="#525252" transform="matrix(1.00, 0.00, -0.00, -1.00, 449.9, 136.2)">s</text><text xml:space="preserve" font-family="GillSans-Light,Gill Sans" font-size="42.8" fill="#525252" transform="matrix(1.00, 0.00, -0.00, -1.00, 465.0, 136.2)">o</text><text xml:space="preserve" font-family="GillSans-Light,Gill Sans" font-size="42.8" fill="#525252" transform="matrix(1.00, 0.00, -0.00, -1.00, 488.2, 136.2)">l</text><text xml:space="preserve" font-family="GillSans-Light,Gill Sans" font-size="42.8" fill="#525252" transform="matrix(1.00, 0.00, -0.00, -1.00, 496.2, 136.2)">v</text><text xml:space="preserve" font-family="GillSans-Light,Gill Sans" font-size="42.8" fill="#525252" transform="matrix(1.00, 0.00, -0.00, -1.00, 513.8, 136.2)">e</text><text xml:space="preserve" font-family="GillSans-Light,Gill Sans" font-size="42.8" fill="#525252" transform="matrix(1.00, 0.00, -0.00, -1.00, 534.3, 136.2)"> </text><text xml:space="preserve" font-family="GillSans-Light,Gill Sans" font-size="42.8" fill="#525252" transform="matrix(1.00, 0.00, -0.00, -1.00, 546.2, 136.2)">t</text><text xml:space="preserve" font-family="GillSans-Light,Gill Sans" font-size="42.8" fill="#525252" transform="matrix(1.00, 0.00, -0.00, -1.00, 559.1, 136.2)">o</text><text xml:space="preserve" font-family="GillSans-Light,Gill Sans" font-size="42.8" fill="#525252" transform="matrix(1.00, 0.00, -0.00, -1.00, 582.3, 136.2)"> </text><text xml:space="preserve" font-family="GillSans-SemiBold,Gill Sans" font-weight="bold" font-size="42.8" fill="#525252" transform="matrix(1.00, 0.00, -0.00, -1.00, 594.2, 136.2)">o</text><text xml:space="preserve" font-family="GillSans-SemiBold,Gill Sans" font-weight="bold" font-size="42.8" fill="#525252" transform="matrix(1.00, 0.00, -0.00, -1.00, 618.8, 136.2)">n</text><text xml:space="preserve" font-family="GillSans-SemiBold,Gill Sans" font-weight="bold" font-size="42.8" fill="#525252" transform="matrix(1.00, 0.00, -0.00, -1.00, 641.9, 136.2)">e</text><text xml:space="preserve" font-family="GillSans-Light,Gill Sans" font-size="42.8" fill="#525252" transform="matrix(1.00, 0.00, -0.00, -1.00, 664.0, 136.2)"> </text><text xml:space="preserve" font-family="GillSans-Light,Gill Sans" font-size="42.8" fill="#525252" transform="matrix(1.00, 0.00, -0.00, -1.00, 675.9, 136.2)">v</text><text xml:space="preserve" font-family="GillSans-Light,Gill Sans" font-size="42.8" fill="#525252" transform="matrix(1.00, 0.00, -0.00, -1.00, 694.1, 136.2)">a</text><text xml:space="preserve" font-family="GillSans-Light,Gill Sans" font-size="42.8" fill="#525252" transform="matrix(1.00, 0.00, -0.00, -1.00, 712.4, 136.2)">l</text><text xml:space="preserve" font-family="GillSans-Light,Gill Sans" font-size="42.8" fill="#525252" transform="matrix(1.00, 0.00, -0.00, -1.00, 720.4, 136.2)">u</text><text xml:space="preserve" font-family="GillSans-Light,Gill Sans" font-size="42.8" fill="#525252" transform="matrix(1.00, 0.00, -0.00, -1.00, 741.4, 136.2)">e</text><text xml:space="preserve" font-family="GillSans-Light,Gill Sans" font-size="42.8" fill="#525252" transform="matrix(1.00, 0.00, -0.00, -1.00, 761.9, 136.2)"> </text><text xml:space="preserve" font-family="GillSans-Light,Gill Sans" font-size="42.8" fill="#525252" transform="matrix(1.00, 0.00, -0.00, -1.00, 773.8, 136.2)">o</text><text xml:space="preserve" font-family="GillSans-Light,Gill Sans" font-size="42.8" fill="#525252" transform="matrix(1.00, 0.00, -0.00, -1.00, 796.9, 136.2)">r</text><text xml:space="preserve" font-family="GillSans-Light,Gill Sans" font-size="42.8" fill="#525252" transform="matrix(1.00, 0.00, -0.00, -1.00, 811.2, 136.2)"> </text><text xml:space="preserve" font-family="GillSans-Light,Gill Sans" font-size="42.8" fill="#525252" transform="matrix(1.00, 0.00, -0.00, -1.00, 823.1, 136.2)">r</text><text xml:space="preserve" font-family="GillSans-Light,Gill Sans" font-size="42.8" fill="#525252" transform="matrix(1.00, 0.00, -0.00, -1.00, 837.3, 136.2)">e</text><text xml:space="preserve" font-family="GillSans-Light,Gill Sans" font-size="42.8" fill="#525252" transform="matrix(1.00, 0.00, -0.00, -1.00, 857.8, 136.2)">j</text><text xml:space="preserve" font-family="GillSans-Light,Gill Sans" font-size="42.8" fill="#525252" transform="matrix(1.00, 0.00, -0.00, -1.00, 865.8, 136.2)">e</text><text xml:space="preserve" font-family="GillSans-Light,Gill Sans" font-size="42.8" fill="#525252" transform="matrix(1.00, 0.00, -0.00, -1.00, 886.3, 136.2)">c</text><text xml:space="preserve" font-family="GillSans-Light,Gill Sans" font-size="42.8" fill="#525252" transform="matrix(1.00, 0.00, -0.00, -1.00, 904.2, 136.2)">t</text><text xml:space="preserve" font-family="GillSans-Light,Gill Sans" font-size="42.8" fill="#525252" transform="matrix(1.00, 0.00, -0.00, -1.00, 917.1, 136.2)"> </text><text xml:space="preserve" font-family="GillSans-Light,Gill Sans" font-size="42.8" fill="#525252" transform="matrix(1.00, 0.00, -0.00, -1.00, 86.0, 75.0)">w</text><text xml:space="preserve" font-family="GillSans-Light,Gill Sans" font-size="42.8" fill="#525252" transform="matrix(1.00, 0.00, -0.00, -1.00, 116.3, 75.0)">i</text><text xml:space="preserve" font-family="GillSans-Light,Gill Sans" font-size="42.8" fill="#525252" transform="matrix(1.00, 0.00, -0.00, -1.00, 124.3, 75.0)">t</text><text xml:space="preserve" font-family="GillSans-Light,Gill Sans" font-size="42.8" fill="#525252" transform="matrix(1.00, 0.00, -0.00, -1.00, 137.2, 75.0)">h</text><text xml:space="preserve" font-family="GillSans-Light,Gill Sans" font-size="42.8" fill="#525252" transform="matrix(1.00, 0.00, -0.00, -1.00, 158.2, 75.0)"> </text><text xml:space="preserve" font-family="GillSans-SemiBold,Gill Sans" font-weight="bold" font-size="42.8" fill="#525252" transform="matrix(1.00, 0.00, -0.00, -1.00, 170.1, 75.0)">o</text><text xml:space="preserve" font-family="GillSans-SemiBold,Gill Sans" font-weight="bold" font-size="42.8" fill="#525252" transform="matrix(1.00, 0.00, -0.00, -1.00, 194.6, 75.0)">n</text><text xml:space="preserve" font-family="GillSans-SemiBold,Gill Sans" font-weight="bold" font-size="42.8" fill="#525252" transform="matrix(1.00, 0.00, -0.00, -1.00, 217.8, 75.0)">e</text><text xml:space="preserve" font-family="GillSans-Light,Gill Sans" font-size="42.8" fill="#525252" transform="matrix(1.00, 0.00, -0.00, -1.00, 239.8, 75.0)"> </text><text xml:space="preserve" font-family="GillSans-Light,Gill Sans" font-size="42.8" fill="#525252" transform="matrix(1.00, 0.00, -0.00, -1.00, 251.7, 75.0)">r</text><text xml:space="preserve" font-family="GillSans-Light,Gill Sans" font-size="42.8" fill="#525252" transform="matrix(1.00, 0.00, -0.00, -1.00, 266.0, 75.0)">e</text><text xml:space="preserve" font-family="GillSans-Light,Gill Sans" font-size="42.8" fill="#525252" transform="matrix(1.00, 0.00, -0.00, -1.00, 286.5, 75.0)">a</text><text xml:space="preserve" font-family="GillSans-Light,Gill Sans" font-size="42.8" fill="#525252" transform="matrix(1.00, 0.00, -0.00, -1.00, 304.7, 75.0)">s</text><text xml:space="preserve" font-family="GillSans-Light,Gill Sans" font-size="42.8" fill="#525252" transform="matrix(1.00, 0.00, -0.00, -1.00, 319.9, 75.0)">o</text><text xml:space="preserve" font-family="GillSans-Light,Gill Sans" font-size="42.8" fill="#525252" transform="matrix(1.00, 0.00, -0.00, -1.00, 343.0, 75.0)">n</text></g></svg>