<?xml version="1.0" encoding="UTF-8" standalone="no"?><svg xmlns="http://www.w3.org/2000/svg" xmlns:xlink="http://www.w3.org/1999/xlink" clip-rule="evenodd" stroke-miterlimit="10" viewBox="0 0 1024 768"><desc>SVG generated by Keynote</desc><defs></defs><g transform="matrix(1.00, 0.00, -0.00, -1.00, 0.0, 768.0)"><g><clipPath id="clip0x6000006b7be0"><path d="M 0.0 768.0 L 1024.0 768.0 L 1024.0 0.0 L 0.0 0.0 Z M 0.0 768.0 "></path></clipPath><g clip-path="url(#clip0x6000006b7be0)"><image xlink:href="../../D8468060-C003-4ABF-A6BE-B4E537BF06BB/assets/574DCE55A4CF432400CBDDDE1DFDFC9B.jpeg" width="2048.00" height="1536.00" transform="matrix(0.50, 0.00, -0.00, -0.50, 0.0, 768.0)"></image></g></g><g><clipPath id="clip0x6080006a2ca0"><path d="M 1008.3 495.5 L 624.7 -99.8 L 29.4 283.8 L 413.1 879.1 Z M 1008.3 495.5 "></path></clipPath><g clip-path="url(#clip0x6080006a2ca0)"><path d="M 590.5 51.9 C 592.4 52.3 595.0 52.5 595.8 50.0 C 596.6 47.4 595.1 44.9 592.2 44.4 C 589.4 43.8 589.9 45.3 583.3 44.1 C 580.9 43.6 579.9 48.4 582.3 48.9 C 588.1 50.0 587.1 51.2 590.5 51.9 C 590.5 51.9 590.5 51.9 590.5 51.9 Z M 595.2 45.0 C 591.8 44.2 590.2 45.1 589.5 47.7 C 588.8 50.3 590.5 51.9 593.4 52.6 C 596.4 53.3 596.7 51.8 601.6 53.0 C 604.3 53.7 605.0 48.8 602.8 48.3 C 597.5 47.0 598.6 45.8 595.2 45.0 C 595.2 45.0 595.2 45.0 595.2 45.0 Z M 582.2 48.9 C 584.6 49.3 585.6 44.5 582.7 43.9 C 579.6 43.4 572.8 43.1 571.0 42.8 C 569.3 42.4 564.6 40.8 563.0 40.6 C 561.5 40.4 554.0 41.0 550.8 40.3 C 547.7 39.6 546.8 39.8 544.6 39.6 C 542.4 39.4 539.0 39.5 536.9 39.5 C 534.8 39.5 533.0 38.1 530.3 38.4 C 527.6 38.6 526.2 38.1 524.3 38.1 C 521.3 38.0 521.5 42.9 524.2 43.0 C 526.9 43.0 528.6 43.4 530.9 43.4 C 533.1 43.3 535.1 42.9 537.2 43.5 C 539.3 44.2 543.5 43.9 546.1 43.8 C 548.7 43.7 551.6 44.1 553.6 44.5 C 557.7 45.3 567.6 45.7 569.0 46.3 C 570.3 46.9 574.9 47.2 576.5 47.5 C 578.1 47.8 578.9 48.2 582.2 48.9 C 582.2 48.9 582.2 48.9 582.2 48.9 Z M 466.7 41.9 C 464.1 42.3 464.4 47.2 467.4 46.7 C 470.5 46.3 476.1 45.1 477.8 45.0 C 479.5 44.9 486.5 44.5 487.9 44.3 C 489.4 44.2 494.6 43.1 497.7 43.3 C 500.8 43.5 503.7 42.6 505.8 42.7 C 508.5 42.9 509.9 42.6 511.9 42.5 C 513.9 42.3 517.0 43.3 518.7 42.9 C 520.5 42.5 521.4 42.9 523.8 43.0 C 526.2 43.0 526.3 38.1 524.0 38.1 C 521.7 38.1 519.8 38.1 517.5 38.2 C 515.2 38.3 512.5 38.5 510.0 38.5 C 507.8 38.6 504.5 38.1 501.9 38.5 C 499.4 39.0 495.7 39.3 494.2 39.5 C 492.3 39.7 488.3 39.9 486.7 40.3 C 484.5 40.8 480.7 40.7 479.3 40.5 C 477.9 40.2 477.0 40.9 474.0 41.2 C 472.2 41.3 469.4 41.5 466.7 41.9 C 466.7 41.9 466.7 41.9 466.7 41.9 Z M 465.9 42.0 C 462.9 42.5 458.0 44.0 456.8 44.2 C 455.6 44.4 451.6 44.8 449.7 45.3 C 447.8 45.8 447.3 46.3 444.1 47.1 C 440.2 48.1 437.5 48.2 437.3 48.2 C 436.7 48.2 434.7 48.2 432.1 49.0 C 428.6 50.1 427.4 49.9 425.9 50.6 C 423.4 51.9 423.0 51.4 421.0 52.1 C 418.9 52.8 417.6 53.0 416.1 53.7 C 414.4 54.6 412.9 54.4 411.3 54.9 C 408.7 55.8 410.5 60.3 412.9 59.6 C 414.3 59.1 415.5 58.2 417.0 57.7 C 418.5 57.3 419.9 56.9 421.5 56.7 C 423.1 56.4 426.1 55.2 428.6 54.7 C 431.2 54.1 435.4 53.3 438.3 52.5 C 441.2 51.7 442.8 50.1 449.0 49.6 C 451.0 49.5 454.8 48.5 456.4 48.2 C 459.2 47.7 464.6 47.2 466.9 46.8 C 469.7 46.4 468.9 41.6 465.9 42.0 C 465.9 42.0 465.9 42.0 465.9 42.0 Z M 359.1 76.5 C 356.8 77.7 358.7 82.2 361.4 80.8 C 364.1 79.5 368.9 76.6 370.4 76.0 C 372.0 75.4 378.3 72.8 379.6 72.2 C 381.0 71.6 385.4 68.9 388.4 68.2 C 391.3 67.5 393.7 65.6 395.7 65.1 C 398.2 64.5 399.4 63.7 401.2 63.0 C 403.0 62.2 406.2 62.1 407.6 61.2 C 409.1 60.3 410.1 60.4 412.3 59.7 C 414.5 59.0 413.0 54.4 410.9 55.1 C 408.8 55.7 407.0 56.4 405.0 57.2 C 402.9 58.0 400.4 59.0 398.2 59.8 C 396.2 60.6 393.0 61.2 390.7 62.4 C 388.5 63.6 385.2 65.1 383.9 65.7 C 382.2 66.4 378.6 67.8 377.2 68.8 C 375.4 69.9 371.8 71.0 370.4 71.2 C 369.0 71.4 368.4 72.3 365.7 73.5 C 364.1 74.2 361.5 75.3 359.1 76.5 C 359.1 76.5 359.1 76.5 359.1 76.5 Z M 358.4 76.9 C 355.7 78.2 351.7 81.1 350.7 81.7 C 349.6 82.3 345.9 83.9 344.3 85.0 C 342.7 86.0 342.3 86.7 339.6 88.4 C 336.3 90.5 333.8 91.5 333.6 91.6 C 333.0 91.7 331.1 92.3 328.9 93.9 C 326.0 96.1 324.8 96.3 323.6 97.3 C 321.6 99.4 321.1 99.1 319.5 100.3 C 317.8 101.6 316.6 102.2 315.3 103.4 C 314.0 104.7 312.6 105.0 311.2 106.0 C 309.0 107.6 312.2 111.4 314.2 109.9 C 315.4 109.0 316.2 107.8 317.5 106.9 C 318.8 106.0 320.0 105.3 321.4 104.5 C 322.8 103.8 325.3 101.7 327.5 100.4 C 329.7 99.1 333.4 97.0 335.9 95.3 C 338.4 93.7 339.4 91.7 345.0 89.3 C 346.8 88.5 350.1 86.4 351.5 85.7 C 353.9 84.3 358.8 82.1 360.9 81.1 C 363.4 79.8 361.1 75.5 358.4 76.9 C 358.4 76.9 358.4 76.9 358.4 76.9 Z M 268.5 142.8 C 266.7 144.7 269.9 148.4 272.0 146.2 C 274.2 144.1 277.9 139.8 279.1 138.8 C 280.4 137.7 285.6 133.3 286.7 132.3 C 287.8 131.3 291.2 127.4 293.7 125.7 C 296.2 124.1 298.0 121.6 299.7 120.5 C 301.8 119.1 302.7 118.1 304.2 116.8 C 305.7 115.5 308.7 114.4 309.7 113.1 C 310.8 111.8 311.8 111.6 313.7 110.2 C 315.6 108.9 312.7 104.9 310.9 106.2 C 309.1 107.5 307.7 108.7 306.0 110.1 C 304.3 111.6 302.3 113.3 300.4 114.7 C 298.7 116.1 295.8 117.6 294.1 119.5 C 292.4 121.3 289.7 123.8 288.6 124.7 C 287.3 126.0 284.3 128.5 283.3 129.8 C 281.9 131.5 278.8 133.6 277.6 134.2 C 276.3 134.9 276.0 135.9 273.8 137.9 C 272.5 139.1 270.4 140.9 268.5 142.8 C 268.5 142.8 268.5 142.8 268.5 142.8 Z M 271.8 146.5 C 273.4 144.9 270.0 141.3 268.0 143.3 C 266.0 145.4 262.2 150.7 261.0 151.8 C 259.8 153.0 256.0 155.8 255.0 156.9 C 254.0 158.0 250.5 164.3 248.2 166.4 C 246.0 168.5 245.6 169.3 244.3 171.0 C 243.0 172.6 241.2 175.4 240.0 177.1 C 238.9 178.7 236.8 179.4 235.5 181.7 C 234.2 184.0 233.0 184.9 232.0 186.4 C 230.3 188.8 234.4 191.4 235.9 189.2 C 237.4 187.1 238.7 185.9 239.9 184.1 C 241.2 182.2 241.9 180.4 243.6 179.1 C 245.2 177.8 247.3 174.3 248.6 172.1 C 249.9 170.0 251.8 167.9 253.2 166.6 C 256.0 163.8 261.6 156.2 262.8 155.5 C 264.0 154.7 266.7 151.3 267.7 150.2 C 268.8 149.1 269.6 148.8 271.8 146.5 C 271.8 146.5 271.8 146.5 271.8 146.5 Z M 231.6 187.0 C 229.8 189.5 227.5 194.0 226.9 195.0 C 226.2 196.0 223.6 199.2 222.7 200.9 C 221.7 202.6 221.7 203.4 220.1 206.2 C 218.0 209.8 216.3 211.8 216.1 212.0 C 215.7 212.4 214.2 213.9 213.0 216.3 C 211.4 219.7 210.4 220.4 209.8 222.0 C 209.0 224.7 208.4 224.7 207.5 226.7 C 206.6 228.7 205.7 229.8 205.2 231.4 C 204.6 233.3 203.4 234.2 202.7 235.8 C 201.5 238.3 206.0 240.2 207.2 237.9 C 207.8 236.5 208.0 235.0 208.7 233.5 C 209.5 232.1 210.2 230.9 211.1 229.5 C 212.1 228.2 213.3 225.1 214.7 222.8 C 216.1 220.5 218.5 216.9 219.9 214.2 C 221.4 211.5 221.3 209.3 225.3 204.4 C 226.5 202.9 228.5 199.4 229.4 198.1 C 231.0 195.7 234.4 191.4 235.7 189.5 C 237.3 187.2 233.3 184.5 231.6 187.0 C 231.6 187.0 231.6 187.0 231.6 187.0 Z M 181.5 290.7 C 180.8 293.4 185.3 295.2 186.2 292.1 C 187.1 289.0 188.5 283.2 189.1 281.6 C 189.8 280.0 192.4 273.3 192.9 271.9 C 193.4 270.5 194.6 265.1 196.1 262.4 C 197.6 259.6 198.0 256.5 199.1 254.6 C 200.4 252.3 200.7 250.9 201.4 249.0 C 202.1 247.1 204.3 244.7 204.7 243.0 C 205.0 241.2 205.8 240.6 206.9 238.4 C 207.9 236.3 203.5 234.1 202.6 236.2 C 201.6 238.2 200.8 240.0 199.9 242.1 C 199.1 244.2 198.0 246.8 197.0 249.0 C 196.2 251.1 194.3 253.9 193.6 256.5 C 192.9 259.0 191.6 262.6 191.1 264.0 C 190.5 265.8 189.0 269.6 188.7 271.3 C 188.2 273.6 186.5 277.1 185.6 278.3 C 184.8 279.5 185.0 280.6 184.0 283.6 C 183.4 285.3 182.3 288.1 181.5 290.7 C 181.5 290.7 181.5 290.7 181.5 290.7 Z M 181.3 291.6 C 180.4 294.7 179.7 299.9 179.4 301.1 C 179.0 302.4 177.6 306.5 177.2 308.5 C 176.9 310.5 177.1 311.3 176.5 314.6 C 175.6 318.9 174.7 321.6 174.6 321.8 C 174.3 322.3 173.4 324.3 173.0 327.2 C 172.5 331.0 171.9 332.1 171.8 333.8 C 171.9 336.8 171.4 337.0 171.1 339.2 C 170.9 341.4 170.5 342.8 170.5 344.6 C 170.6 346.6 169.8 347.9 169.6 349.7 C 169.3 352.5 174.2 352.8 174.5 350.2 C 174.7 348.6 174.3 347.1 174.6 345.4 C 174.8 343.8 175.1 342.3 175.5 340.7 C 176.0 339.0 176.2 335.6 176.7 332.9 C 177.3 330.2 178.4 325.8 178.9 322.6 C 179.4 319.5 178.6 317.2 180.9 311.0 C 181.6 309.1 182.4 304.9 182.8 303.3 C 183.5 300.4 185.4 295.0 186.1 292.6 C 186.9 289.8 182.2 288.5 181.3 291.6 C 181.3 291.6 181.3 291.6 181.3 291.6 Z M 167.8 408.3 C 167.9 410.9 172.8 411.1 172.7 408.0 C 172.5 404.9 171.8 399.1 171.9 397.4 C 172.0 395.7 172.2 388.6 172.2 387.2 C 172.3 385.7 171.6 380.3 172.2 377.2 C 172.7 374.1 172.0 371.0 172.4 368.9 C 172.8 366.3 172.7 364.8 172.7 362.8 C 172.8 360.7 174.0 357.7 173.8 355.9 C 173.6 354.1 174.1 353.2 174.4 350.8 C 174.7 348.3 169.9 347.8 169.6 350.1 C 169.3 352.4 169.2 354.4 169.1 356.7 C 169.0 359.0 168.8 361.8 168.6 364.3 C 168.5 366.5 167.6 369.8 167.8 372.5 C 168.0 375.1 168.0 378.9 168.0 380.4 C 168.0 382.3 167.8 386.3 168.1 388.0 C 168.4 390.2 167.9 394.1 167.5 395.5 C 167.1 396.9 167.7 397.8 167.7 400.9 C 167.7 402.7 167.6 405.6 167.8 408.3 C 167.8 408.3 167.8 408.3 167.8 408.3 Z M 167.8 409.1 C 168.0 412.2 169.0 417.2 169.1 418.4 C 169.2 419.6 169.2 423.8 169.5 425.7 C 169.8 427.6 170.3 428.3 170.8 431.5 C 171.4 435.5 171.3 438.3 171.2 438.4 C 171.2 439.0 170.9 441.1 171.5 443.8 C 172.3 447.4 172.0 448.5 172.5 450.1 C 173.6 452.8 173.1 453.1 173.6 455.2 C 174.1 457.3 174.1 458.6 174.7 460.3 C 175.4 462.0 175.1 463.5 175.5 465.2 C 176.1 467.8 180.8 466.5 180.3 464.0 C 179.9 462.5 179.1 461.3 178.8 459.7 C 178.5 458.2 178.3 456.8 178.2 455.1 C 178.1 453.5 177.2 450.4 176.9 447.8 C 176.5 445.2 176.1 440.8 175.6 437.8 C 175.1 434.9 173.7 433.1 173.8 426.9 C 173.8 424.9 173.2 420.9 173.1 419.3 C 172.8 416.4 172.8 410.9 172.7 408.5 C 172.5 405.7 167.6 406.0 167.8 409.1 C 167.8 409.1 167.8 409.1 167.8 409.1 Z M 192.1 519.3 C 193.1 521.8 197.8 520.3 196.7 517.5 C 195.5 514.7 193.1 509.6 192.7 508.0 C 192.2 506.4 190.2 499.8 189.8 498.5 C 189.3 497.1 187.1 492.4 186.6 489.4 C 186.1 486.4 184.5 483.8 184.2 481.7 C 183.8 479.2 183.2 477.9 182.6 476.0 C 182.0 474.1 182.2 471.0 181.4 469.4 C 180.6 467.9 180.9 466.9 180.4 464.6 C 179.9 462.3 175.1 463.3 175.6 465.5 C 176.1 467.7 176.6 469.6 177.2 471.7 C 177.8 473.8 178.5 476.4 179.2 478.7 C 179.7 480.8 180.0 484.1 181.0 486.4 C 182.0 488.8 183.2 492.2 183.6 493.6 C 184.2 495.3 185.3 499.1 186.1 500.6 C 187.1 502.5 187.9 506.2 187.9 507.6 C 188.0 509.0 188.8 509.7 189.8 512.5 C 190.3 514.2 191.2 516.9 192.1 519.3 C 192.1 519.3 192.1 519.3 192.1 519.3 Z M 196.8 517.8 C 196.0 515.7 191.4 517.4 192.4 520.0 C 193.5 522.7 196.8 528.3 197.4 529.8 C 197.9 531.4 199.0 536.0 199.6 537.3 C 200.2 538.6 204.5 544.4 205.5 547.3 C 206.5 550.1 207.1 550.8 208.1 552.7 C 209.1 554.5 210.9 557.3 211.9 558.9 C 213.0 560.6 212.7 562.8 214.3 564.9 C 215.9 567.0 216.2 568.4 217.1 569.9 C 218.6 572.4 222.7 569.7 221.3 567.5 C 220.0 565.3 219.4 563.6 218.3 561.8 C 217.1 560.0 215.7 558.6 215.2 556.5 C 214.7 554.5 212.3 551.3 210.9 549.2 C 209.5 547.2 208.4 544.7 207.7 542.8 C 206.3 539.1 201.6 531.0 201.4 529.6 C 201.2 528.2 199.2 524.5 198.6 523.0 C 198.0 521.6 198.0 520.8 196.8 517.8 C 196.8 517.8 196.8 517.8 196.8 517.8 Z M 217.5 570.5 C 219.0 573.1 222.2 576.9 222.8 578.0 C 223.5 579.0 225.4 582.6 226.5 584.1 C 227.7 585.6 228.3 585.9 230.2 588.5 C 232.6 591.7 233.7 594.1 233.8 594.3 C 234.0 594.9 234.7 596.8 236.5 598.8 C 238.8 601.6 239.1 602.8 240.2 603.9 C 242.4 605.7 242.1 606.3 243.5 607.9 C 244.9 609.5 245.5 610.6 246.8 611.8 C 248.2 613.0 248.6 614.4 249.7 615.7 C 251.4 617.8 255.0 614.4 253.4 612.5 C 252.4 611.3 251.2 610.6 250.2 609.4 C 249.2 608.2 248.4 607.0 247.5 605.7 C 246.7 604.3 244.5 601.9 243.0 599.8 C 241.5 597.7 239.2 594.1 237.4 591.8 C 235.6 589.4 233.5 588.6 230.8 583.1 C 229.9 581.3 227.6 578.2 226.7 576.9 C 225.2 574.5 222.7 569.8 221.5 567.8 C 220.1 565.4 215.9 568.0 217.5 570.5 C 217.5 570.5 217.5 570.5 217.5 570.5 Z M 289.3 655.9 C 291.3 657.7 294.9 654.2 292.5 652.2 C 290.2 650.2 285.7 646.8 284.6 645.6 C 283.4 644.4 278.6 639.5 277.6 638.5 C 276.6 637.5 272.4 634.3 270.6 631.9 C 268.8 629.5 266.2 627.9 265.0 626.3 C 263.4 624.2 262.3 623.4 260.9 622.0 C 259.5 620.6 258.3 617.7 256.9 616.7 C 255.5 615.7 255.3 614.7 253.8 613.0 C 252.3 611.2 248.5 614.3 250.0 616.0 C 251.4 617.7 252.7 619.1 254.2 620.7 C 255.7 622.2 257.5 624.2 259.1 625.9 C 260.6 627.5 262.3 630.3 264.3 631.9 C 266.2 633.5 268.9 636.0 269.9 637.0 C 271.3 638.3 273.9 641.1 275.3 642.1 C 277.1 643.3 279.5 646.2 280.2 647.5 C 280.9 648.7 282.0 648.9 284.1 651.0 C 285.4 652.2 287.3 654.2 289.3 655.9 C 289.3 655.9 289.3 655.9 289.3 655.9 Z M 290.0 656.5 C 292.3 658.5 296.5 661.1 297.4 661.9 C 298.4 662.6 301.3 665.5 302.9 666.6 C 304.5 667.7 305.2 667.8 307.9 669.7 C 311.2 672.0 313.1 673.9 313.2 674.1 C 313.6 674.6 314.9 676.1 317.2 677.6 C 320.3 679.5 321.0 680.5 322.5 681.3 C 325.1 682.3 325.0 682.9 326.9 684.0 C 328.7 685.1 329.8 686.0 331.3 686.7 C 333.1 687.5 333.9 688.7 335.4 689.6 C 337.8 691.0 340.1 686.7 337.9 685.3 C 336.6 684.5 335.1 684.3 333.8 683.4 C 332.4 682.5 331.3 681.7 330.0 680.7 C 328.8 679.6 325.9 678.0 323.8 676.5 C 321.7 674.9 318.3 672.2 315.8 670.5 C 313.3 668.8 311.1 668.7 306.7 664.3 C 305.3 662.9 302.0 660.6 300.8 659.6 C 298.6 657.9 294.7 654.1 292.9 652.6 C 290.8 650.8 287.7 654.5 290.0 656.5 C 290.0 656.5 290.0 656.5 290.0 656.5 Z M 338.3 685.6 C 336.3 684.3 333.6 688.5 336.0 690.0 C 338.6 691.5 344.7 694.0 346.1 695.0 C 347.5 695.9 351.2 699.0 352.6 699.7 C 353.9 700.4 361.0 702.5 363.6 704.2 C 366.2 706.0 367.1 706.1 369.0 707.1 C 371.0 708.0 374.2 709.1 376.1 709.9 C 378.1 710.6 379.2 712.5 381.9 713.3 C 384.5 714.0 385.6 715.0 387.4 715.7 C 390.2 716.8 391.8 712.2 389.2 711.2 C 386.8 710.2 385.2 709.2 383.1 708.4 C 381.0 707.6 379.0 707.3 377.3 706.0 C 375.5 704.6 371.6 703.4 369.2 702.6 C 366.7 701.8 364.2 700.4 362.6 699.3 C 359.1 697.2 350.2 693.4 349.3 692.4 C 348.2 691.3 344.3 689.5 342.9 688.7 C 341.6 687.9 341.0 687.2 338.3 685.6 C 338.3 685.6 338.3 685.6 338.3 685.6 Z M 388.0 716.0 C 391.0 717.1 396.0 718.3 397.2 718.8 C 398.4 719.2 402.2 721.0 404.2 721.5 C 406.1 722.1 406.9 721.9 410.1 722.9 C 414.2 724.1 416.7 725.3 416.9 725.4 C 417.4 725.8 419.2 726.9 422.0 727.5 C 425.8 728.4 426.8 729.1 428.5 729.3 C 431.5 729.5 431.6 730.1 433.8 730.6 C 436.1 731.0 437.4 731.5 439.2 731.7 C 441.2 731.9 442.5 732.8 444.2 733.1 C 447.1 733.8 447.9 728.9 445.3 728.3 C 443.7 728.0 442.1 728.2 440.5 727.8 C 438.8 727.4 437.4 727.0 435.8 726.4 C 434.2 725.7 430.7 725.2 428.1 724.4 C 425.5 723.6 421.2 722.0 418.2 721.2 C 415.1 720.4 412.9 721.0 407.0 718.2 C 405.2 717.3 401.2 716.1 399.7 715.6 C 396.9 714.6 391.8 712.2 389.6 711.3 C 386.9 710.2 385.1 714.8 388.0 716.0 C 388.0 716.0 388.0 716.0 388.0 716.0 Z M 445.7 728.4 C 443.2 727.9 442.1 732.7 445.1 733.3 C 448.1 733.9 455.0 734.4 456.7 734.8 C 458.4 735.2 463.1 737.0 464.7 737.2 C 466.2 737.5 473.8 737.1 477.0 737.9 C 480.1 738.7 481.0 738.5 483.2 738.8 C 485.4 739.0 488.8 739.0 490.9 739.1 C 493.0 739.1 494.8 740.6 497.5 740.4 C 500.2 740.2 501.7 740.8 503.5 740.9 C 506.5 741.0 506.5 736.1 503.8 736.0 C 501.1 735.9 499.3 735.4 497.1 735.4 C 494.8 735.4 492.8 735.7 490.7 735.0 C 488.6 734.4 484.4 734.5 481.8 734.5 C 479.2 734.6 476.3 734.1 474.3 733.6 C 470.2 732.7 460.2 732.0 458.9 731.3 C 457.6 730.7 453.0 730.2 451.4 729.9 C 449.8 729.6 449.0 729.1 445.7 728.4 C 445.7 728.4 445.7 728.4 445.7 728.4 Z M 504.3 740.9 C 507.4 741.0 512.5 740.5 513.8 740.5 C 515.0 740.5 519.2 740.9 521.2 740.8 C 523.1 740.7 523.8 740.3 527.1 740.1 C 531.3 739.9 534.0 740.3 534.2 740.3 C 534.8 740.5 536.8 740.9 539.6 740.6 C 543.2 740.1 544.4 740.5 546.0 740.2 C 548.8 739.4 549.1 739.9 551.2 739.6 C 553.4 739.3 554.7 739.4 556.4 738.9 C 558.3 738.4 559.7 738.9 561.4 738.7 C 564.2 738.3 563.3 733.5 560.7 733.8 C 559.2 734.0 557.9 734.7 556.3 734.8 C 554.7 735.0 553.3 735.1 551.6 735.0 C 550.0 734.9 546.7 735.5 544.1 735.6 C 541.4 735.7 537.0 735.7 534.0 735.9 C 530.9 736.2 529.1 737.4 522.8 736.7 C 520.7 736.5 516.7 736.7 515.0 736.7 C 512.1 736.6 506.6 736.1 504.2 736.0 C 501.3 735.9 501.1 740.8 504.3 740.9 C 504.3 740.9 504.3 740.9 504.3 740.9 Z M 561.2 733.7 C 558.8 734.0 559.3 738.9 562.1 738.6 C 565.1 738.2 571.4 736.4 573.1 736.2 C 574.8 736.1 579.5 736.2 581.0 736.0 C 582.5 735.7 589.2 732.9 592.3 732.7 C 595.4 732.5 596.2 732.0 598.2 731.6 C 600.3 731.1 603.4 730.0 605.3 729.4 C 607.3 728.8 609.3 729.6 611.8 728.6 C 614.2 727.5 615.7 727.6 617.4 727.1 C 620.2 726.3 618.6 721.7 616.1 722.4 C 613.6 723.2 611.8 723.3 609.7 724.0 C 607.7 724.7 606.0 725.6 603.8 725.6 C 601.7 725.7 597.9 727.1 595.6 728.0 C 593.2 728.9 590.5 729.3 588.5 729.5 C 584.5 729.9 575.4 732.5 573.9 732.3 C 572.5 732.1 568.3 733.1 566.7 733.3 C 565.2 733.5 564.4 733.3 561.2 733.7 C 561.2 733.7 561.2 733.7 561.2 733.7 Z M 670.1 707.0 C 672.4 705.9 670.7 701.3 668.0 702.6 C 665.2 703.9 660.3 706.6 658.8 707.2 C 657.2 707.8 650.8 710.2 649.4 710.7 C 648.1 711.3 643.6 713.8 640.6 714.5 C 637.7 715.2 635.2 716.9 633.2 717.4 C 630.7 718.0 629.5 718.7 627.6 719.4 C 625.8 720.1 622.6 720.1 621.1 721.0 C 619.7 721.8 618.6 721.7 616.4 722.3 C 614.2 723.0 615.5 727.7 617.7 727.0 C 619.8 726.4 621.6 725.8 623.7 725.0 C 625.7 724.3 628.3 723.4 630.5 722.6 C 632.6 721.9 635.8 721.4 638.1 720.3 C 640.3 719.1 643.7 717.7 645.0 717.1 C 646.7 716.4 650.4 715.1 651.8 714.2 C 653.7 713.1 657.3 712.1 658.7 712.0 C 660.1 711.8 660.7 710.9 663.5 709.8 C 665.1 709.1 667.7 708.1 670.1 707.0 C 670.1 707.0 670.1 707.0 670.1 707.0 Z M 670.8 706.6 C 673.5 705.3 677.6 702.5 678.7 702.0 C 679.8 701.4 683.5 699.9 685.1 698.9 C 686.8 697.9 687.2 697.3 689.9 695.6 C 693.3 693.6 695.8 692.6 696.0 692.6 C 696.6 692.5 698.5 691.9 700.8 690.4 C 703.7 688.3 704.9 688.1 706.2 687.1 C 708.2 685.1 708.7 685.4 710.4 684.2 C 712.1 683.0 713.3 682.4 714.6 681.3 C 715.9 680.0 717.4 679.8 718.8 678.8 C 721.0 677.2 718.0 673.4 715.9 674.8 C 714.7 675.6 713.9 676.8 712.5 677.7 C 711.2 678.6 710.0 679.3 708.6 680.0 C 707.1 680.7 704.6 682.7 702.4 684.0 C 700.1 685.2 696.3 687.2 693.8 688.8 C 691.3 690.4 690.3 692.3 684.6 694.6 C 682.7 695.3 679.4 697.3 678.0 698.0 C 675.5 699.3 670.5 701.4 668.4 702.4 C 665.9 703.6 668.1 707.9 670.8 706.6 C 670.8 706.6 670.8 706.6 670.8 706.6 Z M 716.3 674.5 C 714.4 675.9 717.1 679.9 719.4 678.4 C 721.8 676.7 726.4 672.3 727.8 671.4 C 729.2 670.5 733.4 668.4 734.6 667.5 C 735.7 666.6 740.4 661.1 743.0 659.5 C 745.5 657.9 746.0 657.1 747.6 655.8 C 749.2 654.4 751.5 652.0 752.9 650.6 C 754.3 649.2 756.5 649.0 758.2 647.0 C 759.8 644.9 761.2 644.3 762.5 643.1 C 764.6 641.1 761.0 637.7 759.1 639.5 C 757.3 641.3 755.8 642.3 754.3 643.8 C 752.8 645.4 751.7 647.0 749.8 648.0 C 748.0 649.0 745.3 652.0 743.7 653.8 C 742.0 655.7 739.8 657.3 738.1 658.4 C 734.9 660.5 728.0 667.0 726.7 667.4 C 725.4 667.9 722.2 670.8 720.9 671.7 C 719.7 672.5 718.8 672.7 716.3 674.5 C 716.3 674.5 716.3 674.5 716.3 674.5 Z M 800.0 600.8 C 801.6 598.7 798.0 595.4 796.1 597.8 C 794.3 600.3 791.1 605.0 790.0 606.3 C 788.9 607.5 784.3 612.6 783.3 613.7 C 782.4 614.8 779.6 619.2 777.2 621.2 C 774.9 623.2 773.5 625.8 772.0 627.2 C 770.0 628.9 769.3 630.0 768.0 631.5 C 766.7 633.0 763.8 634.5 762.9 635.9 C 762.1 637.4 761.1 637.7 759.4 639.3 C 757.7 640.9 761.1 644.4 762.7 642.9 C 764.3 641.3 765.6 640.0 767.1 638.3 C 768.5 636.7 770.4 634.8 772.0 633.0 C 773.5 631.5 776.2 629.5 777.6 627.5 C 779.1 625.4 781.5 622.6 782.4 621.5 C 783.6 620.1 786.2 617.2 787.1 615.7 C 788.2 613.9 791.0 611.3 792.2 610.5 C 793.3 609.7 793.5 608.6 795.4 606.4 C 796.5 605.0 798.4 602.9 800.0 600.8 C 800.0 600.8 800.0 600.8 800.0 600.8 Z M 796.3 597.5 C 794.9 599.4 798.8 602.4 800.5 600.2 C 802.2 597.8 805.3 592.1 806.3 590.7 C 807.4 589.4 810.8 586.1 811.6 584.8 C 812.5 583.6 815.1 576.8 817.1 574.4 C 819.1 572.0 819.3 571.1 820.4 569.3 C 821.5 567.5 823.0 564.4 823.9 562.6 C 824.8 560.8 826.8 559.8 827.8 557.3 C 828.7 554.8 829.8 553.7 830.7 552.1 C 832.1 549.5 827.6 547.4 826.4 549.8 C 825.2 552.2 824.0 553.6 823.1 555.6 C 822.1 557.6 821.6 559.5 820.1 561.1 C 818.6 562.6 817.1 566.4 816.0 568.7 C 815.0 571.1 813.4 573.4 812.2 574.9 C 809.7 578.1 805.2 586.5 804.1 587.4 C 802.9 588.2 800.8 592.0 799.9 593.3 C 799.0 594.5 798.2 595.0 796.3 597.5 C 796.3 597.5 796.3 597.5 796.3 597.5 Z M 831.0 551.5 C 832.4 548.7 834.1 543.9 834.6 542.8 C 835.2 541.7 837.3 538.0 838.0 536.2 C 838.8 534.4 838.7 533.6 839.9 530.5 C 841.5 526.7 843.0 524.3 843.1 524.2 C 843.5 523.7 844.7 522.0 845.6 519.3 C 846.8 515.7 847.6 514.8 848.0 513.2 C 848.5 510.3 849.1 510.2 849.7 508.1 C 850.4 505.9 851.0 504.7 851.4 502.9 C 851.7 501.0 852.7 499.9 853.3 498.1 C 854.1 495.4 849.4 494.2 848.6 496.7 C 848.1 498.2 848.1 499.8 847.6 501.3 C 847.0 502.9 846.5 504.3 845.7 505.8 C 845.0 507.3 844.1 510.6 843.1 513.0 C 842.0 515.5 840.1 519.6 839.0 522.5 C 837.9 525.4 838.3 527.6 835.0 533.0 C 833.9 534.8 832.4 538.5 831.7 540.0 C 830.4 542.6 827.6 547.4 826.5 549.5 C 825.2 552.0 829.6 554.2 831.0 551.5 C 831.0 551.5 831.0 551.5 831.0 551.5 Z M 866.8 439.6 C 867.2 436.9 862.5 435.7 862.0 438.9 C 861.5 442.1 861.0 448.1 860.6 449.8 C 860.2 451.5 858.5 458.7 858.2 460.2 C 857.9 461.7 857.4 467.3 856.3 470.3 C 855.1 473.3 855.1 476.5 854.4 478.6 C 853.4 481.1 853.3 482.6 852.8 484.6 C 852.3 486.7 850.5 489.4 850.4 491.2 C 850.3 493.0 849.5 493.8 848.8 496.1 C 848.0 498.5 852.6 500.0 853.4 497.8 C 854.1 495.5 854.6 493.6 855.2 491.4 C 855.7 489.1 856.4 486.4 857.1 483.9 C 857.7 481.7 859.2 478.6 859.6 475.9 C 859.9 473.2 860.7 469.4 861.0 467.9 C 861.4 466.0 862.4 461.9 862.5 460.1 C 862.6 457.8 863.8 454.0 864.5 452.6 C 865.2 451.3 864.8 450.2 865.4 447.1 C 865.8 445.3 866.4 442.4 866.8 439.6 C 866.8 439.6 866.8 439.6 866.8 439.6 Z M 867.0 438.7 C 867.4 435.6 867.4 430.3 867.5 429.1 C 867.7 427.8 868.5 423.6 868.6 421.6 C 868.7 419.6 868.3 418.9 868.5 415.5 C 868.7 411.3 869.3 408.6 869.4 408.4 C 869.6 407.9 870.2 405.9 870.1 403.0 C 870.1 399.3 870.6 398.2 870.4 396.5 C 869.9 393.6 870.4 393.3 870.3 391.2 C 870.2 389.0 870.4 387.6 870.2 385.9 C 869.8 383.9 870.5 382.6 870.4 380.8 C 870.3 378.0 865.4 378.4 865.5 381.0 C 865.5 382.6 866.1 384.0 866.1 385.6 C 866.1 387.2 866.0 388.7 865.8 390.3 C 865.6 392.0 865.8 395.3 865.7 398.0 C 865.5 400.7 865.0 405.1 865.0 408.2 C 864.9 411.3 866.0 413.3 864.7 419.6 C 864.2 421.7 864.0 425.8 863.8 427.4 C 863.5 430.3 862.4 435.9 862.1 438.4 C 861.7 441.3 866.5 441.9 867.0 438.7 C 867.0 438.7 867.0 438.7 867.0 438.7 Z M 864.2 323.6 C 863.7 321.0 858.8 321.5 859.4 324.5 C 860.0 327.5 861.4 333.0 861.6 334.7 C 861.7 336.4 862.4 343.3 862.6 344.8 C 862.8 346.2 864.2 351.4 864.1 354.4 C 864.0 357.5 865.0 360.4 865.0 362.5 C 864.9 365.2 865.3 366.5 865.5 368.5 C 865.7 370.5 864.9 373.7 865.4 375.4 C 865.8 377.0 865.4 378.0 865.5 380.4 C 865.5 382.8 870.4 382.7 870.3 380.4 C 870.3 378.1 870.1 376.2 869.9 373.9 C 869.7 371.7 869.5 369.0 869.3 366.5 C 869.2 364.3 869.5 361.0 869.0 358.5 C 868.5 355.9 868.0 352.3 867.8 350.8 C 867.5 348.9 867.1 345.0 866.6 343.3 C 866.0 341.2 866.0 337.4 866.2 336.0 C 866.4 334.6 865.7 333.7 865.3 330.8 C 865.0 329.0 864.7 326.2 864.2 323.6 C 864.2 323.6 864.2 323.6 864.2 323.6 Z M 859.3 324.1 C 859.8 326.5 864.6 325.6 864.1 322.9 C 863.5 319.9 861.3 313.8 861.0 312.2 C 860.8 310.5 860.6 305.7 860.2 304.3 C 859.9 302.9 856.7 296.4 856.2 293.3 C 855.8 290.3 855.3 289.5 854.7 287.5 C 854.1 285.5 852.8 282.4 852.1 280.6 C 851.4 278.7 852.0 276.6 850.8 274.3 C 849.6 271.9 849.6 270.4 849.0 268.8 C 848.0 266.1 843.5 267.9 844.4 270.4 C 845.3 272.8 845.6 274.6 846.4 276.6 C 847.2 278.6 848.3 280.2 848.4 282.3 C 848.6 284.5 850.3 288.1 851.3 290.4 C 852.3 292.7 853.0 295.4 853.3 297.3 C 853.9 301.2 857.1 310.2 857.0 311.6 C 856.9 313.0 858.2 317.1 858.6 318.6 C 858.9 320.1 858.7 321.0 859.3 324.1 C 859.3 324.1 859.3 324.1 859.3 324.1 Z M 848.8 268.1 C 847.7 265.3 845.3 260.9 844.9 259.8 C 844.4 258.7 843.2 254.8 842.4 253.1 C 841.6 251.3 841.0 250.9 839.6 248.0 C 837.8 244.4 837.1 241.8 837.1 241.6 C 837.0 241.0 836.6 239.0 835.3 236.7 C 833.6 233.5 833.5 232.3 832.6 231.0 C 830.8 228.8 831.2 228.3 830.1 226.5 C 829.0 224.7 828.6 223.4 827.6 222.1 C 826.4 220.6 826.3 219.1 825.5 217.7 C 824.1 215.3 820.0 218.0 821.2 220.1 C 822.0 221.4 823.1 222.4 823.8 223.8 C 824.6 225.2 825.2 226.4 825.7 227.9 C 826.3 229.4 828.0 232.1 829.1 234.5 C 830.2 236.9 831.8 240.8 833.1 243.5 C 834.5 246.1 836.3 247.3 838.0 253.2 C 838.6 255.1 840.3 258.7 840.9 260.1 C 841.9 262.7 843.5 267.9 844.3 270.1 C 845.3 272.7 849.8 270.9 848.8 268.1 C 848.8 268.1 848.8 268.1 848.8 268.1 Z M 794.1 170.9 C 792.5 168.9 788.4 171.6 790.3 174.0 C 792.2 176.4 795.9 180.5 796.8 181.9 C 797.7 183.3 801.5 189.0 802.3 190.2 C 803.1 191.4 806.7 195.2 808.0 197.9 C 809.3 200.6 811.5 202.6 812.4 204.5 C 813.6 206.8 814.5 207.8 815.6 209.4 C 816.7 211.0 817.4 214.1 818.6 215.3 C 819.8 216.6 819.8 217.6 821.0 219.6 C 822.1 221.6 826.3 219.3 825.3 217.3 C 824.2 215.4 823.2 213.8 822.0 212.0 C 820.8 210.1 819.3 207.9 818.1 205.9 C 817.0 204.0 815.8 201.0 814.1 199.1 C 812.5 197.1 810.4 194.2 809.6 193.0 C 808.5 191.5 806.4 188.3 805.2 187.1 C 803.7 185.5 802.0 182.3 801.5 180.9 C 801.0 179.6 800.0 179.2 798.3 176.8 C 797.3 175.3 795.7 173.0 794.1 170.9 C 794.1 170.9 794.1 170.9 794.1 170.9 Z M 793.6 170.3 C 791.7 167.9 788.1 164.6 787.3 163.7 C 786.5 162.7 784.2 159.4 782.9 158.0 C 781.5 156.7 780.8 156.5 778.6 154.1 C 775.8 151.3 774.3 149.0 774.2 148.8 C 774.0 148.3 773.0 146.5 771.0 144.7 C 768.3 142.2 767.9 141.2 766.6 140.2 C 764.2 138.6 764.4 138.1 762.8 136.7 C 761.2 135.3 760.4 134.2 759.0 133.2 C 757.4 132.2 756.9 130.8 755.6 129.7 C 753.6 127.9 750.5 131.7 752.3 133.4 C 753.5 134.4 754.8 134.9 756.0 136.0 C 757.1 137.1 758.1 138.1 759.1 139.4 C 760.1 140.6 762.6 142.7 764.4 144.6 C 766.1 146.5 768.9 149.8 771.0 151.9 C 773.1 154.0 775.3 154.5 778.7 159.6 C 779.9 161.2 782.6 164.0 783.6 165.3 C 785.4 167.4 788.5 171.8 790.0 173.6 C 791.7 175.7 795.5 172.7 793.6 170.3 C 793.6 170.3 793.6 170.3 793.6 170.3 Z M 710.6 94.9 C 708.3 93.4 705.3 97.3 707.9 99.0 C 710.5 100.6 715.5 103.5 716.8 104.5 C 718.1 105.5 723.5 109.8 724.7 110.7 C 725.9 111.5 730.5 114.1 732.6 116.3 C 734.7 118.5 737.5 119.7 739.0 121.2 C 740.8 123.0 742.0 123.7 743.6 124.9 C 745.1 126.1 746.8 128.8 748.3 129.6 C 749.8 130.4 750.2 131.4 751.9 132.9 C 753.6 134.5 756.9 130.9 755.3 129.4 C 753.6 127.9 752.2 126.7 750.5 125.4 C 748.7 124.0 746.6 122.3 744.8 120.8 C 743.2 119.4 741.0 116.8 738.9 115.5 C 736.7 114.1 733.7 112.0 732.5 111.1 C 731.0 110.1 728.0 107.6 726.5 106.8 C 724.5 105.8 721.8 103.2 720.9 102.1 C 720.0 101.0 718.9 100.9 716.5 99.1 C 715.0 98.1 712.8 96.3 710.6 94.9 C 710.6 94.9 710.6 94.9 710.6 94.9 Z M 707.6 98.8 C 709.6 100.1 712.3 96.0 710.0 94.5 C 707.5 92.8 701.5 90.2 700.1 89.2 C 698.7 88.2 695.1 85.0 693.8 84.3 C 692.5 83.6 685.5 81.3 682.9 79.5 C 680.4 77.7 679.5 77.5 677.5 76.5 C 675.6 75.6 672.4 74.3 670.6 73.5 C 668.7 72.7 667.6 70.8 665.0 70.0 C 662.4 69.2 661.2 68.1 659.5 67.4 C 656.8 66.2 655.1 70.8 657.6 71.9 C 660.0 72.9 661.5 74.0 663.6 74.8 C 665.7 75.6 667.6 76.0 669.3 77.4 C 671.0 78.7 674.9 80.1 677.3 81.0 C 679.7 81.8 682.1 83.3 683.8 84.4 C 687.1 86.7 695.9 90.7 696.8 91.7 C 697.8 92.8 701.7 94.7 703.1 95.5 C 704.4 96.3 704.9 97.0 707.6 98.8 C 707.6 98.8 707.6 98.8 707.6 98.8 Z M 658.9 67.1 C 656.0 65.9 651.0 64.5 649.8 64.1 C 648.7 63.6 644.9 61.7 643.0 61.1 C 641.1 60.5 640.3 60.6 637.1 59.6 C 633.1 58.3 630.6 57.0 630.5 56.9 C 630.0 56.5 628.2 55.4 625.4 54.7 C 621.7 53.7 620.7 53.0 619.0 52.7 C 616.1 52.4 615.9 51.8 613.8 51.3 C 611.6 50.8 610.3 50.2 608.5 50.0 C 606.5 49.8 605.2 48.8 603.5 48.4 C 600.7 47.7 599.8 52.6 602.4 53.2 C 603.9 53.6 605.5 53.5 607.1 53.9 C 608.7 54.3 610.1 54.8 611.7 55.4 C 613.3 56.1 616.7 56.7 619.3 57.6 C 621.8 58.5 626.1 60.1 629.1 61.0 C 632.1 61.9 634.3 61.5 640.0 64.4 C 641.9 65.3 645.8 66.6 647.3 67.2 C 650.0 68.3 655.0 70.8 657.2 71.7 C 659.9 72.9 661.8 68.4 658.9 67.1 C 658.9 67.1 658.9 67.1 658.9 67.1 Z M 658.9 67.1 " fill="#3D4453"></path></g></g><g><clipPath id="clip0x6080006a2d60"><path d="M 566.6 58.4 L 632.9 72.7 L 639.1 43.8 L 572.8 29.5 Z M 566.6 58.4 "></path></clipPath><g clip-path="url(#clip0x6080006a2d60)"><path d="M 0.0 0.0 L 38.2 0.0 L 41.7 0.0 " fill="none" stroke="#3D4453" stroke-width="7.00" transform="matrix(0.98, 0.21, 0.21, -0.98, 570.7, 44.2)"></path><path d="M 610.9 38.7 L 635.0 58.1 L 605.1 65.7 Z M 610.9 38.7 " fill="#3D4453"></path></g></g><g><clipPath id="clip0x6080006a32a0"><path d="M 794.4 580.1 L 756.2 629.9 L 779.7 648.0 L 817.9 598.2 Z M 794.4 580.1 "></path></clipPath><g clip-path="url(#clip0x6080006a32a0)"><path d="M 0.0 0.0 L 33.2 0.0 L 36.7 0.0 " fill="none" stroke="#3D4453" stroke-width="7.00" transform="matrix(-0.61, 0.79, 0.79, 0.61, 805.6, 590.0)"></path><path d="M 796.3 624.7 L 768.5 638.2 L 774.4 607.9 Z M 796.3 624.7 " fill="#3D4453"></path></g></g><g><clipPath id="clip0x6080006a35a0"><path d="M 194.9 475.7 L 185.4 426.3 L 156.4 431.8 L 165.8 481.2 Z M 194.9 475.7 "></path></clipPath><g clip-path="url(#clip0x6080006a35a0)"><path d="M 0.0 0.0 L 20.7 0.0 L 24.2 0.0 " fill="none" stroke="#FF2600" stroke-width="7.00" transform="matrix(-0.19, -0.98, -0.98, 0.19, 180.1, 477.5)"></path><path d="M 162.7 459.7 L 171.1 430.1 L 189.8 454.6 Z M 162.7 459.7 " fill="#FF2600"></path></g></g><path d="M 0.3 0.0 L 49.3 0.0 " fill="none" stroke="#FF2600" stroke-width="6.00" transform="matrix(0.00, -1.00, -1.00, 0.00, 512.0, 757.3)"></path><text xml:space="preserve" font-family="GillSans-Light,Gill Sans" font-size="72.0" fill="#525252" transform="matrix(1.00, 0.00, -0.00, -1.00, 373.8, 360.2)">P</text><text xml:space="preserve" font-family="GillSans-Light,Gill Sans" font-size="72.0" fill="#525252" transform="matrix(1.00, 0.00, -0.00, -1.00, 410.5, 360.2)">R</text><text xml:space="preserve" font-family="GillSans-Light,Gill Sans" font-size="72.0" fill="#525252" transform="matrix(1.00, 0.00, -0.00, -1.00, 450.7, 360.2)">O</text><text xml:space="preserve" font-family="GillSans-Light,Gill Sans" font-size="72.0" fill="#525252" transform="matrix(1.00, 0.00, -0.00, -1.00, 510.0, 360.2)">M</text><text xml:space="preserve" font-family="GillSans-Light,Gill Sans" font-size="72.0" fill="#525252" transform="matrix(1.00, 0.00, -0.00, -1.00, 566.2, 360.2)">I</text><text xml:space="preserve" font-family="GillSans-Light,Gill Sans" font-size="72.0" fill="#525252" transform="matrix(1.00, 0.00, -0.00, -1.00, 581.1, 360.2)">S</text><text xml:space="preserve" font-family="GillSans-Light,Gill Sans" font-size="72.0" fill="#525252" transform="matrix(1.00, 0.00, -0.00, -1.00, 614.9, 360.2)">E</text></g></svg>