<?xml version="1.0" encoding="UTF-8" standalone="no"?><svg xmlns="http://www.w3.org/2000/svg" xmlns:xlink="http://www.w3.org/1999/xlink" clip-rule="evenodd" stroke-miterlimit="10" viewBox="0 0 1024 768"><desc>SVG generated by Keynote</desc><defs></defs><g transform="matrix(1.00, 0.00, -0.00, -1.00, 0.0, 768.0)"><g><clipPath id="clip0x6000008b17c0"><path d="M 0.0 768.0 L 1024.0 768.0 L 1024.0 0.0 L 0.0 0.0 Z M 0.0 768.0 "></path></clipPath><g clip-path="url(#clip0x6000008b17c0)"><image xlink:href="../../D8468060-C003-4ABF-A6BE-B4E537BF06BB/assets/574DCE55A4CF432400CBDDDE1DFDFC9B.jpeg" width="2048.00" height="1536.00" transform="matrix(0.50, 0.00, -0.00, -0.50, 0.0, 768.0)"></image></g></g><text xml:space="preserve" font-family="GillSans-Light,Gill Sans" font-size="72.0" fill="#525252" transform="matrix(1.00, 0.00, -0.00, -1.00, 260.7, 669.2)">T</text><text xml:space="preserve" font-family="GillSans-Light,Gill Sans" font-size="72.0" fill="#525252" transform="matrix(1.00, 0.00, -0.00, -1.00, 302.0, 669.2)">H</text><text xml:space="preserve" font-family="GillSans-Light,Gill Sans" font-size="72.0" fill="#525252" transform="matrix(1.00, 0.00, -0.00, -1.00, 353.8, 669.2)">E</text><text xml:space="preserve" font-family="GillSans-Light,Gill Sans" font-size="72.0" fill="#525252" transform="matrix(1.00, 0.00, -0.00, -1.00, 389.1, 669.2)">N</text><text xml:space="preserve" font-family="GillSans-Light,Gill Sans" font-size="72.0" fill="#525252" transform="matrix(1.00, 0.00, -0.00, -1.00, 444.6, 669.2)"> </text><text xml:space="preserve" font-family="GillSans-Light,Gill Sans" font-size="72.0" fill="#525252" transform="matrix(1.00, 0.00, -0.00, -1.00, 464.6, 669.2)">R</text><text xml:space="preserve" font-family="GillSans-Light,Gill Sans" font-size="72.0" fill="#525252" transform="matrix(1.00, 0.00, -0.00, -1.00, 505.9, 669.2)">E</text><text xml:space="preserve" font-family="GillSans-Light,Gill Sans" font-size="72.0" fill="#525252" transform="matrix(1.00, 0.00, -0.00, -1.00, 541.2, 669.2)">T</text><text xml:space="preserve" font-family="GillSans-Light,Gill Sans" font-size="72.0" fill="#525252" transform="matrix(1.00, 0.00, -0.00, -1.00, 582.5, 669.2)">U</text><text xml:space="preserve" font-family="GillSans-Light,Gill Sans" font-size="72.0" fill="#525252" transform="matrix(1.00, 0.00, -0.00, -1.00, 632.8, 669.2)">R</text><text xml:space="preserve" font-family="GillSans-Light,Gill Sans" font-size="72.0" fill="#525252" transform="matrix(1.00, 0.00, -0.00, -1.00, 674.1, 669.2)">N</text><text xml:space="preserve" font-family="GillSans-Light,Gill Sans" font-size="72.0" fill="#525252" transform="matrix(1.00, 0.00, -0.00, -1.00, 729.6, 669.2)">S</text><text xml:space="preserve" font-family="GillSans-Light,Gill Sans" font-size="72.0" fill="#525252" transform="matrix(1.00, 0.00, -0.00, -1.00, 247.3, 587.2)">A</text><text xml:space="preserve" font-family="GillSans-Light,Gill Sans" font-size="72.0" fill="#525252" transform="matrix(1.00, 0.00, -0.00, -1.00, 295.3, 587.2)"> </text><text xml:space="preserve" font-family="GillSans-Light,Gill Sans" font-size="72.0" fill="#525252" transform="matrix(1.00, 0.00, -0.00, -1.00, 315.3, 587.2)">N</text><text xml:space="preserve" font-family="GillSans-Light,Gill Sans" font-size="72.0" fill="#525252" transform="matrix(1.00, 0.00, -0.00, -1.00, 370.8, 587.2)">E</text><text xml:space="preserve" font-family="GillSans-Light,Gill Sans" font-size="72.0" fill="#525252" transform="matrix(1.00, 0.00, -0.00, -1.00, 406.1, 587.2)">W</text><text xml:space="preserve" font-family="GillSans-Light,Gill Sans" font-size="72.0" fill="#525252" transform="matrix(1.00, 0.00, -0.00, -1.00, 480.3, 587.2)"> </text><text xml:space="preserve" font-family="GillSans-Light,Gill Sans" font-size="72.0" fill="#525252" transform="matrix(1.00, 0.00, -0.00, -1.00, 500.3, 587.2)">P</text><text xml:space="preserve" font-family="GillSans-Light,Gill Sans" font-size="72.0" fill="#525252" transform="matrix(1.00, 0.00, -0.00, -1.00, 537.0, 587.2)">R</text><text xml:space="preserve" font-family="GillSans-Light,Gill Sans" font-size="72.0" fill="#525252" transform="matrix(1.00, 0.00, -0.00, -1.00, 577.2, 587.2)">O</text><text xml:space="preserve" font-family="GillSans-Light,Gill Sans" font-size="72.0" fill="#525252" transform="matrix(1.00, 0.00, -0.00, -1.00, 636.5, 587.2)">M</text><text xml:space="preserve" font-family="GillSans-Light,Gill Sans" font-size="72.0" fill="#525252" transform="matrix(1.00, 0.00, -0.00, -1.00, 692.7, 587.2)">I</text><text xml:space="preserve" font-family="GillSans-Light,Gill Sans" font-size="72.0" fill="#525252" transform="matrix(1.00, 0.00, -0.00, -1.00, 707.6, 587.2)">S</text><text xml:space="preserve" font-family="GillSans-Light,Gill Sans" font-size="72.0" fill="#525252" transform="matrix(1.00, 0.00, -0.00, -1.00, 741.4, 587.2)">E</text><text xml:space="preserve" font-family="AppleSymbols,Apple Symbols" font-size="46.0" fill="#525252" transform="matrix(1.00, 0.00, -0.00, -1.00, 158.0, 288.1)">v</text><text xml:space="preserve" font-family="AppleSymbols,Apple Symbols" font-size="46.0" fill="#525252" transform="matrix(1.00, 0.00, -0.00, -1.00, 176.4, 288.1)">a</text><text xml:space="preserve" font-family="AppleSymbols,Apple Symbols" font-size="46.0" fill="#525252" transform="matrix(1.00, 0.00, -0.00, -1.00, 194.5, 288.1)">r</text><text xml:space="preserve" font-family="AppleSymbols,Apple Symbols" font-size="46.0" fill="#525252" transform="matrix(1.00, 0.00, -0.00, -1.00, 207.2, 288.1)"> </text><text xml:space="preserve" font-family="AppleSymbols,Apple Symbols" font-size="46.0" fill="#FF2600" transform="matrix(1.00, 0.00, -0.00, -1.00, 222.4, 288.1)">p</text><text xml:space="preserve" font-family="AppleSymbols,Apple Symbols" font-size="46.0" fill="#525252" transform="matrix(1.00, 0.00, -0.00, -1.00, 242.1, 288.1)"> </text><text xml:space="preserve" font-family="AppleSymbols,Apple Symbols" font-size="46.0" fill="#525252" transform="matrix(1.00, 0.00, -0.00, -1.00, 257.4, 288.1)">=</text><text xml:space="preserve" font-family="AppleSymbols,Apple Symbols" font-size="46.0" fill="#525252" transform="matrix(1.00, 0.00, -0.00, -1.00, 279.2, 288.1)"> </text><text xml:space="preserve" font-family="AppleSymbols,Apple Symbols" font-size="46.0" fill="#525252" transform="matrix(1.00, 0.00, -0.00, -1.00, 294.5, 288.1)">p</text><text xml:space="preserve" font-family="AppleSymbols,Apple Symbols" font-size="46.0" fill="#525252" transform="matrix(1.00, 0.00, -0.00, -1.00, 314.2, 288.1)">r</text><text xml:space="preserve" font-family="AppleSymbols,Apple Symbols" font-size="46.0" fill="#525252" transform="matrix(1.00, 0.00, -0.00, -1.00, 326.8, 288.1)">o</text><text xml:space="preserve" font-family="AppleSymbols,Apple Symbols" font-size="46.0" fill="#525252" transform="matrix(1.00, 0.00, -0.00, -1.00, 346.6, 288.1)">m</text><text xml:space="preserve" font-family="AppleSymbols,Apple Symbols" font-size="46.0" fill="#525252" transform="matrix(1.00, 0.00, -0.00, -1.00, 375.8, 288.1)">i</text><text xml:space="preserve" font-family="AppleSymbols,Apple Symbols" font-size="46.0" fill="#525252" transform="matrix(1.00, 0.00, -0.00, -1.00, 383.5, 288.1)">s</text><text xml:space="preserve" font-family="AppleSymbols,Apple Symbols" font-size="46.0" fill="#525252" transform="matrix(1.00, 0.00, -0.00, -1.00, 400.1, 288.1)">e</text><text xml:space="preserve" font-family="AppleSymbols,Apple Symbols" font-size="46.0" fill="#525252" transform="matrix(1.00, 0.00, -0.00, -1.00, 418.9, 288.1)">.</text><text xml:space="preserve" font-family="AppleSymbols,Apple Symbols" font-size="46.0" fill="#525252" transform="matrix(1.00, 0.00, -0.00, -1.00, 428.8, 288.1)">t</text><text xml:space="preserve" font-family="AppleSymbols,Apple Symbols" font-size="46.0" fill="#525252" transform="matrix(1.00, 0.00, -0.00, -1.00, 443.3, 288.1)">h</text><text xml:space="preserve" font-family="AppleSymbols,Apple Symbols" font-size="46.0" fill="#525252" transform="matrix(1.00, 0.00, -0.00, -1.00, 462.3, 288.1)">e</text><text xml:space="preserve" font-family="AppleSymbols,Apple Symbols" font-size="46.0" fill="#525252" transform="matrix(1.00, 0.00, -0.00, -1.00, 481.1, 288.1)">n</text><text xml:space="preserve" font-family="AppleSymbols,Apple Symbols" font-size="46.0" fill="#525252" transform="matrix(1.00, 0.00, -0.00, -1.00, 500.2, 288.1)">(</text><text xml:space="preserve" font-family="AppleSymbols,Apple Symbols" font-size="46.0" fill="#FF2600" transform="matrix(1.00, 0.00, -0.00, -1.00, 514.8, 288.1)">o</text><text xml:space="preserve" font-family="AppleSymbols,Apple Symbols" font-size="46.0" fill="#FF2600" transform="matrix(1.00, 0.00, -0.00, -1.00, 534.6, 288.1)">n</text><text xml:space="preserve" font-family="AppleSymbols,Apple Symbols" font-size="46.0" fill="#FF2600" transform="matrix(1.00, 0.00, -0.00, -1.00, 553.6, 288.1)">F</text><text xml:space="preserve" font-family="AppleSymbols,Apple Symbols" font-size="46.0" fill="#FF2600" transform="matrix(1.00, 0.00, -0.00, -1.00, 571.7, 288.1)">u</text><text xml:space="preserve" font-family="AppleSymbols,Apple Symbols" font-size="46.0" fill="#FF2600" transform="matrix(1.00, 0.00, -0.00, -1.00, 590.7, 288.1)">l</text><text xml:space="preserve" font-family="AppleSymbols,Apple Symbols" font-size="46.0" fill="#FF2600" transform="matrix(1.00, 0.00, -0.00, -1.00, 598.4, 288.1)">F</text><text xml:space="preserve" font-family="AppleSymbols,Apple Symbols" font-size="46.0" fill="#FF2600" transform="matrix(1.00, 0.00, -0.00, -1.00, 616.4, 288.1)">i</text><text xml:space="preserve" font-family="AppleSymbols,Apple Symbols" font-size="46.0" fill="#FF2600" transform="matrix(1.00, 0.00, -0.00, -1.00, 624.1, 288.1)">l</text><text xml:space="preserve" font-family="AppleSymbols,Apple Symbols" font-size="46.0" fill="#FF2600" transform="matrix(1.00, 0.00, -0.00, -1.00, 631.8, 288.1)">l</text><text xml:space="preserve" font-family="AppleSymbols,Apple Symbols" font-size="46.0" fill="#FF2600" transform="matrix(1.00, 0.00, -0.00, -1.00, 639.5, 288.1)">e</text><text xml:space="preserve" font-family="AppleSymbols,Apple Symbols" font-size="46.0" fill="#FF2600" transform="matrix(1.00, 0.00, -0.00, -1.00, 658.3, 288.1)">d</text><text xml:space="preserve" font-family="AppleSymbols,Apple Symbols" font-size="46.0" fill="#FF2600" transform="matrix(1.00, 0.00, -0.00, -1.00, 677.9, 288.1)">,</text><text xml:space="preserve" font-family="AppleSymbols,Apple Symbols" font-size="46.0" fill="#FF2600" transform="matrix(1.00, 0.00, -0.00, -1.00, 687.8, 288.1)"> </text><text xml:space="preserve" font-family="AppleSymbols,Apple Symbols" font-size="46.0" fill="#FF2600" transform="matrix(1.00, 0.00, -0.00, -1.00, 703.2, 288.1)">o</text><text xml:space="preserve" font-family="AppleSymbols,Apple Symbols" font-size="46.0" fill="#FF2600" transform="matrix(1.00, 0.00, -0.00, -1.00, 723.0, 288.1)">n</text><text xml:space="preserve" font-family="AppleSymbols,Apple Symbols" font-size="46.0" fill="#FF2600" transform="matrix(1.00, 0.00, -0.00, -1.00, 742.0, 288.1)">R</text><text xml:space="preserve" font-family="AppleSymbols,Apple Symbols" font-size="46.0" fill="#FF2600" transform="matrix(1.00, 0.00, -0.00, -1.00, 761.8, 288.1)">e</text><text xml:space="preserve" font-family="AppleSymbols,Apple Symbols" font-size="46.0" fill="#FF2600" transform="matrix(1.00, 0.00, -0.00, -1.00, 780.6, 288.1)">j</text><text xml:space="preserve" font-family="AppleSymbols,Apple Symbols" font-size="46.0" fill="#FF2600" transform="matrix(1.00, 0.00, -0.00, -1.00, 789.6, 288.1)">e</text><text xml:space="preserve" font-family="AppleSymbols,Apple Symbols" font-size="46.0" fill="#FF2600" transform="matrix(1.00, 0.00, -0.00, -1.00, 808.4, 288.1)">c</text><text xml:space="preserve" font-family="AppleSymbols,Apple Symbols" font-size="46.0" fill="#FF2600" transform="matrix(1.00, 0.00, -0.00, -1.00, 826.2, 288.1)">t</text><text xml:space="preserve" font-family="AppleSymbols,Apple Symbols" font-size="46.0" fill="#FF2600" transform="matrix(1.00, 0.00, -0.00, -1.00, 840.7, 288.1)">e</text><text xml:space="preserve" font-family="AppleSymbols,Apple Symbols" font-size="46.0" fill="#FF2600" transform="matrix(1.00, 0.00, -0.00, -1.00, 859.5, 288.1)">d</text><text xml:space="preserve" font-family="AppleSymbols,Apple Symbols" font-size="46.0" fill="#525252" transform="matrix(1.00, 0.00, -0.00, -1.00, 879.2, 288.1)">)</text><path d="M 450.9 139.8 C 348.1 -50.0 202.4 -46.6 14.0 150.2 L 12.3 152.0 " fill="none" stroke="#595E5D" stroke-width="5.00" transform="matrix(1.00, 0.00, 0.00, -1.00, 238.9, 492.4)"></path><path d="M 245.5 349.1 L 238.9 327.3 L 260.3 335.2 Z M 245.5 349.1 " fill="#595E5D"></path><path d="M -0.3 25.0 L -0.3 -0.5 L 355.7 -0.5 L 355.7 22.5 " fill="none" stroke="#595E5D" stroke-width="5.00" transform="matrix(1.00, 0.00, 0.00, -1.00, 519.8, 350.0)"></path></g></svg>