<?xml version="1.0" encoding="UTF-8" standalone="no"?><svg xmlns="http://www.w3.org/2000/svg" xmlns:xlink="http://www.w3.org/1999/xlink" clip-rule="evenodd" stroke-miterlimit="10" viewBox="0 0 1024 768"><desc>SVG generated by Keynote</desc><defs></defs><g transform="matrix(1.00, 0.00, -0.00, -1.00, 0.0, 768.0)"><g><clipPath id="clip0x6100004a6000"><path d="M 0.0 768.0 L 1024.0 768.0 L 1024.0 0.0 L 0.0 0.0 Z M 0.0 768.0 "></path></clipPath><g clip-path="url(#clip0x6100004a6000)"><image xlink:href="../../D8468060-C003-4ABF-A6BE-B4E537BF06BB/assets/574DCE55A4CF432400CBDDDE1DFDFC9B.jpeg" width="2048.00" height="1536.00" transform="matrix(0.50, 0.00, -0.00, -0.50, 0.0, 768.0)"></image></g></g><path d="M 757.0 627.2 C 755.7 628.5 754.2 630.6 755.8 632.7 C 757.5 634.8 760.5 634.8 762.5 632.7 C 764.5 630.6 762.9 630.2 767.5 625.4 C 769.2 623.5 765.8 620.1 764.1 621.9 C 760.0 626.2 759.5 624.7 757.0 627.2 C 757.0 627.2 757.0 627.2 757.0 627.2 Z M 760.3 634.8 C 762.8 632.4 762.9 630.6 761.2 628.6 C 759.4 626.6 757.1 627.1 754.9 629.2 C 752.7 631.4 753.8 632.4 750.1 635.9 C 748.1 637.7 751.8 641.0 753.4 639.4 C 757.4 635.7 757.8 637.3 760.3 634.8 C 760.3 634.8 760.3 634.8 760.3 634.8 Z M 764.2 621.8 C 762.5 623.6 766.0 627.0 768.0 624.9 C 770.1 622.6 774.0 617.0 775.3 615.7 C 776.5 614.5 780.4 611.4 781.4 610.2 C 782.4 609.0 786.0 602.3 788.3 600.1 C 790.6 597.8 791.0 597.0 792.3 595.2 C 793.6 593.5 795.4 590.5 796.5 588.8 C 797.7 587.1 799.8 586.3 801.1 583.9 C 802.3 581.5 803.5 580.5 804.6 579.0 C 806.2 576.5 802.0 574.0 800.5 576.3 C 799.0 578.5 797.8 579.8 796.5 581.7 C 795.3 583.6 794.6 585.5 793.0 586.9 C 791.3 588.3 789.3 592.0 787.9 594.2 C 786.6 596.5 784.7 598.7 783.3 600.1 C 780.4 603.1 774.7 611.3 773.5 612.1 C 772.2 612.9 769.5 616.5 768.4 617.7 C 767.3 618.9 766.5 619.3 764.2 621.8 C 764.2 621.8 764.2 621.8 764.2 621.8 Z M 832.5 528.5 C 833.6 526.1 829.4 523.7 828.1 526.5 C 826.8 529.3 824.8 534.7 824.0 536.1 C 823.1 537.6 819.7 543.7 819.0 545.0 C 818.3 546.3 816.5 551.3 814.6 553.8 C 812.7 556.3 811.9 559.3 810.7 561.0 C 809.1 563.1 808.6 564.4 807.6 566.2 C 806.6 568.0 804.1 570.1 803.5 571.7 C 803.0 573.4 802.0 573.9 800.7 575.9 C 799.4 577.9 803.4 580.7 804.7 578.7 C 806.0 576.8 807.0 575.2 808.1 573.2 C 809.2 571.2 810.6 568.8 811.9 566.8 C 813.1 564.9 815.3 562.3 816.3 559.9 C 817.3 557.6 819.0 554.2 819.7 552.9 C 820.6 551.2 822.6 547.8 823.1 546.2 C 823.8 544.1 826.0 540.9 827.0 539.9 C 827.9 538.8 827.9 537.7 829.2 535.0 C 830.1 533.4 831.4 530.9 832.5 528.5 C 832.5 528.5 832.5 528.5 832.5 528.5 Z M 832.9 527.8 C 834.1 525.0 835.5 520.1 836.0 519.0 C 836.4 517.8 838.3 514.2 838.9 512.4 C 839.5 510.5 839.4 509.8 840.4 506.7 C 841.7 502.9 843.1 500.5 843.2 500.4 C 843.5 499.9 844.7 498.2 845.4 495.5 C 846.3 492.0 847.1 491.1 847.4 489.5 C 847.7 486.7 848.2 486.6 848.8 484.5 C 849.3 482.4 849.8 481.2 850.0 479.5 C 850.3 477.7 851.2 476.5 851.6 474.9 C 852.3 472.2 847.5 471.3 846.9 473.7 C 846.5 475.2 846.6 476.6 846.2 478.1 C 845.8 479.7 845.3 481.0 844.6 482.5 C 844.0 483.9 843.3 487.1 842.4 489.6 C 841.5 492.0 839.9 496.0 839.0 498.9 C 838.1 501.8 838.6 503.9 835.7 509.4 C 834.7 511.2 833.5 514.9 832.8 516.4 C 831.8 519.0 829.3 523.9 828.3 526.0 C 827.2 528.6 831.6 530.6 832.9 527.8 C 832.9 527.8 832.9 527.8 832.9 527.8 Z M 861.7 419.4 C 862.0 416.8 857.2 415.8 856.9 418.9 C 856.6 421.9 856.4 427.5 856.1 429.1 C 855.7 430.7 854.5 437.5 854.2 438.9 C 854.0 440.3 853.8 445.5 852.9 448.4 C 851.9 451.3 852.1 454.3 851.5 456.3 C 850.7 458.7 850.7 460.1 850.3 462.0 C 850.0 464.0 848.3 466.7 848.3 468.4 C 848.3 470.1 847.6 470.9 847.0 473.1 C 846.4 475.4 851.1 476.6 851.7 474.5 C 852.3 472.3 852.7 470.5 853.1 468.3 C 853.5 466.2 854.1 463.5 854.6 461.2 C 855.1 459.1 856.3 456.1 856.5 453.6 C 856.7 451.0 857.2 447.4 857.4 446.0 C 857.7 444.2 858.5 440.4 858.5 438.7 C 858.5 436.5 859.5 432.9 860.1 431.7 C 860.7 430.4 860.2 429.4 860.7 426.4 C 861.0 424.7 861.5 422.0 861.7 419.4 C 861.7 419.4 861.7 419.4 861.7 419.4 Z M 861.8 418.5 C 862.1 415.5 861.9 410.6 861.9 409.4 C 862.0 408.2 862.7 404.2 862.7 402.3 C 862.6 400.4 862.3 399.7 862.3 396.5 C 862.3 392.5 862.8 389.9 862.9 389.7 C 863.1 389.1 863.6 387.2 863.5 384.5 C 863.3 380.9 863.7 379.8 863.5 378.2 C 862.8 375.4 863.4 375.2 863.2 373.1 C 863.0 371.0 863.2 369.6 862.9 368.0 C 862.5 366.1 863.0 364.8 862.9 363.1 C 862.7 360.4 857.9 361.0 858.0 363.5 C 858.1 365.0 858.7 366.3 858.8 367.9 C 858.8 369.5 858.8 370.8 858.6 372.4 C 858.5 374.0 858.9 377.2 858.8 379.8 C 858.7 382.4 858.4 386.7 858.5 389.6 C 858.5 392.6 859.7 394.5 858.6 400.5 C 858.3 402.5 858.3 406.4 858.2 408.0 C 858.0 410.7 857.2 416.1 856.9 418.4 C 856.7 421.1 861.5 421.6 861.8 418.5 C 861.8 418.5 861.8 418.5 861.8 418.5 Z M 855.1 307.3 C 854.5 304.7 849.7 305.4 850.3 308.3 C 851.0 311.3 852.5 316.7 852.8 318.4 C 853.0 320.0 853.9 326.8 854.1 328.2 C 854.3 329.6 855.8 334.6 855.8 337.7 C 855.8 340.7 856.9 343.5 856.9 345.5 C 856.9 348.1 857.4 349.4 857.6 351.4 C 857.9 353.3 857.2 356.4 857.7 358.0 C 858.3 359.6 857.8 360.6 858.0 362.9 C 858.1 365.2 863.0 364.9 862.9 362.7 C 862.7 360.5 862.5 358.6 862.2 356.5 C 862.0 354.3 861.7 351.6 861.4 349.3 C 861.2 347.1 861.5 343.9 860.8 341.4 C 860.2 339.0 859.6 335.4 859.4 334.0 C 859.0 332.2 858.6 328.3 858.1 326.7 C 857.4 324.6 857.2 320.9 857.4 319.5 C 857.5 318.1 856.8 317.3 856.3 314.4 C 856.0 312.6 855.7 309.8 855.1 307.3 C 855.1 307.3 855.1 307.3 855.1 307.3 Z M 850.2 308.0 C 850.7 310.3 855.5 309.3 854.9 306.6 C 854.3 303.7 851.9 297.7 851.6 296.1 C 851.3 294.4 851.0 289.7 850.6 288.3 C 850.2 286.9 846.8 280.5 846.2 277.4 C 845.7 274.4 845.2 273.6 844.5 271.6 C 843.9 269.7 842.5 266.6 841.7 264.8 C 840.9 262.9 841.5 260.8 840.3 258.4 C 839.0 256.1 838.9 254.6 838.3 252.9 C 837.2 250.2 832.7 252.2 833.7 254.7 C 834.7 257.1 835.0 258.9 835.9 260.9 C 836.8 262.9 837.9 264.5 838.1 266.6 C 838.3 268.7 840.2 272.3 841.3 274.6 C 842.3 276.9 843.0 279.6 843.4 281.5 C 844.2 285.4 847.6 294.2 847.5 295.6 C 847.5 297.0 848.9 301.1 849.3 302.6 C 849.6 304.0 849.5 304.9 850.2 308.0 C 850.2 308.0 850.2 308.0 850.2 308.0 Z M 838.0 252.3 C 836.9 249.4 834.3 245.1 833.8 244.0 C 833.3 242.9 832.0 239.0 831.1 237.2 C 830.2 235.5 829.6 235.1 828.1 232.2 C 826.2 228.5 825.4 225.9 825.3 225.7 C 825.2 225.1 824.8 223.1 823.4 220.8 C 821.5 217.6 821.3 216.4 820.4 215.0 C 818.5 212.8 818.8 212.3 817.7 210.5 C 816.5 208.7 816.0 207.4 814.9 206.0 C 813.7 204.5 813.5 203.0 812.6 201.5 C 811.1 199.2 807.1 202.0 808.4 204.2 C 809.2 205.5 810.4 206.4 811.2 207.8 C 812.0 209.2 812.7 210.5 813.3 212.0 C 813.9 213.6 815.8 216.3 817.0 218.7 C 818.2 221.1 819.9 225.1 821.4 227.7 C 822.9 230.4 824.8 231.6 826.7 237.5 C 827.3 239.4 829.2 243.0 829.8 244.4 C 830.9 247.0 832.7 252.2 833.6 254.4 C 834.6 257.0 839.1 255.1 838.0 252.3 C 838.0 252.3 838.0 252.3 838.0 252.3 Z M 777.9 154.0 C 776.0 151.9 772.0 154.8 774.2 157.2 C 776.3 159.6 780.4 163.9 781.4 165.3 C 782.4 166.7 786.7 172.6 787.6 173.8 C 788.5 175.0 792.3 178.9 793.8 181.6 C 795.3 184.4 797.7 186.4 798.7 188.3 C 800.0 190.6 801.0 191.7 802.2 193.3 C 803.4 194.9 804.2 198.1 805.5 199.3 C 806.8 200.5 806.9 201.6 808.1 203.6 C 809.4 205.7 813.5 203.2 812.3 201.2 C 811.1 199.3 810.1 197.7 808.7 195.8 C 807.4 193.9 805.9 191.7 804.5 189.6 C 803.3 187.8 801.9 184.7 800.1 182.7 C 798.4 180.7 796.1 177.8 795.1 176.6 C 793.9 175.1 791.6 171.7 790.3 170.5 C 788.7 168.9 786.7 165.6 786.1 164.2 C 785.5 162.8 784.5 162.4 782.6 160.0 C 781.4 158.5 779.7 156.1 777.9 154.0 C 777.9 154.0 777.9 154.0 777.9 154.0 Z M 777.3 153.4 C 775.2 150.9 771.2 147.5 770.3 146.5 C 769.4 145.6 766.8 142.2 765.3 140.8 C 763.8 139.4 763.0 139.2 760.5 136.8 C 757.4 133.8 755.7 131.5 755.6 131.3 C 755.3 130.8 754.1 129.0 751.9 127.1 C 748.9 124.6 748.4 123.5 746.9 122.5 C 744.4 121.0 744.5 120.4 742.8 119.0 C 741.0 117.6 740.1 116.5 738.6 115.6 C 736.9 114.6 736.2 113.2 734.8 112.1 C 732.6 110.2 729.7 114.2 731.7 115.9 C 733.0 116.9 734.4 117.4 735.7 118.5 C 737.0 119.6 738.0 120.6 739.1 121.9 C 740.3 123.1 743.1 125.2 745.0 127.1 C 747.0 129.0 750.1 132.4 752.5 134.5 C 754.9 136.7 757.2 137.2 761.2 142.4 C 762.4 144.1 765.5 147.0 766.6 148.3 C 768.7 150.4 772.2 154.9 773.8 156.8 C 775.7 159.0 779.4 155.8 777.3 153.4 C 777.3 153.4 777.3 153.4 777.3 153.4 Z M 686.5 78.8 C 684.2 77.4 681.4 81.5 684.1 83.0 C 686.8 84.6 692.0 87.1 693.4 88.1 C 694.8 89.1 700.6 93.1 701.9 94.0 C 703.1 94.8 707.9 97.2 710.3 99.3 C 712.6 101.4 715.5 102.5 717.1 104.0 C 719.1 105.8 720.4 106.4 722.1 107.6 C 723.8 108.7 725.7 111.5 727.3 112.2 C 728.9 113.0 729.4 114.0 731.3 115.5 C 733.2 117.0 736.3 113.3 734.5 111.8 C 732.6 110.3 731.1 109.1 729.2 107.8 C 727.3 106.5 725.0 104.8 723.1 103.3 C 721.3 102.0 718.9 99.5 716.6 98.2 C 714.3 96.9 711.1 94.9 709.8 94.1 C 708.2 93.1 705.0 90.7 703.4 90.0 C 701.3 89.1 698.4 86.6 697.4 85.5 C 696.4 84.4 695.3 84.4 692.8 82.7 C 691.2 81.7 688.9 80.1 686.5 78.8 C 686.5 78.8 686.5 78.8 686.5 78.8 Z M 685.8 78.4 C 683.1 76.8 678.4 75.0 677.3 74.4 C 676.2 73.8 672.7 71.6 670.9 70.8 C 669.1 70.0 668.4 70.0 665.4 68.7 C 661.7 67.0 659.4 65.5 659.3 65.3 C 658.8 64.9 657.2 63.7 654.6 62.7 C 651.2 61.4 650.4 60.5 648.8 60.1 C 646.0 59.5 645.9 58.9 643.9 58.2 C 641.9 57.5 640.7 56.8 639.0 56.5 C 637.2 56.1 636.2 55.0 634.5 54.4 C 632.0 53.5 630.5 58.2 632.9 59.1 C 634.3 59.6 635.8 59.6 637.3 60.2 C 638.8 60.8 640.1 61.4 641.5 62.1 C 642.9 62.9 646.0 63.9 648.4 65.0 C 650.8 66.2 654.6 68.2 657.4 69.3 C 660.2 70.5 662.4 70.3 667.7 73.7 C 669.3 74.8 673.0 76.5 674.4 77.2 C 676.9 78.6 681.6 81.6 683.7 82.7 C 686.1 84.2 688.5 79.9 685.8 78.4 C 685.8 78.4 685.8 78.4 685.8 78.4 Z M 580.0 39.1 C 577.4 38.6 576.1 43.3 579.0 43.9 C 582.0 44.5 587.6 45.2 589.2 45.7 C 590.8 46.1 597.4 48.1 598.8 48.4 C 600.2 48.8 605.4 49.4 608.2 50.6 C 610.9 51.9 614.0 51.9 615.9 52.8 C 618.3 53.8 619.7 54.0 621.6 54.5 C 623.5 55.0 626.0 56.9 627.7 57.1 C 629.4 57.3 630.2 58.0 632.3 58.8 C 634.5 59.7 636.3 55.1 634.2 54.3 C 632.1 53.5 630.2 53.0 628.1 52.3 C 626.0 51.7 623.4 50.9 621.2 50.2 C 619.1 49.5 616.2 48.0 613.7 47.5 C 611.2 47.1 607.6 46.2 606.2 45.9 C 604.4 45.5 600.7 44.3 599.0 44.2 C 596.8 44.0 593.3 42.6 592.1 41.9 C 590.9 41.2 589.8 41.5 587.0 40.8 C 585.2 40.4 582.6 39.6 580.0 39.1 C 580.0 39.1 580.0 39.1 580.0 39.1 Z M 578.7 43.8 C 581.0 44.3 582.0 39.5 579.3 38.9 C 576.4 38.4 570.0 38.2 568.3 37.8 C 566.7 37.4 562.3 35.8 560.8 35.6 C 559.4 35.4 552.2 36.0 549.2 35.2 C 546.3 34.5 545.4 34.6 543.3 34.5 C 541.2 34.3 537.9 34.3 535.9 34.3 C 534.0 34.3 532.3 32.9 529.7 33.1 C 527.1 33.3 525.7 32.7 523.9 32.7 C 521.0 32.6 521.1 37.5 523.7 37.6 C 526.2 37.6 528.0 38.0 530.1 38.1 C 532.3 38.1 534.2 37.7 536.2 38.3 C 538.2 39.0 542.2 38.7 544.7 38.7 C 547.2 38.6 549.9 39.0 551.8 39.4 C 555.6 40.3 565.0 40.7 566.3 41.3 C 567.6 41.9 571.8 42.2 573.3 42.5 C 574.8 42.8 575.6 43.2 578.7 43.8 C 578.7 43.8 578.7 43.8 578.7 43.8 Z M 523.2 32.7 C 520.2 32.6 515.3 33.2 514.1 33.1 C 512.9 33.1 508.8 32.8 506.9 32.9 C 505.0 33.0 504.4 33.4 501.2 33.6 C 497.2 33.9 494.5 33.5 494.4 33.5 C 493.8 33.3 491.8 33.0 489.1 33.3 C 485.5 33.7 484.4 33.4 482.8 33.7 C 480.1 34.5 479.8 34.0 477.7 34.3 C 475.6 34.6 474.3 34.5 472.7 35.0 C 470.9 35.5 469.5 35.0 467.8 35.3 C 465.1 35.6 466.0 40.4 468.5 40.1 C 470.0 39.9 471.3 39.2 472.8 39.1 C 474.4 38.9 475.8 38.8 477.4 38.9 C 479.0 38.9 482.2 38.3 484.8 38.2 C 487.3 38.1 491.6 38.1 494.6 37.9 C 497.5 37.6 499.3 36.4 505.4 37.0 C 507.4 37.2 511.3 37.0 512.9 37.0 C 515.7 37.0 521.0 37.5 523.3 37.5 C 526.1 37.6 526.2 32.8 523.2 32.7 C 523.2 32.7 523.2 32.7 523.2 32.7 Z M 412.5 46.8 C 410.0 47.5 410.9 52.3 413.9 51.5 C 416.8 50.6 422.1 48.7 423.7 48.4 C 425.4 48.1 432.1 46.7 433.5 46.4 C 434.9 46.1 439.8 44.2 442.8 44.0 C 445.9 43.8 448.6 42.5 450.6 42.4 C 453.2 42.2 454.5 41.7 456.4 41.3 C 458.3 40.9 461.5 41.4 463.0 40.8 C 464.6 40.1 465.6 40.5 467.9 40.2 C 470.2 39.9 469.6 35.0 467.4 35.3 C 465.2 35.6 463.3 35.9 461.2 36.4 C 459.0 36.8 456.4 37.3 454.1 37.6 C 451.9 38.0 448.7 38.0 446.3 38.8 C 443.9 39.5 440.3 40.4 438.9 40.7 C 437.1 41.2 433.3 41.9 431.7 42.5 C 429.7 43.3 426.0 43.7 424.6 43.7 C 423.1 43.6 422.4 44.4 419.5 45.1 C 417.8 45.5 415.0 46.0 412.5 46.8 C 412.5 46.8 412.5 46.8 412.5 46.8 Z M 411.7 47.0 C 408.8 47.9 404.3 50.0 403.1 50.4 C 401.9 50.8 398.0 51.7 396.2 52.4 C 394.4 53.2 393.9 53.7 390.9 55.0 C 387.1 56.5 384.5 57.0 384.3 57.0 C 383.7 57.1 381.7 57.3 379.2 58.5 C 375.9 60.1 374.7 60.1 373.3 60.9 C 370.9 62.6 370.5 62.2 368.5 63.1 C 366.6 64.1 365.3 64.5 363.9 65.4 C 362.3 66.5 360.8 66.5 359.2 67.3 C 356.8 68.5 359.2 72.8 361.5 71.7 C 362.8 71.0 363.9 70.0 365.3 69.3 C 366.8 68.6 368.1 68.1 369.7 67.6 C 371.2 67.1 374.1 65.5 376.6 64.6 C 379.0 63.7 383.1 62.3 385.9 61.1 C 388.7 59.9 390.0 58.2 396.1 56.8 C 398.0 56.4 401.7 54.9 403.2 54.4 C 405.9 53.5 411.1 52.3 413.4 51.6 C 416.0 50.8 414.6 46.2 411.7 47.0 C 411.7 47.0 411.7 47.0 411.7 47.0 Z M 361.1 71.9 C 363.2 70.9 361.1 66.4 358.6 67.6 C 355.9 68.9 350.5 72.7 349.0 73.4 C 347.4 74.1 342.8 75.5 341.5 76.2 C 340.2 77.0 334.6 81.8 331.7 83.1 C 328.8 84.3 328.2 85.0 326.3 86.1 C 324.5 87.2 321.8 89.3 320.1 90.6 C 318.5 91.8 316.2 91.7 314.2 93.5 C 312.2 95.3 310.7 95.8 309.2 96.8 C 306.7 98.6 309.7 102.4 312.0 100.8 C 314.1 99.3 315.8 98.5 317.6 97.2 C 319.4 95.8 320.7 94.3 322.8 93.6 C 324.9 92.9 328.0 90.2 330.0 88.6 C 332.0 87.0 334.5 85.7 336.4 84.8 C 340.0 83.1 348.0 77.7 349.4 77.4 C 350.8 77.1 354.5 74.8 355.9 74.1 C 357.3 73.4 358.2 73.3 361.1 71.9 C 361.1 71.9 361.1 71.9 361.1 71.9 Z M 308.6 97.3 C 306.0 99.1 302.3 102.7 301.3 103.4 C 300.2 104.2 296.7 106.5 295.1 107.8 C 293.6 109.1 293.3 109.8 290.8 112.0 C 287.6 114.8 285.2 116.3 285.0 116.3 C 284.4 116.6 282.5 117.6 280.5 119.6 C 277.7 122.3 276.5 122.7 275.4 124.0 C 273.6 126.4 273.1 126.2 271.5 127.8 C 269.9 129.5 268.7 130.3 267.6 131.7 C 266.4 133.3 265.0 133.9 263.7 135.2 C 261.6 137.2 265.3 140.5 267.2 138.6 C 268.3 137.5 269.0 136.1 270.2 134.9 C 271.5 133.7 272.6 132.7 274.0 131.7 C 275.4 130.7 277.7 128.1 279.8 126.4 C 281.9 124.6 285.5 121.8 287.8 119.7 C 290.2 117.6 290.9 115.4 296.4 112.0 C 298.2 110.9 301.3 108.2 302.6 107.2 C 304.9 105.5 309.7 102.5 311.6 101.1 C 314.0 99.4 311.1 95.4 308.6 97.3 C 308.6 97.3 308.6 97.3 308.6 97.3 Z M 266.9 138.9 C 268.6 137.1 265.2 133.6 263.1 135.8 C 260.9 138.0 256.8 143.5 255.5 144.7 C 254.2 146.0 250.2 149.0 249.2 150.2 C 248.2 151.3 244.3 157.9 242.0 160.1 C 239.6 162.3 239.2 163.1 237.9 164.9 C 236.5 166.6 234.6 169.5 233.4 171.2 C 232.2 172.9 230.1 173.6 228.7 176.0 C 227.4 178.4 226.2 179.3 225.1 180.8 C 223.3 183.3 227.4 185.9 229.0 183.7 C 230.6 181.5 231.9 180.2 233.2 178.3 C 234.4 176.5 235.2 174.6 236.9 173.2 C 238.6 171.8 240.8 168.2 242.2 166.0 C 243.6 163.8 245.5 161.6 247.0 160.2 C 250.0 157.3 256.0 149.2 257.3 148.5 C 258.5 147.7 261.4 144.1 262.5 142.9 C 263.6 141.8 264.6 141.4 266.9 138.9 C 266.9 138.9 266.9 138.9 266.9 138.9 Z M 224.7 181.4 C 222.8 184.0 220.5 188.6 219.8 189.6 C 219.1 190.7 216.5 194.0 215.5 195.7 C 214.6 197.4 214.5 198.2 212.9 201.0 C 210.9 204.6 209.1 206.7 208.9 206.9 C 208.5 207.3 207.0 208.8 205.8 211.3 C 204.2 214.6 203.2 215.4 202.6 216.9 C 201.8 219.7 201.2 219.7 200.3 221.6 C 199.4 223.6 198.6 224.7 198.0 226.3 C 197.5 228.2 196.3 229.1 195.6 230.7 C 194.4 233.2 198.9 235.0 200.0 232.8 C 200.7 231.4 200.8 229.9 201.6 228.5 C 202.3 227.0 203.0 225.8 203.9 224.4 C 204.9 223.1 206.2 220.0 207.5 217.8 C 208.9 215.5 211.3 211.8 212.7 209.1 C 214.2 206.4 214.2 204.2 218.2 199.2 C 219.4 197.7 221.5 194.1 222.4 192.8 C 224.0 190.4 227.4 186.0 228.8 184.0 C 230.5 181.6 226.5 178.8 224.7 181.4 C 224.7 181.4 224.7 181.4 224.7 181.4 Z M 199.8 233.2 C 200.9 231.0 196.5 228.8 195.3 231.3 C 194.0 234.0 192.1 240.3 191.3 241.8 C 190.5 243.3 187.8 247.2 187.2 248.6 C 186.7 250.0 185.3 257.1 183.9 259.9 C 182.4 262.6 182.3 263.5 181.6 265.5 C 180.9 267.4 180.1 270.7 179.6 272.6 C 179.0 274.6 177.2 275.9 176.8 278.5 C 176.3 281.1 175.4 282.3 174.9 284.0 C 174.1 286.8 178.9 288.0 179.6 285.4 C 180.3 282.9 181.2 281.4 181.7 279.2 C 182.3 277.1 182.4 275.2 183.5 273.4 C 184.7 271.6 185.5 267.6 186.0 265.2 C 186.6 262.7 187.7 260.2 188.6 258.4 C 190.4 254.9 193.2 245.8 194.2 244.7 C 195.1 243.6 196.5 239.5 197.2 238.1 C 197.8 236.7 198.5 236.0 199.8 233.2 C 199.8 233.2 199.8 233.2 199.8 233.2 Z M 163.3 339.2 C 163.0 341.8 167.8 342.8 168.2 339.8 C 168.6 336.8 168.9 331.2 169.3 329.6 C 169.7 327.9 171.1 321.2 171.4 319.8 C 171.6 318.4 171.9 313.2 173.0 310.3 C 174.0 307.5 173.9 304.5 174.6 302.5 C 175.4 300.1 175.5 298.7 175.9 296.8 C 176.3 294.8 178.0 292.2 178.1 290.5 C 178.1 288.8 178.9 288.0 179.5 285.8 C 180.2 283.5 175.5 282.1 174.9 284.3 C 174.2 286.4 173.8 288.2 173.3 290.4 C 172.8 292.6 172.2 295.2 171.6 297.5 C 171.1 299.6 169.8 302.6 169.5 305.1 C 169.2 307.6 168.6 311.2 168.4 312.6 C 168.1 314.4 167.2 318.2 167.1 319.9 C 167.1 322.1 166.0 325.6 165.3 326.9 C 164.7 328.2 165.1 329.2 164.6 332.1 C 164.3 333.8 163.7 336.6 163.3 339.2 C 163.3 339.2 163.3 339.2 163.3 339.2 Z M 163.2 340.0 C 162.9 343.0 163.0 347.9 162.9 349.1 C 162.7 350.3 162.0 354.3 162.0 356.2 C 161.9 358.1 162.2 358.8 162.2 362.0 C 162.0 366.0 161.4 368.6 161.4 368.8 C 161.2 369.3 160.6 371.3 160.7 374.0 C 160.8 377.6 160.3 378.7 160.5 380.3 C 161.1 383.0 160.5 383.3 160.6 385.4 C 160.7 387.5 160.5 388.8 160.8 390.5 C 161.2 392.3 160.6 393.7 160.7 395.4 C 160.8 398.1 165.7 397.6 165.6 395.1 C 165.5 393.6 165.0 392.3 164.9 390.7 C 164.9 389.1 165.0 387.8 165.2 386.2 C 165.4 384.6 165.1 381.4 165.2 378.8 C 165.4 376.2 165.8 372.0 165.8 369.0 C 165.8 366.0 164.7 364.1 165.9 358.1 C 166.3 356.1 166.4 352.2 166.6 350.7 C 166.9 347.9 167.8 342.6 168.1 340.3 C 168.5 337.5 163.6 337.0 163.2 340.0 C 163.2 340.0 163.2 340.0 163.2 340.0 Z M 165.6 395.6 C 165.5 393.3 160.6 393.3 160.7 396.1 C 160.8 399.0 162.0 405.3 162.0 407.0 C 162.0 408.7 161.4 413.3 161.6 414.8 C 161.7 416.2 163.8 423.1 163.8 426.2 C 163.7 429.2 164.1 430.0 164.4 432.1 C 164.6 434.2 165.4 437.4 165.8 439.3 C 166.3 441.3 165.3 443.2 166.1 445.7 C 166.9 448.2 166.6 449.7 167.0 451.5 C 167.5 454.3 172.3 453.2 171.8 450.6 C 171.3 448.1 171.3 446.3 170.8 444.2 C 170.3 442.1 169.5 440.3 169.7 438.2 C 169.9 436.1 168.8 432.2 168.2 429.8 C 167.5 427.4 167.3 424.7 167.3 422.7 C 167.3 418.8 165.6 409.5 165.9 408.2 C 166.2 406.8 165.6 402.6 165.5 401.1 C 165.4 399.5 165.7 398.7 165.6 395.6 C 165.6 395.6 165.6 395.6 165.6 395.6 Z M 182.2 505.9 C 183.1 508.4 187.9 507.1 186.8 504.3 C 185.7 501.4 183.5 496.2 183.0 494.6 C 182.6 493.0 180.8 486.3 180.4 484.9 C 179.9 483.5 177.8 478.7 177.4 475.7 C 177.0 472.7 175.5 470.1 175.2 468.0 C 174.9 465.5 174.3 464.2 173.7 462.3 C 173.2 460.4 173.5 457.3 172.8 455.8 C 172.0 454.2 172.3 453.2 171.9 450.9 C 171.4 448.7 166.6 449.6 167.1 451.7 C 167.5 453.9 167.9 455.8 168.5 457.9 C 169.1 460.0 169.7 462.6 170.3 464.9 C 170.8 467.0 171.0 470.3 171.9 472.7 C 172.8 475.0 173.9 478.5 174.4 479.9 C 174.9 481.6 175.9 485.4 176.6 487.0 C 177.6 488.9 178.3 492.6 178.3 494.0 C 178.3 495.5 179.2 496.2 180.0 499.0 C 180.6 500.7 181.3 503.5 182.2 505.9 C 182.2 505.9 182.2 505.9 182.2 505.9 Z M 187.0 504.6 C 186.1 502.4 181.5 504.0 182.5 506.6 C 183.5 509.4 186.7 515.1 187.2 516.7 C 187.8 518.3 188.7 523.0 189.3 524.3 C 189.9 525.7 194.2 531.6 195.1 534.6 C 196.1 537.6 196.7 538.2 197.6 540.2 C 198.6 542.1 200.4 544.9 201.4 546.7 C 202.4 548.4 202.1 550.6 203.7 552.8 C 205.3 555.0 205.6 556.5 206.5 558.1 C 208.0 560.6 212.1 558.0 210.8 555.7 C 209.5 553.4 208.9 551.7 207.7 549.8 C 206.6 547.9 205.2 546.5 204.7 544.3 C 204.2 542.3 201.9 538.9 200.5 536.8 C 199.1 534.6 198.0 532.0 197.4 530.2 C 196.0 526.4 191.4 518.0 191.3 516.6 C 191.2 515.2 189.2 511.3 188.6 509.9 C 188.1 508.4 188.1 507.6 187.0 504.6 C 187.0 504.6 187.0 504.6 187.0 504.6 Z M 206.9 558.7 C 208.4 561.4 211.6 565.4 212.2 566.5 C 212.9 567.5 214.8 571.3 215.9 572.9 C 217.1 574.5 217.7 574.8 219.7 577.5 C 222.1 580.9 223.2 583.5 223.3 583.7 C 223.5 584.2 224.2 586.2 226.0 588.4 C 228.4 591.3 228.7 592.5 229.9 593.7 C 232.1 595.7 231.8 596.3 233.2 597.9 C 234.7 599.7 235.3 600.9 236.7 602.1 C 238.1 603.4 238.5 604.9 239.7 606.3 C 241.5 608.5 245.1 605.1 243.4 603.1 C 242.4 601.9 241.1 601.1 240.0 599.8 C 239.0 598.5 238.2 597.3 237.3 595.8 C 236.5 594.4 234.2 591.9 232.7 589.7 C 231.1 587.4 228.8 583.6 226.9 581.2 C 225.1 578.7 223.0 577.7 220.2 572.0 C 219.3 570.2 217.0 566.9 216.1 565.5 C 214.6 563.0 212.1 558.1 210.9 556.0 C 209.5 553.5 205.3 556.0 206.9 558.7 C 206.9 558.7 206.9 558.7 206.9 558.7 Z M 281.5 649.4 C 283.6 651.2 287.1 647.8 284.7 645.7 C 282.3 643.6 277.6 639.9 276.3 638.7 C 275.1 637.4 270.0 632.1 268.9 631.0 C 267.8 629.9 263.4 626.5 261.5 623.9 C 259.5 621.3 256.8 619.6 255.5 617.8 C 253.9 615.6 252.7 614.7 251.3 613.2 C 249.8 611.7 248.5 608.7 247.0 607.6 C 245.6 606.5 245.3 605.5 243.8 603.6 C 242.2 601.7 238.4 604.8 239.9 606.6 C 241.4 608.4 242.7 609.9 244.3 611.6 C 245.9 613.3 247.8 615.3 249.5 617.2 C 251.0 618.9 252.9 621.9 254.9 623.6 C 257.0 625.4 259.8 628.1 260.9 629.2 C 262.3 630.5 265.2 633.6 266.7 634.7 C 268.6 636.0 271.1 639.1 271.8 640.4 C 272.6 641.7 273.7 642.0 276.0 644.2 C 277.3 645.5 279.4 647.6 281.5 649.4 C 281.5 649.4 281.5 649.4 281.5 649.4 Z M 282.2 650.0 C 284.6 652.1 289.0 654.9 290.0 655.7 C 291.0 656.5 294.0 659.5 295.7 660.6 C 297.3 661.8 298.1 661.9 300.8 663.8 C 304.3 666.3 306.2 668.3 306.3 668.4 C 306.7 668.9 308.1 670.5 310.5 672.0 C 313.7 674.0 314.3 675.0 315.8 675.8 C 318.5 676.9 318.5 677.5 320.3 678.6 C 322.2 679.7 323.3 680.6 324.9 681.3 C 326.7 682.1 327.5 683.4 329.0 684.2 C 331.4 685.7 333.7 681.3 331.5 680.0 C 330.2 679.2 328.7 678.9 327.3 678.0 C 325.9 677.1 324.8 676.3 323.5 675.2 C 322.2 674.2 319.3 672.6 317.1 671.0 C 315.0 669.4 311.5 666.6 308.9 664.9 C 306.3 663.1 304.1 662.9 299.5 658.4 C 298.0 656.9 294.7 654.5 293.4 653.5 C 291.1 651.6 287.0 647.7 285.1 646.1 C 282.9 644.2 279.7 647.9 282.2 650.0 C 282.2 650.0 282.2 650.0 282.2 650.0 Z M 380.4 710.1 C 382.9 711.1 385.1 706.7 382.3 705.5 C 379.4 704.4 374.0 702.6 372.5 701.8 C 371.0 701.0 364.8 697.9 363.5 697.3 C 362.2 696.6 357.1 695.0 354.6 693.2 C 352.0 691.5 349.0 690.8 347.3 689.6 C 345.1 688.1 343.8 687.7 342.0 686.8 C 340.2 685.9 338.0 683.5 336.3 683.0 C 334.6 682.5 334.0 681.6 332.0 680.3 C 330.0 679.1 327.4 683.2 329.4 684.4 C 331.3 685.6 333.0 686.5 335.0 687.6 C 337.0 688.6 339.4 689.9 341.6 691.1 C 343.5 692.2 346.1 694.3 348.5 695.2 C 350.9 696.1 354.3 697.7 355.7 698.3 C 357.4 699.1 360.9 700.9 362.5 701.4 C 364.6 702.0 367.8 704.0 368.9 705.0 C 370.0 705.9 371.1 705.8 373.8 707.0 C 375.5 707.8 378.0 709.1 380.4 710.1 C 380.4 710.1 380.4 710.1 380.4 710.1 Z M 382.6 705.6 C 380.4 704.8 378.5 709.3 381.1 710.3 C 383.9 711.4 390.2 712.9 391.8 713.6 C 393.3 714.2 397.4 716.7 398.8 717.1 C 400.2 717.6 407.4 718.4 410.2 719.7 C 413.0 721.0 413.9 721.0 415.9 721.6 C 417.9 722.2 421.2 722.7 423.2 723.1 C 425.1 723.5 426.5 725.2 429.1 725.5 C 431.8 725.8 433.0 726.6 434.8 727.0 C 437.6 727.6 438.5 722.8 435.9 722.2 C 433.4 721.7 431.7 720.9 429.6 720.5 C 427.5 720.1 425.5 720.2 423.7 719.1 C 421.8 718.1 417.8 717.6 415.3 717.2 C 412.9 716.8 410.3 715.9 408.5 715.1 C 404.8 713.5 395.6 711.3 394.4 710.5 C 393.3 709.7 389.1 708.5 387.7 708.0 C 386.2 707.4 385.6 706.8 382.6 705.6 C 382.6 705.6 382.6 705.6 382.6 705.6 Z M 435.5 727.1 C 438.4 727.8 443.4 728.1 444.6 728.4 C 445.7 728.6 449.6 729.7 451.6 729.9 C 453.5 730.1 454.1 729.9 457.3 730.3 C 461.3 730.8 463.9 731.6 464.0 731.7 C 464.6 731.9 466.4 732.7 469.1 732.9 C 472.8 733.1 473.8 733.7 475.4 733.6 C 478.2 733.3 478.4 733.9 480.5 734.0 C 482.6 734.1 483.9 734.4 485.6 734.2 C 487.5 734.1 488.8 734.8 490.5 734.9 C 493.2 735.0 493.2 730.1 490.7 730.0 C 489.2 729.9 487.8 730.3 486.2 730.2 C 484.6 730.1 483.3 729.9 481.7 729.5 C 480.2 729.2 476.9 729.2 474.4 728.8 C 471.8 728.4 467.6 727.6 464.6 727.3 C 461.7 727.0 459.7 727.9 453.8 726.1 C 451.9 725.6 448.0 725.1 446.4 724.8 C 443.7 724.3 438.5 722.8 436.2 722.3 C 433.5 721.7 432.5 726.5 435.5 727.1 C 435.5 727.1 435.5 727.1 435.5 727.1 Z M 546.7 733.8 C 549.3 733.6 549.3 728.6 546.2 728.9 C 543.2 729.2 537.7 730.1 536.0 730.2 C 534.4 730.2 527.5 730.2 526.1 730.3 C 524.7 730.3 519.5 731.2 516.6 730.9 C 513.6 730.5 510.7 731.3 508.6 731.0 C 506.1 730.7 504.7 731.0 502.7 731.0 C 500.8 731.1 497.8 730.0 496.2 730.3 C 494.5 730.7 493.6 730.1 491.3 730.0 C 489.0 729.9 488.7 734.7 490.9 734.9 C 493.1 735.0 495.0 735.0 497.1 735.0 C 499.3 735.0 502.0 735.0 504.4 735.1 C 506.5 735.1 509.7 735.7 512.2 735.4 C 514.7 735.1 518.3 734.9 519.8 734.8 C 521.6 734.7 525.5 734.8 527.2 734.4 C 529.3 734.0 533.0 734.3 534.3 734.6 C 535.7 734.9 536.6 734.3 539.6 734.2 C 541.3 734.1 544.1 734.1 546.7 733.8 C 546.7 733.8 546.7 733.8 546.7 733.8 Z M 547.5 733.7 C 550.5 733.4 555.4 732.2 556.5 732.0 C 557.7 731.9 561.8 731.7 563.7 731.3 C 565.5 730.9 566.1 730.5 569.3 729.9 C 573.2 729.1 575.9 729.1 576.1 729.1 C 576.7 729.2 578.7 729.3 581.3 728.6 C 584.8 727.7 586.0 727.9 587.5 727.4 C 590.1 726.2 590.5 726.7 592.5 726.1 C 594.5 725.5 595.9 725.4 597.5 724.7 C 599.2 724.0 600.6 724.3 602.3 723.8 C 604.9 723.1 603.4 718.4 600.9 719.1 C 599.5 719.4 598.3 720.3 596.7 720.7 C 595.2 721.1 593.8 721.3 592.2 721.5 C 590.6 721.6 587.5 722.7 585.0 723.1 C 582.4 723.5 578.2 724.1 575.3 724.8 C 572.4 725.4 570.7 726.9 564.6 727.0 C 562.6 727.1 558.8 727.9 557.2 728.1 C 554.4 728.4 549.1 728.7 546.8 728.9 C 544.0 729.2 544.5 734.0 547.5 733.7 C 547.5 733.7 547.5 733.7 547.5 733.7 Z M 655.9 704.8 C 658.4 703.7 656.7 699.1 653.9 700.3 C 651.1 701.6 646.1 704.3 644.5 704.8 C 642.9 705.3 636.3 707.6 635.0 708.1 C 633.6 708.6 629.0 711.1 626.0 711.7 C 623.0 712.3 620.5 714.0 618.4 714.4 C 615.9 714.9 614.7 715.6 612.8 716.3 C 610.9 716.9 607.8 716.8 606.3 717.7 C 604.8 718.5 603.8 718.3 601.5 718.9 C 599.3 719.5 600.5 724.2 602.6 723.7 C 604.8 723.1 606.6 722.5 608.7 721.8 C 610.8 721.1 613.3 720.3 615.6 719.6 C 617.7 718.9 621.0 718.5 623.3 717.4 C 625.6 716.3 629.0 715.0 630.4 714.5 C 632.1 713.8 635.8 712.6 637.3 711.7 C 639.2 710.6 642.8 709.7 644.3 709.6 C 645.7 709.4 646.4 708.5 649.2 707.5 C 650.8 706.8 653.5 705.9 655.9 704.8 C 655.9 704.8 655.9 704.8 655.9 704.8 Z M 654.3 700.2 C 652.1 701.1 654.0 705.7 656.6 704.5 C 659.3 703.3 664.8 699.7 666.4 699.0 C 667.9 698.4 672.6 697.1 673.9 696.4 C 675.2 695.7 680.9 691.0 683.8 689.9 C 686.7 688.7 687.4 688.1 689.2 687.0 C 691.1 685.9 693.9 683.9 695.5 682.7 C 697.2 681.6 699.5 681.7 701.6 679.9 C 703.6 678.2 705.1 677.8 706.7 676.8 C 709.1 675.1 706.3 671.2 704.0 672.7 C 701.8 674.2 700.1 674.9 698.2 676.2 C 696.4 677.5 695.1 678.9 693.0 679.6 C 690.9 680.3 687.7 682.8 685.6 684.4 C 683.6 685.9 681.1 687.2 679.2 688.0 C 675.5 689.5 667.4 694.7 666.0 695.0 C 664.6 695.2 660.9 697.5 659.4 698.1 C 658.1 698.8 657.2 698.9 654.3 700.2 C 654.3 700.2 654.3 700.2 654.3 700.2 Z M 707.3 676.4 C 709.9 674.6 713.7 671.2 714.7 670.4 C 715.7 669.7 719.4 667.6 720.9 666.3 C 722.4 665.0 722.8 664.3 725.4 662.2 C 728.6 659.5 731.1 658.1 731.3 658.1 C 731.8 657.8 733.8 656.9 735.9 655.0 C 738.7 652.4 739.8 652.0 741.0 650.7 C 742.8 648.4 743.4 648.6 745.0 647.0 C 746.6 645.5 747.8 644.7 749.0 643.3 C 750.2 641.7 751.7 641.2 753.0 639.9 C 755.1 637.9 751.5 634.6 749.5 636.4 C 748.4 637.5 747.7 638.9 746.4 640.0 C 745.2 641.2 744.0 642.1 742.6 643.1 C 741.2 644.0 738.8 646.5 736.7 648.2 C 734.5 649.9 730.9 652.6 728.5 654.6 C 726.1 656.7 725.3 658.8 719.8 662.0 C 718.0 663.1 714.8 665.6 713.5 666.6 C 711.1 668.3 706.3 671.2 704.3 672.5 C 701.9 674.1 704.7 678.1 707.3 676.4 C 707.3 676.4 707.3 676.4 707.3 676.4 Z M 707.3 676.4 " fill="#3D4453"></path><path d="M 0.0 0.0 L 28.9 0.0 L 32.4 0.0 " fill="none" stroke="#3D4453" stroke-width="7.00" transform="matrix(-0.83, 0.55, 0.55, 0.83, 765.0, 660.0)"></path><path d="M 748.5 687.5 L 717.8 691.2 L 733.3 664.4 Z M 748.5 687.5 " fill="#3D4453"></path><path d="M 0.0 0.0 L 27.6 0.0 L 31.1 0.0 " fill="none" stroke="#3D4453" stroke-width="7.00" transform="matrix(-0.52, -0.86, -0.86, 0.52, 177.7, 527.1)"></path><path d="M 151.6 510.6 L 149.2 479.8 L 175.2 496.3 Z M 151.6 510.6 " fill="#3D4453"></path><path d="M 0.0 0.0 L 24.8 0.0 L 28.3 0.0 " fill="none" stroke="#3D4453" stroke-width="7.00" transform="matrix(0.96, 0.29, 0.29, -0.96, 595.0, 23.7)"></path><path d="M 622.7 17.6 L 645.1 38.9 L 614.7 44.1 Z M 622.7 17.6 " fill="#3D4453"></path><text xml:space="preserve" font-family="GillSans-Light,Gill Sans" font-size="72.0" fill="#525252" transform="matrix(1.00, 0.00, -0.00, -1.00, 447.8, 442.2)">T</text><text xml:space="preserve" font-family="GillSans-Light,Gill Sans" font-size="72.0" fill="#525252" transform="matrix(1.00, 0.00, -0.00, -1.00, 489.1, 442.2)">H</text><text xml:space="preserve" font-family="GillSans-Light,Gill Sans" font-size="72.0" fill="#525252" transform="matrix(1.00, 0.00, -0.00, -1.00, 540.9, 442.2)">E</text><text xml:space="preserve" font-family="GillSans-Light,Gill Sans" font-size="72.0" fill="#525252" transform="matrix(1.00, 0.00, -0.00, -1.00, 406.9, 360.2)">E</text><text xml:space="preserve" font-family="GillSans-Light,Gill Sans" font-size="72.0" fill="#525252" transform="matrix(1.00, 0.00, -0.00, -1.00, 442.2, 360.2)">V</text><text xml:space="preserve" font-family="GillSans-Light,Gill Sans" font-size="72.0" fill="#525252" transform="matrix(1.00, 0.00, -0.00, -1.00, 485.0, 360.2)">E</text><text xml:space="preserve" font-family="GillSans-Light,Gill Sans" font-size="72.0" fill="#525252" transform="matrix(1.00, 0.00, -0.00, -1.00, 520.3, 360.2)">N</text><text xml:space="preserve" font-family="GillSans-Light,Gill Sans" font-size="72.0" fill="#525252" transform="matrix(1.00, 0.00, -0.00, -1.00, 575.9, 360.2)">T</text><text xml:space="preserve" font-family="GillSans-Light,Gill Sans" font-size="72.0" fill="#525252" transform="matrix(1.00, 0.00, -0.00, -1.00, 417.5, 278.2)">L</text><text xml:space="preserve" font-family="GillSans-Light,Gill Sans" font-size="72.0" fill="#525252" transform="matrix(1.00, 0.00, -0.00, -1.00, 451.3, 278.2)">O</text><text xml:space="preserve" font-family="GillSans-Light,Gill Sans" font-size="72.0" fill="#525252" transform="matrix(1.00, 0.00, -0.00, -1.00, 510.6, 278.2)">O</text><text xml:space="preserve" font-family="GillSans-Light,Gill Sans" font-size="72.0" fill="#525252" transform="matrix(1.00, 0.00, -0.00, -1.00, 569.9, 278.2)">P</text><path d="M 0.3 0.0 L 49.3 0.0 " fill="none" stroke="#FF2600" stroke-width="6.00" transform="matrix(0.00, -1.00, -1.00, 0.00, 512.0, 757.3)"></path></g></svg>