<?xml version="1.0" encoding="UTF-8" standalone="no"?><svg xmlns="http://www.w3.org/2000/svg" xmlns:xlink="http://www.w3.org/1999/xlink" clip-rule="evenodd" stroke-miterlimit="10" viewBox="0 0 1024 768"><desc>SVG generated by Keynote</desc><defs></defs><g transform="matrix(1.00, 0.00, -0.00, -1.00, 0.0, 768.0)"><g><clipPath id="clip0x6080008b6080"><path d="M 0.0 768.0 L 1024.0 768.0 L 1024.0 0.0 L 0.0 0.0 Z M 0.0 768.0 "></path></clipPath><g clip-path="url(#clip0x6080008b6080)"><image xlink:href="../../D8468060-C003-4ABF-A6BE-B4E537BF06BB/assets/574DCE55A4CF432400CBDDDE1DFDFC9B.jpeg" width="2048.00" height="1536.00" transform="matrix(0.50, 0.00, -0.00, -0.50, 0.0, 768.0)"></image></g></g><text xml:space="preserve" font-family="GillSans-Light,Gill Sans" font-size="72.0" fill="#525252" transform="matrix(1.00, 0.00, -0.00, -1.00, 56.9, 628.2)">C</text><text xml:space="preserve" font-family="GillSans-Light,Gill Sans" font-size="72.0" fill="#525252" transform="matrix(1.00, 0.00, -0.00, -1.00, 105.6, 628.2)">O</text><text xml:space="preserve" font-family="GillSans-Light,Gill Sans" font-size="72.0" fill="#525252" transform="matrix(1.00, 0.00, -0.00, -1.00, 164.9, 628.2)">N</text><text xml:space="preserve" font-family="GillSans-Light,Gill Sans" font-size="72.0" fill="#525252" transform="matrix(1.00, 0.00, -0.00, -1.00, 220.4, 628.2)">V</text><text xml:space="preserve" font-family="GillSans-Light,Gill Sans" font-size="72.0" fill="#525252" transform="matrix(1.00, 0.00, -0.00, -1.00, 263.2, 628.2)">E</text><text xml:space="preserve" font-family="GillSans-Light,Gill Sans" font-size="72.0" fill="#525252" transform="matrix(1.00, 0.00, -0.00, -1.00, 298.5, 628.2)">R</text><text xml:space="preserve" font-family="GillSans-Light,Gill Sans" font-size="72.0" fill="#525252" transform="matrix(1.00, 0.00, -0.00, -1.00, 337.6, 628.2)">T</text><text xml:space="preserve" font-family="GillSans-Light,Gill Sans" font-size="72.0" fill="#525252" transform="matrix(1.00, 0.00, -0.00, -1.00, 378.9, 628.2)"> </text><text xml:space="preserve" font-family="GillSans-Light,Gill Sans" font-size="72.0" fill="#525252" transform="matrix(1.00, 0.00, -0.00, -1.00, 388.1, 628.2)">Y</text><text xml:space="preserve" font-family="GillSans-Light,Gill Sans" font-size="72.0" fill="#525252" transform="matrix(1.00, 0.00, -0.00, -1.00, 424.0, 628.2)">O</text><text xml:space="preserve" font-family="GillSans-Light,Gill Sans" font-size="72.0" fill="#525252" transform="matrix(1.00, 0.00, -0.00, -1.00, 483.3, 628.2)">U</text><text xml:space="preserve" font-family="GillSans-Light,Gill Sans" font-size="72.0" fill="#525252" transform="matrix(1.00, 0.00, -0.00, -1.00, 533.6, 628.2)">R</text><text xml:space="preserve" font-family="GillSans-Light,Gill Sans" font-size="72.0" fill="#525252" transform="matrix(1.00, 0.00, -0.00, -1.00, 574.8, 628.2)"> </text><text xml:space="preserve" font-family="GillSans-Light,Gill Sans" font-size="72.0" fill="#525252" transform="matrix(1.00, 0.00, -0.00, -1.00, 594.8, 628.2)">C</text><text xml:space="preserve" font-family="GillSans-Light,Gill Sans" font-size="72.0" fill="#525252" transform="matrix(1.00, 0.00, -0.00, -1.00, 646.8, 628.2)">A</text><text xml:space="preserve" font-family="GillSans-Light,Gill Sans" font-size="72.0" fill="#525252" transform="matrix(1.00, 0.00, -0.00, -1.00, 694.8, 628.2)">L</text><text xml:space="preserve" font-family="GillSans-Light,Gill Sans" font-size="72.0" fill="#525252" transform="matrix(1.00, 0.00, -0.00, -1.00, 728.6, 628.2)">L</text><text xml:space="preserve" font-family="GillSans-Light,Gill Sans" font-size="72.0" fill="#525252" transform="matrix(1.00, 0.00, -0.00, -1.00, 762.4, 628.2)">B</text><text xml:space="preserve" font-family="GillSans-Light,Gill Sans" font-size="72.0" fill="#525252" transform="matrix(1.00, 0.00, -0.00, -1.00, 802.0, 628.2)">A</text><text xml:space="preserve" font-family="GillSans-Light,Gill Sans" font-size="72.0" fill="#525252" transform="matrix(1.00, 0.00, -0.00, -1.00, 846.5, 628.2)">C</text><text xml:space="preserve" font-family="GillSans-Light,Gill Sans" font-size="72.0" fill="#525252" transform="matrix(1.00, 0.00, -0.00, -1.00, 895.2, 628.2)">K</text><text xml:space="preserve" font-family="GillSans-Light,Gill Sans" font-size="72.0" fill="#525252" transform="matrix(1.00, 0.00, -0.00, -1.00, 933.4, 628.2)">S</text><text xml:space="preserve" font-family="AppleSymbols,Apple Symbols" font-size="46.0" fill="#525252" transform="matrix(1.00, 0.00, -0.00, -1.00, 158.0, 436.3)">v</text><text xml:space="preserve" font-family="AppleSymbols,Apple Symbols" font-size="46.0" fill="#525252" transform="matrix(1.00, 0.00, -0.00, -1.00, 176.4, 436.3)">a</text><text xml:space="preserve" font-family="AppleSymbols,Apple Symbols" font-size="46.0" fill="#525252" transform="matrix(1.00, 0.00, -0.00, -1.00, 194.5, 436.3)">r</text><text xml:space="preserve" font-family="AppleSymbols,Apple Symbols" font-size="46.0" fill="#525252" transform="matrix(1.00, 0.00, -0.00, -1.00, 207.1, 436.3)"> </text><text xml:space="preserve" font-family="AppleSymbols,Apple Symbols" font-size="46.0" fill="#525252" transform="matrix(1.00, 0.00, -0.00, -1.00, 222.4, 436.3)">d</text><text xml:space="preserve" font-family="AppleSymbols,Apple Symbols" font-size="46.0" fill="#525252" transform="matrix(1.00, 0.00, -0.00, -1.00, 242.1, 436.3)">e</text><text xml:space="preserve" font-family="AppleSymbols,Apple Symbols" font-size="46.0" fill="#525252" transform="matrix(1.00, 0.00, -0.00, -1.00, 260.9, 436.3)">l</text><text xml:space="preserve" font-family="AppleSymbols,Apple Symbols" font-size="46.0" fill="#525252" transform="matrix(1.00, 0.00, -0.00, -1.00, 268.6, 436.3)">a</text><text xml:space="preserve" font-family="AppleSymbols,Apple Symbols" font-size="46.0" fill="#525252" transform="matrix(1.00, 0.00, -0.00, -1.00, 286.6, 436.3)">y</text><text xml:space="preserve" font-family="AppleSymbols,Apple Symbols" font-size="46.0" fill="#525252" transform="matrix(1.00, 0.00, -0.00, -1.00, 305.3, 436.3)"> </text><text xml:space="preserve" font-family="AppleSymbols,Apple Symbols" font-size="46.0" fill="#525252" transform="matrix(1.00, 0.00, -0.00, -1.00, 320.6, 436.3)">=</text><text xml:space="preserve" font-family="AppleSymbols,Apple Symbols" font-size="46.0" fill="#525252" transform="matrix(1.00, 0.00, -0.00, -1.00, 342.3, 436.3)"> </text><text xml:space="preserve" font-family="AppleSymbols,Apple Symbols" font-size="46.0" fill="#525252" transform="matrix(1.00, 0.00, -0.00, -1.00, 357.7, 436.3)">f</text><text xml:space="preserve" font-family="AppleSymbols,Apple Symbols" font-size="46.0" fill="#525252" transform="matrix(1.00, 0.00, -0.00, -1.00, 370.4, 436.3)">u</text><text xml:space="preserve" font-family="AppleSymbols,Apple Symbols" font-size="46.0" fill="#525252" transform="matrix(1.00, 0.00, -0.00, -1.00, 389.5, 436.3)">n</text><text xml:space="preserve" font-family="AppleSymbols,Apple Symbols" font-size="46.0" fill="#525252" transform="matrix(1.00, 0.00, -0.00, -1.00, 408.5, 436.3)">c</text><text xml:space="preserve" font-family="AppleSymbols,Apple Symbols" font-size="46.0" fill="#525252" transform="matrix(1.00, 0.00, -0.00, -1.00, 426.3, 436.3)">t</text><text xml:space="preserve" font-family="AppleSymbols,Apple Symbols" font-size="46.0" fill="#525252" transform="matrix(1.00, 0.00, -0.00, -1.00, 440.8, 436.3)">i</text><text xml:space="preserve" font-family="AppleSymbols,Apple Symbols" font-size="46.0" fill="#525252" transform="matrix(1.00, 0.00, -0.00, -1.00, 448.5, 436.3)">o</text><text xml:space="preserve" font-family="AppleSymbols,Apple Symbols" font-size="46.0" fill="#525252" transform="matrix(1.00, 0.00, -0.00, -1.00, 468.3, 436.3)">n</text><text xml:space="preserve" font-family="AppleSymbols,Apple Symbols" font-size="46.0" fill="#525252" transform="matrix(1.00, 0.00, -0.00, -1.00, 487.3, 436.3)"> </text><text xml:space="preserve" font-family="AppleSymbols,Apple Symbols" font-size="46.0" fill="#525252" transform="matrix(1.00, 0.00, -0.00, -1.00, 502.7, 436.3)">(</text><text xml:space="preserve" font-family="AppleSymbols,Apple Symbols" font-size="46.0" fill="#525252" transform="matrix(1.00, 0.00, -0.00, -1.00, 517.3, 436.3)">m</text><text xml:space="preserve" font-family="AppleSymbols,Apple Symbols" font-size="46.0" fill="#525252" transform="matrix(1.00, 0.00, -0.00, -1.00, 546.5, 436.3)">s</text><text xml:space="preserve" font-family="AppleSymbols,Apple Symbols" font-size="46.0" fill="#525252" transform="matrix(1.00, 0.00, -0.00, -1.00, 563.1, 436.3)">)</text><text xml:space="preserve" font-family="AppleSymbols,Apple Symbols" font-size="46.0" fill="#525252" transform="matrix(1.00, 0.00, -0.00, -1.00, 577.7, 436.3)"> </text><text xml:space="preserve" font-family="AppleSymbols,Apple Symbols" font-size="46.0" fill="#525252" transform="matrix(1.00, 0.00, -0.00, -1.00, 593.0, 436.3)">{</text><text xml:space="preserve" font-family="AppleSymbols,Apple Symbols" font-size="46.0" fill="#525252" transform="matrix(1.00, 0.00, -0.00, -1.00, 607.7, 436.3)"> </text><text xml:space="preserve" font-family="AppleSymbols,Apple Symbols" font-size="46.0" fill="#525252" transform="matrix(1.00, 0.00, -0.00, -1.00, 158.0, 389.3)"> </text><text xml:space="preserve" font-family="AppleSymbols,Apple Symbols" font-size="46.0" fill="#525252" transform="matrix(1.00, 0.00, -0.00, -1.00, 173.3, 389.3)"> </text><text xml:space="preserve" font-family="AppleSymbols,Apple Symbols" font-size="46.0" fill="#525252" transform="matrix(1.00, 0.00, -0.00, -1.00, 188.6, 389.3)">r</text><text xml:space="preserve" font-family="AppleSymbols,Apple Symbols" font-size="46.0" fill="#525252" transform="matrix(1.00, 0.00, -0.00, -1.00, 201.3, 389.3)">e</text><text xml:space="preserve" font-family="AppleSymbols,Apple Symbols" font-size="46.0" fill="#525252" transform="matrix(1.00, 0.00, -0.00, -1.00, 220.1, 389.3)">t</text><text xml:space="preserve" font-family="AppleSymbols,Apple Symbols" font-size="46.0" fill="#525252" transform="matrix(1.00, 0.00, -0.00, -1.00, 234.5, 389.3)">u</text><text xml:space="preserve" font-family="AppleSymbols,Apple Symbols" font-size="46.0" fill="#525252" transform="matrix(1.00, 0.00, -0.00, -1.00, 253.6, 389.3)">r</text><text xml:space="preserve" font-family="AppleSymbols,Apple Symbols" font-size="46.0" fill="#525252" transform="matrix(1.00, 0.00, -0.00, -1.00, 266.2, 389.3)">n</text><text xml:space="preserve" font-family="AppleSymbols,Apple Symbols" font-size="46.0" fill="#525252" transform="matrix(1.00, 0.00, -0.00, -1.00, 285.3, 389.3)"> </text><text xml:space="preserve" font-family="AppleSymbols,Apple Symbols" font-size="46.0" fill="#525252" transform="matrix(1.00, 0.00, -0.00, -1.00, 300.6, 389.3)">n</text><text xml:space="preserve" font-family="AppleSymbols,Apple Symbols" font-size="46.0" fill="#525252" transform="matrix(1.00, 0.00, -0.00, -1.00, 319.7, 389.3)">e</text><text xml:space="preserve" font-family="AppleSymbols,Apple Symbols" font-size="46.0" fill="#525252" transform="matrix(1.00, 0.00, -0.00, -1.00, 338.4, 389.3)">w</text><text xml:space="preserve" font-family="AppleSymbols,Apple Symbols" font-size="46.0" fill="#525252" transform="matrix(1.00, 0.00, -0.00, -1.00, 363.9, 389.3)"> </text><text xml:space="preserve" font-family="AppleSymbols,Apple Symbols" font-size="46.0" fill="#525252" transform="matrix(1.00, 0.00, -0.00, -1.00, 379.3, 389.3)">P</text><text xml:space="preserve" font-family="AppleSymbols,Apple Symbols" font-size="46.0" fill="#525252" transform="matrix(1.00, 0.00, -0.00, -1.00, 398.3, 389.3)">r</text><text xml:space="preserve" font-family="AppleSymbols,Apple Symbols" font-size="46.0" fill="#525252" transform="matrix(1.00, 0.00, -0.00, -1.00, 411.0, 389.3)">o</text><text xml:space="preserve" font-family="AppleSymbols,Apple Symbols" font-size="46.0" fill="#525252" transform="matrix(1.00, 0.00, -0.00, -1.00, 430.8, 389.3)">m</text><text xml:space="preserve" font-family="AppleSymbols,Apple Symbols" font-size="46.0" fill="#525252" transform="matrix(1.00, 0.00, -0.00, -1.00, 459.9, 389.3)">i</text><text xml:space="preserve" font-family="AppleSymbols,Apple Symbols" font-size="46.0" fill="#525252" transform="matrix(1.00, 0.00, -0.00, -1.00, 467.6, 389.3)">s</text><text xml:space="preserve" font-family="AppleSymbols,Apple Symbols" font-size="46.0" fill="#525252" transform="matrix(1.00, 0.00, -0.00, -1.00, 484.3, 389.3)">e</text><text xml:space="preserve" font-family="AppleSymbols,Apple Symbols" font-size="46.0" fill="#525252" transform="matrix(1.00, 0.00, -0.00, -1.00, 503.1, 389.3)">(</text><text xml:space="preserve" font-family="AppleSymbols,Apple Symbols" font-size="46.0" fill="#525252" transform="matrix(1.00, 0.00, -0.00, -1.00, 517.7, 389.3)">f</text><text xml:space="preserve" font-family="AppleSymbols,Apple Symbols" font-size="46.0" fill="#525252" transform="matrix(1.00, 0.00, -0.00, -1.00, 530.4, 389.3)">u</text><text xml:space="preserve" font-family="AppleSymbols,Apple Symbols" font-size="46.0" fill="#525252" transform="matrix(1.00, 0.00, -0.00, -1.00, 549.5, 389.3)">n</text><text xml:space="preserve" font-family="AppleSymbols,Apple Symbols" font-size="46.0" fill="#525252" transform="matrix(1.00, 0.00, -0.00, -1.00, 568.5, 389.3)">c</text><text xml:space="preserve" font-family="AppleSymbols,Apple Symbols" font-size="46.0" fill="#525252" transform="matrix(1.00, 0.00, -0.00, -1.00, 586.3, 389.3)">t</text><text xml:space="preserve" font-family="AppleSymbols,Apple Symbols" font-size="46.0" fill="#525252" transform="matrix(1.00, 0.00, -0.00, -1.00, 600.8, 389.3)">i</text><text xml:space="preserve" font-family="AppleSymbols,Apple Symbols" font-size="46.0" fill="#525252" transform="matrix(1.00, 0.00, -0.00, -1.00, 608.5, 389.3)">o</text><text xml:space="preserve" font-family="AppleSymbols,Apple Symbols" font-size="46.0" fill="#525252" transform="matrix(1.00, 0.00, -0.00, -1.00, 628.3, 389.3)">n</text><text xml:space="preserve" font-family="AppleSymbols,Apple Symbols" font-size="46.0" fill="#525252" transform="matrix(1.00, 0.00, -0.00, -1.00, 647.3, 389.3)"> </text><text xml:space="preserve" font-family="AppleSymbols,Apple Symbols" font-size="46.0" fill="#525252" transform="matrix(1.00, 0.00, -0.00, -1.00, 662.7, 389.3)">(</text><text xml:space="preserve" font-family="AppleSymbols,Apple Symbols" font-size="46.0" fill="#525252" transform="matrix(1.00, 0.00, -0.00, -1.00, 677.3, 389.3)">r</text><text xml:space="preserve" font-family="AppleSymbols,Apple Symbols" font-size="46.0" fill="#525252" transform="matrix(1.00, 0.00, -0.00, -1.00, 689.9, 389.3)">e</text><text xml:space="preserve" font-family="AppleSymbols,Apple Symbols" font-size="46.0" fill="#525252" transform="matrix(1.00, 0.00, -0.00, -1.00, 708.7, 389.3)">s</text><text xml:space="preserve" font-family="AppleSymbols,Apple Symbols" font-size="46.0" fill="#525252" transform="matrix(1.00, 0.00, -0.00, -1.00, 725.3, 389.3)">o</text><text xml:space="preserve" font-family="AppleSymbols,Apple Symbols" font-size="46.0" fill="#525252" transform="matrix(1.00, 0.00, -0.00, -1.00, 745.1, 389.3)">l</text><text xml:space="preserve" font-family="AppleSymbols,Apple Symbols" font-size="46.0" fill="#525252" transform="matrix(1.00, 0.00, -0.00, -1.00, 752.8, 389.3)">v</text><text xml:space="preserve" font-family="AppleSymbols,Apple Symbols" font-size="46.0" fill="#525252" transform="matrix(1.00, 0.00, -0.00, -1.00, 771.2, 389.3)">e</text><text xml:space="preserve" font-family="AppleSymbols,Apple Symbols" font-size="46.0" fill="#525252" transform="matrix(1.00, 0.00, -0.00, -1.00, 790.0, 389.3)">,</text><text xml:space="preserve" font-family="AppleSymbols,Apple Symbols" font-size="46.0" fill="#525252" transform="matrix(1.00, 0.00, -0.00, -1.00, 800.0, 389.3)"> </text><text xml:space="preserve" font-family="AppleSymbols,Apple Symbols" font-size="46.0" fill="#525252" transform="matrix(1.00, 0.00, -0.00, -1.00, 815.3, 389.3)">r</text><text xml:space="preserve" font-family="AppleSymbols,Apple Symbols" font-size="46.0" fill="#525252" transform="matrix(1.00, 0.00, -0.00, -1.00, 827.9, 389.3)">e</text><text xml:space="preserve" font-family="AppleSymbols,Apple Symbols" font-size="46.0" fill="#525252" transform="matrix(1.00, 0.00, -0.00, -1.00, 846.7, 389.3)">j</text><text xml:space="preserve" font-family="AppleSymbols,Apple Symbols" font-size="46.0" fill="#525252" transform="matrix(1.00, 0.00, -0.00, -1.00, 855.7, 389.3)">e</text><text xml:space="preserve" font-family="AppleSymbols,Apple Symbols" font-size="46.0" fill="#525252" transform="matrix(1.00, 0.00, -0.00, -1.00, 874.5, 389.3)">c</text><text xml:space="preserve" font-family="AppleSymbols,Apple Symbols" font-size="46.0" fill="#525252" transform="matrix(1.00, 0.00, -0.00, -1.00, 892.3, 389.3)">t</text><text xml:space="preserve" font-family="AppleSymbols,Apple Symbols" font-size="46.0" fill="#525252" transform="matrix(1.00, 0.00, -0.00, -1.00, 906.8, 389.3)">)</text><text xml:space="preserve" font-family="AppleSymbols,Apple Symbols" font-size="46.0" fill="#525252" transform="matrix(1.00, 0.00, -0.00, -1.00, 921.4, 389.3)"> </text><text xml:space="preserve" font-family="AppleSymbols,Apple Symbols" font-size="46.0" fill="#525252" transform="matrix(1.00, 0.00, -0.00, -1.00, 936.8, 389.3)">{</text><text xml:space="preserve" font-family="AppleSymbols,Apple Symbols" font-size="46.0" fill="#525252" transform="matrix(1.00, 0.00, -0.00, -1.00, 951.5, 389.3)"> </text><text xml:space="preserve" font-family="AppleSymbols,Apple Symbols" font-size="46.0" fill="#525252" transform="matrix(1.00, 0.00, -0.00, -1.00, 158.0, 342.3)"> </text><text xml:space="preserve" font-family="AppleSymbols,Apple Symbols" font-size="46.0" fill="#525252" transform="matrix(1.00, 0.00, -0.00, -1.00, 173.3, 342.3)"> </text><text xml:space="preserve" font-family="AppleSymbols,Apple Symbols" font-size="46.0" fill="#525252" transform="matrix(1.00, 0.00, -0.00, -1.00, 188.6, 342.3)"> </text><text xml:space="preserve" font-family="AppleSymbols,Apple Symbols" font-size="46.0" fill="#525252" transform="matrix(1.00, 0.00, -0.00, -1.00, 204.0, 342.3)"> </text><text xml:space="preserve" font-family="AppleSymbols,Apple Symbols" font-size="46.0" fill="#525252" transform="matrix(1.00, 0.00, -0.00, -1.00, 219.3, 342.3)">s</text><text xml:space="preserve" font-family="AppleSymbols,Apple Symbols" font-size="46.0" fill="#525252" transform="matrix(1.00, 0.00, -0.00, -1.00, 235.9, 342.3)">e</text><text xml:space="preserve" font-family="AppleSymbols,Apple Symbols" font-size="46.0" fill="#525252" transform="matrix(1.00, 0.00, -0.00, -1.00, 254.7, 342.3)">t</text><text xml:space="preserve" font-family="AppleSymbols,Apple Symbols" font-size="46.0" fill="#525252" transform="matrix(1.00, 0.00, -0.00, -1.00, 269.2, 342.3)">T</text><text xml:space="preserve" font-family="AppleSymbols,Apple Symbols" font-size="46.0" fill="#525252" transform="matrix(1.00, 0.00, -0.00, -1.00, 290.1, 342.3)">i</text><text xml:space="preserve" font-family="AppleSymbols,Apple Symbols" font-size="46.0" fill="#525252" transform="matrix(1.00, 0.00, -0.00, -1.00, 297.8, 342.3)">m</text><text xml:space="preserve" font-family="AppleSymbols,Apple Symbols" font-size="46.0" fill="#525252" transform="matrix(1.00, 0.00, -0.00, -1.00, 326.9, 342.3)">e</text><text xml:space="preserve" font-family="AppleSymbols,Apple Symbols" font-size="46.0" fill="#525252" transform="matrix(1.00, 0.00, -0.00, -1.00, 345.7, 342.3)">o</text><text xml:space="preserve" font-family="AppleSymbols,Apple Symbols" font-size="46.0" fill="#525252" transform="matrix(1.00, 0.00, -0.00, -1.00, 365.5, 342.3)">u</text><text xml:space="preserve" font-family="AppleSymbols,Apple Symbols" font-size="46.0" fill="#525252" transform="matrix(1.00, 0.00, -0.00, -1.00, 384.6, 342.3)">t</text><text xml:space="preserve" font-family="AppleSymbols,Apple Symbols" font-size="46.0" fill="#525252" transform="matrix(1.00, 0.00, -0.00, -1.00, 399.1, 342.3)">(</text><text xml:space="preserve" font-family="AppleSymbols,Apple Symbols" font-size="46.0" fill="#525252" transform="matrix(1.00, 0.00, -0.00, -1.00, 413.7, 342.3)">r</text><text xml:space="preserve" font-family="AppleSymbols,Apple Symbols" font-size="46.0" fill="#525252" transform="matrix(1.00, 0.00, -0.00, -1.00, 426.3, 342.3)">e</text><text xml:space="preserve" font-family="AppleSymbols,Apple Symbols" font-size="46.0" fill="#525252" transform="matrix(1.00, 0.00, -0.00, -1.00, 445.1, 342.3)">s</text><text xml:space="preserve" font-family="AppleSymbols,Apple Symbols" font-size="46.0" fill="#525252" transform="matrix(1.00, 0.00, -0.00, -1.00, 461.7, 342.3)">o</text><text xml:space="preserve" font-family="AppleSymbols,Apple Symbols" font-size="46.0" fill="#525252" transform="matrix(1.00, 0.00, -0.00, -1.00, 481.5, 342.3)">l</text><text xml:space="preserve" font-family="AppleSymbols,Apple Symbols" font-size="46.0" fill="#525252" transform="matrix(1.00, 0.00, -0.00, -1.00, 489.2, 342.3)">v</text><text xml:space="preserve" font-family="AppleSymbols,Apple Symbols" font-size="46.0" fill="#525252" transform="matrix(1.00, 0.00, -0.00, -1.00, 507.7, 342.3)">e</text><text xml:space="preserve" font-family="AppleSymbols,Apple Symbols" font-size="46.0" fill="#525252" transform="matrix(1.00, 0.00, -0.00, -1.00, 526.4, 342.3)">,</text><text xml:space="preserve" font-family="AppleSymbols,Apple Symbols" font-size="46.0" fill="#525252" transform="matrix(1.00, 0.00, -0.00, -1.00, 536.4, 342.3)"> </text><text xml:space="preserve" font-family="AppleSymbols,Apple Symbols" font-size="46.0" fill="#525252" transform="matrix(1.00, 0.00, -0.00, -1.00, 551.7, 342.3)">m</text><text xml:space="preserve" font-family="AppleSymbols,Apple Symbols" font-size="46.0" fill="#525252" transform="matrix(1.00, 0.00, -0.00, -1.00, 580.9, 342.3)">s</text><text xml:space="preserve" font-family="AppleSymbols,Apple Symbols" font-size="46.0" fill="#525252" transform="matrix(1.00, 0.00, -0.00, -1.00, 597.5, 342.3)">)</text><text xml:space="preserve" font-family="AppleSymbols,Apple Symbols" font-size="46.0" fill="#525252" transform="matrix(1.00, 0.00, -0.00, -1.00, 612.1, 342.3)"> </text><text xml:space="preserve" font-family="AppleSymbols,Apple Symbols" font-size="46.0" fill="#525252" transform="matrix(1.00, 0.00, -0.00, -1.00, 158.0, 295.3)"> </text><text xml:space="preserve" font-family="AppleSymbols,Apple Symbols" font-size="46.0" fill="#525252" transform="matrix(1.00, 0.00, -0.00, -1.00, 173.3, 295.3)"> </text><text xml:space="preserve" font-family="AppleSymbols,Apple Symbols" font-size="46.0" fill="#525252" transform="matrix(1.00, 0.00, -0.00, -1.00, 188.6, 295.3)">}</text><text xml:space="preserve" font-family="AppleSymbols,Apple Symbols" font-size="46.0" fill="#525252" transform="matrix(1.00, 0.00, -0.00, -1.00, 203.3, 295.3)">)</text><text xml:space="preserve" font-family="AppleSymbols,Apple Symbols" font-size="46.0" fill="#525252" transform="matrix(1.00, 0.00, -0.00, -1.00, 218.0, 295.3)"> </text><text xml:space="preserve" font-family="AppleSymbols,Apple Symbols" font-size="46.0" fill="#525252" transform="matrix(1.00, 0.00, -0.00, -1.00, 158.0, 248.3)">}</text><text xml:space="preserve" font-family="AppleSymbols,Apple Symbols" font-size="46.0" fill="#525252" transform="matrix(1.00, 0.00, -0.00, -1.00, 172.7, 248.3)"> </text><text xml:space="preserve" font-family="AppleSymbols,Apple Symbols" font-size="46.0" fill="#525252" transform="matrix(1.00, 0.00, -0.00, -1.00, 158.0, 154.3)">d</text><text xml:space="preserve" font-family="AppleSymbols,Apple Symbols" font-size="46.0" fill="#525252" transform="matrix(1.00, 0.00, -0.00, -1.00, 177.7, 154.3)">e</text><text xml:space="preserve" font-family="AppleSymbols,Apple Symbols" font-size="46.0" fill="#525252" transform="matrix(1.00, 0.00, -0.00, -1.00, 196.4, 154.3)">l</text><text xml:space="preserve" font-family="AppleSymbols,Apple Symbols" font-size="46.0" fill="#525252" transform="matrix(1.00, 0.00, -0.00, -1.00, 204.1, 154.3)">a</text><text xml:space="preserve" font-family="AppleSymbols,Apple Symbols" font-size="46.0" fill="#525252" transform="matrix(1.00, 0.00, -0.00, -1.00, 222.2, 154.3)">y</text><text xml:space="preserve" font-family="AppleSymbols,Apple Symbols" font-size="46.0" fill="#525252" transform="matrix(1.00, 0.00, -0.00, -1.00, 240.8, 154.3)">(</text><text xml:space="preserve" font-family="AppleSymbols,Apple Symbols" font-size="46.0" fill="#525252" transform="matrix(1.00, 0.00, -0.00, -1.00, 255.4, 154.3)">3</text><text xml:space="preserve" font-family="AppleSymbols,Apple Symbols" font-size="46.0" fill="#525252" transform="matrix(1.00, 0.00, -0.00, -1.00, 277.2, 154.3)">0</text><text xml:space="preserve" font-family="AppleSymbols,Apple Symbols" font-size="46.0" fill="#525252" transform="matrix(1.00, 0.00, -0.00, -1.00, 299.0, 154.3)">0</text><text xml:space="preserve" font-family="AppleSymbols,Apple Symbols" font-size="46.0" fill="#525252" transform="matrix(1.00, 0.00, -0.00, -1.00, 320.8, 154.3)">)</text><text xml:space="preserve" font-family="AppleSymbols,Apple Symbols" font-size="46.0" fill="#525252" transform="matrix(1.00, 0.00, -0.00, -1.00, 335.4, 154.3)">.</text><text xml:space="preserve" font-family="AppleSymbols,Apple Symbols" font-size="46.0" fill="#525252" transform="matrix(1.00, 0.00, -0.00, -1.00, 345.3, 154.3)">t</text><text xml:space="preserve" font-family="AppleSymbols,Apple Symbols" font-size="46.0" fill="#525252" transform="matrix(1.00, 0.00, -0.00, -1.00, 359.8, 154.3)">h</text><text xml:space="preserve" font-family="AppleSymbols,Apple Symbols" font-size="46.0" fill="#525252" transform="matrix(1.00, 0.00, -0.00, -1.00, 378.8, 154.3)">e</text><text xml:space="preserve" font-family="AppleSymbols,Apple Symbols" font-size="46.0" fill="#525252" transform="matrix(1.00, 0.00, -0.00, -1.00, 397.6, 154.3)">n</text><text xml:space="preserve" font-family="AppleSymbols,Apple Symbols" font-size="46.0" fill="#525252" transform="matrix(1.00, 0.00, -0.00, -1.00, 416.7, 154.3)">(</text><text xml:space="preserve" font-family="AppleSymbols,Apple Symbols" font-size="46.0" fill="#525252" transform="matrix(1.00, 0.00, -0.00, -1.00, 431.3, 154.3)">.</text><text xml:space="preserve" font-family="AppleSymbols,Apple Symbols" font-size="46.0" fill="#525252" transform="matrix(1.00, 0.00, -0.00, -1.00, 441.2, 154.3)">.</text><text xml:space="preserve" font-family="AppleSymbols,Apple Symbols" font-size="46.0" fill="#525252" transform="matrix(1.00, 0.00, -0.00, -1.00, 451.1, 154.3)">.</text><text xml:space="preserve" font-family="AppleSymbols,Apple Symbols" font-size="46.0" fill="#525252" transform="matrix(1.00, 0.00, -0.00, -1.00, 461.0, 154.3)">)</text></g></svg>