<?xml version="1.0" encoding="UTF-8" standalone="no"?><svg xmlns="http://www.w3.org/2000/svg" xmlns:xlink="http://www.w3.org/1999/xlink" clip-rule="evenodd" stroke-miterlimit="10" viewBox="0 0 1024 768"><desc>SVG generated by Keynote</desc><defs></defs><g transform="matrix(1.00, 0.00, -0.00, -1.00, 0.0, 768.0)"><path d="M 0.0 768.0 L 1024.0 768.0 L 1024.0 0.0 L 0.0 0.0 Z M 0.0 768.0 " fill="#FFA254"></path><text xml:space="preserve" font-family="GillSans-Light,Gill Sans" font-size="72.0" fill="#000000" transform="matrix(1.00, 0.00, -0.00, -1.00, 213.6, 360.2)">G</text><text xml:space="preserve" font-family="GillSans-Light,Gill Sans" font-size="72.0" fill="#000000" transform="matrix(1.00, 0.00, -0.00, -1.00, 265.4, 360.2)">E</text><text xml:space="preserve" font-family="GillSans-Light,Gill Sans" font-size="72.0" fill="#000000" transform="matrix(1.00, 0.00, -0.00, -1.00, 300.7, 360.2)">T</text><text xml:space="preserve" font-family="GillSans-Light,Gill Sans" font-size="72.0" fill="#000000" transform="matrix(1.00, 0.00, -0.00, -1.00, 342.0, 360.2)">T</text><text xml:space="preserve" font-family="GillSans-Light,Gill Sans" font-size="72.0" fill="#000000" transform="matrix(1.00, 0.00, -0.00, -1.00, 383.3, 360.2)">I</text><text xml:space="preserve" font-family="GillSans-Light,Gill Sans" font-size="72.0" fill="#000000" transform="matrix(1.00, 0.00, -0.00, -1.00, 398.3, 360.2)">N</text><text xml:space="preserve" font-family="GillSans-Light,Gill Sans" font-size="72.0" fill="#000000" transform="matrix(1.00, 0.00, -0.00, -1.00, 453.8, 360.2)">G</text><text xml:space="preserve" font-family="GillSans-Light,Gill Sans" font-size="72.0" fill="#000000" transform="matrix(1.00, 0.00, -0.00, -1.00, 505.6, 360.2)"> </text><text xml:space="preserve" font-family="GillSans-Light,Gill Sans" font-size="72.0" fill="#000000" transform="matrix(1.00, 0.00, -0.00, -1.00, 525.6, 360.2)">S</text><text xml:space="preserve" font-family="GillSans-Light,Gill Sans" font-size="72.0" fill="#000000" transform="matrix(1.00, 0.00, -0.00, -1.00, 559.4, 360.2)">T</text><text xml:space="preserve" font-family="GillSans-Light,Gill Sans" font-size="72.0" fill="#000000" transform="matrix(1.00, 0.00, -0.00, -1.00, 593.5, 360.2)">A</text><text xml:space="preserve" font-family="GillSans-Light,Gill Sans" font-size="72.0" fill="#000000" transform="matrix(1.00, 0.00, -0.00, -1.00, 641.5, 360.2)">R</text><text xml:space="preserve" font-family="GillSans-Light,Gill Sans" font-size="72.0" fill="#000000" transform="matrix(1.00, 0.00, -0.00, -1.00, 680.6, 360.2)">T</text><text xml:space="preserve" font-family="GillSans-Light,Gill Sans" font-size="72.0" fill="#000000" transform="matrix(1.00, 0.00, -0.00, -1.00, 721.9, 360.2)">E</text><text xml:space="preserve" font-family="GillSans-Light,Gill Sans" font-size="72.0" fill="#000000" transform="matrix(1.00, 0.00, -0.00, -1.00, 757.2, 360.2)">D</text></g></svg>