<?xml version="1.0" encoding="UTF-8" standalone="no"?><svg xmlns="http://www.w3.org/2000/svg" xmlns:xlink="http://www.w3.org/1999/xlink" clip-rule="evenodd" stroke-miterlimit="10" viewBox="0 0 1024 768"><desc>SVG generated by Keynote</desc><defs></defs><g transform="matrix(1.00, 0.00, -0.00, -1.00, 0.0, 768.0)"><g><clipPath id="clip0x6080004bd280"><path d="M 0.0 768.0 L 1024.0 768.0 L 1024.0 0.0 L 0.0 0.0 Z M 0.0 768.0 "></path></clipPath><g clip-path="url(#clip0x6080004bd280)"><image xlink:href="../../D8468060-C003-4ABF-A6BE-B4E537BF06BB/assets/574DCE55A4CF432400CBDDDE1DFDFC9B.jpeg" width="2048.00" height="1536.00" transform="matrix(0.50, 0.00, -0.00, -0.50, 0.0, 768.0)"></image></g></g><text xml:space="preserve" font-family="GillSans-Light,Gill Sans" font-size="36.5" fill="#525252" transform="matrix(1.00, 0.00, -0.00, -1.00, 35.8, 455.7)">"</text><text xml:space="preserve" font-family="GillSans-Light,Gill Sans" font-size="36.5" fill="#525252" transform="matrix(1.00, 0.00, -0.00, -1.00, 45.9, 455.7)">A</text><text xml:space="preserve" font-family="GillSans-Light,Gill Sans" font-size="36.5" fill="#525252" transform="matrix(1.00, 0.00, -0.00, -1.00, 70.3, 455.7)"> </text><text xml:space="preserve" font-family="GillSans-Light,Gill Sans" font-size="36.5" fill="#525252" transform="matrix(1.00, 0.00, -0.00, -1.00, 80.4, 455.7)">p</text><text xml:space="preserve" font-family="GillSans-Light,Gill Sans" font-size="36.5" fill="#525252" transform="matrix(1.00, 0.00, -0.00, -1.00, 99.0, 455.7)">r</text><text xml:space="preserve" font-family="GillSans-Light,Gill Sans" font-size="36.5" fill="#525252" transform="matrix(1.00, 0.00, -0.00, -1.00, 111.1, 455.7)">o</text><text xml:space="preserve" font-family="GillSans-Light,Gill Sans" font-size="36.5" fill="#525252" transform="matrix(1.00, 0.00, -0.00, -1.00, 130.9, 455.7)">m</text><text xml:space="preserve" font-family="GillSans-Light,Gill Sans" font-size="36.5" fill="#525252" transform="matrix(1.00, 0.00, -0.00, -1.00, 159.0, 455.7)">i</text><text xml:space="preserve" font-family="GillSans-Light,Gill Sans" font-size="36.5" fill="#525252" transform="matrix(1.00, 0.00, -0.00, -1.00, 165.9, 455.7)">s</text><text xml:space="preserve" font-family="GillSans-Light,Gill Sans" font-size="36.5" fill="#525252" transform="matrix(1.00, 0.00, -0.00, -1.00, 178.8, 455.7)">e</text><text xml:space="preserve" font-family="GillSans-Light,Gill Sans" font-size="36.5" fill="#525252" transform="matrix(1.00, 0.00, -0.00, -1.00, 196.3, 455.7)"> </text><text xml:space="preserve" font-family="GillSans-Light,Gill Sans" font-size="36.5" fill="#525252" transform="matrix(1.00, 0.00, -0.00, -1.00, 206.4, 455.7)">i</text><text xml:space="preserve" font-family="GillSans-Light,Gill Sans" font-size="36.5" fill="#525252" transform="matrix(1.00, 0.00, -0.00, -1.00, 213.3, 455.7)">s</text><text xml:space="preserve" font-family="GillSans-Light,Gill Sans" font-size="36.5" fill="#525252" transform="matrix(1.00, 0.00, -0.00, -1.00, 226.2, 455.7)"> </text><text xml:space="preserve" font-family="GillSans-Light,Gill Sans" font-size="36.5" fill="#525252" transform="matrix(1.00, 0.00, -0.00, -1.00, 236.3, 455.7)">a</text><text xml:space="preserve" font-family="GillSans-Light,Gill Sans" font-size="36.5" fill="#525252" transform="matrix(1.00, 0.00, -0.00, -1.00, 251.9, 455.7)">n</text><text xml:space="preserve" font-family="GillSans-Light,Gill Sans" font-size="36.5" fill="#525252" transform="matrix(1.00, 0.00, -0.00, -1.00, 269.8, 455.7)"> </text><text xml:space="preserve" font-family="GillSans-Light,Gill Sans" font-size="36.5" fill="#525252" transform="matrix(1.00, 0.00, -0.00, -1.00, 279.9, 455.7)">a</text><text xml:space="preserve" font-family="GillSans-Light,Gill Sans" font-size="36.5" fill="#525252" transform="matrix(1.00, 0.00, -0.00, -1.00, 295.5, 455.7)">b</text><text xml:space="preserve" font-family="GillSans-Light,Gill Sans" font-size="36.5" fill="#525252" transform="matrix(1.00, 0.00, -0.00, -1.00, 314.0, 455.7)">s</text><text xml:space="preserve" font-family="GillSans-Light,Gill Sans" font-size="36.5" fill="#525252" transform="matrix(1.00, 0.00, -0.00, -1.00, 327.0, 455.7)">t</text><text xml:space="preserve" font-family="GillSans-Light,Gill Sans" font-size="36.5" fill="#525252" transform="matrix(1.00, 0.00, -0.00, -1.00, 338.0, 455.7)">r</text><text xml:space="preserve" font-family="GillSans-Light,Gill Sans" font-size="36.5" fill="#525252" transform="matrix(1.00, 0.00, -0.00, -1.00, 351.0, 455.7)">a</text><text xml:space="preserve" font-family="GillSans-Light,Gill Sans" font-size="36.5" fill="#525252" transform="matrix(1.00, 0.00, -0.00, -1.00, 366.6, 455.7)">c</text><text xml:space="preserve" font-family="GillSans-Light,Gill Sans" font-size="36.5" fill="#525252" transform="matrix(1.00, 0.00, -0.00, -1.00, 381.8, 455.7)">t</text><text xml:space="preserve" font-family="GillSans-Light,Gill Sans" font-size="36.5" fill="#525252" transform="matrix(1.00, 0.00, -0.00, -1.00, 392.8, 455.7)">i</text><text xml:space="preserve" font-family="GillSans-Light,Gill Sans" font-size="36.5" fill="#525252" transform="matrix(1.00, 0.00, -0.00, -1.00, 399.6, 455.7)">o</text><text xml:space="preserve" font-family="GillSans-Light,Gill Sans" font-size="36.5" fill="#525252" transform="matrix(1.00, 0.00, -0.00, -1.00, 419.4, 455.7)">n</text><text xml:space="preserve" font-family="GillSans-Light,Gill Sans" font-size="36.5" fill="#525252" transform="matrix(1.00, 0.00, -0.00, -1.00, 437.3, 455.7)"> </text><text xml:space="preserve" font-family="GillSans-Light,Gill Sans" font-size="36.5" fill="#525252" transform="matrix(1.00, 0.00, -0.00, -1.00, 447.4, 455.7)">f</text><text xml:space="preserve" font-family="GillSans-Light,Gill Sans" font-size="36.5" fill="#525252" transform="matrix(1.00, 0.00, -0.00, -1.00, 455.9, 455.7)">o</text><text xml:space="preserve" font-family="GillSans-Light,Gill Sans" font-size="36.5" fill="#525252" transform="matrix(1.00, 0.00, -0.00, -1.00, 475.6, 455.7)">r</text><text xml:space="preserve" font-family="GillSans-Light,Gill Sans" font-size="36.5" fill="#525252" transform="matrix(1.00, 0.00, -0.00, -1.00, 487.8, 455.7)"> </text><text xml:space="preserve" font-family="GillSans-Light,Gill Sans" font-size="36.5" fill="#525252" transform="matrix(1.00, 0.00, -0.00, -1.00, 497.9, 455.7)">a</text><text xml:space="preserve" font-family="GillSans-Light,Gill Sans" font-size="36.5" fill="#525252" transform="matrix(1.00, 0.00, -0.00, -1.00, 513.5, 455.7)">s</text><text xml:space="preserve" font-family="GillSans-Light,Gill Sans" font-size="36.5" fill="#525252" transform="matrix(1.00, 0.00, -0.00, -1.00, 526.4, 455.7)">y</text><text xml:space="preserve" font-family="GillSans-Light,Gill Sans" font-size="36.5" fill="#525252" transform="matrix(1.00, 0.00, -0.00, -1.00, 541.6, 455.7)">n</text><text xml:space="preserve" font-family="GillSans-Light,Gill Sans" font-size="36.5" fill="#525252" transform="matrix(1.00, 0.00, -0.00, -1.00, 559.5, 455.7)">c</text><text xml:space="preserve" font-family="GillSans-Light,Gill Sans" font-size="36.5" fill="#525252" transform="matrix(1.00, 0.00, -0.00, -1.00, 574.7, 455.7)">h</text><text xml:space="preserve" font-family="GillSans-Light,Gill Sans" font-size="36.5" fill="#525252" transform="matrix(1.00, 0.00, -0.00, -1.00, 592.6, 455.7)">r</text><text xml:space="preserve" font-family="GillSans-Light,Gill Sans" font-size="36.5" fill="#525252" transform="matrix(1.00, 0.00, -0.00, -1.00, 604.7, 455.7)">o</text><text xml:space="preserve" font-family="GillSans-Light,Gill Sans" font-size="36.5" fill="#525252" transform="matrix(1.00, 0.00, -0.00, -1.00, 624.5, 455.7)">n</text><text xml:space="preserve" font-family="GillSans-Light,Gill Sans" font-size="36.5" fill="#525252" transform="matrix(1.00, 0.00, -0.00, -1.00, 642.4, 455.7)">o</text><text xml:space="preserve" font-family="GillSans-Light,Gill Sans" font-size="36.5" fill="#525252" transform="matrix(1.00, 0.00, -0.00, -1.00, 662.2, 455.7)">u</text><text xml:space="preserve" font-family="GillSans-Light,Gill Sans" font-size="36.5" fill="#525252" transform="matrix(1.00, 0.00, -0.00, -1.00, 680.1, 455.7)">s</text><text xml:space="preserve" font-family="GillSans-Light,Gill Sans" font-size="36.5" fill="#525252" transform="matrix(1.00, 0.00, -0.00, -1.00, 693.0, 455.7)"> </text><text xml:space="preserve" font-family="GillSans-Light,Gill Sans" font-size="36.5" fill="#525252" transform="matrix(1.00, 0.00, -0.00, -1.00, 703.1, 455.7)">p</text><text xml:space="preserve" font-family="GillSans-Light,Gill Sans" font-size="36.5" fill="#525252" transform="matrix(1.00, 0.00, -0.00, -1.00, 721.7, 455.7)">r</text><text xml:space="preserve" font-family="GillSans-Light,Gill Sans" font-size="36.5" fill="#525252" transform="matrix(1.00, 0.00, -0.00, -1.00, 733.8, 455.7)">o</text><text xml:space="preserve" font-family="GillSans-Light,Gill Sans" font-size="36.5" fill="#525252" transform="matrix(1.00, 0.00, -0.00, -1.00, 753.6, 455.7)">g</text><text xml:space="preserve" font-family="GillSans-Light,Gill Sans" font-size="36.5" fill="#525252" transform="matrix(1.00, 0.00, -0.00, -1.00, 769.2, 455.7)">r</text><text xml:space="preserve" font-family="GillSans-Light,Gill Sans" font-size="36.5" fill="#525252" transform="matrix(1.00, 0.00, -0.00, -1.00, 782.2, 455.7)">a</text><text xml:space="preserve" font-family="GillSans-Light,Gill Sans" font-size="36.5" fill="#525252" transform="matrix(1.00, 0.00, -0.00, -1.00, 797.8, 455.7)">m</text><text xml:space="preserve" font-family="GillSans-Light,Gill Sans" font-size="36.5" fill="#525252" transform="matrix(1.00, 0.00, -0.00, -1.00, 825.9, 455.7)">m</text><text xml:space="preserve" font-family="GillSans-Light,Gill Sans" font-size="36.5" fill="#525252" transform="matrix(1.00, 0.00, -0.00, -1.00, 854.0, 455.7)">i</text><text xml:space="preserve" font-family="GillSans-Light,Gill Sans" font-size="36.5" fill="#525252" transform="matrix(1.00, 0.00, -0.00, -1.00, 860.9, 455.7)">n</text><text xml:space="preserve" font-family="GillSans-Light,Gill Sans" font-size="36.5" fill="#525252" transform="matrix(1.00, 0.00, -0.00, -1.00, 878.8, 455.7)">g</text><text xml:space="preserve" font-family="GillSans-Light,Gill Sans" font-size="36.5" fill="#525252" transform="matrix(1.00, 0.00, -0.00, -1.00, 894.3, 455.7)">.</text><text xml:space="preserve" font-family="GillSans-Light,Gill Sans" font-size="36.5" fill="#525252" transform="matrix(1.00, 0.00, -0.00, -1.00, 897.9, 455.7)"> </text><text xml:space="preserve" font-family="GillSans-Light,Gill Sans" font-size="36.5" fill="#525252" transform="matrix(1.00, 0.00, -0.00, -1.00, 908.0, 455.7)">I</text><text xml:space="preserve" font-family="GillSans-Light,Gill Sans" font-size="36.5" fill="#525252" transform="matrix(1.00, 0.00, -0.00, -1.00, 915.6, 455.7)">t</text><text xml:space="preserve" font-family="GillSans-Light,Gill Sans" font-size="36.5" fill="#525252" transform="matrix(1.00, 0.00, -0.00, -1.00, 926.6, 455.7)">’</text><text xml:space="preserve" font-family="GillSans-Light,Gill Sans" font-size="36.5" fill="#525252" transform="matrix(1.00, 0.00, -0.00, -1.00, 931.6, 455.7)">s</text><text xml:space="preserve" font-family="GillSans-Light,Gill Sans" font-size="36.5" fill="#525252" transform="matrix(1.00, 0.00, -0.00, -1.00, 944.5, 455.7)"> </text><text xml:space="preserve" font-family="GillSans-Light,Gill Sans" font-size="36.5" fill="#525252" transform="matrix(1.00, 0.00, -0.00, -1.00, 954.6, 455.7)">a</text><text xml:space="preserve" font-family="GillSans-Light,Gill Sans" font-size="36.5" fill="#525252" transform="matrix(1.00, 0.00, -0.00, -1.00, 970.2, 455.7)">n</text><text xml:space="preserve" font-family="GillSans-Light,Gill Sans" font-size="36.5" fill="#525252" transform="matrix(1.00, 0.00, -0.00, -1.00, 988.1, 455.7)"> </text><text xml:space="preserve" font-family="GillSans-Light,Gill Sans" font-size="36.5" fill="#525252" transform="matrix(1.00, 0.00, -0.00, -1.00, 50.1, 413.7)">o</text><text xml:space="preserve" font-family="GillSans-Light,Gill Sans" font-size="36.5" fill="#525252" transform="matrix(1.00, 0.00, -0.00, -1.00, 69.9, 413.7)">b</text><text xml:space="preserve" font-family="GillSans-Light,Gill Sans" font-size="36.5" fill="#525252" transform="matrix(1.00, 0.00, -0.00, -1.00, 88.5, 413.7)">j</text><text xml:space="preserve" font-family="GillSans-Light,Gill Sans" font-size="36.5" fill="#525252" transform="matrix(1.00, 0.00, -0.00, -1.00, 95.3, 413.7)">e</text><text xml:space="preserve" font-family="GillSans-Light,Gill Sans" font-size="36.5" fill="#525252" transform="matrix(1.00, 0.00, -0.00, -1.00, 112.8, 413.7)">c</text><text xml:space="preserve" font-family="GillSans-Light,Gill Sans" font-size="36.5" fill="#525252" transform="matrix(1.00, 0.00, -0.00, -1.00, 128.0, 413.7)">t</text><text xml:space="preserve" font-family="GillSans-Light,Gill Sans" font-size="36.5" fill="#525252" transform="matrix(1.00, 0.00, -0.00, -1.00, 139.0, 413.7)"> </text><text xml:space="preserve" font-family="GillSans-Light,Gill Sans" font-size="36.5" fill="#525252" transform="matrix(1.00, 0.00, -0.00, -1.00, 149.2, 413.7)">t</text><text xml:space="preserve" font-family="GillSans-Light,Gill Sans" font-size="36.5" fill="#525252" transform="matrix(1.00, 0.00, -0.00, -1.00, 160.2, 413.7)">h</text><text xml:space="preserve" font-family="GillSans-Light,Gill Sans" font-size="36.5" fill="#525252" transform="matrix(1.00, 0.00, -0.00, -1.00, 178.0, 413.7)">a</text><text xml:space="preserve" font-family="GillSans-Light,Gill Sans" font-size="36.5" fill="#525252" transform="matrix(1.00, 0.00, -0.00, -1.00, 193.6, 413.7)">t</text><text xml:space="preserve" font-family="GillSans-Light,Gill Sans" font-size="36.5" fill="#525252" transform="matrix(1.00, 0.00, -0.00, -1.00, 204.6, 413.7)"> </text><text xml:space="preserve" font-family="GillSans-Light,Gill Sans" font-size="36.5" fill="#525252" transform="matrix(1.00, 0.00, -0.00, -1.00, 214.7, 413.7)">p</text><text xml:space="preserve" font-family="GillSans-Light,Gill Sans" font-size="36.5" fill="#525252" transform="matrix(1.00, 0.00, -0.00, -1.00, 233.3, 413.7)">r</text><text xml:space="preserve" font-family="GillSans-Light,Gill Sans" font-size="36.5" fill="#525252" transform="matrix(1.00, 0.00, -0.00, -1.00, 245.5, 413.7)">o</text><text xml:space="preserve" font-family="GillSans-Light,Gill Sans" font-size="36.5" fill="#525252" transform="matrix(1.00, 0.00, -0.00, -1.00, 264.5, 413.7)">x</text><text xml:space="preserve" font-family="GillSans-Light,Gill Sans" font-size="36.5" fill="#525252" transform="matrix(1.00, 0.00, -0.00, -1.00, 282.0, 413.7)">i</text><text xml:space="preserve" font-family="GillSans-Light,Gill Sans" font-size="36.5" fill="#525252" transform="matrix(1.00, 0.00, -0.00, -1.00, 288.8, 413.7)">e</text><text xml:space="preserve" font-family="GillSans-Light,Gill Sans" font-size="36.5" fill="#525252" transform="matrix(1.00, 0.00, -0.00, -1.00, 306.3, 413.7)">s</text><text xml:space="preserve" font-family="GillSans-Light,Gill Sans" font-size="36.5" fill="#525252" transform="matrix(1.00, 0.00, -0.00, -1.00, 319.2, 413.7)"> </text><text xml:space="preserve" font-family="GillSans-Light,Gill Sans" font-size="36.5" fill="#525252" transform="matrix(1.00, 0.00, -0.00, -1.00, 329.4, 413.7)">f</text><text xml:space="preserve" font-family="GillSans-Light,Gill Sans" font-size="36.5" fill="#525252" transform="matrix(1.00, 0.00, -0.00, -1.00, 337.8, 413.7)">o</text><text xml:space="preserve" font-family="GillSans-Light,Gill Sans" font-size="36.5" fill="#525252" transform="matrix(1.00, 0.00, -0.00, -1.00, 357.6, 413.7)">r</text><text xml:space="preserve" font-family="GillSans-Light,Gill Sans" font-size="36.5" fill="#525252" transform="matrix(1.00, 0.00, -0.00, -1.00, 369.7, 413.7)"> </text><text xml:space="preserve" font-family="GillSans-Light,Gill Sans" font-size="36.5" fill="#525252" transform="matrix(1.00, 0.00, -0.00, -1.00, 379.8, 413.7)">t</text><text xml:space="preserve" font-family="GillSans-Light,Gill Sans" font-size="36.5" fill="#525252" transform="matrix(1.00, 0.00, -0.00, -1.00, 390.8, 413.7)">h</text><text xml:space="preserve" font-family="GillSans-Light,Gill Sans" font-size="36.5" fill="#525252" transform="matrix(1.00, 0.00, -0.00, -1.00, 408.7, 413.7)">e</text><text xml:space="preserve" font-family="GillSans-Light,Gill Sans" font-size="36.5" fill="#525252" transform="matrix(1.00, 0.00, -0.00, -1.00, 426.2, 413.7)"> </text><text xml:space="preserve" font-family="GillSans-Light,Gill Sans" font-size="36.5" fill="#525252" transform="matrix(1.00, 0.00, -0.00, -1.00, 436.3, 413.7)">r</text><text xml:space="preserve" font-family="GillSans-Light,Gill Sans" font-size="36.5" fill="#525252" transform="matrix(1.00, 0.00, -0.00, -1.00, 448.5, 413.7)">e</text><text xml:space="preserve" font-family="GillSans-Light,Gill Sans" font-size="36.5" fill="#525252" transform="matrix(1.00, 0.00, -0.00, -1.00, 465.9, 413.7)">t</text><text xml:space="preserve" font-family="GillSans-Light,Gill Sans" font-size="36.5" fill="#525252" transform="matrix(1.00, 0.00, -0.00, -1.00, 476.9, 413.7)">u</text><text xml:space="preserve" font-family="GillSans-Light,Gill Sans" font-size="36.5" fill="#525252" transform="matrix(1.00, 0.00, -0.00, -1.00, 494.8, 413.7)">r</text><text xml:space="preserve" font-family="GillSans-Light,Gill Sans" font-size="36.5" fill="#525252" transform="matrix(1.00, 0.00, -0.00, -1.00, 507.9, 413.7)">n</text><text xml:space="preserve" font-family="GillSans-Light,Gill Sans" font-size="36.5" fill="#525252" transform="matrix(1.00, 0.00, -0.00, -1.00, 525.8, 413.7)"> </text><text xml:space="preserve" font-family="GillSans-Light,Gill Sans" font-size="36.5" fill="#525252" transform="matrix(1.00, 0.00, -0.00, -1.00, 535.9, 413.7)">v</text><text xml:space="preserve" font-family="GillSans-Light,Gill Sans" font-size="36.5" fill="#525252" transform="matrix(1.00, 0.00, -0.00, -1.00, 551.5, 413.7)">a</text><text xml:space="preserve" font-family="GillSans-Light,Gill Sans" font-size="36.5" fill="#525252" transform="matrix(1.00, 0.00, -0.00, -1.00, 567.0, 413.7)">l</text><text xml:space="preserve" font-family="GillSans-Light,Gill Sans" font-size="36.5" fill="#525252" transform="matrix(1.00, 0.00, -0.00, -1.00, 573.9, 413.7)">u</text><text xml:space="preserve" font-family="GillSans-Light,Gill Sans" font-size="36.5" fill="#525252" transform="matrix(1.00, 0.00, -0.00, -1.00, 591.8, 413.7)">e</text><text xml:space="preserve" font-family="GillSans-Light,Gill Sans" font-size="36.5" fill="#525252" transform="matrix(1.00, 0.00, -0.00, -1.00, 609.3, 413.7)"> </text><text xml:space="preserve" font-family="GillSans-Light,Gill Sans" font-size="36.5" fill="#525252" transform="matrix(1.00, 0.00, -0.00, -1.00, 619.4, 413.7)">o</text><text xml:space="preserve" font-family="GillSans-Light,Gill Sans" font-size="36.5" fill="#525252" transform="matrix(1.00, 0.00, -0.00, -1.00, 639.2, 413.7)">r</text><text xml:space="preserve" font-family="GillSans-Light,Gill Sans" font-size="36.5" fill="#525252" transform="matrix(1.00, 0.00, -0.00, -1.00, 651.3, 413.7)"> </text><text xml:space="preserve" font-family="GillSans-Light,Gill Sans" font-size="36.5" fill="#525252" transform="matrix(1.00, 0.00, -0.00, -1.00, 661.4, 413.7)">t</text><text xml:space="preserve" font-family="GillSans-Light,Gill Sans" font-size="36.5" fill="#525252" transform="matrix(1.00, 0.00, -0.00, -1.00, 672.4, 413.7)">h</text><text xml:space="preserve" font-family="GillSans-Light,Gill Sans" font-size="36.5" fill="#525252" transform="matrix(1.00, 0.00, -0.00, -1.00, 690.3, 413.7)">e</text><text xml:space="preserve" font-family="GillSans-Light,Gill Sans" font-size="36.5" fill="#525252" transform="matrix(1.00, 0.00, -0.00, -1.00, 707.8, 413.7)"> </text><text xml:space="preserve" font-family="GillSans-Light,Gill Sans" font-size="36.5" fill="#525252" transform="matrix(1.00, 0.00, -0.00, -1.00, 717.9, 413.7)">e</text><text xml:space="preserve" font-family="GillSans-Light,Gill Sans" font-size="36.5" fill="#525252" transform="matrix(1.00, 0.00, -0.00, -1.00, 735.4, 413.7)">x</text><text xml:space="preserve" font-family="GillSans-Light,Gill Sans" font-size="36.5" fill="#525252" transform="matrix(1.00, 0.00, -0.00, -1.00, 752.9, 413.7)">c</text><text xml:space="preserve" font-family="GillSans-Light,Gill Sans" font-size="36.5" fill="#525252" transform="matrix(1.00, 0.00, -0.00, -1.00, 768.1, 413.7)">e</text><text xml:space="preserve" font-family="GillSans-Light,Gill Sans" font-size="36.5" fill="#525252" transform="matrix(1.00, 0.00, -0.00, -1.00, 785.6, 413.7)">p</text><text xml:space="preserve" font-family="GillSans-Light,Gill Sans" font-size="36.5" fill="#525252" transform="matrix(1.00, 0.00, -0.00, -1.00, 804.2, 413.7)">t</text><text xml:space="preserve" font-family="GillSans-Light,Gill Sans" font-size="36.5" fill="#525252" transform="matrix(1.00, 0.00, -0.00, -1.00, 815.2, 413.7)">i</text><text xml:space="preserve" font-family="GillSans-Light,Gill Sans" font-size="36.5" fill="#525252" transform="matrix(1.00, 0.00, -0.00, -1.00, 822.0, 413.7)">o</text><text xml:space="preserve" font-family="GillSans-Light,Gill Sans" font-size="36.5" fill="#525252" transform="matrix(1.00, 0.00, -0.00, -1.00, 841.8, 413.7)">n</text><text xml:space="preserve" font-family="GillSans-Light,Gill Sans" font-size="36.5" fill="#525252" transform="matrix(1.00, 0.00, -0.00, -1.00, 859.7, 413.7)"> </text><text xml:space="preserve" font-family="GillSans-Light,Gill Sans" font-size="36.5" fill="#525252" transform="matrix(1.00, 0.00, -0.00, -1.00, 869.8, 413.7)">t</text><text xml:space="preserve" font-family="GillSans-Light,Gill Sans" font-size="36.5" fill="#525252" transform="matrix(1.00, 0.00, -0.00, -1.00, 880.8, 413.7)">h</text><text xml:space="preserve" font-family="GillSans-Light,Gill Sans" font-size="36.5" fill="#525252" transform="matrix(1.00, 0.00, -0.00, -1.00, 898.7, 413.7)">r</text><text xml:space="preserve" font-family="GillSans-Light,Gill Sans" font-size="36.5" fill="#525252" transform="matrix(1.00, 0.00, -0.00, -1.00, 910.8, 413.7)">o</text><text xml:space="preserve" font-family="GillSans-Light,Gill Sans" font-size="36.5" fill="#525252" transform="matrix(1.00, 0.00, -0.00, -1.00, 930.1, 413.7)">w</text><text xml:space="preserve" font-family="GillSans-Light,Gill Sans" font-size="36.5" fill="#525252" transform="matrix(1.00, 0.00, -0.00, -1.00, 955.9, 413.7)">n</text><text xml:space="preserve" font-family="GillSans-Light,Gill Sans" font-size="36.5" fill="#525252" transform="matrix(1.00, 0.00, -0.00, -1.00, 973.8, 413.7)"> </text><text xml:space="preserve" font-family="GillSans-Light,Gill Sans" font-size="36.5" fill="#525252" transform="matrix(1.00, 0.00, -0.00, -1.00, 79.2, 371.7)">b</text><text xml:space="preserve" font-family="GillSans-Light,Gill Sans" font-size="36.5" fill="#525252" transform="matrix(1.00, 0.00, -0.00, -1.00, 97.3, 371.7)">y</text><text xml:space="preserve" font-family="GillSans-Light,Gill Sans" font-size="36.5" fill="#525252" transform="matrix(1.00, 0.00, -0.00, -1.00, 112.5, 371.7)"> </text><text xml:space="preserve" font-family="GillSans-Light,Gill Sans" font-size="36.5" fill="#525252" transform="matrix(1.00, 0.00, -0.00, -1.00, 122.6, 371.7)">a</text><text xml:space="preserve" font-family="GillSans-Light,Gill Sans" font-size="36.5" fill="#525252" transform="matrix(1.00, 0.00, -0.00, -1.00, 138.2, 371.7)"> </text><text xml:space="preserve" font-family="GillSans-Light,Gill Sans" font-size="36.5" fill="#525252" transform="matrix(1.00, 0.00, -0.00, -1.00, 148.3, 371.7)">f</text><text xml:space="preserve" font-family="GillSans-Light,Gill Sans" font-size="36.5" fill="#525252" transform="matrix(1.00, 0.00, -0.00, -1.00, 157.1, 371.7)">u</text><text xml:space="preserve" font-family="GillSans-Light,Gill Sans" font-size="36.5" fill="#525252" transform="matrix(1.00, 0.00, -0.00, -1.00, 175.0, 371.7)">n</text><text xml:space="preserve" font-family="GillSans-Light,Gill Sans" font-size="36.5" fill="#525252" transform="matrix(1.00, 0.00, -0.00, -1.00, 192.8, 371.7)">c</text><text xml:space="preserve" font-family="GillSans-Light,Gill Sans" font-size="36.5" fill="#525252" transform="matrix(1.00, 0.00, -0.00, -1.00, 208.1, 371.7)">t</text><text xml:space="preserve" font-family="GillSans-Light,Gill Sans" font-size="36.5" fill="#525252" transform="matrix(1.00, 0.00, -0.00, -1.00, 219.1, 371.7)">i</text><text xml:space="preserve" font-family="GillSans-Light,Gill Sans" font-size="36.5" fill="#525252" transform="matrix(1.00, 0.00, -0.00, -1.00, 225.9, 371.7)">o</text><text xml:space="preserve" font-family="GillSans-Light,Gill Sans" font-size="36.5" fill="#525252" transform="matrix(1.00, 0.00, -0.00, -1.00, 245.7, 371.7)">n</text><text xml:space="preserve" font-family="GillSans-Light,Gill Sans" font-size="36.5" fill="#525252" transform="matrix(1.00, 0.00, -0.00, -1.00, 263.6, 371.7)"> </text><text xml:space="preserve" font-family="GillSans-Light,Gill Sans" font-size="36.5" fill="#525252" transform="matrix(1.00, 0.00, -0.00, -1.00, 273.7, 371.7)">t</text><text xml:space="preserve" font-family="GillSans-Light,Gill Sans" font-size="36.5" fill="#525252" transform="matrix(1.00, 0.00, -0.00, -1.00, 284.7, 371.7)">h</text><text xml:space="preserve" font-family="GillSans-Light,Gill Sans" font-size="36.5" fill="#525252" transform="matrix(1.00, 0.00, -0.00, -1.00, 302.6, 371.7)">a</text><text xml:space="preserve" font-family="GillSans-Light,Gill Sans" font-size="36.5" fill="#525252" transform="matrix(1.00, 0.00, -0.00, -1.00, 318.2, 371.7)">t</text><text xml:space="preserve" font-family="GillSans-Light,Gill Sans" font-size="36.5" fill="#525252" transform="matrix(1.00, 0.00, -0.00, -1.00, 329.2, 371.7)"> </text><text xml:space="preserve" font-family="GillSans-Light,Gill Sans" font-size="36.5" fill="#525252" transform="matrix(1.00, 0.00, -0.00, -1.00, 339.3, 371.7)">h</text><text xml:space="preserve" font-family="GillSans-Light,Gill Sans" font-size="36.5" fill="#525252" transform="matrix(1.00, 0.00, -0.00, -1.00, 357.2, 371.7)">a</text><text xml:space="preserve" font-family="GillSans-Light,Gill Sans" font-size="36.5" fill="#525252" transform="matrix(1.00, 0.00, -0.00, -1.00, 372.7, 371.7)">s</text><text xml:space="preserve" font-family="GillSans-Light,Gill Sans" font-size="36.5" fill="#525252" transform="matrix(1.00, 0.00, -0.00, -1.00, 385.7, 371.7)"> </text><text xml:space="preserve" font-family="GillSans-Light,Gill Sans" font-size="36.5" fill="#525252" transform="matrix(1.00, 0.00, -0.00, -1.00, 395.8, 371.7)">t</text><text xml:space="preserve" font-family="GillSans-Light,Gill Sans" font-size="36.5" fill="#525252" transform="matrix(1.00, 0.00, -0.00, -1.00, 406.8, 371.7)">o</text><text xml:space="preserve" font-family="GillSans-Light,Gill Sans" font-size="36.5" fill="#525252" transform="matrix(1.00, 0.00, -0.00, -1.00, 426.6, 371.7)"> </text><text xml:space="preserve" font-family="GillSans-Light,Gill Sans" font-size="36.5" fill="#525252" transform="matrix(1.00, 0.00, -0.00, -1.00, 436.7, 371.7)">d</text><text xml:space="preserve" font-family="GillSans-Light,Gill Sans" font-size="36.5" fill="#525252" transform="matrix(1.00, 0.00, -0.00, -1.00, 455.3, 371.7)">o</text><text xml:space="preserve" font-family="GillSans-Light,Gill Sans" font-size="36.5" fill="#525252" transform="matrix(1.00, 0.00, -0.00, -1.00, 475.0, 371.7)"> </text><text xml:space="preserve" font-family="GillSans-Light,Gill Sans" font-size="36.5" fill="#525252" transform="matrix(1.00, 0.00, -0.00, -1.00, 485.2, 371.7)">s</text><text xml:space="preserve" font-family="GillSans-Light,Gill Sans" font-size="36.5" fill="#525252" transform="matrix(1.00, 0.00, -0.00, -1.00, 498.1, 371.7)">o</text><text xml:space="preserve" font-family="GillSans-Light,Gill Sans" font-size="36.5" fill="#525252" transform="matrix(1.00, 0.00, -0.00, -1.00, 517.9, 371.7)">m</text><text xml:space="preserve" font-family="GillSans-Light,Gill Sans" font-size="36.5" fill="#525252" transform="matrix(1.00, 0.00, -0.00, -1.00, 546.0, 371.7)">e</text><text xml:space="preserve" font-family="GillSans-Light,Gill Sans" font-size="36.5" fill="#525252" transform="matrix(1.00, 0.00, -0.00, -1.00, 563.5, 371.7)"> </text><text xml:space="preserve" font-family="GillSans-Light,Gill Sans" font-size="36.5" fill="#525252" transform="matrix(1.00, 0.00, -0.00, -1.00, 573.6, 371.7)">a</text><text xml:space="preserve" font-family="GillSans-Light,Gill Sans" font-size="36.5" fill="#525252" transform="matrix(1.00, 0.00, -0.00, -1.00, 589.1, 371.7)">s</text><text xml:space="preserve" font-family="GillSans-Light,Gill Sans" font-size="36.5" fill="#525252" transform="matrix(1.00, 0.00, -0.00, -1.00, 602.1, 371.7)">y</text><text xml:space="preserve" font-family="GillSans-Light,Gill Sans" font-size="36.5" fill="#525252" transform="matrix(1.00, 0.00, -0.00, -1.00, 617.3, 371.7)">n</text><text xml:space="preserve" font-family="GillSans-Light,Gill Sans" font-size="36.5" fill="#525252" transform="matrix(1.00, 0.00, -0.00, -1.00, 635.2, 371.7)">c</text><text xml:space="preserve" font-family="GillSans-Light,Gill Sans" font-size="36.5" fill="#525252" transform="matrix(1.00, 0.00, -0.00, -1.00, 650.4, 371.7)">h</text><text xml:space="preserve" font-family="GillSans-Light,Gill Sans" font-size="36.5" fill="#525252" transform="matrix(1.00, 0.00, -0.00, -1.00, 668.3, 371.7)">r</text><text xml:space="preserve" font-family="GillSans-Light,Gill Sans" font-size="36.5" fill="#525252" transform="matrix(1.00, 0.00, -0.00, -1.00, 680.4, 371.7)">o</text><text xml:space="preserve" font-family="GillSans-Light,Gill Sans" font-size="36.5" fill="#525252" transform="matrix(1.00, 0.00, -0.00, -1.00, 700.2, 371.7)">n</text><text xml:space="preserve" font-family="GillSans-Light,Gill Sans" font-size="36.5" fill="#525252" transform="matrix(1.00, 0.00, -0.00, -1.00, 718.1, 371.7)">o</text><text xml:space="preserve" font-family="GillSans-Light,Gill Sans" font-size="36.5" fill="#525252" transform="matrix(1.00, 0.00, -0.00, -1.00, 737.8, 371.7)">u</text><text xml:space="preserve" font-family="GillSans-Light,Gill Sans" font-size="36.5" fill="#525252" transform="matrix(1.00, 0.00, -0.00, -1.00, 755.7, 371.7)">s</text><text xml:space="preserve" font-family="GillSans-Light,Gill Sans" font-size="36.5" fill="#525252" transform="matrix(1.00, 0.00, -0.00, -1.00, 768.7, 371.7)"> </text><text xml:space="preserve" font-family="GillSans-Light,Gill Sans" font-size="36.5" fill="#525252" transform="matrix(1.00, 0.00, -0.00, -1.00, 778.8, 371.7)">p</text><text xml:space="preserve" font-family="GillSans-Light,Gill Sans" font-size="36.5" fill="#525252" transform="matrix(1.00, 0.00, -0.00, -1.00, 797.4, 371.7)">r</text><text xml:space="preserve" font-family="GillSans-Light,Gill Sans" font-size="36.5" fill="#525252" transform="matrix(1.00, 0.00, -0.00, -1.00, 809.5, 371.7)">o</text><text xml:space="preserve" font-family="GillSans-Light,Gill Sans" font-size="36.5" fill="#525252" transform="matrix(1.00, 0.00, -0.00, -1.00, 829.3, 371.7)">c</text><text xml:space="preserve" font-family="GillSans-Light,Gill Sans" font-size="36.5" fill="#525252" transform="matrix(1.00, 0.00, -0.00, -1.00, 844.5, 371.7)">e</text><text xml:space="preserve" font-family="GillSans-Light,Gill Sans" font-size="36.5" fill="#525252" transform="matrix(1.00, 0.00, -0.00, -1.00, 862.0, 371.7)">s</text><text xml:space="preserve" font-family="GillSans-Light,Gill Sans" font-size="36.5" fill="#525252" transform="matrix(1.00, 0.00, -0.00, -1.00, 874.9, 371.7)">s</text><text xml:space="preserve" font-family="GillSans-Light,Gill Sans" font-size="36.5" fill="#525252" transform="matrix(1.00, 0.00, -0.00, -1.00, 887.8, 371.7)">i</text><text xml:space="preserve" font-family="GillSans-Light,Gill Sans" font-size="36.5" fill="#525252" transform="matrix(1.00, 0.00, -0.00, -1.00, 894.7, 371.7)">n</text><text xml:space="preserve" font-family="GillSans-Light,Gill Sans" font-size="36.5" fill="#525252" transform="matrix(1.00, 0.00, -0.00, -1.00, 912.6, 371.7)">g</text><text xml:space="preserve" font-family="GillSans-Light,Gill Sans" font-size="36.5" fill="#525252" transform="matrix(1.00, 0.00, -0.00, -1.00, 928.1, 371.7)">.</text><text xml:space="preserve" font-family="GillSans-Light,Gill Sans" font-size="36.5" fill="#525252" transform="matrix(1.00, 0.00, -0.00, -1.00, 934.6, 371.7)">"</text><text xml:space="preserve" font-family="GillSans-Light,Gill Sans" font-size="36.5" fill="#525252" transform="matrix(1.00, 0.00, -0.00, -1.00, 426.6, 287.7)">-</text><text xml:space="preserve" font-family="GillSans-Light,Gill Sans" font-size="36.5" fill="#525252" transform="matrix(1.00, 0.00, -0.00, -1.00, 438.1, 287.7)"> </text><text xml:space="preserve" font-family="GillSans-Light,Gill Sans" font-size="36.5" fill="#525252" transform="matrix(1.00, 0.00, -0.00, -1.00, 448.2, 287.7)">K</text><text xml:space="preserve" font-family="GillSans-Light,Gill Sans" font-size="36.5" fill="#525252" transform="matrix(1.00, 0.00, -0.00, -1.00, 467.5, 287.7)">r</text><text xml:space="preserve" font-family="GillSans-Light,Gill Sans" font-size="36.5" fill="#525252" transform="matrix(1.00, 0.00, -0.00, -1.00, 480.6, 287.7)">i</text><text xml:space="preserve" font-family="GillSans-Light,Gill Sans" font-size="36.5" fill="#525252" transform="matrix(1.00, 0.00, -0.00, -1.00, 487.5, 287.7)">s</text><text xml:space="preserve" font-family="GillSans-Light,Gill Sans" font-size="36.5" fill="#525252" transform="matrix(1.00, 0.00, -0.00, -1.00, 500.4, 287.7)"> </text><text xml:space="preserve" font-family="GillSans-Light,Gill Sans" font-size="36.5" fill="#525252" transform="matrix(1.00, 0.00, -0.00, -1.00, 510.5, 287.7)">K</text><text xml:space="preserve" font-family="GillSans-Light,Gill Sans" font-size="36.5" fill="#525252" transform="matrix(1.00, 0.00, -0.00, -1.00, 529.9, 287.7)">o</text><text xml:space="preserve" font-family="GillSans-Light,Gill Sans" font-size="36.5" fill="#525252" transform="matrix(1.00, 0.00, -0.00, -1.00, 549.1, 287.7)">w</text><text xml:space="preserve" font-family="GillSans-Light,Gill Sans" font-size="36.5" fill="#525252" transform="matrix(1.00, 0.00, -0.00, -1.00, 574.9, 287.7)">a</text><text xml:space="preserve" font-family="GillSans-Light,Gill Sans" font-size="36.5" fill="#525252" transform="matrix(1.00, 0.00, -0.00, -1.00, 590.5, 287.7)">l</text><image xlink:href="../../2D9715AB-06BB-4600-AD5A-62AB33C2124D/assets/77DA1AF35091804DD2F1219563E56539.png" width="59.00" height="59.00" transform="matrix(1.00, 0.00, -0.00, -1.00, 482.5, 256.1)"></image><image xlink:href="../../2D9715AB-06BB-4600-AD5A-62AB33C2124D/assets/0F125828ED5597F9DDF632CEF28B197C.png" width="246.00" height="103.00" transform="matrix(0.24, 0.00, -0.00, -0.24, 482.5, 197.1)"></image></g></svg>