<?xml version="1.0" encoding="UTF-8" standalone="no"?><svg xmlns="http://www.w3.org/2000/svg" xmlns:xlink="http://www.w3.org/1999/xlink" clip-rule="evenodd" stroke-miterlimit="10" viewBox="0 0 1024 768"><desc>SVG generated by Keynote</desc><defs></defs><g transform="matrix(1.00, 0.00, -0.00, -1.00, 0.0, 768.0)"><g><clipPath id="clip0x6080006b2180"><path d="M 0.0 768.0 L 1024.0 768.0 L 1024.0 0.0 L 0.0 0.0 Z M 0.0 768.0 "></path></clipPath><g clip-path="url(#clip0x6080006b2180)"><image xlink:href="../../D8468060-C003-4ABF-A6BE-B4E537BF06BB/assets/574DCE55A4CF432400CBDDDE1DFDFC9B.jpeg" width="2048.00" height="1536.00" transform="matrix(0.50, 0.00, -0.00, -0.50, 0.0, 768.0)"></image></g></g><text xml:space="preserve" font-family="GillSans-Light,Gill Sans" font-size="72.0" fill="#525252" transform="matrix(1.00, 0.00, -0.00, -1.00, 153.5, 628.2)">V</text><text xml:space="preserve" font-family="GillSans-Light,Gill Sans" font-size="72.0" fill="#525252" transform="matrix(1.00, 0.00, -0.00, -1.00, 192.0, 628.2)">A</text><text xml:space="preserve" font-family="GillSans-Light,Gill Sans" font-size="72.0" fill="#525252" transform="matrix(1.00, 0.00, -0.00, -1.00, 240.0, 628.2)">R</text><text xml:space="preserve" font-family="GillSans-Light,Gill Sans" font-size="72.0" fill="#525252" transform="matrix(1.00, 0.00, -0.00, -1.00, 281.3, 628.2)">I</text><text xml:space="preserve" font-family="GillSans-Light,Gill Sans" font-size="72.0" fill="#525252" transform="matrix(1.00, 0.00, -0.00, -1.00, 296.3, 628.2)">A</text><text xml:space="preserve" font-family="GillSans-Light,Gill Sans" font-size="72.0" fill="#525252" transform="matrix(1.00, 0.00, -0.00, -1.00, 337.1, 628.2)">T</text><text xml:space="preserve" font-family="GillSans-Light,Gill Sans" font-size="72.0" fill="#525252" transform="matrix(1.00, 0.00, -0.00, -1.00, 378.4, 628.2)">I</text><text xml:space="preserve" font-family="GillSans-Light,Gill Sans" font-size="72.0" fill="#525252" transform="matrix(1.00, 0.00, -0.00, -1.00, 393.4, 628.2)">O</text><text xml:space="preserve" font-family="GillSans-Light,Gill Sans" font-size="72.0" fill="#525252" transform="matrix(1.00, 0.00, -0.00, -1.00, 452.7, 628.2)">N</text><text xml:space="preserve" font-family="GillSans-Light,Gill Sans" font-size="72.0" fill="#525252" transform="matrix(1.00, 0.00, -0.00, -1.00, 508.2, 628.2)">S</text><text xml:space="preserve" font-family="GillSans-Light,Gill Sans" font-size="72.0" fill="#525252" transform="matrix(1.00, 0.00, -0.00, -1.00, 542.0, 628.2)"> </text><text xml:space="preserve" font-family="GillSans-Light,Gill Sans" font-size="72.0" fill="#525252" transform="matrix(1.00, 0.00, -0.00, -1.00, 562.0, 628.2)">O</text><text xml:space="preserve" font-family="GillSans-Light,Gill Sans" font-size="72.0" fill="#525252" transform="matrix(1.00, 0.00, -0.00, -1.00, 621.3, 628.2)">N</text><text xml:space="preserve" font-family="GillSans-Light,Gill Sans" font-size="72.0" fill="#525252" transform="matrix(1.00, 0.00, -0.00, -1.00, 676.8, 628.2)"> </text><text xml:space="preserve" font-family="GillSans-Light,Gill Sans" font-size="72.0" fill="#525252" transform="matrix(1.00, 0.00, -0.00, -1.00, 686.7, 628.2)">T</text><text xml:space="preserve" font-family="GillSans-Light,Gill Sans" font-size="72.0" fill="#525252" transform="matrix(1.00, 0.00, -0.00, -1.00, 728.0, 628.2)">H</text><text xml:space="preserve" font-family="GillSans-Light,Gill Sans" font-size="72.0" fill="#525252" transform="matrix(1.00, 0.00, -0.00, -1.00, 779.8, 628.2)">E</text><text xml:space="preserve" font-family="GillSans-Light,Gill Sans" font-size="72.0" fill="#525252" transform="matrix(1.00, 0.00, -0.00, -1.00, 815.1, 628.2)">N</text><text xml:space="preserve" font-family="AppleSymbols,Apple Symbols" font-size="46.0" fill="#525252" transform="matrix(1.00, 0.00, -0.00, -1.00, 158.0, 342.3)">p</text><text xml:space="preserve" font-family="AppleSymbols,Apple Symbols" font-size="46.0" fill="#525252" transform="matrix(1.00, 0.00, -0.00, -1.00, 177.7, 342.3)">r</text><text xml:space="preserve" font-family="AppleSymbols,Apple Symbols" font-size="46.0" fill="#525252" transform="matrix(1.00, 0.00, -0.00, -1.00, 190.3, 342.3)">o</text><text xml:space="preserve" font-family="AppleSymbols,Apple Symbols" font-size="46.0" fill="#525252" transform="matrix(1.00, 0.00, -0.00, -1.00, 210.1, 342.3)">m</text><text xml:space="preserve" font-family="AppleSymbols,Apple Symbols" font-size="46.0" fill="#525252" transform="matrix(1.00, 0.00, -0.00, -1.00, 239.3, 342.3)">i</text><text xml:space="preserve" font-family="AppleSymbols,Apple Symbols" font-size="46.0" fill="#525252" transform="matrix(1.00, 0.00, -0.00, -1.00, 247.0, 342.3)">s</text><text xml:space="preserve" font-family="AppleSymbols,Apple Symbols" font-size="46.0" fill="#525252" transform="matrix(1.00, 0.00, -0.00, -1.00, 263.6, 342.3)">e</text><text xml:space="preserve" font-family="AppleSymbols,Apple Symbols" font-size="46.0" fill="#525252" transform="matrix(1.00, 0.00, -0.00, -1.00, 282.4, 342.3)">.</text><text xml:space="preserve" font-family="AppleSymbols,Apple Symbols" font-size="46.0" fill="#525252" transform="matrix(1.00, 0.00, -0.00, -1.00, 292.3, 342.3)">t</text><text xml:space="preserve" font-family="AppleSymbols,Apple Symbols" font-size="46.0" fill="#525252" transform="matrix(1.00, 0.00, -0.00, -1.00, 306.8, 342.3)">h</text><text xml:space="preserve" font-family="AppleSymbols,Apple Symbols" font-size="46.0" fill="#525252" transform="matrix(1.00, 0.00, -0.00, -1.00, 325.8, 342.3)">e</text><text xml:space="preserve" font-family="AppleSymbols,Apple Symbols" font-size="46.0" fill="#525252" transform="matrix(1.00, 0.00, -0.00, -1.00, 344.6, 342.3)">n</text><text xml:space="preserve" font-family="AppleSymbols,Apple Symbols" font-size="46.0" fill="#525252" transform="matrix(1.00, 0.00, -0.00, -1.00, 363.7, 342.3)">(</text><text xml:space="preserve" font-family="AppleSymbols,Apple Symbols" font-size="46.0" fill="#525252" transform="matrix(1.00, 0.00, -0.00, -1.00, 378.3, 342.3)">o</text><text xml:space="preserve" font-family="AppleSymbols,Apple Symbols" font-size="46.0" fill="#525252" transform="matrix(1.00, 0.00, -0.00, -1.00, 398.1, 342.3)">n</text><text xml:space="preserve" font-family="AppleSymbols,Apple Symbols" font-size="46.0" fill="#525252" transform="matrix(1.00, 0.00, -0.00, -1.00, 417.2, 342.3)">F</text><text xml:space="preserve" font-family="AppleSymbols,Apple Symbols" font-size="46.0" fill="#525252" transform="matrix(1.00, 0.00, -0.00, -1.00, 435.2, 342.3)">u</text><text xml:space="preserve" font-family="AppleSymbols,Apple Symbols" font-size="46.0" fill="#525252" transform="matrix(1.00, 0.00, -0.00, -1.00, 454.2, 342.3)">l</text><text xml:space="preserve" font-family="AppleSymbols,Apple Symbols" font-size="46.0" fill="#525252" transform="matrix(1.00, 0.00, -0.00, -1.00, 461.9, 342.3)">f</text><text xml:space="preserve" font-family="AppleSymbols,Apple Symbols" font-size="46.0" fill="#525252" transform="matrix(1.00, 0.00, -0.00, -1.00, 474.7, 342.3)">i</text><text xml:space="preserve" font-family="AppleSymbols,Apple Symbols" font-size="46.0" fill="#525252" transform="matrix(1.00, 0.00, -0.00, -1.00, 482.3, 342.3)">l</text><text xml:space="preserve" font-family="AppleSymbols,Apple Symbols" font-size="46.0" fill="#525252" transform="matrix(1.00, 0.00, -0.00, -1.00, 490.0, 342.3)">l</text><text xml:space="preserve" font-family="AppleSymbols,Apple Symbols" font-size="46.0" fill="#525252" transform="matrix(1.00, 0.00, -0.00, -1.00, 497.7, 342.3)">e</text><text xml:space="preserve" font-family="AppleSymbols,Apple Symbols" font-size="46.0" fill="#525252" transform="matrix(1.00, 0.00, -0.00, -1.00, 516.5, 342.3)">d</text><text xml:space="preserve" font-family="AppleSymbols,Apple Symbols" font-size="46.0" fill="#525252" transform="matrix(1.00, 0.00, -0.00, -1.00, 536.1, 342.3)">)</text><text xml:space="preserve" font-family="AppleSymbols,Apple Symbols" font-size="46.0" fill="#525252" transform="matrix(1.00, 0.00, -0.00, -1.00, 550.8, 342.3)"> </text><text xml:space="preserve" font-family="AppleSymbols,Apple Symbols" font-size="46.0" fill="#525252" transform="matrix(1.00, 0.00, -0.00, -1.00, 158.0, 295.3)">p</text><text xml:space="preserve" font-family="AppleSymbols,Apple Symbols" font-size="46.0" fill="#525252" transform="matrix(1.00, 0.00, -0.00, -1.00, 177.7, 295.3)">r</text><text xml:space="preserve" font-family="AppleSymbols,Apple Symbols" font-size="46.0" fill="#525252" transform="matrix(1.00, 0.00, -0.00, -1.00, 190.3, 295.3)">o</text><text xml:space="preserve" font-family="AppleSymbols,Apple Symbols" font-size="46.0" fill="#525252" transform="matrix(1.00, 0.00, -0.00, -1.00, 210.1, 295.3)">m</text><text xml:space="preserve" font-family="AppleSymbols,Apple Symbols" font-size="46.0" fill="#525252" transform="matrix(1.00, 0.00, -0.00, -1.00, 239.3, 295.3)">i</text><text xml:space="preserve" font-family="AppleSymbols,Apple Symbols" font-size="46.0" fill="#525252" transform="matrix(1.00, 0.00, -0.00, -1.00, 247.0, 295.3)">s</text><text xml:space="preserve" font-family="AppleSymbols,Apple Symbols" font-size="46.0" fill="#525252" transform="matrix(1.00, 0.00, -0.00, -1.00, 263.6, 295.3)">e</text><text xml:space="preserve" font-family="AppleSymbols,Apple Symbols" font-size="46.0" fill="#525252" transform="matrix(1.00, 0.00, -0.00, -1.00, 282.4, 295.3)">.</text><text xml:space="preserve" font-family="AppleSymbols,Apple Symbols" font-size="46.0" fill="#525252" transform="matrix(1.00, 0.00, -0.00, -1.00, 292.3, 295.3)">t</text><text xml:space="preserve" font-family="AppleSymbols,Apple Symbols" font-size="46.0" fill="#525252" transform="matrix(1.00, 0.00, -0.00, -1.00, 306.8, 295.3)">h</text><text xml:space="preserve" font-family="AppleSymbols,Apple Symbols" font-size="46.0" fill="#525252" transform="matrix(1.00, 0.00, -0.00, -1.00, 325.8, 295.3)">e</text><text xml:space="preserve" font-family="AppleSymbols,Apple Symbols" font-size="46.0" fill="#525252" transform="matrix(1.00, 0.00, -0.00, -1.00, 344.6, 295.3)">n</text><text xml:space="preserve" font-family="AppleSymbols,Apple Symbols" font-size="46.0" fill="#525252" transform="matrix(1.00, 0.00, -0.00, -1.00, 363.7, 295.3)">(</text><text xml:space="preserve" font-family="AppleSymbols,Apple Symbols" font-size="46.0" fill="#FF2600" transform="matrix(1.00, 0.00, -0.00, -1.00, 378.3, 295.3)">u</text><text xml:space="preserve" font-family="AppleSymbols,Apple Symbols" font-size="46.0" fill="#FF2600" transform="matrix(1.00, 0.00, -0.00, -1.00, 397.3, 295.3)">n</text><text xml:space="preserve" font-family="AppleSymbols,Apple Symbols" font-size="46.0" fill="#FF2600" transform="matrix(1.00, 0.00, -0.00, -1.00, 416.4, 295.3)">d</text><text xml:space="preserve" font-family="AppleSymbols,Apple Symbols" font-size="46.0" fill="#FF2600" transform="matrix(1.00, 0.00, -0.00, -1.00, 436.0, 295.3)">e</text><text xml:space="preserve" font-family="AppleSymbols,Apple Symbols" font-size="46.0" fill="#FF2600" transform="matrix(1.00, 0.00, -0.00, -1.00, 454.8, 295.3)">f</text><text xml:space="preserve" font-family="AppleSymbols,Apple Symbols" font-size="46.0" fill="#FF2600" transform="matrix(1.00, 0.00, -0.00, -1.00, 467.6, 295.3)">i</text><text xml:space="preserve" font-family="AppleSymbols,Apple Symbols" font-size="46.0" fill="#FF2600" transform="matrix(1.00, 0.00, -0.00, -1.00, 475.2, 295.3)">n</text><text xml:space="preserve" font-family="AppleSymbols,Apple Symbols" font-size="46.0" fill="#FF2600" transform="matrix(1.00, 0.00, -0.00, -1.00, 494.3, 295.3)">e</text><text xml:space="preserve" font-family="AppleSymbols,Apple Symbols" font-size="46.0" fill="#FF2600" transform="matrix(1.00, 0.00, -0.00, -1.00, 513.1, 295.3)">d</text><text xml:space="preserve" font-family="AppleSymbols,Apple Symbols" font-size="46.0" fill="#525252" transform="matrix(1.00, 0.00, -0.00, -1.00, 532.7, 295.3)">,</text><text xml:space="preserve" font-family="AppleSymbols,Apple Symbols" font-size="46.0" fill="#525252" transform="matrix(1.00, 0.00, -0.00, -1.00, 542.7, 295.3)"> </text><text xml:space="preserve" font-family="AppleSymbols,Apple Symbols" font-size="46.0" fill="#525252" transform="matrix(1.00, 0.00, -0.00, -1.00, 558.0, 295.3)">o</text><text xml:space="preserve" font-family="AppleSymbols,Apple Symbols" font-size="46.0" fill="#525252" transform="matrix(1.00, 0.00, -0.00, -1.00, 577.8, 295.3)">n</text><text xml:space="preserve" font-family="AppleSymbols,Apple Symbols" font-size="46.0" fill="#525252" transform="matrix(1.00, 0.00, -0.00, -1.00, 596.8, 295.3)">R</text><text xml:space="preserve" font-family="AppleSymbols,Apple Symbols" font-size="46.0" fill="#525252" transform="matrix(1.00, 0.00, -0.00, -1.00, 616.6, 295.3)">e</text><text xml:space="preserve" font-family="AppleSymbols,Apple Symbols" font-size="46.0" fill="#525252" transform="matrix(1.00, 0.00, -0.00, -1.00, 635.4, 295.3)">j</text><text xml:space="preserve" font-family="AppleSymbols,Apple Symbols" font-size="46.0" fill="#525252" transform="matrix(1.00, 0.00, -0.00, -1.00, 644.5, 295.3)">e</text><text xml:space="preserve" font-family="AppleSymbols,Apple Symbols" font-size="46.0" fill="#525252" transform="matrix(1.00, 0.00, -0.00, -1.00, 663.2, 295.3)">c</text><text xml:space="preserve" font-family="AppleSymbols,Apple Symbols" font-size="46.0" fill="#525252" transform="matrix(1.00, 0.00, -0.00, -1.00, 681.1, 295.3)">t</text><text xml:space="preserve" font-family="AppleSymbols,Apple Symbols" font-size="46.0" fill="#525252" transform="matrix(1.00, 0.00, -0.00, -1.00, 695.5, 295.3)">e</text><text xml:space="preserve" font-family="AppleSymbols,Apple Symbols" font-size="46.0" fill="#525252" transform="matrix(1.00, 0.00, -0.00, -1.00, 714.3, 295.3)">d</text><text xml:space="preserve" font-family="AppleSymbols,Apple Symbols" font-size="46.0" fill="#525252" transform="matrix(1.00, 0.00, -0.00, -1.00, 734.0, 295.3)">)</text><text xml:space="preserve" font-family="AppleSymbols,Apple Symbols" font-size="46.0" fill="#525252" transform="matrix(1.00, 0.00, -0.00, -1.00, 748.6, 295.3)"> </text><text xml:space="preserve" font-family="AppleSymbols,Apple Symbols" font-size="46.0" fill="#525252" transform="matrix(1.00, 0.00, -0.00, -1.00, 158.0, 248.3)">p</text><text xml:space="preserve" font-family="AppleSymbols,Apple Symbols" font-size="46.0" fill="#525252" transform="matrix(1.00, 0.00, -0.00, -1.00, 177.7, 248.3)">r</text><text xml:space="preserve" font-family="AppleSymbols,Apple Symbols" font-size="46.0" fill="#525252" transform="matrix(1.00, 0.00, -0.00, -1.00, 190.3, 248.3)">o</text><text xml:space="preserve" font-family="AppleSymbols,Apple Symbols" font-size="46.0" fill="#525252" transform="matrix(1.00, 0.00, -0.00, -1.00, 210.1, 248.3)">m</text><text xml:space="preserve" font-family="AppleSymbols,Apple Symbols" font-size="46.0" fill="#525252" transform="matrix(1.00, 0.00, -0.00, -1.00, 239.3, 248.3)">i</text><text xml:space="preserve" font-family="AppleSymbols,Apple Symbols" font-size="46.0" fill="#525252" transform="matrix(1.00, 0.00, -0.00, -1.00, 247.0, 248.3)">s</text><text xml:space="preserve" font-family="AppleSymbols,Apple Symbols" font-size="46.0" fill="#525252" transform="matrix(1.00, 0.00, -0.00, -1.00, 263.6, 248.3)">e</text><text xml:space="preserve" font-family="AppleSymbols,Apple Symbols" font-size="46.0" fill="#525252" transform="matrix(1.00, 0.00, -0.00, -1.00, 282.4, 248.3)">.</text><text xml:space="preserve" font-family="AppleSymbols,Apple Symbols" font-size="46.0" fill="#525252" transform="matrix(1.00, 0.00, -0.00, -1.00, 292.3, 248.3)">c</text><text xml:space="preserve" font-family="AppleSymbols,Apple Symbols" font-size="46.0" fill="#525252" transform="matrix(1.00, 0.00, -0.00, -1.00, 310.1, 248.3)">a</text><text xml:space="preserve" font-family="AppleSymbols,Apple Symbols" font-size="46.0" fill="#525252" transform="matrix(1.00, 0.00, -0.00, -1.00, 328.2, 248.3)">t</text><text xml:space="preserve" font-family="AppleSymbols,Apple Symbols" font-size="46.0" fill="#525252" transform="matrix(1.00, 0.00, -0.00, -1.00, 342.7, 248.3)">c</text><text xml:space="preserve" font-family="AppleSymbols,Apple Symbols" font-size="46.0" fill="#525252" transform="matrix(1.00, 0.00, -0.00, -1.00, 360.5, 248.3)">h</text><text xml:space="preserve" font-family="AppleSymbols,Apple Symbols" font-size="46.0" fill="#525252" transform="matrix(1.00, 0.00, -0.00, -1.00, 379.5, 248.3)">(</text><text xml:space="preserve" font-family="AppleSymbols,Apple Symbols" font-size="46.0" fill="#525252" transform="matrix(1.00, 0.00, -0.00, -1.00, 394.1, 248.3)">o</text><text xml:space="preserve" font-family="AppleSymbols,Apple Symbols" font-size="46.0" fill="#525252" transform="matrix(1.00, 0.00, -0.00, -1.00, 413.9, 248.3)">n</text><text xml:space="preserve" font-family="AppleSymbols,Apple Symbols" font-size="46.0" fill="#525252" transform="matrix(1.00, 0.00, -0.00, -1.00, 433.0, 248.3)">R</text><text xml:space="preserve" font-family="AppleSymbols,Apple Symbols" font-size="46.0" fill="#525252" transform="matrix(1.00, 0.00, -0.00, -1.00, 452.8, 248.3)">e</text><text xml:space="preserve" font-family="AppleSymbols,Apple Symbols" font-size="46.0" fill="#525252" transform="matrix(1.00, 0.00, -0.00, -1.00, 471.6, 248.3)">j</text><text xml:space="preserve" font-family="AppleSymbols,Apple Symbols" font-size="46.0" fill="#525252" transform="matrix(1.00, 0.00, -0.00, -1.00, 480.6, 248.3)">e</text><text xml:space="preserve" font-family="AppleSymbols,Apple Symbols" font-size="46.0" fill="#525252" transform="matrix(1.00, 0.00, -0.00, -1.00, 499.4, 248.3)">c</text><text xml:space="preserve" font-family="AppleSymbols,Apple Symbols" font-size="46.0" fill="#525252" transform="matrix(1.00, 0.00, -0.00, -1.00, 517.2, 248.3)">t</text><text xml:space="preserve" font-family="AppleSymbols,Apple Symbols" font-size="46.0" fill="#525252" transform="matrix(1.00, 0.00, -0.00, -1.00, 531.7, 248.3)">e</text><text xml:space="preserve" font-family="AppleSymbols,Apple Symbols" font-size="46.0" fill="#525252" transform="matrix(1.00, 0.00, -0.00, -1.00, 550.5, 248.3)">d</text><text xml:space="preserve" font-family="AppleSymbols,Apple Symbols" font-size="46.0" fill="#525252" transform="matrix(1.00, 0.00, -0.00, -1.00, 570.2, 248.3)">)</text></g></svg>