<?xml version="1.0" encoding="UTF-8" standalone="no"?><svg xmlns="http://www.w3.org/2000/svg" xmlns:xlink="http://www.w3.org/1999/xlink" clip-rule="evenodd" stroke-miterlimit="10" viewBox="0 0 1024 768"><desc>SVG generated by Keynote</desc><defs></defs><g transform="matrix(1.00, 0.00, -0.00, -1.00, 0.0, 768.0)"><g><clipPath id="clip0x600000caf060"><path d="M 0.0 768.0 L 1024.0 768.0 L 1024.0 0.0 L 0.0 0.0 Z M 0.0 768.0 "></path></clipPath><g clip-path="url(#clip0x600000caf060)"><image xlink:href="../../D8468060-C003-4ABF-A6BE-B4E537BF06BB/assets/870305EC1DF02E79D8EC9CD069F0A0EB.png" width="2048.00" height="1365.00" transform="matrix(0.56, 0.00, -0.00, -0.56, -64.1, 768.0)"></image></g></g><text xml:space="preserve" font-family="GillSans-SemiBold,Gill Sans" font-weight="bold" font-size="72.0" fill="#000000" transform="matrix(1.00, 0.00, -0.00, -1.00, 316.5, 400.0)">@</text><text xml:space="preserve" font-family="GillSans-SemiBold,Gill Sans" font-weight="bold" font-size="72.0" fill="#000000" transform="matrix(1.00, 0.00, -0.00, -1.00, 387.9, 400.0)">W</text><text xml:space="preserve" font-family="GillSans-SemiBold,Gill Sans" font-weight="bold" font-size="72.0" fill="#000000" transform="matrix(1.00, 0.00, -0.00, -1.00, 460.5, 400.0)">A</text><text xml:space="preserve" font-family="GillSans-SemiBold,Gill Sans" font-weight="bold" font-size="72.0" fill="#000000" transform="matrix(1.00, 0.00, -0.00, -1.00, 507.1, 400.0)">V</text><text xml:space="preserve" font-family="GillSans-SemiBold,Gill Sans" font-weight="bold" font-size="72.0" fill="#000000" transform="matrix(1.00, 0.00, -0.00, -1.00, 555.1, 400.0)">D</text><text xml:space="preserve" font-family="GillSans-SemiBold,Gill Sans" font-weight="bold" font-size="72.0" fill="#000000" transform="matrix(1.00, 0.00, -0.00, -1.00, 610.8, 400.0)">E</text><text xml:space="preserve" font-family="GillSans-SemiBold,Gill Sans" font-weight="bold" font-size="72.0" fill="#000000" transform="matrix(1.00, 0.00, -0.00, -1.00, 651.9, 400.0)">D</text><text xml:space="preserve" font-family="GillSans-SemiBold,Gill Sans" font-weight="bold" font-size="72.0" fill="#000000" transform="matrix(1.00, 0.00, -0.00, -1.00, 707.5, 400.0)"> </text><text xml:space="preserve" font-family="GillSans-Light,Gill Sans" font-size="72.0" fill="#000000" transform="matrix(1.00, 0.00, -0.00, -1.00, 300.4, 317.2)">T</text><text xml:space="preserve" font-family="GillSans-Light,Gill Sans" font-size="72.0" fill="#000000" transform="matrix(1.00, 0.00, -0.00, -1.00, 341.7, 317.2)">H</text><text xml:space="preserve" font-family="GillSans-Light,Gill Sans" font-size="72.0" fill="#000000" transform="matrix(1.00, 0.00, -0.00, -1.00, 393.5, 317.2)">A</text><text xml:space="preserve" font-family="GillSans-Light,Gill Sans" font-size="72.0" fill="#000000" transform="matrix(1.00, 0.00, -0.00, -1.00, 441.5, 317.2)">N</text><text xml:space="preserve" font-family="GillSans-Light,Gill Sans" font-size="72.0" fill="#000000" transform="matrix(1.00, 0.00, -0.00, -1.00, 497.0, 317.2)">K</text><text xml:space="preserve" font-family="GillSans-Light,Gill Sans" font-size="72.0" fill="#000000" transform="matrix(1.00, 0.00, -0.00, -1.00, 535.2, 317.2)">S</text><text xml:space="preserve" font-family="GillSans-Light,Gill Sans" font-size="72.0" fill="#000000" transform="matrix(1.00, 0.00, -0.00, -1.00, 569.0, 317.2)"> </text><text xml:space="preserve" font-family="GillSans-Light,Gill Sans" font-size="72.0" fill="#000000" transform="matrix(1.00, 0.00, -0.00, -1.00, 578.2, 317.2)">Y</text><text xml:space="preserve" font-family="GillSans-Light,Gill Sans" font-size="72.0" fill="#000000" transform="matrix(1.00, 0.00, -0.00, -1.00, 614.1, 317.2)">O</text><text xml:space="preserve" font-family="GillSans-Light,Gill Sans" font-size="72.0" fill="#000000" transform="matrix(1.00, 0.00, -0.00, -1.00, 673.4, 317.2)">U</text></g></svg>