<?xml version="1.0" encoding="UTF-8" standalone="no"?><svg xmlns="http://www.w3.org/2000/svg" xmlns:xlink="http://www.w3.org/1999/xlink" clip-rule="evenodd" stroke-miterlimit="10" viewBox="0 0 1024 768"><desc>SVG generated by Keynote</desc><defs></defs><g transform="matrix(1.00, 0.00, -0.00, -1.00, 0.0, 768.0)"><g><clipPath id="clip0x6100006a4aa0"><path d="M 0.0 768.0 L 1024.0 768.0 L 1024.0 0.0 L 0.0 0.0 Z M 0.0 768.0 "></path></clipPath><g clip-path="url(#clip0x6100006a4aa0)"><image xlink:href="5799C545ADD4069693500D5D0E549B73.png" width="3552.00" height="2383.00" transform="matrix(0.32, 0.00, -0.00, -0.32, -60.4, 768.0)"></image></g></g><text xml:space="preserve" font-family="GillSans-Light,Gill Sans" font-size="72.0" fill="#525252" transform="matrix(1.00, 0.00, -0.00, -1.00, 227.7, 633.5)">F</text><text xml:space="preserve" font-family="GillSans-Light,Gill Sans" font-size="72.0" fill="#525252" transform="matrix(1.00, 0.00, -0.00, -1.00, 259.2, 633.5)">E</text><text xml:space="preserve" font-family="GillSans-Light,Gill Sans" font-size="72.0" fill="#525252" transform="matrix(1.00, 0.00, -0.00, -1.00, 294.6, 633.5)">E</text><text xml:space="preserve" font-family="GillSans-Light,Gill Sans" font-size="72.0" fill="#525252" transform="matrix(1.00, 0.00, -0.00, -1.00, 329.9, 633.5)">L</text><text xml:space="preserve" font-family="GillSans-Light,Gill Sans" font-size="72.0" fill="#525252" transform="matrix(1.00, 0.00, -0.00, -1.00, 363.7, 633.5)">I</text><text xml:space="preserve" font-family="GillSans-Light,Gill Sans" font-size="72.0" fill="#525252" transform="matrix(1.00, 0.00, -0.00, -1.00, 378.6, 633.5)">N</text><text xml:space="preserve" font-family="GillSans-Light,Gill Sans" font-size="72.0" fill="#525252" transform="matrix(1.00, 0.00, -0.00, -1.00, 434.2, 633.5)">G</text><text xml:space="preserve" font-family="GillSans-Light,Gill Sans" font-size="72.0" fill="#525252" transform="matrix(1.00, 0.00, -0.00, -1.00, 486.0, 633.5)"> </text><text xml:space="preserve" font-family="GillSans-Light,Gill Sans" font-size="72.0" fill="#525252" transform="matrix(1.00, 0.00, -0.00, -1.00, 505.9, 633.5)">L</text><text xml:space="preserve" font-family="GillSans-Light,Gill Sans" font-size="72.0" fill="#525252" transform="matrix(1.00, 0.00, -0.00, -1.00, 539.7, 633.5)">I</text><text xml:space="preserve" font-family="GillSans-Light,Gill Sans" font-size="72.0" fill="#525252" transform="matrix(1.00, 0.00, -0.00, -1.00, 554.7, 633.5)">G</text><text xml:space="preserve" font-family="GillSans-Light,Gill Sans" font-size="72.0" fill="#525252" transform="matrix(1.00, 0.00, -0.00, -1.00, 606.5, 633.5)">H</text><text xml:space="preserve" font-family="GillSans-Light,Gill Sans" font-size="72.0" fill="#525252" transform="matrix(1.00, 0.00, -0.00, -1.00, 658.3, 633.5)">T</text><text xml:space="preserve" font-family="GillSans-Light,Gill Sans" font-size="72.0" fill="#525252" transform="matrix(1.00, 0.00, -0.00, -1.00, 699.6, 633.5)">E</text><text xml:space="preserve" font-family="GillSans-Light,Gill Sans" font-size="72.0" fill="#525252" transform="matrix(1.00, 0.00, -0.00, -1.00, 734.9, 633.5)">R</text><text xml:space="preserve" font-family="GillSans-Light,Gill Sans" font-size="72.0" fill="#525252" transform="matrix(1.00, 0.00, -0.00, -1.00, 776.2, 633.5)">?</text><text xml:space="preserve" font-family="GillSans-Light,Gill Sans" font-size="17.1" fill="#525252" transform="matrix(1.00, 0.00, -0.00, -1.00, 474.7, 14.9)">h</text><text xml:space="preserve" font-family="GillSans-Light,Gill Sans" font-size="17.1" fill="#525252" transform="matrix(1.00, 0.00, -0.00, -1.00, 483.1, 14.9)">t</text><text xml:space="preserve" font-family="GillSans-Light,Gill Sans" font-size="17.1" fill="#525252" transform="matrix(1.00, 0.00, -0.00, -1.00, 488.3, 14.9)">t</text><text xml:space="preserve" font-family="GillSans-Light,Gill Sans" font-size="17.1" fill="#525252" transform="matrix(1.00, 0.00, -0.00, -1.00, 493.4, 14.9)">p</text><text xml:space="preserve" font-family="GillSans-Light,Gill Sans" font-size="17.1" fill="#525252" transform="matrix(1.00, 0.00, -0.00, -1.00, 502.1, 14.9)">s</text><text xml:space="preserve" font-family="GillSans-Light,Gill Sans" font-size="17.1" fill="#525252" transform="matrix(1.00, 0.00, -0.00, -1.00, 508.2, 14.9)">:</text><text xml:space="preserve" font-family="GillSans-Light,Gill Sans" font-size="17.1" fill="#525252" transform="matrix(1.00, 0.00, -0.00, -1.00, 511.2, 14.9)">/</text><text xml:space="preserve" font-family="GillSans-Light,Gill Sans" font-size="17.1" fill="#525252" transform="matrix(1.00, 0.00, -0.00, -1.00, 516.0, 14.9)">/</text><text xml:space="preserve" font-family="GillSans-Light,Gill Sans" font-size="17.1" fill="#525252" transform="matrix(1.00, 0.00, -0.00, -1.00, 520.8, 14.9)">w</text><text xml:space="preserve" font-family="GillSans-Light,Gill Sans" font-size="17.1" fill="#525252" transform="matrix(1.00, 0.00, -0.00, -1.00, 532.9, 14.9)">w</text><text xml:space="preserve" font-family="GillSans-Light,Gill Sans" font-size="17.1" fill="#525252" transform="matrix(1.00, 0.00, -0.00, -1.00, 545.0, 14.9)">w</text><text xml:space="preserve" font-family="GillSans-Light,Gill Sans" font-size="17.1" fill="#525252" transform="matrix(1.00, 0.00, -0.00, -1.00, 556.2, 14.9)">.</text><text xml:space="preserve" font-family="GillSans-Light,Gill Sans" font-size="17.1" fill="#525252" transform="matrix(1.00, 0.00, -0.00, -1.00, 559.2, 14.9)">ﬂ</text><text xml:space="preserve" font-family="GillSans-Light,Gill Sans" font-size="17.1" fill="#525252" transform="matrix(1.00, 0.00, -0.00, -1.00, 567.4, 14.9)">i</text><text xml:space="preserve" font-family="GillSans-Light,Gill Sans" font-size="17.1" fill="#525252" transform="matrix(1.00, 0.00, -0.00, -1.00, 570.6, 14.9)">c</text><text xml:space="preserve" font-family="GillSans-Light,Gill Sans" font-size="17.1" fill="#525252" transform="matrix(1.00, 0.00, -0.00, -1.00, 577.7, 14.9)">k</text><text xml:space="preserve" font-family="GillSans-Light,Gill Sans" font-size="17.1" fill="#525252" transform="matrix(1.00, 0.00, -0.00, -1.00, 585.0, 14.9)">r</text><text xml:space="preserve" font-family="GillSans-Light,Gill Sans" font-size="17.1" fill="#525252" transform="matrix(1.00, 0.00, -0.00, -1.00, 589.2, 14.9)">.</text><text xml:space="preserve" font-family="GillSans-Light,Gill Sans" font-size="17.1" fill="#525252" transform="matrix(1.00, 0.00, -0.00, -1.00, 592.2, 14.9)">c</text><text xml:space="preserve" font-family="GillSans-Light,Gill Sans" font-size="17.1" fill="#525252" transform="matrix(1.00, 0.00, -0.00, -1.00, 599.3, 14.9)">o</text><text xml:space="preserve" font-family="GillSans-Light,Gill Sans" font-size="17.1" fill="#525252" transform="matrix(1.00, 0.00, -0.00, -1.00, 608.6, 14.9)">m</text><text xml:space="preserve" font-family="GillSans-Light,Gill Sans" font-size="17.1" fill="#525252" transform="matrix(1.00, 0.00, -0.00, -1.00, 621.8, 14.9)">/</text><text xml:space="preserve" font-family="GillSans-Light,Gill Sans" font-size="17.1" fill="#525252" transform="matrix(1.00, 0.00, -0.00, -1.00, 626.6, 14.9)">p</text><text xml:space="preserve" font-family="GillSans-Light,Gill Sans" font-size="17.1" fill="#525252" transform="matrix(1.00, 0.00, -0.00, -1.00, 635.3, 14.9)">h</text><text xml:space="preserve" font-family="GillSans-Light,Gill Sans" font-size="17.1" fill="#525252" transform="matrix(1.00, 0.00, -0.00, -1.00, 643.7, 14.9)">o</text><text xml:space="preserve" font-family="GillSans-Light,Gill Sans" font-size="17.1" fill="#525252" transform="matrix(1.00, 0.00, -0.00, -1.00, 653.0, 14.9)">t</text><text xml:space="preserve" font-family="GillSans-Light,Gill Sans" font-size="17.1" fill="#525252" transform="matrix(1.00, 0.00, -0.00, -1.00, 658.1, 14.9)">o</text><text xml:space="preserve" font-family="GillSans-Light,Gill Sans" font-size="17.1" fill="#525252" transform="matrix(1.00, 0.00, -0.00, -1.00, 667.4, 14.9)">s</text><text xml:space="preserve" font-family="GillSans-Light,Gill Sans" font-size="17.1" fill="#525252" transform="matrix(1.00, 0.00, -0.00, -1.00, 673.4, 14.9)">/</text><text xml:space="preserve" font-family="GillSans-Light,Gill Sans" font-size="17.1" fill="#525252" transform="matrix(1.00, 0.00, -0.00, -1.00, 678.2, 14.9)">e</text><text xml:space="preserve" font-family="GillSans-Light,Gill Sans" font-size="17.1" fill="#525252" transform="matrix(1.00, 0.00, -0.00, -1.00, 686.4, 14.9)">d</text><text xml:space="preserve" font-family="GillSans-Light,Gill Sans" font-size="17.1" fill="#525252" transform="matrix(1.00, 0.00, -0.00, -1.00, 695.1, 14.9)">a</text><text xml:space="preserve" font-family="GillSans-Light,Gill Sans" font-size="17.1" fill="#525252" transform="matrix(1.00, 0.00, -0.00, -1.00, 702.4, 14.9)">n</text><text xml:space="preserve" font-family="GillSans-Light,Gill Sans" font-size="17.1" fill="#525252" transform="matrix(1.00, 0.00, -0.00, -1.00, 710.8, 14.9)">l</text><text xml:space="preserve" font-family="GillSans-Light,Gill Sans" font-size="17.1" fill="#525252" transform="matrix(1.00, 0.00, -0.00, -1.00, 714.0, 14.9)">e</text><text xml:space="preserve" font-family="GillSans-Light,Gill Sans" font-size="17.1" fill="#525252" transform="matrix(1.00, 0.00, -0.00, -1.00, 722.2, 14.9)">y</text><text xml:space="preserve" font-family="GillSans-Light,Gill Sans" font-size="17.1" fill="#525252" transform="matrix(1.00, 0.00, -0.00, -1.00, 729.4, 14.9)">/</text><text xml:space="preserve" font-family="GillSans-Light,Gill Sans" font-size="17.1" fill="#525252" transform="matrix(1.00, 0.00, -0.00, -1.00, 734.1, 14.9)">3</text><text xml:space="preserve" font-family="GillSans-Light,Gill Sans" font-size="17.1" fill="#525252" transform="matrix(1.00, 0.00, -0.00, -1.00, 742.7, 14.9)">2</text><text xml:space="preserve" font-family="GillSans-Light,Gill Sans" font-size="17.1" fill="#525252" transform="matrix(1.00, 0.00, -0.00, -1.00, 751.2, 14.9)">4</text><text xml:space="preserve" font-family="GillSans-Light,Gill Sans" font-size="17.1" fill="#525252" transform="matrix(1.00, 0.00, -0.00, -1.00, 759.8, 14.9)">6</text><text xml:space="preserve" font-family="GillSans-Light,Gill Sans" font-size="17.1" fill="#525252" transform="matrix(1.00, 0.00, -0.00, -1.00, 768.3, 14.9)">2</text><text xml:space="preserve" font-family="GillSans-Light,Gill Sans" font-size="17.1" fill="#525252" transform="matrix(1.00, 0.00, -0.00, -1.00, 776.9, 14.9)">4</text><text xml:space="preserve" font-family="GillSans-Light,Gill Sans" font-size="17.1" fill="#525252" transform="matrix(1.00, 0.00, -0.00, -1.00, 785.4, 14.9)">1</text><text xml:space="preserve" font-family="GillSans-Light,Gill Sans" font-size="17.1" fill="#525252" transform="matrix(1.00, 0.00, -0.00, -1.00, 794.0, 14.9)">4</text><text xml:space="preserve" font-family="GillSans-Light,Gill Sans" font-size="17.1" fill="#525252" transform="matrix(1.00, 0.00, -0.00, -1.00, 802.5, 14.9)">1</text><text xml:space="preserve" font-family="GillSans-Light,Gill Sans" font-size="17.1" fill="#525252" transform="matrix(1.00, 0.00, -0.00, -1.00, 811.1, 14.9)">6</text><text xml:space="preserve" font-family="GillSans-Light,Gill Sans" font-size="17.1" fill="#525252" transform="matrix(1.00, 0.00, -0.00, -1.00, 819.6, 14.9)">/</text><text xml:space="preserve" font-family="GillSans-Light,Gill Sans" font-size="17.1" fill="#525252" transform="matrix(1.00, 0.00, -0.00, -1.00, 824.4, 14.9)">i</text><text xml:space="preserve" font-family="GillSans-Light,Gill Sans" font-size="17.1" fill="#525252" transform="matrix(1.00, 0.00, -0.00, -1.00, 827.7, 14.9)">n</text><text xml:space="preserve" font-family="GillSans-Light,Gill Sans" font-size="17.1" fill="#525252" transform="matrix(1.00, 0.00, -0.00, -1.00, 836.0, 14.9)">/</text><text xml:space="preserve" font-family="GillSans-Light,Gill Sans" font-size="17.1" fill="#525252" transform="matrix(1.00, 0.00, -0.00, -1.00, 840.8, 14.9)">s</text><text xml:space="preserve" font-family="GillSans-Light,Gill Sans" font-size="17.1" fill="#525252" transform="matrix(1.00, 0.00, -0.00, -1.00, 846.9, 14.9)">e</text><text xml:space="preserve" font-family="GillSans-Light,Gill Sans" font-size="17.1" fill="#525252" transform="matrix(1.00, 0.00, -0.00, -1.00, 855.1, 14.9)">t</text><text xml:space="preserve" font-family="GillSans-Light,Gill Sans" font-size="17.1" fill="#525252" transform="matrix(1.00, 0.00, -0.00, -1.00, 860.2, 14.9)">-</text><text xml:space="preserve" font-family="GillSans-Light,Gill Sans" font-size="17.1" fill="#525252" transform="matrix(1.00, 0.00, -0.00, -1.00, 865.6, 14.9)">7</text><text xml:space="preserve" font-family="GillSans-Light,Gill Sans" font-size="17.1" fill="#525252" transform="matrix(1.00, 0.00, -0.00, -1.00, 874.1, 14.9)">2</text><text xml:space="preserve" font-family="GillSans-Light,Gill Sans" font-size="17.1" fill="#525252" transform="matrix(1.00, 0.00, -0.00, -1.00, 882.7, 14.9)">1</text><text xml:space="preserve" font-family="GillSans-Light,Gill Sans" font-size="17.1" fill="#525252" transform="matrix(1.00, 0.00, -0.00, -1.00, 891.2, 14.9)">5</text><text xml:space="preserve" font-family="GillSans-Light,Gill Sans" font-size="17.1" fill="#525252" transform="matrix(1.00, 0.00, -0.00, -1.00, 899.8, 14.9)">7</text><text xml:space="preserve" font-family="GillSans-Light,Gill Sans" font-size="17.1" fill="#525252" transform="matrix(1.00, 0.00, -0.00, -1.00, 908.3, 14.9)">6</text><text xml:space="preserve" font-family="GillSans-Light,Gill Sans" font-size="17.1" fill="#525252" transform="matrix(1.00, 0.00, -0.00, -1.00, 916.9, 14.9)">1</text><text xml:space="preserve" font-family="GillSans-Light,Gill Sans" font-size="17.1" fill="#525252" transform="matrix(1.00, 0.00, -0.00, -1.00, 925.4, 14.9)">3</text><text xml:space="preserve" font-family="GillSans-Light,Gill Sans" font-size="17.1" fill="#525252" transform="matrix(1.00, 0.00, -0.00, -1.00, 934.0, 14.9)">2</text><text xml:space="preserve" font-family="GillSans-Light,Gill Sans" font-size="17.1" fill="#525252" transform="matrix(1.00, 0.00, -0.00, -1.00, 942.5, 14.9)">5</text><text xml:space="preserve" font-family="GillSans-Light,Gill Sans" font-size="17.1" fill="#525252" transform="matrix(1.00, 0.00, -0.00, -1.00, 951.1, 14.9)">0</text><text xml:space="preserve" font-family="GillSans-Light,Gill Sans" font-size="17.1" fill="#525252" transform="matrix(1.00, 0.00, -0.00, -1.00, 959.6, 14.9)">5</text><text xml:space="preserve" font-family="GillSans-Light,Gill Sans" font-size="17.1" fill="#525252" transform="matrix(1.00, 0.00, -0.00, -1.00, 968.2, 14.9)">1</text><text xml:space="preserve" font-family="GillSans-Light,Gill Sans" font-size="17.1" fill="#525252" transform="matrix(1.00, 0.00, -0.00, -1.00, 976.7, 14.9)">5</text><text xml:space="preserve" font-family="GillSans-Light,Gill Sans" font-size="17.1" fill="#525252" transform="matrix(1.00, 0.00, -0.00, -1.00, 985.3, 14.9)">4</text><text xml:space="preserve" font-family="GillSans-Light,Gill Sans" font-size="17.1" fill="#525252" transform="matrix(1.00, 0.00, -0.00, -1.00, 993.8, 14.9)">7</text><text xml:space="preserve" font-family="GillSans-Light,Gill Sans" font-size="17.1" fill="#525252" transform="matrix(1.00, 0.00, -0.00, -1.00, 1002.4, 14.9)">8</text><g><clipPath id="clip0x6000008a91e0"><path d="M 473.7 12.2 L 1011.0 12.2 L 1011.0 15.0 L 473.7 15.0 Z M 473.7 12.2 "></path></clipPath><g clip-path="url(#clip0x6000008a91e0)"><path d="M 227.9 20.2 L 764.1 20.2 " fill="none" stroke="#525252" stroke-width="0.85" transform="matrix(1.00, 0.00, 0.00, -1.00, 246.9, 33.8)"></path></g></g></g></svg>