<?xml version="1.0" encoding="UTF-8" standalone="no"?><svg xmlns="http://www.w3.org/2000/svg" xmlns:xlink="http://www.w3.org/1999/xlink" clip-rule="evenodd" stroke-miterlimit="10" viewBox="0 0 1024 768"><desc>SVG generated by Keynote</desc><defs></defs><g transform="matrix(1.00, 0.00, -0.00, -1.00, 0.0, 768.0)"><g><clipPath id="clip0x600000aaf960"><path d="M 0.0 768.0 L 1024.0 768.0 L 1024.0 0.0 L 0.0 0.0 Z M 0.0 768.0 "></path></clipPath><g clip-path="url(#clip0x600000aaf960)"><image xlink:href="../../D8468060-C003-4ABF-A6BE-B4E537BF06BB/assets/574DCE55A4CF432400CBDDDE1DFDFC9B.jpeg" width="2048.00" height="1536.00" transform="matrix(0.50, 0.00, -0.00, -0.50, 0.0, 768.0)"></image></g></g><text xml:space="preserve" font-family="GillSans-Light,Gill Sans" font-size="72.0" fill="#525252" transform="matrix(1.00, 0.00, -0.00, -1.00, 269.6, 628.2)">C</text><text xml:space="preserve" font-family="GillSans-Light,Gill Sans" font-size="72.0" fill="#525252" transform="matrix(1.00, 0.00, -0.00, -1.00, 318.3, 628.2)">O</text><text xml:space="preserve" font-family="GillSans-Light,Gill Sans" font-size="72.0" fill="#525252" transform="matrix(1.00, 0.00, -0.00, -1.00, 377.6, 628.2)">M</text><text xml:space="preserve" font-family="GillSans-Light,Gill Sans" font-size="72.0" fill="#525252" transform="matrix(1.00, 0.00, -0.00, -1.00, 433.8, 628.2)">B</text><text xml:space="preserve" font-family="GillSans-Light,Gill Sans" font-size="72.0" fill="#525252" transform="matrix(1.00, 0.00, -0.00, -1.00, 472.0, 628.2)">I</text><text xml:space="preserve" font-family="GillSans-Light,Gill Sans" font-size="72.0" fill="#525252" transform="matrix(1.00, 0.00, -0.00, -1.00, 487.0, 628.2)">N</text><text xml:space="preserve" font-family="GillSans-Light,Gill Sans" font-size="72.0" fill="#525252" transform="matrix(1.00, 0.00, -0.00, -1.00, 542.5, 628.2)">A</text><text xml:space="preserve" font-family="GillSans-Light,Gill Sans" font-size="72.0" fill="#525252" transform="matrix(1.00, 0.00, -0.00, -1.00, 583.3, 628.2)">T</text><text xml:space="preserve" font-family="GillSans-Light,Gill Sans" font-size="72.0" fill="#525252" transform="matrix(1.00, 0.00, -0.00, -1.00, 624.6, 628.2)">I</text><text xml:space="preserve" font-family="GillSans-Light,Gill Sans" font-size="72.0" fill="#525252" transform="matrix(1.00, 0.00, -0.00, -1.00, 639.6, 628.2)">O</text><text xml:space="preserve" font-family="GillSans-Light,Gill Sans" font-size="72.0" fill="#525252" transform="matrix(1.00, 0.00, -0.00, -1.00, 698.9, 628.2)">N</text><text xml:space="preserve" font-family="AppleSymbols,Apple Symbols" font-size="46.0" fill="#525252" transform="matrix(1.00, 0.00, -0.00, -1.00, 158.0, 459.3)">v</text><text xml:space="preserve" font-family="AppleSymbols,Apple Symbols" font-size="46.0" fill="#525252" transform="matrix(1.00, 0.00, -0.00, -1.00, 176.4, 459.3)">a</text><text xml:space="preserve" font-family="AppleSymbols,Apple Symbols" font-size="46.0" fill="#525252" transform="matrix(1.00, 0.00, -0.00, -1.00, 194.5, 459.3)">r</text><text xml:space="preserve" font-family="AppleSymbols,Apple Symbols" font-size="46.0" fill="#525252" transform="matrix(1.00, 0.00, -0.00, -1.00, 207.1, 459.3)"> </text><text xml:space="preserve" font-family="AppleSymbols,Apple Symbols" font-size="46.0" fill="#525252" transform="matrix(1.00, 0.00, -0.00, -1.00, 222.4, 459.3)">p</text><text xml:space="preserve" font-family="AppleSymbols,Apple Symbols" font-size="46.0" fill="#525252" transform="matrix(1.00, 0.00, -0.00, -1.00, 242.1, 459.3)">r</text><text xml:space="preserve" font-family="AppleSymbols,Apple Symbols" font-size="46.0" fill="#525252" transform="matrix(1.00, 0.00, -0.00, -1.00, 254.7, 459.3)">o</text><text xml:space="preserve" font-family="AppleSymbols,Apple Symbols" font-size="46.0" fill="#525252" transform="matrix(1.00, 0.00, -0.00, -1.00, 274.5, 459.3)">m</text><text xml:space="preserve" font-family="AppleSymbols,Apple Symbols" font-size="46.0" fill="#525252" transform="matrix(1.00, 0.00, -0.00, -1.00, 303.7, 459.3)">i</text><text xml:space="preserve" font-family="AppleSymbols,Apple Symbols" font-size="46.0" fill="#525252" transform="matrix(1.00, 0.00, -0.00, -1.00, 311.4, 459.3)">s</text><text xml:space="preserve" font-family="AppleSymbols,Apple Symbols" font-size="46.0" fill="#525252" transform="matrix(1.00, 0.00, -0.00, -1.00, 328.0, 459.3)">e</text><text xml:space="preserve" font-family="AppleSymbols,Apple Symbols" font-size="46.0" fill="#525252" transform="matrix(1.00, 0.00, -0.00, -1.00, 346.8, 459.3)">s</text><text xml:space="preserve" font-family="AppleSymbols,Apple Symbols" font-size="46.0" fill="#525252" transform="matrix(1.00, 0.00, -0.00, -1.00, 363.5, 459.3)"> </text><text xml:space="preserve" font-family="AppleSymbols,Apple Symbols" font-size="46.0" fill="#525252" transform="matrix(1.00, 0.00, -0.00, -1.00, 378.8, 459.3)">=</text><text xml:space="preserve" font-family="AppleSymbols,Apple Symbols" font-size="46.0" fill="#525252" transform="matrix(1.00, 0.00, -0.00, -1.00, 400.6, 459.3)"> </text><text xml:space="preserve" font-family="AppleSymbols,Apple Symbols" font-size="46.0" fill="#525252" transform="matrix(1.00, 0.00, -0.00, -1.00, 415.9, 459.3)">f</text><text xml:space="preserve" font-family="AppleSymbols,Apple Symbols" font-size="46.0" fill="#525252" transform="matrix(1.00, 0.00, -0.00, -1.00, 428.6, 459.3)">i</text><text xml:space="preserve" font-family="AppleSymbols,Apple Symbols" font-size="46.0" fill="#525252" transform="matrix(1.00, 0.00, -0.00, -1.00, 436.3, 459.3)">l</text><text xml:space="preserve" font-family="AppleSymbols,Apple Symbols" font-size="46.0" fill="#525252" transform="matrix(1.00, 0.00, -0.00, -1.00, 444.0, 459.3)">e</text><text xml:space="preserve" font-family="AppleSymbols,Apple Symbols" font-size="46.0" fill="#525252" transform="matrix(1.00, 0.00, -0.00, -1.00, 462.7, 459.3)">s</text><text xml:space="preserve" font-family="AppleSymbols,Apple Symbols" font-size="46.0" fill="#525252" transform="matrix(1.00, 0.00, -0.00, -1.00, 479.4, 459.3)">.</text><text xml:space="preserve" font-family="AppleSymbols,Apple Symbols" font-size="46.0" fill="#525252" transform="matrix(1.00, 0.00, -0.00, -1.00, 489.3, 459.3)">m</text><text xml:space="preserve" font-family="AppleSymbols,Apple Symbols" font-size="46.0" fill="#525252" transform="matrix(1.00, 0.00, -0.00, -1.00, 518.5, 459.3)">a</text><text xml:space="preserve" font-family="AppleSymbols,Apple Symbols" font-size="46.0" fill="#525252" transform="matrix(1.00, 0.00, -0.00, -1.00, 536.5, 459.3)">p</text><text xml:space="preserve" font-family="AppleSymbols,Apple Symbols" font-size="46.0" fill="#525252" transform="matrix(1.00, 0.00, -0.00, -1.00, 556.2, 459.3)">(</text><text xml:space="preserve" font-family="AppleSymbols,Apple Symbols" font-size="46.0" fill="#525252" transform="matrix(1.00, 0.00, -0.00, -1.00, 570.8, 459.3)">f</text><text xml:space="preserve" font-family="AppleSymbols,Apple Symbols" font-size="46.0" fill="#525252" transform="matrix(1.00, 0.00, -0.00, -1.00, 583.5, 459.3)">u</text><text xml:space="preserve" font-family="AppleSymbols,Apple Symbols" font-size="46.0" fill="#525252" transform="matrix(1.00, 0.00, -0.00, -1.00, 602.6, 459.3)">n</text><text xml:space="preserve" font-family="AppleSymbols,Apple Symbols" font-size="46.0" fill="#525252" transform="matrix(1.00, 0.00, -0.00, -1.00, 621.6, 459.3)">c</text><text xml:space="preserve" font-family="AppleSymbols,Apple Symbols" font-size="46.0" fill="#525252" transform="matrix(1.00, 0.00, -0.00, -1.00, 639.5, 459.3)">t</text><text xml:space="preserve" font-family="AppleSymbols,Apple Symbols" font-size="46.0" fill="#525252" transform="matrix(1.00, 0.00, -0.00, -1.00, 654.0, 459.3)">i</text><text xml:space="preserve" font-family="AppleSymbols,Apple Symbols" font-size="46.0" fill="#525252" transform="matrix(1.00, 0.00, -0.00, -1.00, 661.6, 459.3)">o</text><text xml:space="preserve" font-family="AppleSymbols,Apple Symbols" font-size="46.0" fill="#525252" transform="matrix(1.00, 0.00, -0.00, -1.00, 681.4, 459.3)">n</text><text xml:space="preserve" font-family="AppleSymbols,Apple Symbols" font-size="46.0" fill="#525252" transform="matrix(1.00, 0.00, -0.00, -1.00, 700.5, 459.3)"> </text><text xml:space="preserve" font-family="AppleSymbols,Apple Symbols" font-size="46.0" fill="#525252" transform="matrix(1.00, 0.00, -0.00, -1.00, 715.8, 459.3)">(</text><text xml:space="preserve" font-family="AppleSymbols,Apple Symbols" font-size="46.0" fill="#525252" transform="matrix(1.00, 0.00, -0.00, -1.00, 730.4, 459.3)">f</text><text xml:space="preserve" font-family="AppleSymbols,Apple Symbols" font-size="46.0" fill="#525252" transform="matrix(1.00, 0.00, -0.00, -1.00, 743.1, 459.3)">i</text><text xml:space="preserve" font-family="AppleSymbols,Apple Symbols" font-size="46.0" fill="#525252" transform="matrix(1.00, 0.00, -0.00, -1.00, 750.8, 459.3)">l</text><text xml:space="preserve" font-family="AppleSymbols,Apple Symbols" font-size="46.0" fill="#525252" transform="matrix(1.00, 0.00, -0.00, -1.00, 758.5, 459.3)">e</text><text xml:space="preserve" font-family="AppleSymbols,Apple Symbols" font-size="46.0" fill="#525252" transform="matrix(1.00, 0.00, -0.00, -1.00, 777.3, 459.3)">)</text><text xml:space="preserve" font-family="AppleSymbols,Apple Symbols" font-size="46.0" fill="#525252" transform="matrix(1.00, 0.00, -0.00, -1.00, 791.9, 459.3)"> </text><text xml:space="preserve" font-family="AppleSymbols,Apple Symbols" font-size="46.0" fill="#525252" transform="matrix(1.00, 0.00, -0.00, -1.00, 807.2, 459.3)">{</text><text xml:space="preserve" font-family="AppleSymbols,Apple Symbols" font-size="46.0" fill="#525252" transform="matrix(1.00, 0.00, -0.00, -1.00, 821.9, 459.3)"> </text><text xml:space="preserve" font-family="AppleSymbols,Apple Symbols" font-size="46.0" fill="#525252" transform="matrix(1.00, 0.00, -0.00, -1.00, 158.0, 412.3)"> </text><text xml:space="preserve" font-family="AppleSymbols,Apple Symbols" font-size="46.0" fill="#525252" transform="matrix(1.00, 0.00, -0.00, -1.00, 173.3, 412.3)"> </text><text xml:space="preserve" font-family="AppleSymbols,Apple Symbols" font-size="46.0" fill="#525252" transform="matrix(1.00, 0.00, -0.00, -1.00, 188.6, 412.3)">r</text><text xml:space="preserve" font-family="AppleSymbols,Apple Symbols" font-size="46.0" fill="#525252" transform="matrix(1.00, 0.00, -0.00, -1.00, 201.3, 412.3)">e</text><text xml:space="preserve" font-family="AppleSymbols,Apple Symbols" font-size="46.0" fill="#525252" transform="matrix(1.00, 0.00, -0.00, -1.00, 220.1, 412.3)">t</text><text xml:space="preserve" font-family="AppleSymbols,Apple Symbols" font-size="46.0" fill="#525252" transform="matrix(1.00, 0.00, -0.00, -1.00, 234.5, 412.3)">u</text><text xml:space="preserve" font-family="AppleSymbols,Apple Symbols" font-size="46.0" fill="#525252" transform="matrix(1.00, 0.00, -0.00, -1.00, 253.6, 412.3)">r</text><text xml:space="preserve" font-family="AppleSymbols,Apple Symbols" font-size="46.0" fill="#525252" transform="matrix(1.00, 0.00, -0.00, -1.00, 266.2, 412.3)">n</text><text xml:space="preserve" font-family="AppleSymbols,Apple Symbols" font-size="46.0" fill="#525252" transform="matrix(1.00, 0.00, -0.00, -1.00, 285.3, 412.3)"> </text><text xml:space="preserve" font-family="AppleSymbols,Apple Symbols" font-size="46.0" fill="#525252" transform="matrix(1.00, 0.00, -0.00, -1.00, 300.6, 412.3)">s</text><text xml:space="preserve" font-family="AppleSymbols,Apple Symbols" font-size="46.0" fill="#525252" transform="matrix(1.00, 0.00, -0.00, -1.00, 317.2, 412.3)">t</text><text xml:space="preserve" font-family="AppleSymbols,Apple Symbols" font-size="46.0" fill="#525252" transform="matrix(1.00, 0.00, -0.00, -1.00, 331.7, 412.3)">a</text><text xml:space="preserve" font-family="AppleSymbols,Apple Symbols" font-size="46.0" fill="#525252" transform="matrix(1.00, 0.00, -0.00, -1.00, 349.8, 412.3)">t</text><text xml:space="preserve" font-family="AppleSymbols,Apple Symbols" font-size="46.0" fill="#525252" transform="matrix(1.00, 0.00, -0.00, -1.00, 364.2, 412.3)">F</text><text xml:space="preserve" font-family="AppleSymbols,Apple Symbols" font-size="46.0" fill="#525252" transform="matrix(1.00, 0.00, -0.00, -1.00, 382.3, 412.3)">i</text><text xml:space="preserve" font-family="AppleSymbols,Apple Symbols" font-size="46.0" fill="#525252" transform="matrix(1.00, 0.00, -0.00, -1.00, 390.0, 412.3)">l</text><text xml:space="preserve" font-family="AppleSymbols,Apple Symbols" font-size="46.0" fill="#525252" transform="matrix(1.00, 0.00, -0.00, -1.00, 397.7, 412.3)">e</text><text xml:space="preserve" font-family="AppleSymbols,Apple Symbols" font-size="46.0" fill="#525252" transform="matrix(1.00, 0.00, -0.00, -1.00, 416.4, 412.3)">(</text><text xml:space="preserve" font-family="AppleSymbols,Apple Symbols" font-size="46.0" fill="#525252" transform="matrix(1.00, 0.00, -0.00, -1.00, 431.1, 412.3)">f</text><text xml:space="preserve" font-family="AppleSymbols,Apple Symbols" font-size="46.0" fill="#525252" transform="matrix(1.00, 0.00, -0.00, -1.00, 443.8, 412.3)">i</text><text xml:space="preserve" font-family="AppleSymbols,Apple Symbols" font-size="46.0" fill="#525252" transform="matrix(1.00, 0.00, -0.00, -1.00, 451.5, 412.3)">l</text><text xml:space="preserve" font-family="AppleSymbols,Apple Symbols" font-size="46.0" fill="#525252" transform="matrix(1.00, 0.00, -0.00, -1.00, 459.2, 412.3)">e</text><text xml:space="preserve" font-family="AppleSymbols,Apple Symbols" font-size="46.0" fill="#525252" transform="matrix(1.00, 0.00, -0.00, -1.00, 477.9, 412.3)">)</text><text xml:space="preserve" font-family="AppleSymbols,Apple Symbols" font-size="46.0" fill="#525252" transform="matrix(1.00, 0.00, -0.00, -1.00, 492.6, 412.3)"> </text><text xml:space="preserve" font-family="AppleSymbols,Apple Symbols" font-size="46.0" fill="#525252" transform="matrix(1.00, 0.00, -0.00, -1.00, 158.0, 365.3)">}</text><text xml:space="preserve" font-family="AppleSymbols,Apple Symbols" font-size="46.0" fill="#525252" transform="matrix(1.00, 0.00, -0.00, -1.00, 172.7, 365.3)">)</text><text xml:space="preserve" font-family="AppleSymbols,Apple Symbols" font-size="46.0" fill="#525252" transform="matrix(1.00, 0.00, -0.00, -1.00, 187.3, 365.3)"> </text><text xml:space="preserve" font-family="AppleSymbols,Apple Symbols" font-size="46.0" fill="#525252" transform="matrix(1.00, 0.00, -0.00, -1.00, 158.0, 271.3)">P</text><text xml:space="preserve" font-family="AppleSymbols,Apple Symbols" font-size="46.0" fill="#525252" transform="matrix(1.00, 0.00, -0.00, -1.00, 177.1, 271.3)">r</text><text xml:space="preserve" font-family="AppleSymbols,Apple Symbols" font-size="46.0" fill="#525252" transform="matrix(1.00, 0.00, -0.00, -1.00, 189.7, 271.3)">o</text><text xml:space="preserve" font-family="AppleSymbols,Apple Symbols" font-size="46.0" fill="#525252" transform="matrix(1.00, 0.00, -0.00, -1.00, 209.5, 271.3)">m</text><text xml:space="preserve" font-family="AppleSymbols,Apple Symbols" font-size="46.0" fill="#525252" transform="matrix(1.00, 0.00, -0.00, -1.00, 238.7, 271.3)">i</text><text xml:space="preserve" font-family="AppleSymbols,Apple Symbols" font-size="46.0" fill="#525252" transform="matrix(1.00, 0.00, -0.00, -1.00, 246.4, 271.3)">s</text><text xml:space="preserve" font-family="AppleSymbols,Apple Symbols" font-size="46.0" fill="#525252" transform="matrix(1.00, 0.00, -0.00, -1.00, 263.0, 271.3)">e</text><text xml:space="preserve" font-family="AppleSymbols,Apple Symbols" font-size="46.0" fill="#525252" transform="matrix(1.00, 0.00, -0.00, -1.00, 281.8, 271.3)">.</text><text xml:space="preserve" font-family="AppleSymbols,Apple Symbols" font-size="46.0" fill="#525252" transform="matrix(1.00, 0.00, -0.00, -1.00, 291.7, 271.3)">a</text><text xml:space="preserve" font-family="AppleSymbols,Apple Symbols" font-size="46.0" fill="#525252" transform="matrix(1.00, 0.00, -0.00, -1.00, 309.7, 271.3)">l</text><text xml:space="preserve" font-family="AppleSymbols,Apple Symbols" font-size="46.0" fill="#525252" transform="matrix(1.00, 0.00, -0.00, -1.00, 317.4, 271.3)">l</text><text xml:space="preserve" font-family="AppleSymbols,Apple Symbols" font-size="46.0" fill="#525252" transform="matrix(1.00, 0.00, -0.00, -1.00, 325.1, 271.3)">(</text><text xml:space="preserve" font-family="AppleSymbols,Apple Symbols" font-size="46.0" fill="#525252" transform="matrix(1.00, 0.00, -0.00, -1.00, 339.7, 271.3)">p</text><text xml:space="preserve" font-family="AppleSymbols,Apple Symbols" font-size="46.0" fill="#525252" transform="matrix(1.00, 0.00, -0.00, -1.00, 359.4, 271.3)">r</text><text xml:space="preserve" font-family="AppleSymbols,Apple Symbols" font-size="46.0" fill="#525252" transform="matrix(1.00, 0.00, -0.00, -1.00, 372.0, 271.3)">o</text><text xml:space="preserve" font-family="AppleSymbols,Apple Symbols" font-size="46.0" fill="#525252" transform="matrix(1.00, 0.00, -0.00, -1.00, 391.8, 271.3)">m</text><text xml:space="preserve" font-family="AppleSymbols,Apple Symbols" font-size="46.0" fill="#525252" transform="matrix(1.00, 0.00, -0.00, -1.00, 421.0, 271.3)">i</text><text xml:space="preserve" font-family="AppleSymbols,Apple Symbols" font-size="46.0" fill="#525252" transform="matrix(1.00, 0.00, -0.00, -1.00, 428.7, 271.3)">s</text><text xml:space="preserve" font-family="AppleSymbols,Apple Symbols" font-size="46.0" fill="#525252" transform="matrix(1.00, 0.00, -0.00, -1.00, 445.3, 271.3)">e</text><text xml:space="preserve" font-family="AppleSymbols,Apple Symbols" font-size="46.0" fill="#525252" transform="matrix(1.00, 0.00, -0.00, -1.00, 464.1, 271.3)">s</text><text xml:space="preserve" font-family="AppleSymbols,Apple Symbols" font-size="46.0" fill="#525252" transform="matrix(1.00, 0.00, -0.00, -1.00, 480.8, 271.3)">)</text><text xml:space="preserve" font-family="AppleSymbols,Apple Symbols" font-size="46.0" fill="#525252" transform="matrix(1.00, 0.00, -0.00, -1.00, 495.4, 271.3)"> </text><text xml:space="preserve" font-family="AppleSymbols,Apple Symbols" font-size="46.0" fill="#525252" transform="matrix(1.00, 0.00, -0.00, -1.00, 158.0, 224.3)"> </text><text xml:space="preserve" font-family="AppleSymbols,Apple Symbols" font-size="46.0" fill="#525252" transform="matrix(1.00, 0.00, -0.00, -1.00, 173.3, 224.3)"> </text><text xml:space="preserve" font-family="AppleSymbols,Apple Symbols" font-size="46.0" fill="#525252" transform="matrix(1.00, 0.00, -0.00, -1.00, 188.6, 224.3)">.</text><text xml:space="preserve" font-family="AppleSymbols,Apple Symbols" font-size="46.0" fill="#525252" transform="matrix(1.00, 0.00, -0.00, -1.00, 198.6, 224.3)">t</text><text xml:space="preserve" font-family="AppleSymbols,Apple Symbols" font-size="46.0" fill="#525252" transform="matrix(1.00, 0.00, -0.00, -1.00, 213.0, 224.3)">h</text><text xml:space="preserve" font-family="AppleSymbols,Apple Symbols" font-size="46.0" fill="#525252" transform="matrix(1.00, 0.00, -0.00, -1.00, 232.1, 224.3)">e</text><text xml:space="preserve" font-family="AppleSymbols,Apple Symbols" font-size="46.0" fill="#525252" transform="matrix(1.00, 0.00, -0.00, -1.00, 250.9, 224.3)">n</text><text xml:space="preserve" font-family="AppleSymbols,Apple Symbols" font-size="46.0" fill="#525252" transform="matrix(1.00, 0.00, -0.00, -1.00, 269.9, 224.3)">(</text><text xml:space="preserve" font-family="AppleSymbols,Apple Symbols" font-size="46.0" fill="#525252" transform="matrix(1.00, 0.00, -0.00, -1.00, 284.5, 224.3)">f</text><text xml:space="preserve" font-family="AppleSymbols,Apple Symbols" font-size="46.0" fill="#525252" transform="matrix(1.00, 0.00, -0.00, -1.00, 297.3, 224.3)">u</text><text xml:space="preserve" font-family="AppleSymbols,Apple Symbols" font-size="46.0" fill="#525252" transform="matrix(1.00, 0.00, -0.00, -1.00, 316.3, 224.3)">n</text><text xml:space="preserve" font-family="AppleSymbols,Apple Symbols" font-size="46.0" fill="#525252" transform="matrix(1.00, 0.00, -0.00, -1.00, 335.4, 224.3)">c</text><text xml:space="preserve" font-family="AppleSymbols,Apple Symbols" font-size="46.0" fill="#525252" transform="matrix(1.00, 0.00, -0.00, -1.00, 353.2, 224.3)">t</text><text xml:space="preserve" font-family="AppleSymbols,Apple Symbols" font-size="46.0" fill="#525252" transform="matrix(1.00, 0.00, -0.00, -1.00, 367.7, 224.3)">i</text><text xml:space="preserve" font-family="AppleSymbols,Apple Symbols" font-size="46.0" fill="#525252" transform="matrix(1.00, 0.00, -0.00, -1.00, 375.4, 224.3)">o</text><text xml:space="preserve" font-family="AppleSymbols,Apple Symbols" font-size="46.0" fill="#525252" transform="matrix(1.00, 0.00, -0.00, -1.00, 395.2, 224.3)">n</text><text xml:space="preserve" font-family="AppleSymbols,Apple Symbols" font-size="46.0" fill="#525252" transform="matrix(1.00, 0.00, -0.00, -1.00, 414.2, 224.3)"> </text><text xml:space="preserve" font-family="AppleSymbols,Apple Symbols" font-size="46.0" fill="#525252" transform="matrix(1.00, 0.00, -0.00, -1.00, 429.5, 224.3)">(</text><text xml:space="preserve" font-family="AppleSymbols,Apple Symbols" font-size="46.0" fill="#525252" transform="matrix(1.00, 0.00, -0.00, -1.00, 444.1, 224.3)">s</text><text xml:space="preserve" font-family="AppleSymbols,Apple Symbols" font-size="46.0" fill="#525252" transform="matrix(1.00, 0.00, -0.00, -1.00, 460.8, 224.3)">t</text><text xml:space="preserve" font-family="AppleSymbols,Apple Symbols" font-size="46.0" fill="#525252" transform="matrix(1.00, 0.00, -0.00, -1.00, 475.3, 224.3)">a</text><text xml:space="preserve" font-family="AppleSymbols,Apple Symbols" font-size="46.0" fill="#525252" transform="matrix(1.00, 0.00, -0.00, -1.00, 493.3, 224.3)">t</text><text xml:space="preserve" font-family="AppleSymbols,Apple Symbols" font-size="46.0" fill="#525252" transform="matrix(1.00, 0.00, -0.00, -1.00, 507.8, 224.3)">s</text><text xml:space="preserve" font-family="AppleSymbols,Apple Symbols" font-size="46.0" fill="#525252" transform="matrix(1.00, 0.00, -0.00, -1.00, 524.4, 224.3)">)</text><text xml:space="preserve" font-family="AppleSymbols,Apple Symbols" font-size="46.0" fill="#525252" transform="matrix(1.00, 0.00, -0.00, -1.00, 539.0, 224.3)"> </text><text xml:space="preserve" font-family="AppleSymbols,Apple Symbols" font-size="46.0" fill="#525252" transform="matrix(1.00, 0.00, -0.00, -1.00, 554.4, 224.3)">{</text><text xml:space="preserve" font-family="AppleSymbols,Apple Symbols" font-size="46.0" fill="#525252" transform="matrix(1.00, 0.00, -0.00, -1.00, 569.1, 224.3)"> </text><text xml:space="preserve" font-family="AppleSymbols,Apple Symbols" font-size="46.0" fill="#525252" transform="matrix(1.00, 0.00, -0.00, -1.00, 158.0, 177.3)"> </text><text xml:space="preserve" font-family="AppleSymbols,Apple Symbols" font-size="46.0" fill="#525252" transform="matrix(1.00, 0.00, -0.00, -1.00, 173.3, 177.3)"> </text><text xml:space="preserve" font-family="AppleSymbols,Apple Symbols" font-size="46.0" fill="#525252" transform="matrix(1.00, 0.00, -0.00, -1.00, 188.6, 177.3)"> </text><text xml:space="preserve" font-family="AppleSymbols,Apple Symbols" font-size="46.0" fill="#525252" transform="matrix(1.00, 0.00, -0.00, -1.00, 204.0, 177.3)"> </text><text xml:space="preserve" font-family="AppleSymbols,Apple Symbols" font-size="46.0" fill="#525252" transform="matrix(1.00, 0.00, -0.00, -1.00, 219.3, 177.3)">/</text><text xml:space="preserve" font-family="AppleSymbols,Apple Symbols" font-size="46.0" fill="#525252" transform="matrix(1.00, 0.00, -0.00, -1.00, 236.8, 177.3)">/</text><text xml:space="preserve" font-family="AppleSymbols,Apple Symbols" font-size="46.0" fill="#525252" transform="matrix(1.00, 0.00, -0.00, -1.00, 254.4, 177.3)"> </text><text xml:space="preserve" font-family="AppleSymbols,Apple Symbols" font-size="46.0" fill="#525252" transform="matrix(1.00, 0.00, -0.00, -1.00, 269.7, 177.3)">s</text><text xml:space="preserve" font-family="AppleSymbols,Apple Symbols" font-size="46.0" fill="#525252" transform="matrix(1.00, 0.00, -0.00, -1.00, 286.3, 177.3)">t</text><text xml:space="preserve" font-family="AppleSymbols,Apple Symbols" font-size="46.0" fill="#525252" transform="matrix(1.00, 0.00, -0.00, -1.00, 300.8, 177.3)">a</text><text xml:space="preserve" font-family="AppleSymbols,Apple Symbols" font-size="46.0" fill="#525252" transform="matrix(1.00, 0.00, -0.00, -1.00, 318.9, 177.3)">t</text><text xml:space="preserve" font-family="AppleSymbols,Apple Symbols" font-size="46.0" fill="#525252" transform="matrix(1.00, 0.00, -0.00, -1.00, 333.3, 177.3)">s</text><text xml:space="preserve" font-family="AppleSymbols,Apple Symbols" font-size="46.0" fill="#525252" transform="matrix(1.00, 0.00, -0.00, -1.00, 350.0, 177.3)"> </text><text xml:space="preserve" font-family="AppleSymbols,Apple Symbols" font-size="46.0" fill="#525252" transform="matrix(1.00, 0.00, -0.00, -1.00, 365.3, 177.3)">o</text><text xml:space="preserve" font-family="AppleSymbols,Apple Symbols" font-size="46.0" fill="#525252" transform="matrix(1.00, 0.00, -0.00, -1.00, 385.1, 177.3)">r</text><text xml:space="preserve" font-family="AppleSymbols,Apple Symbols" font-size="46.0" fill="#525252" transform="matrix(1.00, 0.00, -0.00, -1.00, 397.7, 177.3)">d</text><text xml:space="preserve" font-family="AppleSymbols,Apple Symbols" font-size="46.0" fill="#525252" transform="matrix(1.00, 0.00, -0.00, -1.00, 417.4, 177.3)">e</text><text xml:space="preserve" font-family="AppleSymbols,Apple Symbols" font-size="46.0" fill="#525252" transform="matrix(1.00, 0.00, -0.00, -1.00, 436.2, 177.3)">r</text><text xml:space="preserve" font-family="AppleSymbols,Apple Symbols" font-size="46.0" fill="#525252" transform="matrix(1.00, 0.00, -0.00, -1.00, 448.8, 177.3)"> </text><text xml:space="preserve" font-family="AppleSymbols,Apple Symbols" font-size="46.0" fill="#525252" transform="matrix(1.00, 0.00, -0.00, -1.00, 464.1, 177.3)">i</text><text xml:space="preserve" font-family="AppleSymbols,Apple Symbols" font-size="46.0" fill="#525252" transform="matrix(1.00, 0.00, -0.00, -1.00, 471.8, 177.3)">s</text><text xml:space="preserve" font-family="AppleSymbols,Apple Symbols" font-size="46.0" fill="#525252" transform="matrix(1.00, 0.00, -0.00, -1.00, 488.5, 177.3)"> </text><text xml:space="preserve" font-family="AppleSymbols,Apple Symbols" font-size="46.0" fill="#525252" transform="matrix(1.00, 0.00, -0.00, -1.00, 503.8, 177.3)">p</text><text xml:space="preserve" font-family="AppleSymbols,Apple Symbols" font-size="46.0" fill="#525252" transform="matrix(1.00, 0.00, -0.00, -1.00, 523.4, 177.3)">r</text><text xml:space="preserve" font-family="AppleSymbols,Apple Symbols" font-size="46.0" fill="#525252" transform="matrix(1.00, 0.00, -0.00, -1.00, 536.1, 177.3)">e</text><text xml:space="preserve" font-family="AppleSymbols,Apple Symbols" font-size="46.0" fill="#525252" transform="matrix(1.00, 0.00, -0.00, -1.00, 554.9, 177.3)">s</text><text xml:space="preserve" font-family="AppleSymbols,Apple Symbols" font-size="46.0" fill="#525252" transform="matrix(1.00, 0.00, -0.00, -1.00, 571.5, 177.3)">e</text><text xml:space="preserve" font-family="AppleSymbols,Apple Symbols" font-size="46.0" fill="#525252" transform="matrix(1.00, 0.00, -0.00, -1.00, 590.3, 177.3)">r</text><text xml:space="preserve" font-family="AppleSymbols,Apple Symbols" font-size="46.0" fill="#525252" transform="matrix(1.00, 0.00, -0.00, -1.00, 602.9, 177.3)">v</text><text xml:space="preserve" font-family="AppleSymbols,Apple Symbols" font-size="46.0" fill="#525252" transform="matrix(1.00, 0.00, -0.00, -1.00, 621.4, 177.3)">e</text><text xml:space="preserve" font-family="AppleSymbols,Apple Symbols" font-size="46.0" fill="#525252" transform="matrix(1.00, 0.00, -0.00, -1.00, 640.2, 177.3)">d</text><text xml:space="preserve" font-family="AppleSymbols,Apple Symbols" font-size="46.0" fill="#525252" transform="matrix(1.00, 0.00, -0.00, -1.00, 659.8, 177.3)"> </text><text xml:space="preserve" font-family="AppleSymbols,Apple Symbols" font-size="46.0" fill="#525252" transform="matrix(1.00, 0.00, -0.00, -1.00, 158.0, 130.3)"> </text><text xml:space="preserve" font-family="AppleSymbols,Apple Symbols" font-size="46.0" fill="#525252" transform="matrix(1.00, 0.00, -0.00, -1.00, 173.3, 130.3)"> </text><text xml:space="preserve" font-family="AppleSymbols,Apple Symbols" font-size="46.0" fill="#525252" transform="matrix(1.00, 0.00, -0.00, -1.00, 188.6, 130.3)">}</text><text xml:space="preserve" font-family="AppleSymbols,Apple Symbols" font-size="46.0" fill="#525252" transform="matrix(1.00, 0.00, -0.00, -1.00, 203.3, 130.3)">)</text></g></svg>