<?xml version="1.0" encoding="UTF-8" standalone="no"?><svg xmlns="http://www.w3.org/2000/svg" xmlns:xlink="http://www.w3.org/1999/xlink" clip-rule="evenodd" stroke-miterlimit="10" viewBox="0 0 1024 768"><desc>SVG generated by Keynote</desc><defs></defs><g transform="matrix(1.00, 0.00, -0.00, -1.00, 0.0, 768.0)"><g><clipPath id="clip0x6180006ab8e0"><path d="M 0.0 768.0 L 1024.0 768.0 L 1024.0 0.0 L 0.0 0.0 Z M 0.0 768.0 "></path></clipPath><g clip-path="url(#clip0x6180006ab8e0)"><image xlink:href="../../D8468060-C003-4ABF-A6BE-B4E537BF06BB/assets/574DCE55A4CF432400CBDDDE1DFDFC9B.jpeg" width="2048.00" height="1536.00" transform="matrix(0.50, 0.00, -0.00, -0.50, 0.0, 768.0)"></image></g></g><text xml:space="preserve" font-family="GillSans-Light,Gill Sans" font-size="72.0" fill="#525252" transform="matrix(1.00, 0.00, -0.00, -1.00, 159.3, 628.2)">A</text><text xml:space="preserve" font-family="GillSans-Light,Gill Sans" font-size="72.0" fill="#525252" transform="matrix(1.00, 0.00, -0.00, -1.00, 207.3, 628.2)">S</text><text xml:space="preserve" font-family="GillSans-Light,Gill Sans" font-size="72.0" fill="#525252" transform="matrix(1.00, 0.00, -0.00, -1.00, 241.1, 628.2)">Y</text><text xml:space="preserve" font-family="GillSans-Light,Gill Sans" font-size="72.0" fill="#525252" transform="matrix(1.00, 0.00, -0.00, -1.00, 283.1, 628.2)">N</text><text xml:space="preserve" font-family="GillSans-Light,Gill Sans" font-size="72.0" fill="#525252" transform="matrix(1.00, 0.00, -0.00, -1.00, 338.6, 628.2)">C</text><text xml:space="preserve" font-family="GillSans-Light,Gill Sans" font-size="72.0" fill="#525252" transform="matrix(1.00, 0.00, -0.00, -1.00, 387.3, 628.2)"> </text><text xml:space="preserve" font-family="GillSans-Light,Gill Sans" font-size="72.0" fill="#525252" transform="matrix(1.00, 0.00, -0.00, -1.00, 407.3, 628.2)">C</text><text xml:space="preserve" font-family="GillSans-Light,Gill Sans" font-size="72.0" fill="#525252" transform="matrix(1.00, 0.00, -0.00, -1.00, 456.0, 628.2)">H</text><text xml:space="preserve" font-family="GillSans-Light,Gill Sans" font-size="72.0" fill="#525252" transform="matrix(1.00, 0.00, -0.00, -1.00, 507.8, 628.2)">A</text><text xml:space="preserve" font-family="GillSans-Light,Gill Sans" font-size="72.0" fill="#525252" transform="matrix(1.00, 0.00, -0.00, -1.00, 555.8, 628.2)">I</text><text xml:space="preserve" font-family="GillSans-Light,Gill Sans" font-size="72.0" fill="#525252" transform="matrix(1.00, 0.00, -0.00, -1.00, 570.8, 628.2)">N</text><text xml:space="preserve" font-family="GillSans-Light,Gill Sans" font-size="72.0" fill="#525252" transform="matrix(1.00, 0.00, -0.00, -1.00, 626.3, 628.2)">E</text><text xml:space="preserve" font-family="GillSans-Light,Gill Sans" font-size="72.0" fill="#525252" transform="matrix(1.00, 0.00, -0.00, -1.00, 661.6, 628.2)">D</text><text xml:space="preserve" font-family="GillSans-Light,Gill Sans" font-size="72.0" fill="#525252" transform="matrix(1.00, 0.00, -0.00, -1.00, 715.0, 628.2)"> </text><text xml:space="preserve" font-family="GillSans-Light,Gill Sans" font-size="72.0" fill="#525252" transform="matrix(1.00, 0.00, -0.00, -1.00, 734.9, 628.2)">O</text><text xml:space="preserve" font-family="GillSans-Light,Gill Sans" font-size="72.0" fill="#525252" transform="matrix(1.00, 0.00, -0.00, -1.00, 794.2, 628.2)">P</text><text xml:space="preserve" font-family="GillSans-Light,Gill Sans" font-size="72.0" fill="#525252" transform="matrix(1.00, 0.00, -0.00, -1.00, 830.9, 628.2)">S</text><text xml:space="preserve" font-family="AppleSymbols,Apple Symbols" font-size="46.0" fill="#525252" transform="matrix(1.00, 0.00, -0.00, -1.00, 158.0, 389.3)">d</text><text xml:space="preserve" font-family="AppleSymbols,Apple Symbols" font-size="46.0" fill="#525252" transform="matrix(1.00, 0.00, -0.00, -1.00, 177.7, 389.3)">o</text><text xml:space="preserve" font-family="AppleSymbols,Apple Symbols" font-size="46.0" fill="#525252" transform="matrix(1.00, 0.00, -0.00, -1.00, 197.5, 389.3)">T</text><text xml:space="preserve" font-family="AppleSymbols,Apple Symbols" font-size="46.0" fill="#525252" transform="matrix(1.00, 0.00, -0.00, -1.00, 218.4, 389.3)">h</text><text xml:space="preserve" font-family="AppleSymbols,Apple Symbols" font-size="46.0" fill="#525252" transform="matrix(1.00, 0.00, -0.00, -1.00, 237.4, 389.3)">i</text><text xml:space="preserve" font-family="AppleSymbols,Apple Symbols" font-size="46.0" fill="#525252" transform="matrix(1.00, 0.00, -0.00, -1.00, 245.1, 389.3)">s</text><text xml:space="preserve" font-family="AppleSymbols,Apple Symbols" font-size="46.0" fill="#525252" transform="matrix(1.00, 0.00, -0.00, -1.00, 261.7, 389.3)">(</text><text xml:space="preserve" font-family="AppleSymbols,Apple Symbols" font-size="46.0" fill="#525252" transform="matrix(1.00, 0.00, -0.00, -1.00, 276.3, 389.3)">)</text><text xml:space="preserve" font-family="AppleSymbols,Apple Symbols" font-size="46.0" fill="#525252" transform="matrix(1.00, 0.00, -0.00, -1.00, 291.0, 389.3)"> </text><text xml:space="preserve" font-family="AppleSymbols,Apple Symbols" font-size="46.0" fill="#525252" transform="matrix(1.00, 0.00, -0.00, -1.00, 158.0, 342.3)"> </text><text xml:space="preserve" font-family="AppleSymbols,Apple Symbols" font-size="46.0" fill="#525252" transform="matrix(1.00, 0.00, -0.00, -1.00, 173.3, 342.3)"> </text><text xml:space="preserve" font-family="AppleSymbols,Apple Symbols" font-size="46.0" fill="#FF2600" transform="matrix(1.00, 0.00, -0.00, -1.00, 188.6, 342.3)">.</text><text xml:space="preserve" font-family="AppleSymbols,Apple Symbols" font-size="46.0" fill="#FF2600" transform="matrix(1.00, 0.00, -0.00, -1.00, 198.6, 342.3)">t</text><text xml:space="preserve" font-family="AppleSymbols,Apple Symbols" font-size="46.0" fill="#FF2600" transform="matrix(1.00, 0.00, -0.00, -1.00, 213.1, 342.3)">h</text><text xml:space="preserve" font-family="AppleSymbols,Apple Symbols" font-size="46.0" fill="#FF2600" transform="matrix(1.00, 0.00, -0.00, -1.00, 232.1, 342.3)">e</text><text xml:space="preserve" font-family="AppleSymbols,Apple Symbols" font-size="46.0" fill="#FF2600" transform="matrix(1.00, 0.00, -0.00, -1.00, 250.9, 342.3)">n</text><text xml:space="preserve" font-family="AppleSymbols,Apple Symbols" font-size="46.0" fill="#525252" transform="matrix(1.00, 0.00, -0.00, -1.00, 269.9, 342.3)">(</text><text xml:space="preserve" font-family="AppleSymbols,Apple Symbols" font-size="46.0" fill="#525252" transform="matrix(1.00, 0.00, -0.00, -1.00, 284.5, 342.3)">t</text><text xml:space="preserve" font-family="AppleSymbols,Apple Symbols" font-size="46.0" fill="#525252" transform="matrix(1.00, 0.00, -0.00, -1.00, 299.0, 342.3)">h</text><text xml:space="preserve" font-family="AppleSymbols,Apple Symbols" font-size="46.0" fill="#525252" transform="matrix(1.00, 0.00, -0.00, -1.00, 318.1, 342.3)">a</text><text xml:space="preserve" font-family="AppleSymbols,Apple Symbols" font-size="46.0" fill="#525252" transform="matrix(1.00, 0.00, -0.00, -1.00, 336.1, 342.3)">t</text><text xml:space="preserve" font-family="AppleSymbols,Apple Symbols" font-size="46.0" fill="#525252" transform="matrix(1.00, 0.00, -0.00, -1.00, 350.6, 342.3)">)</text><text xml:space="preserve" font-family="AppleSymbols,Apple Symbols" font-size="46.0" fill="#525252" transform="matrix(1.00, 0.00, -0.00, -1.00, 365.2, 342.3)"> </text><text xml:space="preserve" font-family="AppleSymbols,Apple Symbols" font-size="46.0" fill="#525252" transform="matrix(1.00, 0.00, -0.00, -1.00, 158.0, 295.3)"> </text><text xml:space="preserve" font-family="AppleSymbols,Apple Symbols" font-size="46.0" fill="#525252" transform="matrix(1.00, 0.00, -0.00, -1.00, 173.3, 295.3)"> </text><text xml:space="preserve" font-family="AppleSymbols,Apple Symbols" font-size="46.0" fill="#525252" transform="matrix(1.00, 0.00, -0.00, -1.00, 188.6, 295.3)">.</text><text xml:space="preserve" font-family="AppleSymbols,Apple Symbols" font-size="46.0" fill="#525252" transform="matrix(1.00, 0.00, -0.00, -1.00, 198.6, 295.3)">t</text><text xml:space="preserve" font-family="AppleSymbols,Apple Symbols" font-size="46.0" fill="#525252" transform="matrix(1.00, 0.00, -0.00, -1.00, 213.0, 295.3)">h</text><text xml:space="preserve" font-family="AppleSymbols,Apple Symbols" font-size="46.0" fill="#525252" transform="matrix(1.00, 0.00, -0.00, -1.00, 232.1, 295.3)">e</text><text xml:space="preserve" font-family="AppleSymbols,Apple Symbols" font-size="46.0" fill="#525252" transform="matrix(1.00, 0.00, -0.00, -1.00, 250.9, 295.3)">n</text><text xml:space="preserve" font-family="AppleSymbols,Apple Symbols" font-size="46.0" fill="#525252" transform="matrix(1.00, 0.00, -0.00, -1.00, 269.9, 295.3)">(</text><text xml:space="preserve" font-family="AppleSymbols,Apple Symbols" font-size="46.0" fill="#525252" transform="matrix(1.00, 0.00, -0.00, -1.00, 284.5, 295.3)">a</text><text xml:space="preserve" font-family="AppleSymbols,Apple Symbols" font-size="46.0" fill="#525252" transform="matrix(1.00, 0.00, -0.00, -1.00, 302.6, 295.3)">n</text><text xml:space="preserve" font-family="AppleSymbols,Apple Symbols" font-size="46.0" fill="#525252" transform="matrix(1.00, 0.00, -0.00, -1.00, 321.6, 295.3)">o</text><text xml:space="preserve" font-family="AppleSymbols,Apple Symbols" font-size="46.0" fill="#525252" transform="matrix(1.00, 0.00, -0.00, -1.00, 341.4, 295.3)">t</text><text xml:space="preserve" font-family="AppleSymbols,Apple Symbols" font-size="46.0" fill="#525252" transform="matrix(1.00, 0.00, -0.00, -1.00, 355.9, 295.3)">h</text><text xml:space="preserve" font-family="AppleSymbols,Apple Symbols" font-size="46.0" fill="#525252" transform="matrix(1.00, 0.00, -0.00, -1.00, 375.0, 295.3)">e</text><text xml:space="preserve" font-family="AppleSymbols,Apple Symbols" font-size="46.0" fill="#525252" transform="matrix(1.00, 0.00, -0.00, -1.00, 393.8, 295.3)">r</text><text xml:space="preserve" font-family="AppleSymbols,Apple Symbols" font-size="46.0" fill="#525252" transform="matrix(1.00, 0.00, -0.00, -1.00, 406.4, 295.3)">T</text><text xml:space="preserve" font-family="AppleSymbols,Apple Symbols" font-size="46.0" fill="#525252" transform="matrix(1.00, 0.00, -0.00, -1.00, 427.3, 295.3)">h</text><text xml:space="preserve" font-family="AppleSymbols,Apple Symbols" font-size="46.0" fill="#525252" transform="matrix(1.00, 0.00, -0.00, -1.00, 446.3, 295.3)">i</text><text xml:space="preserve" font-family="AppleSymbols,Apple Symbols" font-size="46.0" fill="#525252" transform="matrix(1.00, 0.00, -0.00, -1.00, 454.0, 295.3)">n</text><text xml:space="preserve" font-family="AppleSymbols,Apple Symbols" font-size="46.0" fill="#525252" transform="matrix(1.00, 0.00, -0.00, -1.00, 473.1, 295.3)">g</text><text xml:space="preserve" font-family="AppleSymbols,Apple Symbols" font-size="46.0" fill="#525252" transform="matrix(1.00, 0.00, -0.00, -1.00, 493.0, 295.3)">)</text><text xml:space="preserve" font-family="AppleSymbols,Apple Symbols" font-size="46.0" fill="#525252" transform="matrix(1.00, 0.00, -0.00, -1.00, 507.6, 295.3)"> </text><text xml:space="preserve" font-family="AppleSymbols,Apple Symbols" font-size="46.0" fill="#525252" transform="matrix(1.00, 0.00, -0.00, -1.00, 158.0, 248.3)"> </text><text xml:space="preserve" font-family="AppleSymbols,Apple Symbols" font-size="46.0" fill="#525252" transform="matrix(1.00, 0.00, -0.00, -1.00, 173.3, 248.3)"> </text><text xml:space="preserve" font-family="AppleSymbols,Apple Symbols" font-size="46.0" fill="#525252" transform="matrix(1.00, 0.00, -0.00, -1.00, 188.6, 248.3)">.</text><text xml:space="preserve" font-family="AppleSymbols,Apple Symbols" font-size="46.0" fill="#525252" transform="matrix(1.00, 0.00, -0.00, -1.00, 198.6, 248.3)">t</text><text xml:space="preserve" font-family="AppleSymbols,Apple Symbols" font-size="46.0" fill="#525252" transform="matrix(1.00, 0.00, -0.00, -1.00, 213.0, 248.3)">h</text><text xml:space="preserve" font-family="AppleSymbols,Apple Symbols" font-size="46.0" fill="#525252" transform="matrix(1.00, 0.00, -0.00, -1.00, 232.1, 248.3)">e</text><text xml:space="preserve" font-family="AppleSymbols,Apple Symbols" font-size="46.0" fill="#525252" transform="matrix(1.00, 0.00, -0.00, -1.00, 250.9, 248.3)">n</text><text xml:space="preserve" font-family="AppleSymbols,Apple Symbols" font-size="46.0" fill="#525252" transform="matrix(1.00, 0.00, -0.00, -1.00, 269.9, 248.3)">(</text><text xml:space="preserve" font-family="AppleSymbols,Apple Symbols" font-size="46.0" fill="#525252" transform="matrix(1.00, 0.00, -0.00, -1.00, 284.5, 248.3)">s</text><text xml:space="preserve" font-family="AppleSymbols,Apple Symbols" font-size="46.0" fill="#525252" transform="matrix(1.00, 0.00, -0.00, -1.00, 301.2, 248.3)">o</text><text xml:space="preserve" font-family="AppleSymbols,Apple Symbols" font-size="46.0" fill="#525252" transform="matrix(1.00, 0.00, -0.00, -1.00, 321.0, 248.3)">m</text><text xml:space="preserve" font-family="AppleSymbols,Apple Symbols" font-size="46.0" fill="#525252" transform="matrix(1.00, 0.00, -0.00, -1.00, 350.2, 248.3)">e</text><text xml:space="preserve" font-family="AppleSymbols,Apple Symbols" font-size="46.0" fill="#525252" transform="matrix(1.00, 0.00, -0.00, -1.00, 369.0, 248.3)">t</text><text xml:space="preserve" font-family="AppleSymbols,Apple Symbols" font-size="46.0" fill="#525252" transform="matrix(1.00, 0.00, -0.00, -1.00, 383.4, 248.3)">h</text><text xml:space="preserve" font-family="AppleSymbols,Apple Symbols" font-size="46.0" fill="#525252" transform="matrix(1.00, 0.00, -0.00, -1.00, 402.5, 248.3)">i</text><text xml:space="preserve" font-family="AppleSymbols,Apple Symbols" font-size="46.0" fill="#525252" transform="matrix(1.00, 0.00, -0.00, -1.00, 410.2, 248.3)">n</text><text xml:space="preserve" font-family="AppleSymbols,Apple Symbols" font-size="46.0" fill="#525252" transform="matrix(1.00, 0.00, -0.00, -1.00, 429.2, 248.3)">g</text><text xml:space="preserve" font-family="AppleSymbols,Apple Symbols" font-size="46.0" fill="#525252" transform="matrix(1.00, 0.00, -0.00, -1.00, 449.1, 248.3)">E</text><text xml:space="preserve" font-family="AppleSymbols,Apple Symbols" font-size="46.0" fill="#525252" transform="matrix(1.00, 0.00, -0.00, -1.00, 467.9, 248.3)">l</text><text xml:space="preserve" font-family="AppleSymbols,Apple Symbols" font-size="46.0" fill="#525252" transform="matrix(1.00, 0.00, -0.00, -1.00, 475.6, 248.3)">s</text><text xml:space="preserve" font-family="AppleSymbols,Apple Symbols" font-size="46.0" fill="#525252" transform="matrix(1.00, 0.00, -0.00, -1.00, 492.2, 248.3)">e</text><text xml:space="preserve" font-family="AppleSymbols,Apple Symbols" font-size="46.0" fill="#525252" transform="matrix(1.00, 0.00, -0.00, -1.00, 511.0, 248.3)">)</text><text xml:space="preserve" font-family="AppleSymbols,Apple Symbols" font-size="46.0" fill="#525252" transform="matrix(1.00, 0.00, -0.00, -1.00, 525.7, 248.3)"> </text><text xml:space="preserve" font-family="AppleSymbols,Apple Symbols" font-size="46.0" fill="#525252" transform="matrix(1.00, 0.00, -0.00, -1.00, 158.0, 201.3)"> </text><text xml:space="preserve" font-family="AppleSymbols,Apple Symbols" font-size="46.0" fill="#525252" transform="matrix(1.00, 0.00, -0.00, -1.00, 173.3, 201.3)"> </text><text xml:space="preserve" font-family="AppleSymbols,Apple Symbols" font-size="46.0" fill="#525252" transform="matrix(1.00, 0.00, -0.00, -1.00, 188.6, 201.3)">.</text><text xml:space="preserve" font-family="AppleSymbols,Apple Symbols" font-size="46.0" fill="#525252" transform="matrix(1.00, 0.00, -0.00, -1.00, 198.6, 201.3)">t</text><text xml:space="preserve" font-family="AppleSymbols,Apple Symbols" font-size="46.0" fill="#525252" transform="matrix(1.00, 0.00, -0.00, -1.00, 213.0, 201.3)">h</text><text xml:space="preserve" font-family="AppleSymbols,Apple Symbols" font-size="46.0" fill="#525252" transform="matrix(1.00, 0.00, -0.00, -1.00, 232.1, 201.3)">e</text><text xml:space="preserve" font-family="AppleSymbols,Apple Symbols" font-size="46.0" fill="#525252" transform="matrix(1.00, 0.00, -0.00, -1.00, 250.9, 201.3)">n</text><text xml:space="preserve" font-family="AppleSymbols,Apple Symbols" font-size="46.0" fill="#525252" transform="matrix(1.00, 0.00, -0.00, -1.00, 269.9, 201.3)">(</text><text xml:space="preserve" font-family="AppleSymbols,Apple Symbols" font-size="46.0" fill="#525252" transform="matrix(1.00, 0.00, -0.00, -1.00, 284.5, 201.3)">a</text><text xml:space="preserve" font-family="AppleSymbols,Apple Symbols" font-size="46.0" fill="#525252" transform="matrix(1.00, 0.00, -0.00, -1.00, 302.6, 201.3)">n</text><text xml:space="preserve" font-family="AppleSymbols,Apple Symbols" font-size="46.0" fill="#525252" transform="matrix(1.00, 0.00, -0.00, -1.00, 321.6, 201.3)">d</text><text xml:space="preserve" font-family="AppleSymbols,Apple Symbols" font-size="46.0" fill="#525252" transform="matrix(1.00, 0.00, -0.00, -1.00, 341.3, 201.3)">L</text><text xml:space="preserve" font-family="AppleSymbols,Apple Symbols" font-size="46.0" fill="#525252" transform="matrix(1.00, 0.00, -0.00, -1.00, 360.4, 201.3)">a</text><text xml:space="preserve" font-family="AppleSymbols,Apple Symbols" font-size="46.0" fill="#525252" transform="matrix(1.00, 0.00, -0.00, -1.00, 378.4, 201.3)">s</text><text xml:space="preserve" font-family="AppleSymbols,Apple Symbols" font-size="46.0" fill="#525252" transform="matrix(1.00, 0.00, -0.00, -1.00, 395.0, 201.3)">t</text><text xml:space="preserve" font-family="AppleSymbols,Apple Symbols" font-size="46.0" fill="#525252" transform="matrix(1.00, 0.00, -0.00, -1.00, 409.5, 201.3)">l</text><text xml:space="preserve" font-family="AppleSymbols,Apple Symbols" font-size="46.0" fill="#525252" transform="matrix(1.00, 0.00, -0.00, -1.00, 417.2, 201.3)">y</text><text xml:space="preserve" font-family="AppleSymbols,Apple Symbols" font-size="46.0" fill="#525252" transform="matrix(1.00, 0.00, -0.00, -1.00, 435.8, 201.3)">)</text></g></svg>